G04 MADE WITH FRITZING*
G04 WWW.FRITZING.ORG*
G04 DOUBLE SIDED*
G04 HOLES PLATED*
G04 CONTOUR ON CENTER OF CONTOUR VECTOR*
%FSLAX26Y26*%
%MOIN*%
%ADD10C,0.075000*%
%ADD11C,0.362204*%
%ADD12C,0.067559*%
%ADD13C,0.083307*%
%ADD14C,0.078000*%
%ADD15R,0.118110X0.118110*%
%ADD16C,0.060000*%
%ADD17C,0.032000*%
%ADD18C,0.000100*%
%G04COPPER1*%
%FSLAX26Y26*%
%MOIN*%
D10*
X518228Y2481151D03*
D11*
X1812860Y1921872D03*
X1812860Y740780D03*
D12*
X1182940Y1646286D03*
X1182940Y1567550D03*
X1182940Y1488810D03*
X1182940Y1410070D03*
X1182940Y1331320D03*
X1182940Y1252580D03*
X1182940Y1173840D03*
X1182940Y1095100D03*
X1182940Y1016360D03*
X1378910Y1649019D03*
X1378910Y1570280D03*
X1378910Y1491540D03*
X1378910Y1412800D03*
X1378910Y1334060D03*
X1378910Y1255320D03*
X1378910Y1176580D03*
X1378910Y1097840D03*
X1378910Y1019100D03*
D13*
X1222310Y2079352D03*
X1222310Y2315574D03*
D14*
X276552Y2042719D03*
X276552Y1842719D03*
X276552Y1609641D03*
X276552Y1409640D03*
X276552Y2475786D03*
X276552Y2275786D03*
X276552Y310430D03*
X276552Y110430D03*
X276552Y1176570D03*
X276552Y976570D03*
X276552Y743500D03*
X276552Y543500D03*
D15*
X1222305Y2197464D03*
D16*
X356349Y2473019D02*
X295541Y2475130D01*
D02*
X1180500Y1769063D02*
X356349Y2473022D01*
D02*
X1182660Y1660062D02*
X1180490Y1769057D01*
D02*
X1169160Y1567940D02*
X1140430Y1568750D01*
D02*
X1140430Y1568740D02*
X550939Y2043770D01*
D02*
X550939Y2043774D02*
X295552Y2042791D01*
D17*
D02*
X289917Y1190080D02*
X591002Y1494340D01*
D02*
X591002Y1494340D02*
X1169160Y1488930D01*
D02*
X356349Y784650D02*
X671128Y1173840D01*
D02*
X289749Y757170D02*
X316287Y784650D01*
D02*
X316287Y784650D02*
X356349Y784650D01*
D02*
X671128Y1173840D02*
X1169160Y1173840D01*
D02*
X156036Y429820D02*
X156036Y824720D01*
D02*
X156036Y824730D02*
X196098Y859060D01*
D02*
X263054Y323800D02*
X156036Y429820D01*
D02*
X196098Y859060D02*
X316286Y859060D01*
D02*
X316286Y859050D02*
X631066Y1253960D01*
D02*
X631066Y1253960D02*
X1169160Y1252620D01*
D18*
G36*
X1802000Y1964430D02*
X1802000Y1962430D01*
X1796000Y1962430D01*
X1796000Y1960430D01*
X1792000Y1960430D01*
X1792000Y1958430D01*
X1788000Y1958430D01*
X1788000Y1956430D01*
X1786000Y1956430D01*
X1786000Y1954430D01*
X1784000Y1954430D01*
X1784000Y1952430D01*
X1782000Y1952430D01*
X1782000Y1950430D01*
X1780000Y1950430D01*
X1780000Y1948430D01*
X1778000Y1948430D01*
X1778000Y1946430D01*
X1776000Y1946430D01*
X1776000Y1942430D01*
X1774000Y1942430D01*
X1774000Y1938430D01*
X1772000Y1938430D01*
X1772000Y1932430D01*
X1770000Y1932430D01*
X1770000Y1912430D01*
X1772000Y1912430D01*
X1772000Y1906430D01*
X1774000Y1906430D01*
X1774000Y1900430D01*
X1776000Y1900430D01*
X1776000Y1898430D01*
X1778000Y1898430D01*
X1778000Y1894430D01*
X1780000Y1894430D01*
X1780000Y1892430D01*
X1782000Y1892430D01*
X1782000Y1890430D01*
X1784000Y1890430D01*
X1784000Y1888430D01*
X1788000Y1888430D01*
X1788000Y1886430D01*
X1790000Y1886430D01*
X1790000Y1884430D01*
X1794000Y1884430D01*
X1794000Y1882430D01*
X1798000Y1882430D01*
X1798000Y1880430D01*
X1828000Y1880430D01*
X1828000Y1882430D01*
X1832000Y1882430D01*
X1832000Y1884430D01*
X1836000Y1884430D01*
X1836000Y1886430D01*
X1838000Y1886430D01*
X1838000Y1888430D01*
X1842000Y1888430D01*
X1842000Y1890430D01*
X1844000Y1890430D01*
X1844000Y1892430D01*
X1846000Y1892430D01*
X1846000Y1896430D01*
X1848000Y1896430D01*
X1848000Y1898430D01*
X1850000Y1898430D01*
X1850000Y1902430D01*
X1852000Y1902430D01*
X1852000Y1906430D01*
X1854000Y1906430D01*
X1854000Y1936430D01*
X1852000Y1936430D01*
X1852000Y1942430D01*
X1850000Y1942430D01*
X1850000Y1944430D01*
X1848000Y1944430D01*
X1848000Y1948430D01*
X1846000Y1948430D01*
X1846000Y1950430D01*
X1844000Y1950430D01*
X1844000Y1952430D01*
X1842000Y1952430D01*
X1842000Y1954430D01*
X1840000Y1954430D01*
X1840000Y1956430D01*
X1836000Y1956430D01*
X1836000Y1958430D01*
X1834000Y1958430D01*
X1834000Y1960430D01*
X1830000Y1960430D01*
X1830000Y1962430D01*
X1824000Y1962430D01*
X1824000Y1964430D01*
X1802000Y1964430D01*
G37*
D02*
G36*
X40000Y2558430D02*
X40000Y2534430D01*
X288000Y2534430D01*
X288000Y2532430D01*
X296000Y2532430D01*
X296000Y2530430D01*
X300000Y2530430D01*
X300000Y2528430D01*
X304000Y2528430D01*
X304000Y2526430D01*
X308000Y2526430D01*
X308000Y2524430D01*
X346000Y2524430D01*
X346000Y2522430D01*
X368000Y2522430D01*
X368000Y2520430D01*
X374000Y2520430D01*
X374000Y2518430D01*
X380000Y2518430D01*
X380000Y2516430D01*
X382000Y2516430D01*
X382000Y2514430D01*
X386000Y2514430D01*
X386000Y2512430D01*
X388000Y2512430D01*
X388000Y2510430D01*
X390000Y2510430D01*
X390000Y2508430D01*
X394000Y2508430D01*
X394000Y2506430D01*
X396000Y2506430D01*
X396000Y2504430D01*
X398000Y2504430D01*
X398000Y2502430D01*
X400000Y2502430D01*
X400000Y2500430D01*
X402000Y2500430D01*
X402000Y2498430D01*
X404000Y2498430D01*
X404000Y2496430D01*
X408000Y2496430D01*
X408000Y2494430D01*
X410000Y2494430D01*
X410000Y2492430D01*
X412000Y2492430D01*
X412000Y2490430D01*
X414000Y2490430D01*
X414000Y2488430D01*
X416000Y2488430D01*
X416000Y2486430D01*
X418000Y2486430D01*
X418000Y2484430D01*
X422000Y2484430D01*
X422000Y2482430D01*
X424000Y2482430D01*
X424000Y2480430D01*
X426000Y2480430D01*
X426000Y2478430D01*
X428000Y2478430D01*
X428000Y2476430D01*
X430000Y2476430D01*
X430000Y2474430D01*
X432000Y2474430D01*
X432000Y2472430D01*
X436000Y2472430D01*
X436000Y2470430D01*
X438000Y2470430D01*
X438000Y2468430D01*
X440000Y2468430D01*
X440000Y2466430D01*
X442000Y2466430D01*
X442000Y2464430D01*
X444000Y2464430D01*
X444000Y2462430D01*
X446000Y2462430D01*
X446000Y2460430D01*
X450000Y2460430D01*
X450000Y2458430D01*
X452000Y2458430D01*
X452000Y2456430D01*
X454000Y2456430D01*
X454000Y2454430D01*
X456000Y2454430D01*
X456000Y2452430D01*
X458000Y2452430D01*
X458000Y2450430D01*
X460000Y2450430D01*
X460000Y2448430D01*
X464000Y2448430D01*
X464000Y2446430D01*
X466000Y2446430D01*
X466000Y2444430D01*
X468000Y2444430D01*
X468000Y2442430D01*
X470000Y2442430D01*
X470000Y2440430D01*
X472000Y2440430D01*
X472000Y2438430D01*
X476000Y2438430D01*
X476000Y2436430D01*
X478000Y2436430D01*
X478000Y2434430D01*
X480000Y2434430D01*
X480000Y2432430D01*
X482000Y2432430D01*
X482000Y2430430D01*
X484000Y2430430D01*
X484000Y2428430D01*
X486000Y2428430D01*
X486000Y2426430D01*
X490000Y2426430D01*
X490000Y2424430D01*
X492000Y2424430D01*
X492000Y2422430D01*
X494000Y2422430D01*
X494000Y2420430D01*
X496000Y2420430D01*
X496000Y2418430D01*
X498000Y2418430D01*
X498000Y2416430D01*
X500000Y2416430D01*
X500000Y2414430D01*
X504000Y2414430D01*
X504000Y2412430D01*
X506000Y2412430D01*
X506000Y2410430D01*
X508000Y2410430D01*
X508000Y2408430D01*
X510000Y2408430D01*
X510000Y2406430D01*
X512000Y2406430D01*
X512000Y2404430D01*
X514000Y2404430D01*
X514000Y2402430D01*
X518000Y2402430D01*
X518000Y2400430D01*
X520000Y2400430D01*
X520000Y2398430D01*
X522000Y2398430D01*
X522000Y2396430D01*
X524000Y2396430D01*
X524000Y2394430D01*
X526000Y2394430D01*
X526000Y2392430D01*
X528000Y2392430D01*
X528000Y2390430D01*
X532000Y2390430D01*
X532000Y2388430D01*
X534000Y2388430D01*
X534000Y2386430D01*
X536000Y2386430D01*
X536000Y2384430D01*
X538000Y2384430D01*
X538000Y2382430D01*
X540000Y2382430D01*
X540000Y2380430D01*
X542000Y2380430D01*
X542000Y2378430D01*
X546000Y2378430D01*
X546000Y2376430D01*
X1236000Y2376430D01*
X1236000Y2374430D01*
X1244000Y2374430D01*
X1244000Y2372430D01*
X1248000Y2372430D01*
X1248000Y2370430D01*
X1252000Y2370430D01*
X1252000Y2368430D01*
X1256000Y2368430D01*
X1256000Y2366430D01*
X1258000Y2366430D01*
X1258000Y2364430D01*
X1260000Y2364430D01*
X1260000Y2362430D01*
X1264000Y2362430D01*
X1264000Y2360430D01*
X1266000Y2360430D01*
X1266000Y2358430D01*
X1268000Y2358430D01*
X1268000Y2356430D01*
X1270000Y2356430D01*
X1270000Y2352430D01*
X1272000Y2352430D01*
X1272000Y2350430D01*
X1274000Y2350430D01*
X1274000Y2346430D01*
X1276000Y2346430D01*
X1276000Y2344430D01*
X1278000Y2344430D01*
X1278000Y2340430D01*
X1280000Y2340430D01*
X1280000Y2334430D01*
X1282000Y2334430D01*
X1282000Y2324430D01*
X1284000Y2324430D01*
X1284000Y2306430D01*
X1282000Y2306430D01*
X1282000Y2296430D01*
X1280000Y2296430D01*
X1280000Y2276430D01*
X1302000Y2276430D01*
X1302000Y2122430D01*
X1838000Y2122430D01*
X1838000Y2120430D01*
X1850000Y2120430D01*
X1850000Y2118430D01*
X1860000Y2118430D01*
X1860000Y2116430D01*
X1868000Y2116430D01*
X1868000Y2114430D01*
X1874000Y2114430D01*
X1874000Y2112430D01*
X1880000Y2112430D01*
X1880000Y2110430D01*
X1884000Y2110430D01*
X1884000Y2108430D01*
X1890000Y2108430D01*
X1890000Y2106430D01*
X1894000Y2106430D01*
X1894000Y2104430D01*
X1898000Y2104430D01*
X1898000Y2102430D01*
X1902000Y2102430D01*
X1902000Y2100430D01*
X1908000Y2100430D01*
X1908000Y2098430D01*
X1910000Y2098430D01*
X1910000Y2096430D01*
X1914000Y2096430D01*
X1914000Y2094430D01*
X1918000Y2094430D01*
X1918000Y2092430D01*
X1920000Y2092430D01*
X1920000Y2090430D01*
X1924000Y2090430D01*
X1924000Y2088430D01*
X1926000Y2088430D01*
X1926000Y2086430D01*
X1930000Y2086430D01*
X1930000Y2084430D01*
X1932000Y2084430D01*
X1932000Y2082430D01*
X1934000Y2082430D01*
X1934000Y2080430D01*
X1938000Y2080430D01*
X1938000Y2078430D01*
X1940000Y2078430D01*
X1940000Y2076430D01*
X1942000Y2076430D01*
X1942000Y2074430D01*
X1944000Y2074430D01*
X1944000Y2072430D01*
X1946000Y2072430D01*
X1946000Y2070430D01*
X1966000Y2070430D01*
X1966000Y2558430D01*
X40000Y2558430D01*
G37*
D02*
G36*
X40000Y2534430D02*
X40000Y2416430D01*
X270000Y2416430D01*
X270000Y2418430D01*
X260000Y2418430D01*
X260000Y2420430D01*
X254000Y2420430D01*
X254000Y2422430D01*
X250000Y2422430D01*
X250000Y2424430D01*
X246000Y2424430D01*
X246000Y2426430D01*
X244000Y2426430D01*
X244000Y2428430D01*
X240000Y2428430D01*
X240000Y2430430D01*
X238000Y2430430D01*
X238000Y2432430D01*
X236000Y2432430D01*
X236000Y2434430D01*
X234000Y2434430D01*
X234000Y2436430D01*
X232000Y2436430D01*
X232000Y2438430D01*
X230000Y2438430D01*
X230000Y2440430D01*
X228000Y2440430D01*
X228000Y2444430D01*
X226000Y2444430D01*
X226000Y2446430D01*
X224000Y2446430D01*
X224000Y2450430D01*
X222000Y2450430D01*
X222000Y2456430D01*
X220000Y2456430D01*
X220000Y2464430D01*
X218000Y2464430D01*
X218000Y2488430D01*
X220000Y2488430D01*
X220000Y2494430D01*
X222000Y2494430D01*
X222000Y2500430D01*
X224000Y2500430D01*
X224000Y2504430D01*
X226000Y2504430D01*
X226000Y2508430D01*
X228000Y2508430D01*
X228000Y2510430D01*
X230000Y2510430D01*
X230000Y2512430D01*
X232000Y2512430D01*
X232000Y2514430D01*
X234000Y2514430D01*
X234000Y2518430D01*
X238000Y2518430D01*
X238000Y2520430D01*
X240000Y2520430D01*
X240000Y2522430D01*
X242000Y2522430D01*
X242000Y2524430D01*
X244000Y2524430D01*
X244000Y2526430D01*
X248000Y2526430D01*
X248000Y2528430D01*
X252000Y2528430D01*
X252000Y2530430D01*
X258000Y2530430D01*
X258000Y2532430D01*
X264000Y2532430D01*
X264000Y2534430D01*
X40000Y2534430D01*
G37*
D02*
G36*
X304000Y2424430D02*
X304000Y2422430D01*
X300000Y2422430D01*
X300000Y2420430D01*
X294000Y2420430D01*
X294000Y2418430D01*
X284000Y2418430D01*
X284000Y2416430D01*
X344000Y2416430D01*
X344000Y2418430D01*
X342000Y2418430D01*
X342000Y2420430D01*
X340000Y2420430D01*
X340000Y2422430D01*
X338000Y2422430D01*
X338000Y2424430D01*
X304000Y2424430D01*
G37*
D02*
G36*
X40000Y2416430D02*
X40000Y2414430D01*
X346000Y2414430D01*
X346000Y2416430D01*
X40000Y2416430D01*
G37*
D02*
G36*
X40000Y2416430D02*
X40000Y2414430D01*
X346000Y2414430D01*
X346000Y2416430D01*
X40000Y2416430D01*
G37*
D02*
G36*
X40000Y2414430D02*
X40000Y2334430D01*
X288000Y2334430D01*
X288000Y2332430D01*
X296000Y2332430D01*
X296000Y2330430D01*
X300000Y2330430D01*
X300000Y2328430D01*
X304000Y2328430D01*
X304000Y2326430D01*
X308000Y2326430D01*
X308000Y2324430D01*
X310000Y2324430D01*
X310000Y2322430D01*
X314000Y2322430D01*
X314000Y2320430D01*
X316000Y2320430D01*
X316000Y2318430D01*
X318000Y2318430D01*
X318000Y2316430D01*
X320000Y2316430D01*
X320000Y2314430D01*
X322000Y2314430D01*
X322000Y2312430D01*
X324000Y2312430D01*
X324000Y2308430D01*
X326000Y2308430D01*
X326000Y2306430D01*
X328000Y2306430D01*
X328000Y2302430D01*
X330000Y2302430D01*
X330000Y2298430D01*
X332000Y2298430D01*
X332000Y2292430D01*
X334000Y2292430D01*
X334000Y2282430D01*
X336000Y2282430D01*
X336000Y2268430D01*
X334000Y2268430D01*
X334000Y2258430D01*
X332000Y2258430D01*
X332000Y2252430D01*
X330000Y2252430D01*
X330000Y2248430D01*
X328000Y2248430D01*
X328000Y2246430D01*
X326000Y2246430D01*
X326000Y2242430D01*
X324000Y2242430D01*
X324000Y2240430D01*
X322000Y2240430D01*
X322000Y2238430D01*
X320000Y2238430D01*
X320000Y2234430D01*
X318000Y2234430D01*
X318000Y2232430D01*
X316000Y2232430D01*
X316000Y2230430D01*
X312000Y2230430D01*
X312000Y2228430D01*
X310000Y2228430D01*
X310000Y2226430D01*
X306000Y2226430D01*
X306000Y2224430D01*
X304000Y2224430D01*
X304000Y2222430D01*
X300000Y2222430D01*
X300000Y2220430D01*
X294000Y2220430D01*
X294000Y2218430D01*
X284000Y2218430D01*
X284000Y2216430D01*
X578000Y2216430D01*
X578000Y2218430D01*
X576000Y2218430D01*
X576000Y2220430D01*
X574000Y2220430D01*
X574000Y2222430D01*
X572000Y2222430D01*
X572000Y2224430D01*
X570000Y2224430D01*
X570000Y2226430D01*
X566000Y2226430D01*
X566000Y2228430D01*
X564000Y2228430D01*
X564000Y2230430D01*
X562000Y2230430D01*
X562000Y2232430D01*
X560000Y2232430D01*
X560000Y2234430D01*
X558000Y2234430D01*
X558000Y2236430D01*
X556000Y2236430D01*
X556000Y2238430D01*
X552000Y2238430D01*
X552000Y2240430D01*
X550000Y2240430D01*
X550000Y2242430D01*
X548000Y2242430D01*
X548000Y2244430D01*
X546000Y2244430D01*
X546000Y2246430D01*
X544000Y2246430D01*
X544000Y2248430D01*
X542000Y2248430D01*
X542000Y2250430D01*
X538000Y2250430D01*
X538000Y2252430D01*
X536000Y2252430D01*
X536000Y2254430D01*
X534000Y2254430D01*
X534000Y2256430D01*
X532000Y2256430D01*
X532000Y2258430D01*
X530000Y2258430D01*
X530000Y2260430D01*
X528000Y2260430D01*
X528000Y2262430D01*
X524000Y2262430D01*
X524000Y2264430D01*
X522000Y2264430D01*
X522000Y2266430D01*
X520000Y2266430D01*
X520000Y2268430D01*
X518000Y2268430D01*
X518000Y2270430D01*
X516000Y2270430D01*
X516000Y2272430D01*
X514000Y2272430D01*
X514000Y2274430D01*
X510000Y2274430D01*
X510000Y2276430D01*
X508000Y2276430D01*
X508000Y2278430D01*
X506000Y2278430D01*
X506000Y2280430D01*
X504000Y2280430D01*
X504000Y2282430D01*
X502000Y2282430D01*
X502000Y2284430D01*
X498000Y2284430D01*
X498000Y2286430D01*
X496000Y2286430D01*
X496000Y2288430D01*
X494000Y2288430D01*
X494000Y2290430D01*
X492000Y2290430D01*
X492000Y2292430D01*
X490000Y2292430D01*
X490000Y2294430D01*
X488000Y2294430D01*
X488000Y2296430D01*
X484000Y2296430D01*
X484000Y2298430D01*
X482000Y2298430D01*
X482000Y2300430D01*
X480000Y2300430D01*
X480000Y2302430D01*
X478000Y2302430D01*
X478000Y2304430D01*
X476000Y2304430D01*
X476000Y2306430D01*
X474000Y2306430D01*
X474000Y2308430D01*
X470000Y2308430D01*
X470000Y2310430D01*
X468000Y2310430D01*
X468000Y2312430D01*
X466000Y2312430D01*
X466000Y2314430D01*
X464000Y2314430D01*
X464000Y2316430D01*
X462000Y2316430D01*
X462000Y2318430D01*
X460000Y2318430D01*
X460000Y2320430D01*
X456000Y2320430D01*
X456000Y2322430D01*
X454000Y2322430D01*
X454000Y2324430D01*
X452000Y2324430D01*
X452000Y2326430D01*
X450000Y2326430D01*
X450000Y2328430D01*
X448000Y2328430D01*
X448000Y2330430D01*
X446000Y2330430D01*
X446000Y2332430D01*
X442000Y2332430D01*
X442000Y2334430D01*
X440000Y2334430D01*
X440000Y2336430D01*
X438000Y2336430D01*
X438000Y2338430D01*
X436000Y2338430D01*
X436000Y2340430D01*
X434000Y2340430D01*
X434000Y2342430D01*
X432000Y2342430D01*
X432000Y2344430D01*
X428000Y2344430D01*
X428000Y2346430D01*
X426000Y2346430D01*
X426000Y2348430D01*
X424000Y2348430D01*
X424000Y2350430D01*
X422000Y2350430D01*
X422000Y2352430D01*
X420000Y2352430D01*
X420000Y2354430D01*
X418000Y2354430D01*
X418000Y2356430D01*
X414000Y2356430D01*
X414000Y2358430D01*
X412000Y2358430D01*
X412000Y2360430D01*
X410000Y2360430D01*
X410000Y2362430D01*
X408000Y2362430D01*
X408000Y2364430D01*
X406000Y2364430D01*
X406000Y2366430D01*
X402000Y2366430D01*
X402000Y2368430D01*
X400000Y2368430D01*
X400000Y2370430D01*
X398000Y2370430D01*
X398000Y2372430D01*
X396000Y2372430D01*
X396000Y2374430D01*
X394000Y2374430D01*
X394000Y2376430D01*
X392000Y2376430D01*
X392000Y2378430D01*
X388000Y2378430D01*
X388000Y2380430D01*
X386000Y2380430D01*
X386000Y2382430D01*
X384000Y2382430D01*
X384000Y2384430D01*
X382000Y2384430D01*
X382000Y2386430D01*
X380000Y2386430D01*
X380000Y2388430D01*
X378000Y2388430D01*
X378000Y2390430D01*
X374000Y2390430D01*
X374000Y2392430D01*
X372000Y2392430D01*
X372000Y2394430D01*
X370000Y2394430D01*
X370000Y2396430D01*
X368000Y2396430D01*
X368000Y2398430D01*
X366000Y2398430D01*
X366000Y2400430D01*
X364000Y2400430D01*
X364000Y2402430D01*
X360000Y2402430D01*
X360000Y2404430D01*
X358000Y2404430D01*
X358000Y2406430D01*
X356000Y2406430D01*
X356000Y2408430D01*
X354000Y2408430D01*
X354000Y2410430D01*
X352000Y2410430D01*
X352000Y2412430D01*
X350000Y2412430D01*
X350000Y2414430D01*
X40000Y2414430D01*
G37*
D02*
G36*
X548000Y2376430D02*
X548000Y2374430D01*
X550000Y2374430D01*
X550000Y2372430D01*
X552000Y2372430D01*
X552000Y2370430D01*
X554000Y2370430D01*
X554000Y2368430D01*
X556000Y2368430D01*
X556000Y2366430D01*
X560000Y2366430D01*
X560000Y2364430D01*
X562000Y2364430D01*
X562000Y2362430D01*
X564000Y2362430D01*
X564000Y2360430D01*
X566000Y2360430D01*
X566000Y2358430D01*
X568000Y2358430D01*
X568000Y2356430D01*
X572000Y2356430D01*
X572000Y2354430D01*
X574000Y2354430D01*
X574000Y2352430D01*
X576000Y2352430D01*
X576000Y2350430D01*
X578000Y2350430D01*
X578000Y2348430D01*
X580000Y2348430D01*
X580000Y2346430D01*
X582000Y2346430D01*
X582000Y2344430D01*
X586000Y2344430D01*
X586000Y2342430D01*
X588000Y2342430D01*
X588000Y2340430D01*
X590000Y2340430D01*
X590000Y2338430D01*
X592000Y2338430D01*
X592000Y2336430D01*
X594000Y2336430D01*
X594000Y2334430D01*
X596000Y2334430D01*
X596000Y2332430D01*
X600000Y2332430D01*
X600000Y2330430D01*
X602000Y2330430D01*
X602000Y2328430D01*
X604000Y2328430D01*
X604000Y2326430D01*
X606000Y2326430D01*
X606000Y2324430D01*
X608000Y2324430D01*
X608000Y2322430D01*
X610000Y2322430D01*
X610000Y2320430D01*
X614000Y2320430D01*
X614000Y2318430D01*
X616000Y2318430D01*
X616000Y2316430D01*
X618000Y2316430D01*
X618000Y2314430D01*
X620000Y2314430D01*
X620000Y2312430D01*
X622000Y2312430D01*
X622000Y2310430D01*
X624000Y2310430D01*
X624000Y2308430D01*
X628000Y2308430D01*
X628000Y2306430D01*
X630000Y2306430D01*
X630000Y2304430D01*
X632000Y2304430D01*
X632000Y2302430D01*
X634000Y2302430D01*
X634000Y2300430D01*
X636000Y2300430D01*
X636000Y2298430D01*
X638000Y2298430D01*
X638000Y2296430D01*
X642000Y2296430D01*
X642000Y2294430D01*
X644000Y2294430D01*
X644000Y2292430D01*
X646000Y2292430D01*
X646000Y2290430D01*
X648000Y2290430D01*
X648000Y2288430D01*
X650000Y2288430D01*
X650000Y2286430D01*
X652000Y2286430D01*
X652000Y2284430D01*
X656000Y2284430D01*
X656000Y2282430D01*
X658000Y2282430D01*
X658000Y2280430D01*
X660000Y2280430D01*
X660000Y2278430D01*
X662000Y2278430D01*
X662000Y2276430D01*
X664000Y2276430D01*
X664000Y2274430D01*
X668000Y2274430D01*
X668000Y2272430D01*
X670000Y2272430D01*
X670000Y2270430D01*
X672000Y2270430D01*
X672000Y2268430D01*
X674000Y2268430D01*
X674000Y2266430D01*
X676000Y2266430D01*
X676000Y2264430D01*
X678000Y2264430D01*
X678000Y2262430D01*
X682000Y2262430D01*
X682000Y2260430D01*
X684000Y2260430D01*
X684000Y2258430D01*
X686000Y2258430D01*
X686000Y2256430D01*
X688000Y2256430D01*
X688000Y2254430D01*
X690000Y2254430D01*
X690000Y2252430D01*
X692000Y2252430D01*
X692000Y2250430D01*
X696000Y2250430D01*
X696000Y2248430D01*
X698000Y2248430D01*
X698000Y2246430D01*
X700000Y2246430D01*
X700000Y2244430D01*
X702000Y2244430D01*
X702000Y2242430D01*
X704000Y2242430D01*
X704000Y2240430D01*
X706000Y2240430D01*
X706000Y2238430D01*
X710000Y2238430D01*
X710000Y2236430D01*
X712000Y2236430D01*
X712000Y2234430D01*
X714000Y2234430D01*
X714000Y2232430D01*
X716000Y2232430D01*
X716000Y2230430D01*
X718000Y2230430D01*
X718000Y2228430D01*
X720000Y2228430D01*
X720000Y2226430D01*
X724000Y2226430D01*
X724000Y2224430D01*
X726000Y2224430D01*
X726000Y2222430D01*
X728000Y2222430D01*
X728000Y2220430D01*
X730000Y2220430D01*
X730000Y2218430D01*
X732000Y2218430D01*
X732000Y2216430D01*
X734000Y2216430D01*
X734000Y2214430D01*
X738000Y2214430D01*
X738000Y2212430D01*
X740000Y2212430D01*
X740000Y2210430D01*
X742000Y2210430D01*
X742000Y2208430D01*
X744000Y2208430D01*
X744000Y2206430D01*
X746000Y2206430D01*
X746000Y2204430D01*
X748000Y2204430D01*
X748000Y2202430D01*
X752000Y2202430D01*
X752000Y2200430D01*
X754000Y2200430D01*
X754000Y2198430D01*
X756000Y2198430D01*
X756000Y2196430D01*
X758000Y2196430D01*
X758000Y2194430D01*
X760000Y2194430D01*
X760000Y2192430D01*
X764000Y2192430D01*
X764000Y2190430D01*
X766000Y2190430D01*
X766000Y2188430D01*
X768000Y2188430D01*
X768000Y2186430D01*
X770000Y2186430D01*
X770000Y2184430D01*
X772000Y2184430D01*
X772000Y2182430D01*
X774000Y2182430D01*
X774000Y2180430D01*
X778000Y2180430D01*
X778000Y2178430D01*
X780000Y2178430D01*
X780000Y2176430D01*
X782000Y2176430D01*
X782000Y2174430D01*
X784000Y2174430D01*
X784000Y2172430D01*
X786000Y2172430D01*
X786000Y2170430D01*
X788000Y2170430D01*
X788000Y2168430D01*
X792000Y2168430D01*
X792000Y2166430D01*
X794000Y2166430D01*
X794000Y2164430D01*
X796000Y2164430D01*
X796000Y2162430D01*
X798000Y2162430D01*
X798000Y2160430D01*
X800000Y2160430D01*
X800000Y2158430D01*
X802000Y2158430D01*
X802000Y2156430D01*
X806000Y2156430D01*
X806000Y2154430D01*
X808000Y2154430D01*
X808000Y2152430D01*
X810000Y2152430D01*
X810000Y2150430D01*
X812000Y2150430D01*
X812000Y2148430D01*
X814000Y2148430D01*
X814000Y2146430D01*
X816000Y2146430D01*
X816000Y2144430D01*
X820000Y2144430D01*
X820000Y2142430D01*
X822000Y2142430D01*
X822000Y2140430D01*
X824000Y2140430D01*
X824000Y2138430D01*
X826000Y2138430D01*
X826000Y2136430D01*
X828000Y2136430D01*
X828000Y2134430D01*
X830000Y2134430D01*
X830000Y2132430D01*
X834000Y2132430D01*
X834000Y2130430D01*
X836000Y2130430D01*
X836000Y2128430D01*
X838000Y2128430D01*
X838000Y2126430D01*
X840000Y2126430D01*
X840000Y2124430D01*
X842000Y2124430D01*
X842000Y2122430D01*
X844000Y2122430D01*
X844000Y2120430D01*
X848000Y2120430D01*
X848000Y2118430D01*
X850000Y2118430D01*
X850000Y2116430D01*
X852000Y2116430D01*
X852000Y2114430D01*
X854000Y2114430D01*
X854000Y2112430D01*
X856000Y2112430D01*
X856000Y2110430D01*
X860000Y2110430D01*
X860000Y2108430D01*
X862000Y2108430D01*
X862000Y2106430D01*
X864000Y2106430D01*
X864000Y2104430D01*
X866000Y2104430D01*
X866000Y2102430D01*
X868000Y2102430D01*
X868000Y2100430D01*
X870000Y2100430D01*
X870000Y2098430D01*
X874000Y2098430D01*
X874000Y2096430D01*
X876000Y2096430D01*
X876000Y2094430D01*
X878000Y2094430D01*
X878000Y2092430D01*
X880000Y2092430D01*
X880000Y2090430D01*
X882000Y2090430D01*
X882000Y2088430D01*
X884000Y2088430D01*
X884000Y2086430D01*
X888000Y2086430D01*
X888000Y2084430D01*
X890000Y2084430D01*
X890000Y2082430D01*
X892000Y2082430D01*
X892000Y2080430D01*
X894000Y2080430D01*
X894000Y2078430D01*
X896000Y2078430D01*
X896000Y2076430D01*
X898000Y2076430D01*
X898000Y2074430D01*
X902000Y2074430D01*
X902000Y2072430D01*
X904000Y2072430D01*
X904000Y2070430D01*
X906000Y2070430D01*
X906000Y2068430D01*
X908000Y2068430D01*
X908000Y2066430D01*
X910000Y2066430D01*
X910000Y2064430D01*
X912000Y2064430D01*
X912000Y2062430D01*
X916000Y2062430D01*
X916000Y2060430D01*
X918000Y2060430D01*
X918000Y2058430D01*
X920000Y2058430D01*
X920000Y2056430D01*
X922000Y2056430D01*
X922000Y2054430D01*
X924000Y2054430D01*
X924000Y2052430D01*
X926000Y2052430D01*
X926000Y2050430D01*
X930000Y2050430D01*
X930000Y2048430D01*
X932000Y2048430D01*
X932000Y2046430D01*
X934000Y2046430D01*
X934000Y2044430D01*
X936000Y2044430D01*
X936000Y2042430D01*
X938000Y2042430D01*
X938000Y2040430D01*
X940000Y2040430D01*
X940000Y2038430D01*
X944000Y2038430D01*
X944000Y2036430D01*
X946000Y2036430D01*
X946000Y2034430D01*
X948000Y2034430D01*
X948000Y2032430D01*
X950000Y2032430D01*
X950000Y2030430D01*
X952000Y2030430D01*
X952000Y2028430D01*
X956000Y2028430D01*
X956000Y2026430D01*
X958000Y2026430D01*
X958000Y2024430D01*
X960000Y2024430D01*
X960000Y2022430D01*
X962000Y2022430D01*
X962000Y2020430D01*
X964000Y2020430D01*
X964000Y2018430D01*
X1208000Y2018430D01*
X1208000Y2020430D01*
X1202000Y2020430D01*
X1202000Y2022430D01*
X1196000Y2022430D01*
X1196000Y2024430D01*
X1192000Y2024430D01*
X1192000Y2026430D01*
X1190000Y2026430D01*
X1190000Y2028430D01*
X1186000Y2028430D01*
X1186000Y2030430D01*
X1184000Y2030430D01*
X1184000Y2032430D01*
X1182000Y2032430D01*
X1182000Y2034430D01*
X1180000Y2034430D01*
X1180000Y2036430D01*
X1178000Y2036430D01*
X1178000Y2038430D01*
X1176000Y2038430D01*
X1176000Y2040430D01*
X1174000Y2040430D01*
X1174000Y2042430D01*
X1172000Y2042430D01*
X1172000Y2046430D01*
X1170000Y2046430D01*
X1170000Y2048430D01*
X1168000Y2048430D01*
X1168000Y2052430D01*
X1166000Y2052430D01*
X1166000Y2056430D01*
X1164000Y2056430D01*
X1164000Y2062430D01*
X1162000Y2062430D01*
X1162000Y2074430D01*
X1160000Y2074430D01*
X1160000Y2084430D01*
X1162000Y2084430D01*
X1162000Y2096430D01*
X1164000Y2096430D01*
X1164000Y2118430D01*
X1144000Y2118430D01*
X1144000Y2276430D01*
X1164000Y2276430D01*
X1164000Y2298430D01*
X1162000Y2298430D01*
X1162000Y2310430D01*
X1160000Y2310430D01*
X1160000Y2320430D01*
X1162000Y2320430D01*
X1162000Y2332430D01*
X1164000Y2332430D01*
X1164000Y2338430D01*
X1166000Y2338430D01*
X1166000Y2342430D01*
X1168000Y2342430D01*
X1168000Y2346430D01*
X1170000Y2346430D01*
X1170000Y2350430D01*
X1172000Y2350430D01*
X1172000Y2352430D01*
X1174000Y2352430D01*
X1174000Y2354430D01*
X1176000Y2354430D01*
X1176000Y2356430D01*
X1178000Y2356430D01*
X1178000Y2358430D01*
X1180000Y2358430D01*
X1180000Y2360430D01*
X1182000Y2360430D01*
X1182000Y2362430D01*
X1184000Y2362430D01*
X1184000Y2364430D01*
X1186000Y2364430D01*
X1186000Y2366430D01*
X1190000Y2366430D01*
X1190000Y2368430D01*
X1192000Y2368430D01*
X1192000Y2370430D01*
X1196000Y2370430D01*
X1196000Y2372430D01*
X1202000Y2372430D01*
X1202000Y2374430D01*
X1208000Y2374430D01*
X1208000Y2376430D01*
X548000Y2376430D01*
G37*
D02*
G36*
X40000Y2334430D02*
X40000Y2216430D01*
X270000Y2216430D01*
X270000Y2218430D01*
X260000Y2218430D01*
X260000Y2220430D01*
X254000Y2220430D01*
X254000Y2222430D01*
X250000Y2222430D01*
X250000Y2224430D01*
X246000Y2224430D01*
X246000Y2226430D01*
X244000Y2226430D01*
X244000Y2228430D01*
X240000Y2228430D01*
X240000Y2230430D01*
X238000Y2230430D01*
X238000Y2232430D01*
X236000Y2232430D01*
X236000Y2234430D01*
X234000Y2234430D01*
X234000Y2236430D01*
X232000Y2236430D01*
X232000Y2238430D01*
X230000Y2238430D01*
X230000Y2240430D01*
X228000Y2240430D01*
X228000Y2244430D01*
X226000Y2244430D01*
X226000Y2246430D01*
X224000Y2246430D01*
X224000Y2250430D01*
X222000Y2250430D01*
X222000Y2256430D01*
X220000Y2256430D01*
X220000Y2264430D01*
X218000Y2264430D01*
X218000Y2288430D01*
X220000Y2288430D01*
X220000Y2294430D01*
X222000Y2294430D01*
X222000Y2300430D01*
X224000Y2300430D01*
X224000Y2304430D01*
X226000Y2304430D01*
X226000Y2308430D01*
X228000Y2308430D01*
X228000Y2310430D01*
X230000Y2310430D01*
X230000Y2312430D01*
X232000Y2312430D01*
X232000Y2314430D01*
X234000Y2314430D01*
X234000Y2318430D01*
X238000Y2318430D01*
X238000Y2320430D01*
X240000Y2320430D01*
X240000Y2322430D01*
X242000Y2322430D01*
X242000Y2324430D01*
X244000Y2324430D01*
X244000Y2326430D01*
X248000Y2326430D01*
X248000Y2328430D01*
X252000Y2328430D01*
X252000Y2330430D01*
X258000Y2330430D01*
X258000Y2332430D01*
X264000Y2332430D01*
X264000Y2334430D01*
X40000Y2334430D01*
G37*
D02*
G36*
X40000Y2216430D02*
X40000Y2214430D01*
X580000Y2214430D01*
X580000Y2216430D01*
X40000Y2216430D01*
G37*
D02*
G36*
X40000Y2216430D02*
X40000Y2214430D01*
X580000Y2214430D01*
X580000Y2216430D01*
X40000Y2216430D01*
G37*
D02*
G36*
X40000Y2214430D02*
X40000Y2102430D01*
X282000Y2102430D01*
X282000Y2100430D01*
X292000Y2100430D01*
X292000Y2098430D01*
X298000Y2098430D01*
X298000Y2096430D01*
X302000Y2096430D01*
X302000Y2094430D01*
X556000Y2094430D01*
X556000Y2092430D01*
X566000Y2092430D01*
X566000Y2090430D01*
X572000Y2090430D01*
X572000Y2088430D01*
X576000Y2088430D01*
X576000Y2086430D01*
X578000Y2086430D01*
X578000Y2084430D01*
X582000Y2084430D01*
X582000Y2082430D01*
X584000Y2082430D01*
X584000Y2080430D01*
X586000Y2080430D01*
X586000Y2078430D01*
X588000Y2078430D01*
X588000Y2076430D01*
X592000Y2076430D01*
X592000Y2074430D01*
X594000Y2074430D01*
X594000Y2072430D01*
X596000Y2072430D01*
X596000Y2070430D01*
X598000Y2070430D01*
X598000Y2068430D01*
X602000Y2068430D01*
X602000Y2066430D01*
X604000Y2066430D01*
X604000Y2064430D01*
X606000Y2064430D01*
X606000Y2062430D01*
X608000Y2062430D01*
X608000Y2060430D01*
X612000Y2060430D01*
X612000Y2058430D01*
X614000Y2058430D01*
X614000Y2056430D01*
X616000Y2056430D01*
X616000Y2054430D01*
X618000Y2054430D01*
X618000Y2052430D01*
X622000Y2052430D01*
X622000Y2050430D01*
X624000Y2050430D01*
X624000Y2048430D01*
X626000Y2048430D01*
X626000Y2046430D01*
X628000Y2046430D01*
X628000Y2044430D01*
X632000Y2044430D01*
X632000Y2042430D01*
X634000Y2042430D01*
X634000Y2040430D01*
X636000Y2040430D01*
X636000Y2038430D01*
X638000Y2038430D01*
X638000Y2036430D01*
X640000Y2036430D01*
X640000Y2034430D01*
X644000Y2034430D01*
X644000Y2032430D01*
X646000Y2032430D01*
X646000Y2030430D01*
X648000Y2030430D01*
X648000Y2028430D01*
X650000Y2028430D01*
X650000Y2026430D01*
X654000Y2026430D01*
X654000Y2024430D01*
X656000Y2024430D01*
X656000Y2022430D01*
X658000Y2022430D01*
X658000Y2020430D01*
X660000Y2020430D01*
X660000Y2018430D01*
X664000Y2018430D01*
X664000Y2016430D01*
X666000Y2016430D01*
X666000Y2014430D01*
X668000Y2014430D01*
X668000Y2012430D01*
X670000Y2012430D01*
X670000Y2010430D01*
X674000Y2010430D01*
X674000Y2008430D01*
X676000Y2008430D01*
X676000Y2006430D01*
X678000Y2006430D01*
X678000Y2004430D01*
X680000Y2004430D01*
X680000Y2002430D01*
X684000Y2002430D01*
X684000Y2000430D01*
X686000Y2000430D01*
X686000Y1998430D01*
X688000Y1998430D01*
X688000Y1996430D01*
X690000Y1996430D01*
X690000Y1994430D01*
X694000Y1994430D01*
X694000Y1992430D01*
X696000Y1992430D01*
X696000Y1990430D01*
X698000Y1990430D01*
X698000Y1988430D01*
X700000Y1988430D01*
X700000Y1986430D01*
X704000Y1986430D01*
X704000Y1984430D01*
X706000Y1984430D01*
X706000Y1982430D01*
X708000Y1982430D01*
X708000Y1980430D01*
X710000Y1980430D01*
X710000Y1978430D01*
X712000Y1978430D01*
X712000Y1976430D01*
X716000Y1976430D01*
X716000Y1974430D01*
X718000Y1974430D01*
X718000Y1972430D01*
X720000Y1972430D01*
X720000Y1970430D01*
X722000Y1970430D01*
X722000Y1968430D01*
X726000Y1968430D01*
X726000Y1966430D01*
X728000Y1966430D01*
X728000Y1964430D01*
X730000Y1964430D01*
X730000Y1962430D01*
X732000Y1962430D01*
X732000Y1960430D01*
X736000Y1960430D01*
X736000Y1958430D01*
X738000Y1958430D01*
X738000Y1956430D01*
X740000Y1956430D01*
X740000Y1954430D01*
X742000Y1954430D01*
X742000Y1952430D01*
X746000Y1952430D01*
X746000Y1950430D01*
X748000Y1950430D01*
X748000Y1948430D01*
X750000Y1948430D01*
X750000Y1946430D01*
X752000Y1946430D01*
X752000Y1944430D01*
X756000Y1944430D01*
X756000Y1942430D01*
X758000Y1942430D01*
X758000Y1940430D01*
X760000Y1940430D01*
X760000Y1938430D01*
X762000Y1938430D01*
X762000Y1936430D01*
X766000Y1936430D01*
X766000Y1934430D01*
X768000Y1934430D01*
X768000Y1932430D01*
X770000Y1932430D01*
X770000Y1930430D01*
X772000Y1930430D01*
X772000Y1928430D01*
X776000Y1928430D01*
X776000Y1926430D01*
X778000Y1926430D01*
X778000Y1924430D01*
X780000Y1924430D01*
X780000Y1922430D01*
X782000Y1922430D01*
X782000Y1920430D01*
X784000Y1920430D01*
X784000Y1918430D01*
X788000Y1918430D01*
X788000Y1916430D01*
X790000Y1916430D01*
X790000Y1914430D01*
X792000Y1914430D01*
X792000Y1912430D01*
X794000Y1912430D01*
X794000Y1910430D01*
X798000Y1910430D01*
X798000Y1908430D01*
X800000Y1908430D01*
X800000Y1906430D01*
X802000Y1906430D01*
X802000Y1904430D01*
X804000Y1904430D01*
X804000Y1902430D01*
X808000Y1902430D01*
X808000Y1900430D01*
X810000Y1900430D01*
X810000Y1898430D01*
X812000Y1898430D01*
X812000Y1896430D01*
X814000Y1896430D01*
X814000Y1894430D01*
X818000Y1894430D01*
X818000Y1892430D01*
X820000Y1892430D01*
X820000Y1890430D01*
X822000Y1890430D01*
X822000Y1888430D01*
X824000Y1888430D01*
X824000Y1886430D01*
X828000Y1886430D01*
X828000Y1884430D01*
X830000Y1884430D01*
X830000Y1882430D01*
X832000Y1882430D01*
X832000Y1880430D01*
X834000Y1880430D01*
X834000Y1878430D01*
X838000Y1878430D01*
X838000Y1876430D01*
X840000Y1876430D01*
X840000Y1874430D01*
X842000Y1874430D01*
X842000Y1872430D01*
X844000Y1872430D01*
X844000Y1870430D01*
X846000Y1870430D01*
X846000Y1868430D01*
X850000Y1868430D01*
X850000Y1866430D01*
X852000Y1866430D01*
X852000Y1864430D01*
X854000Y1864430D01*
X854000Y1862430D01*
X856000Y1862430D01*
X856000Y1860430D01*
X860000Y1860430D01*
X860000Y1858430D01*
X862000Y1858430D01*
X862000Y1856430D01*
X864000Y1856430D01*
X864000Y1854430D01*
X866000Y1854430D01*
X866000Y1852430D01*
X870000Y1852430D01*
X870000Y1850430D01*
X872000Y1850430D01*
X872000Y1848430D01*
X874000Y1848430D01*
X874000Y1846430D01*
X876000Y1846430D01*
X876000Y1844430D01*
X880000Y1844430D01*
X880000Y1842430D01*
X882000Y1842430D01*
X882000Y1840430D01*
X884000Y1840430D01*
X884000Y1838430D01*
X886000Y1838430D01*
X886000Y1836430D01*
X890000Y1836430D01*
X890000Y1834430D01*
X892000Y1834430D01*
X892000Y1832430D01*
X894000Y1832430D01*
X894000Y1830430D01*
X896000Y1830430D01*
X896000Y1828430D01*
X900000Y1828430D01*
X900000Y1826430D01*
X902000Y1826430D01*
X902000Y1824430D01*
X904000Y1824430D01*
X904000Y1822430D01*
X906000Y1822430D01*
X906000Y1820430D01*
X910000Y1820430D01*
X910000Y1818430D01*
X912000Y1818430D01*
X912000Y1816430D01*
X914000Y1816430D01*
X914000Y1814430D01*
X916000Y1814430D01*
X916000Y1812430D01*
X918000Y1812430D01*
X918000Y1810430D01*
X922000Y1810430D01*
X922000Y1808430D01*
X924000Y1808430D01*
X924000Y1806430D01*
X926000Y1806430D01*
X926000Y1804430D01*
X928000Y1804430D01*
X928000Y1802430D01*
X932000Y1802430D01*
X932000Y1800430D01*
X934000Y1800430D01*
X934000Y1798430D01*
X936000Y1798430D01*
X936000Y1796430D01*
X938000Y1796430D01*
X938000Y1794430D01*
X942000Y1794430D01*
X942000Y1792430D01*
X944000Y1792430D01*
X944000Y1790430D01*
X946000Y1790430D01*
X946000Y1788430D01*
X948000Y1788430D01*
X948000Y1786430D01*
X952000Y1786430D01*
X952000Y1784430D01*
X954000Y1784430D01*
X954000Y1782430D01*
X956000Y1782430D01*
X956000Y1780430D01*
X958000Y1780430D01*
X958000Y1778430D01*
X962000Y1778430D01*
X962000Y1776430D01*
X964000Y1776430D01*
X964000Y1774430D01*
X966000Y1774430D01*
X966000Y1772430D01*
X968000Y1772430D01*
X968000Y1770430D01*
X972000Y1770430D01*
X972000Y1768430D01*
X974000Y1768430D01*
X974000Y1766430D01*
X976000Y1766430D01*
X976000Y1764430D01*
X978000Y1764430D01*
X978000Y1762430D01*
X982000Y1762430D01*
X982000Y1760430D01*
X984000Y1760430D01*
X984000Y1758430D01*
X986000Y1758430D01*
X986000Y1756430D01*
X988000Y1756430D01*
X988000Y1754430D01*
X990000Y1754430D01*
X990000Y1752430D01*
X994000Y1752430D01*
X994000Y1750430D01*
X996000Y1750430D01*
X996000Y1748430D01*
X998000Y1748430D01*
X998000Y1746430D01*
X1000000Y1746430D01*
X1000000Y1744430D01*
X1004000Y1744430D01*
X1004000Y1742430D01*
X1006000Y1742430D01*
X1006000Y1740430D01*
X1008000Y1740430D01*
X1008000Y1738430D01*
X1010000Y1738430D01*
X1010000Y1736430D01*
X1014000Y1736430D01*
X1014000Y1734430D01*
X1016000Y1734430D01*
X1016000Y1732430D01*
X1018000Y1732430D01*
X1018000Y1730430D01*
X1020000Y1730430D01*
X1020000Y1728430D01*
X1024000Y1728430D01*
X1024000Y1726430D01*
X1026000Y1726430D01*
X1026000Y1724430D01*
X1028000Y1724430D01*
X1028000Y1722430D01*
X1030000Y1722430D01*
X1030000Y1720430D01*
X1034000Y1720430D01*
X1034000Y1718430D01*
X1036000Y1718430D01*
X1036000Y1716430D01*
X1038000Y1716430D01*
X1038000Y1714430D01*
X1040000Y1714430D01*
X1040000Y1712430D01*
X1044000Y1712430D01*
X1044000Y1710430D01*
X1046000Y1710430D01*
X1046000Y1708430D01*
X1048000Y1708430D01*
X1048000Y1706430D01*
X1050000Y1706430D01*
X1050000Y1704430D01*
X1052000Y1704430D01*
X1052000Y1702430D01*
X1056000Y1702430D01*
X1056000Y1700430D01*
X1058000Y1700430D01*
X1058000Y1698430D01*
X1060000Y1698430D01*
X1060000Y1696430D01*
X1062000Y1696430D01*
X1062000Y1694430D01*
X1066000Y1694430D01*
X1066000Y1692430D01*
X1068000Y1692430D01*
X1068000Y1690430D01*
X1070000Y1690430D01*
X1070000Y1688430D01*
X1072000Y1688430D01*
X1072000Y1686430D01*
X1076000Y1686430D01*
X1076000Y1684430D01*
X1078000Y1684430D01*
X1078000Y1682430D01*
X1080000Y1682430D01*
X1080000Y1680430D01*
X1082000Y1680430D01*
X1082000Y1678430D01*
X1086000Y1678430D01*
X1086000Y1676430D01*
X1088000Y1676430D01*
X1088000Y1674430D01*
X1090000Y1674430D01*
X1090000Y1672430D01*
X1092000Y1672430D01*
X1092000Y1670430D01*
X1096000Y1670430D01*
X1096000Y1668430D01*
X1098000Y1668430D01*
X1098000Y1666430D01*
X1100000Y1666430D01*
X1100000Y1664430D01*
X1102000Y1664430D01*
X1102000Y1662430D01*
X1106000Y1662430D01*
X1106000Y1660430D01*
X1108000Y1660430D01*
X1108000Y1658430D01*
X1110000Y1658430D01*
X1110000Y1656430D01*
X1130000Y1656430D01*
X1130000Y1660430D01*
X1132000Y1660430D01*
X1132000Y1742430D01*
X1130000Y1742430D01*
X1130000Y1746430D01*
X1128000Y1746430D01*
X1128000Y1748430D01*
X1126000Y1748430D01*
X1126000Y1750430D01*
X1124000Y1750430D01*
X1124000Y1752430D01*
X1122000Y1752430D01*
X1122000Y1754430D01*
X1120000Y1754430D01*
X1120000Y1756430D01*
X1118000Y1756430D01*
X1118000Y1758430D01*
X1114000Y1758430D01*
X1114000Y1760430D01*
X1112000Y1760430D01*
X1112000Y1762430D01*
X1110000Y1762430D01*
X1110000Y1764430D01*
X1108000Y1764430D01*
X1108000Y1766430D01*
X1106000Y1766430D01*
X1106000Y1768430D01*
X1104000Y1768430D01*
X1104000Y1770430D01*
X1100000Y1770430D01*
X1100000Y1772430D01*
X1098000Y1772430D01*
X1098000Y1774430D01*
X1096000Y1774430D01*
X1096000Y1776430D01*
X1094000Y1776430D01*
X1094000Y1778430D01*
X1092000Y1778430D01*
X1092000Y1780430D01*
X1090000Y1780430D01*
X1090000Y1782430D01*
X1086000Y1782430D01*
X1086000Y1784430D01*
X1084000Y1784430D01*
X1084000Y1786430D01*
X1082000Y1786430D01*
X1082000Y1788430D01*
X1080000Y1788430D01*
X1080000Y1790430D01*
X1078000Y1790430D01*
X1078000Y1792430D01*
X1074000Y1792430D01*
X1074000Y1794430D01*
X1072000Y1794430D01*
X1072000Y1796430D01*
X1070000Y1796430D01*
X1070000Y1798430D01*
X1068000Y1798430D01*
X1068000Y1800430D01*
X1066000Y1800430D01*
X1066000Y1802430D01*
X1064000Y1802430D01*
X1064000Y1804430D01*
X1060000Y1804430D01*
X1060000Y1806430D01*
X1058000Y1806430D01*
X1058000Y1808430D01*
X1056000Y1808430D01*
X1056000Y1810430D01*
X1054000Y1810430D01*
X1054000Y1812430D01*
X1052000Y1812430D01*
X1052000Y1814430D01*
X1050000Y1814430D01*
X1050000Y1816430D01*
X1046000Y1816430D01*
X1046000Y1818430D01*
X1044000Y1818430D01*
X1044000Y1820430D01*
X1042000Y1820430D01*
X1042000Y1822430D01*
X1040000Y1822430D01*
X1040000Y1824430D01*
X1038000Y1824430D01*
X1038000Y1826430D01*
X1036000Y1826430D01*
X1036000Y1828430D01*
X1032000Y1828430D01*
X1032000Y1830430D01*
X1030000Y1830430D01*
X1030000Y1832430D01*
X1028000Y1832430D01*
X1028000Y1834430D01*
X1026000Y1834430D01*
X1026000Y1836430D01*
X1024000Y1836430D01*
X1024000Y1838430D01*
X1022000Y1838430D01*
X1022000Y1840430D01*
X1018000Y1840430D01*
X1018000Y1842430D01*
X1016000Y1842430D01*
X1016000Y1844430D01*
X1014000Y1844430D01*
X1014000Y1846430D01*
X1012000Y1846430D01*
X1012000Y1848430D01*
X1010000Y1848430D01*
X1010000Y1850430D01*
X1008000Y1850430D01*
X1008000Y1852430D01*
X1004000Y1852430D01*
X1004000Y1854430D01*
X1002000Y1854430D01*
X1002000Y1856430D01*
X1000000Y1856430D01*
X1000000Y1858430D01*
X998000Y1858430D01*
X998000Y1860430D01*
X996000Y1860430D01*
X996000Y1862430D01*
X994000Y1862430D01*
X994000Y1864430D01*
X990000Y1864430D01*
X990000Y1866430D01*
X988000Y1866430D01*
X988000Y1868430D01*
X986000Y1868430D01*
X986000Y1870430D01*
X984000Y1870430D01*
X984000Y1872430D01*
X982000Y1872430D01*
X982000Y1874430D01*
X978000Y1874430D01*
X978000Y1876430D01*
X976000Y1876430D01*
X976000Y1878430D01*
X974000Y1878430D01*
X974000Y1880430D01*
X972000Y1880430D01*
X972000Y1882430D01*
X970000Y1882430D01*
X970000Y1884430D01*
X968000Y1884430D01*
X968000Y1886430D01*
X964000Y1886430D01*
X964000Y1888430D01*
X962000Y1888430D01*
X962000Y1890430D01*
X960000Y1890430D01*
X960000Y1892430D01*
X958000Y1892430D01*
X958000Y1894430D01*
X956000Y1894430D01*
X956000Y1896430D01*
X954000Y1896430D01*
X954000Y1898430D01*
X950000Y1898430D01*
X950000Y1900430D01*
X948000Y1900430D01*
X948000Y1902430D01*
X946000Y1902430D01*
X946000Y1904430D01*
X944000Y1904430D01*
X944000Y1906430D01*
X942000Y1906430D01*
X942000Y1908430D01*
X940000Y1908430D01*
X940000Y1910430D01*
X936000Y1910430D01*
X936000Y1912430D01*
X934000Y1912430D01*
X934000Y1914430D01*
X932000Y1914430D01*
X932000Y1916430D01*
X930000Y1916430D01*
X930000Y1918430D01*
X928000Y1918430D01*
X928000Y1920430D01*
X926000Y1920430D01*
X926000Y1922430D01*
X922000Y1922430D01*
X922000Y1924430D01*
X920000Y1924430D01*
X920000Y1926430D01*
X918000Y1926430D01*
X918000Y1928430D01*
X916000Y1928430D01*
X916000Y1930430D01*
X914000Y1930430D01*
X914000Y1932430D01*
X912000Y1932430D01*
X912000Y1934430D01*
X908000Y1934430D01*
X908000Y1936430D01*
X906000Y1936430D01*
X906000Y1938430D01*
X904000Y1938430D01*
X904000Y1940430D01*
X902000Y1940430D01*
X902000Y1942430D01*
X900000Y1942430D01*
X900000Y1944430D01*
X898000Y1944430D01*
X898000Y1946430D01*
X894000Y1946430D01*
X894000Y1948430D01*
X892000Y1948430D01*
X892000Y1950430D01*
X890000Y1950430D01*
X890000Y1952430D01*
X888000Y1952430D01*
X888000Y1954430D01*
X886000Y1954430D01*
X886000Y1956430D01*
X882000Y1956430D01*
X882000Y1958430D01*
X880000Y1958430D01*
X880000Y1960430D01*
X878000Y1960430D01*
X878000Y1962430D01*
X876000Y1962430D01*
X876000Y1964430D01*
X874000Y1964430D01*
X874000Y1966430D01*
X872000Y1966430D01*
X872000Y1968430D01*
X868000Y1968430D01*
X868000Y1970430D01*
X866000Y1970430D01*
X866000Y1972430D01*
X864000Y1972430D01*
X864000Y1974430D01*
X862000Y1974430D01*
X862000Y1976430D01*
X860000Y1976430D01*
X860000Y1978430D01*
X858000Y1978430D01*
X858000Y1980430D01*
X854000Y1980430D01*
X854000Y1982430D01*
X852000Y1982430D01*
X852000Y1984430D01*
X850000Y1984430D01*
X850000Y1986430D01*
X848000Y1986430D01*
X848000Y1988430D01*
X846000Y1988430D01*
X846000Y1990430D01*
X844000Y1990430D01*
X844000Y1992430D01*
X840000Y1992430D01*
X840000Y1994430D01*
X838000Y1994430D01*
X838000Y1996430D01*
X836000Y1996430D01*
X836000Y1998430D01*
X834000Y1998430D01*
X834000Y2000430D01*
X832000Y2000430D01*
X832000Y2002430D01*
X830000Y2002430D01*
X830000Y2004430D01*
X826000Y2004430D01*
X826000Y2006430D01*
X824000Y2006430D01*
X824000Y2008430D01*
X822000Y2008430D01*
X822000Y2010430D01*
X820000Y2010430D01*
X820000Y2012430D01*
X818000Y2012430D01*
X818000Y2014430D01*
X816000Y2014430D01*
X816000Y2016430D01*
X812000Y2016430D01*
X812000Y2018430D01*
X810000Y2018430D01*
X810000Y2020430D01*
X808000Y2020430D01*
X808000Y2022430D01*
X806000Y2022430D01*
X806000Y2024430D01*
X804000Y2024430D01*
X804000Y2026430D01*
X802000Y2026430D01*
X802000Y2028430D01*
X798000Y2028430D01*
X798000Y2030430D01*
X796000Y2030430D01*
X796000Y2032430D01*
X794000Y2032430D01*
X794000Y2034430D01*
X792000Y2034430D01*
X792000Y2036430D01*
X790000Y2036430D01*
X790000Y2038430D01*
X786000Y2038430D01*
X786000Y2040430D01*
X784000Y2040430D01*
X784000Y2042430D01*
X782000Y2042430D01*
X782000Y2044430D01*
X780000Y2044430D01*
X780000Y2046430D01*
X778000Y2046430D01*
X778000Y2048430D01*
X776000Y2048430D01*
X776000Y2050430D01*
X772000Y2050430D01*
X772000Y2052430D01*
X770000Y2052430D01*
X770000Y2054430D01*
X768000Y2054430D01*
X768000Y2056430D01*
X766000Y2056430D01*
X766000Y2058430D01*
X764000Y2058430D01*
X764000Y2060430D01*
X762000Y2060430D01*
X762000Y2062430D01*
X758000Y2062430D01*
X758000Y2064430D01*
X756000Y2064430D01*
X756000Y2066430D01*
X754000Y2066430D01*
X754000Y2068430D01*
X752000Y2068430D01*
X752000Y2070430D01*
X750000Y2070430D01*
X750000Y2072430D01*
X748000Y2072430D01*
X748000Y2074430D01*
X744000Y2074430D01*
X744000Y2076430D01*
X742000Y2076430D01*
X742000Y2078430D01*
X740000Y2078430D01*
X740000Y2080430D01*
X738000Y2080430D01*
X738000Y2082430D01*
X736000Y2082430D01*
X736000Y2084430D01*
X734000Y2084430D01*
X734000Y2086430D01*
X730000Y2086430D01*
X730000Y2088430D01*
X728000Y2088430D01*
X728000Y2090430D01*
X726000Y2090430D01*
X726000Y2092430D01*
X724000Y2092430D01*
X724000Y2094430D01*
X722000Y2094430D01*
X722000Y2096430D01*
X720000Y2096430D01*
X720000Y2098430D01*
X716000Y2098430D01*
X716000Y2100430D01*
X714000Y2100430D01*
X714000Y2102430D01*
X712000Y2102430D01*
X712000Y2104430D01*
X710000Y2104430D01*
X710000Y2106430D01*
X708000Y2106430D01*
X708000Y2108430D01*
X706000Y2108430D01*
X706000Y2110430D01*
X702000Y2110430D01*
X702000Y2112430D01*
X700000Y2112430D01*
X700000Y2114430D01*
X698000Y2114430D01*
X698000Y2116430D01*
X696000Y2116430D01*
X696000Y2118430D01*
X694000Y2118430D01*
X694000Y2120430D01*
X690000Y2120430D01*
X690000Y2122430D01*
X688000Y2122430D01*
X688000Y2124430D01*
X686000Y2124430D01*
X686000Y2126430D01*
X684000Y2126430D01*
X684000Y2128430D01*
X682000Y2128430D01*
X682000Y2130430D01*
X680000Y2130430D01*
X680000Y2132430D01*
X676000Y2132430D01*
X676000Y2134430D01*
X674000Y2134430D01*
X674000Y2136430D01*
X672000Y2136430D01*
X672000Y2138430D01*
X670000Y2138430D01*
X670000Y2140430D01*
X668000Y2140430D01*
X668000Y2142430D01*
X666000Y2142430D01*
X666000Y2144430D01*
X662000Y2144430D01*
X662000Y2146430D01*
X660000Y2146430D01*
X660000Y2148430D01*
X658000Y2148430D01*
X658000Y2150430D01*
X656000Y2150430D01*
X656000Y2152430D01*
X654000Y2152430D01*
X654000Y2154430D01*
X652000Y2154430D01*
X652000Y2156430D01*
X648000Y2156430D01*
X648000Y2158430D01*
X646000Y2158430D01*
X646000Y2160430D01*
X644000Y2160430D01*
X644000Y2162430D01*
X642000Y2162430D01*
X642000Y2164430D01*
X640000Y2164430D01*
X640000Y2166430D01*
X638000Y2166430D01*
X638000Y2168430D01*
X634000Y2168430D01*
X634000Y2170430D01*
X632000Y2170430D01*
X632000Y2172430D01*
X630000Y2172430D01*
X630000Y2174430D01*
X628000Y2174430D01*
X628000Y2176430D01*
X626000Y2176430D01*
X626000Y2178430D01*
X624000Y2178430D01*
X624000Y2180430D01*
X620000Y2180430D01*
X620000Y2182430D01*
X618000Y2182430D01*
X618000Y2184430D01*
X616000Y2184430D01*
X616000Y2186430D01*
X614000Y2186430D01*
X614000Y2188430D01*
X612000Y2188430D01*
X612000Y2190430D01*
X610000Y2190430D01*
X610000Y2192430D01*
X606000Y2192430D01*
X606000Y2194430D01*
X604000Y2194430D01*
X604000Y2196430D01*
X602000Y2196430D01*
X602000Y2198430D01*
X600000Y2198430D01*
X600000Y2200430D01*
X598000Y2200430D01*
X598000Y2202430D01*
X594000Y2202430D01*
X594000Y2204430D01*
X592000Y2204430D01*
X592000Y2206430D01*
X590000Y2206430D01*
X590000Y2208430D01*
X588000Y2208430D01*
X588000Y2210430D01*
X586000Y2210430D01*
X586000Y2212430D01*
X584000Y2212430D01*
X584000Y2214430D01*
X40000Y2214430D01*
G37*
D02*
G36*
X1302000Y2122430D02*
X1302000Y2118430D01*
X1280000Y2118430D01*
X1280000Y2098430D01*
X1282000Y2098430D01*
X1282000Y2088430D01*
X1284000Y2088430D01*
X1284000Y2070430D01*
X1282000Y2070430D01*
X1282000Y2060430D01*
X1280000Y2060430D01*
X1280000Y2054430D01*
X1278000Y2054430D01*
X1278000Y2050430D01*
X1276000Y2050430D01*
X1276000Y2048430D01*
X1274000Y2048430D01*
X1274000Y2044430D01*
X1272000Y2044430D01*
X1272000Y2042430D01*
X1270000Y2042430D01*
X1270000Y2038430D01*
X1268000Y2038430D01*
X1268000Y2036430D01*
X1266000Y2036430D01*
X1266000Y2034430D01*
X1264000Y2034430D01*
X1264000Y2032430D01*
X1260000Y2032430D01*
X1260000Y2030430D01*
X1258000Y2030430D01*
X1258000Y2028430D01*
X1256000Y2028430D01*
X1256000Y2026430D01*
X1252000Y2026430D01*
X1252000Y2024430D01*
X1248000Y2024430D01*
X1248000Y2022430D01*
X1244000Y2022430D01*
X1244000Y2020430D01*
X1236000Y2020430D01*
X1236000Y2018430D01*
X1638000Y2018430D01*
X1638000Y2022430D01*
X1640000Y2022430D01*
X1640000Y2026430D01*
X1642000Y2026430D01*
X1642000Y2028430D01*
X1644000Y2028430D01*
X1644000Y2032430D01*
X1646000Y2032430D01*
X1646000Y2036430D01*
X1648000Y2036430D01*
X1648000Y2038430D01*
X1650000Y2038430D01*
X1650000Y2040430D01*
X1652000Y2040430D01*
X1652000Y2044430D01*
X1654000Y2044430D01*
X1654000Y2046430D01*
X1656000Y2046430D01*
X1656000Y2048430D01*
X1658000Y2048430D01*
X1658000Y2050430D01*
X1660000Y2050430D01*
X1660000Y2052430D01*
X1662000Y2052430D01*
X1662000Y2056430D01*
X1664000Y2056430D01*
X1664000Y2058430D01*
X1666000Y2058430D01*
X1666000Y2060430D01*
X1668000Y2060430D01*
X1668000Y2062430D01*
X1670000Y2062430D01*
X1670000Y2064430D01*
X1672000Y2064430D01*
X1672000Y2066430D01*
X1674000Y2066430D01*
X1674000Y2068430D01*
X1676000Y2068430D01*
X1676000Y2070430D01*
X1678000Y2070430D01*
X1678000Y2072430D01*
X1682000Y2072430D01*
X1682000Y2074430D01*
X1684000Y2074430D01*
X1684000Y2076430D01*
X1686000Y2076430D01*
X1686000Y2078430D01*
X1688000Y2078430D01*
X1688000Y2080430D01*
X1690000Y2080430D01*
X1690000Y2082430D01*
X1694000Y2082430D01*
X1694000Y2084430D01*
X1696000Y2084430D01*
X1696000Y2086430D01*
X1698000Y2086430D01*
X1698000Y2088430D01*
X1702000Y2088430D01*
X1702000Y2090430D01*
X1706000Y2090430D01*
X1706000Y2092430D01*
X1708000Y2092430D01*
X1708000Y2094430D01*
X1712000Y2094430D01*
X1712000Y2096430D01*
X1716000Y2096430D01*
X1716000Y2098430D01*
X1718000Y2098430D01*
X1718000Y2100430D01*
X1722000Y2100430D01*
X1722000Y2102430D01*
X1726000Y2102430D01*
X1726000Y2104430D01*
X1732000Y2104430D01*
X1732000Y2106430D01*
X1736000Y2106430D01*
X1736000Y2108430D01*
X1740000Y2108430D01*
X1740000Y2110430D01*
X1746000Y2110430D01*
X1746000Y2112430D01*
X1752000Y2112430D01*
X1752000Y2114430D01*
X1758000Y2114430D01*
X1758000Y2116430D01*
X1766000Y2116430D01*
X1766000Y2118430D01*
X1776000Y2118430D01*
X1776000Y2120430D01*
X1788000Y2120430D01*
X1788000Y2122430D01*
X1302000Y2122430D01*
G37*
D02*
G36*
X40000Y2102430D02*
X40000Y1984430D01*
X264000Y1984430D01*
X264000Y1986430D01*
X256000Y1986430D01*
X256000Y1988430D01*
X252000Y1988430D01*
X252000Y1990430D01*
X248000Y1990430D01*
X248000Y1992430D01*
X244000Y1992430D01*
X244000Y1994430D01*
X242000Y1994430D01*
X242000Y1996430D01*
X240000Y1996430D01*
X240000Y1998430D01*
X236000Y1998430D01*
X236000Y2000430D01*
X234000Y2000430D01*
X234000Y2002430D01*
X232000Y2002430D01*
X232000Y2006430D01*
X230000Y2006430D01*
X230000Y2008430D01*
X228000Y2008430D01*
X228000Y2010430D01*
X226000Y2010430D01*
X226000Y2014430D01*
X224000Y2014430D01*
X224000Y2018430D01*
X222000Y2018430D01*
X222000Y2022430D01*
X220000Y2022430D01*
X220000Y2030430D01*
X218000Y2030430D01*
X218000Y2054430D01*
X220000Y2054430D01*
X220000Y2062430D01*
X222000Y2062430D01*
X222000Y2066430D01*
X224000Y2066430D01*
X224000Y2070430D01*
X226000Y2070430D01*
X226000Y2074430D01*
X228000Y2074430D01*
X228000Y2076430D01*
X230000Y2076430D01*
X230000Y2080430D01*
X232000Y2080430D01*
X232000Y2082430D01*
X234000Y2082430D01*
X234000Y2084430D01*
X236000Y2084430D01*
X236000Y2086430D01*
X238000Y2086430D01*
X238000Y2088430D01*
X242000Y2088430D01*
X242000Y2090430D01*
X244000Y2090430D01*
X244000Y2092430D01*
X246000Y2092430D01*
X246000Y2094430D01*
X250000Y2094430D01*
X250000Y2096430D01*
X254000Y2096430D01*
X254000Y2098430D01*
X260000Y2098430D01*
X260000Y2100430D01*
X272000Y2100430D01*
X272000Y2102430D01*
X40000Y2102430D01*
G37*
D02*
G36*
X306000Y2094430D02*
X306000Y2092430D01*
X458000Y2092430D01*
X458000Y2094430D01*
X306000Y2094430D01*
G37*
D02*
G36*
X966000Y2018430D02*
X966000Y2016430D01*
X1636000Y2016430D01*
X1636000Y2018430D01*
X966000Y2018430D01*
G37*
D02*
G36*
X966000Y2018430D02*
X966000Y2016430D01*
X1636000Y2016430D01*
X1636000Y2018430D01*
X966000Y2018430D01*
G37*
D02*
G36*
X970000Y2016430D02*
X970000Y2014430D01*
X972000Y2014430D01*
X972000Y2012430D01*
X974000Y2012430D01*
X974000Y2010430D01*
X976000Y2010430D01*
X976000Y2008430D01*
X978000Y2008430D01*
X978000Y2006430D01*
X980000Y2006430D01*
X980000Y2004430D01*
X984000Y2004430D01*
X984000Y2002430D01*
X986000Y2002430D01*
X986000Y2000430D01*
X988000Y2000430D01*
X988000Y1998430D01*
X990000Y1998430D01*
X990000Y1996430D01*
X992000Y1996430D01*
X992000Y1994430D01*
X994000Y1994430D01*
X994000Y1992430D01*
X998000Y1992430D01*
X998000Y1990430D01*
X1000000Y1990430D01*
X1000000Y1988430D01*
X1002000Y1988430D01*
X1002000Y1986430D01*
X1004000Y1986430D01*
X1004000Y1984430D01*
X1006000Y1984430D01*
X1006000Y1982430D01*
X1008000Y1982430D01*
X1008000Y1980430D01*
X1012000Y1980430D01*
X1012000Y1978430D01*
X1014000Y1978430D01*
X1014000Y1976430D01*
X1016000Y1976430D01*
X1016000Y1974430D01*
X1018000Y1974430D01*
X1018000Y1972430D01*
X1020000Y1972430D01*
X1020000Y1970430D01*
X1022000Y1970430D01*
X1022000Y1968430D01*
X1026000Y1968430D01*
X1026000Y1966430D01*
X1028000Y1966430D01*
X1028000Y1964430D01*
X1030000Y1964430D01*
X1030000Y1962430D01*
X1032000Y1962430D01*
X1032000Y1960430D01*
X1034000Y1960430D01*
X1034000Y1958430D01*
X1036000Y1958430D01*
X1036000Y1956430D01*
X1040000Y1956430D01*
X1040000Y1954430D01*
X1042000Y1954430D01*
X1042000Y1952430D01*
X1044000Y1952430D01*
X1044000Y1950430D01*
X1046000Y1950430D01*
X1046000Y1948430D01*
X1048000Y1948430D01*
X1048000Y1946430D01*
X1052000Y1946430D01*
X1052000Y1944430D01*
X1054000Y1944430D01*
X1054000Y1942430D01*
X1056000Y1942430D01*
X1056000Y1940430D01*
X1058000Y1940430D01*
X1058000Y1938430D01*
X1060000Y1938430D01*
X1060000Y1936430D01*
X1062000Y1936430D01*
X1062000Y1934430D01*
X1066000Y1934430D01*
X1066000Y1932430D01*
X1068000Y1932430D01*
X1068000Y1930430D01*
X1070000Y1930430D01*
X1070000Y1928430D01*
X1072000Y1928430D01*
X1072000Y1926430D01*
X1074000Y1926430D01*
X1074000Y1924430D01*
X1076000Y1924430D01*
X1076000Y1922430D01*
X1080000Y1922430D01*
X1080000Y1920430D01*
X1082000Y1920430D01*
X1082000Y1918430D01*
X1084000Y1918430D01*
X1084000Y1916430D01*
X1086000Y1916430D01*
X1086000Y1914430D01*
X1088000Y1914430D01*
X1088000Y1912430D01*
X1090000Y1912430D01*
X1090000Y1910430D01*
X1094000Y1910430D01*
X1094000Y1908430D01*
X1096000Y1908430D01*
X1096000Y1906430D01*
X1098000Y1906430D01*
X1098000Y1904430D01*
X1100000Y1904430D01*
X1100000Y1902430D01*
X1102000Y1902430D01*
X1102000Y1900430D01*
X1104000Y1900430D01*
X1104000Y1898430D01*
X1108000Y1898430D01*
X1108000Y1896430D01*
X1110000Y1896430D01*
X1110000Y1894430D01*
X1112000Y1894430D01*
X1112000Y1892430D01*
X1114000Y1892430D01*
X1114000Y1890430D01*
X1116000Y1890430D01*
X1116000Y1888430D01*
X1118000Y1888430D01*
X1118000Y1886430D01*
X1122000Y1886430D01*
X1122000Y1884430D01*
X1124000Y1884430D01*
X1124000Y1882430D01*
X1126000Y1882430D01*
X1126000Y1880430D01*
X1128000Y1880430D01*
X1128000Y1878430D01*
X1130000Y1878430D01*
X1130000Y1876430D01*
X1132000Y1876430D01*
X1132000Y1874430D01*
X1136000Y1874430D01*
X1136000Y1872430D01*
X1138000Y1872430D01*
X1138000Y1870430D01*
X1140000Y1870430D01*
X1140000Y1868430D01*
X1142000Y1868430D01*
X1142000Y1866430D01*
X1144000Y1866430D01*
X1144000Y1864430D01*
X1148000Y1864430D01*
X1148000Y1862430D01*
X1150000Y1862430D01*
X1150000Y1860430D01*
X1152000Y1860430D01*
X1152000Y1858430D01*
X1154000Y1858430D01*
X1154000Y1856430D01*
X1156000Y1856430D01*
X1156000Y1854430D01*
X1158000Y1854430D01*
X1158000Y1852430D01*
X1162000Y1852430D01*
X1162000Y1850430D01*
X1164000Y1850430D01*
X1164000Y1848430D01*
X1166000Y1848430D01*
X1166000Y1846430D01*
X1168000Y1846430D01*
X1168000Y1844430D01*
X1170000Y1844430D01*
X1170000Y1842430D01*
X1172000Y1842430D01*
X1172000Y1840430D01*
X1176000Y1840430D01*
X1176000Y1838430D01*
X1178000Y1838430D01*
X1178000Y1836430D01*
X1180000Y1836430D01*
X1180000Y1834430D01*
X1182000Y1834430D01*
X1182000Y1832430D01*
X1184000Y1832430D01*
X1184000Y1830430D01*
X1186000Y1830430D01*
X1186000Y1828430D01*
X1190000Y1828430D01*
X1190000Y1826430D01*
X1192000Y1826430D01*
X1192000Y1824430D01*
X1194000Y1824430D01*
X1194000Y1822430D01*
X1196000Y1822430D01*
X1196000Y1820430D01*
X1198000Y1820430D01*
X1198000Y1818430D01*
X1200000Y1818430D01*
X1200000Y1816430D01*
X1204000Y1816430D01*
X1204000Y1814430D01*
X1206000Y1814430D01*
X1206000Y1812430D01*
X1208000Y1812430D01*
X1208000Y1810430D01*
X1210000Y1810430D01*
X1210000Y1808430D01*
X1212000Y1808430D01*
X1212000Y1806430D01*
X1214000Y1806430D01*
X1214000Y1804430D01*
X1216000Y1804430D01*
X1216000Y1802430D01*
X1218000Y1802430D01*
X1218000Y1800430D01*
X1220000Y1800430D01*
X1220000Y1798430D01*
X1222000Y1798430D01*
X1222000Y1794430D01*
X1224000Y1794430D01*
X1224000Y1792430D01*
X1226000Y1792430D01*
X1226000Y1786430D01*
X1228000Y1786430D01*
X1228000Y1780430D01*
X1230000Y1780430D01*
X1230000Y1744430D01*
X1232000Y1744430D01*
X1232000Y1720430D01*
X1798000Y1720430D01*
X1798000Y1722430D01*
X1780000Y1722430D01*
X1780000Y1724430D01*
X1770000Y1724430D01*
X1770000Y1726430D01*
X1762000Y1726430D01*
X1762000Y1728430D01*
X1754000Y1728430D01*
X1754000Y1730430D01*
X1748000Y1730430D01*
X1748000Y1732430D01*
X1744000Y1732430D01*
X1744000Y1734430D01*
X1738000Y1734430D01*
X1738000Y1736430D01*
X1732000Y1736430D01*
X1732000Y1738430D01*
X1728000Y1738430D01*
X1728000Y1740430D01*
X1724000Y1740430D01*
X1724000Y1742430D01*
X1720000Y1742430D01*
X1720000Y1744430D01*
X1716000Y1744430D01*
X1716000Y1746430D01*
X1714000Y1746430D01*
X1714000Y1748430D01*
X1710000Y1748430D01*
X1710000Y1750430D01*
X1706000Y1750430D01*
X1706000Y1752430D01*
X1704000Y1752430D01*
X1704000Y1754430D01*
X1700000Y1754430D01*
X1700000Y1756430D01*
X1698000Y1756430D01*
X1698000Y1758430D01*
X1694000Y1758430D01*
X1694000Y1760430D01*
X1692000Y1760430D01*
X1692000Y1762430D01*
X1690000Y1762430D01*
X1690000Y1764430D01*
X1686000Y1764430D01*
X1686000Y1766430D01*
X1684000Y1766430D01*
X1684000Y1768430D01*
X1682000Y1768430D01*
X1682000Y1770430D01*
X1680000Y1770430D01*
X1680000Y1772430D01*
X1678000Y1772430D01*
X1678000Y1774430D01*
X1676000Y1774430D01*
X1676000Y1776430D01*
X1674000Y1776430D01*
X1674000Y1778430D01*
X1670000Y1778430D01*
X1670000Y1782430D01*
X1668000Y1782430D01*
X1668000Y1784430D01*
X1666000Y1784430D01*
X1666000Y1786430D01*
X1664000Y1786430D01*
X1664000Y1788430D01*
X1662000Y1788430D01*
X1662000Y1790430D01*
X1660000Y1790430D01*
X1660000Y1792430D01*
X1658000Y1792430D01*
X1658000Y1794430D01*
X1656000Y1794430D01*
X1656000Y1798430D01*
X1654000Y1798430D01*
X1654000Y1800430D01*
X1652000Y1800430D01*
X1652000Y1802430D01*
X1650000Y1802430D01*
X1650000Y1806430D01*
X1648000Y1806430D01*
X1648000Y1808430D01*
X1646000Y1808430D01*
X1646000Y1810430D01*
X1644000Y1810430D01*
X1644000Y1814430D01*
X1642000Y1814430D01*
X1642000Y1818430D01*
X1640000Y1818430D01*
X1640000Y1820430D01*
X1638000Y1820430D01*
X1638000Y1824430D01*
X1636000Y1824430D01*
X1636000Y1828430D01*
X1634000Y1828430D01*
X1634000Y1832430D01*
X1632000Y1832430D01*
X1632000Y1836430D01*
X1630000Y1836430D01*
X1630000Y1840430D01*
X1628000Y1840430D01*
X1628000Y1844430D01*
X1626000Y1844430D01*
X1626000Y1850430D01*
X1624000Y1850430D01*
X1624000Y1856430D01*
X1622000Y1856430D01*
X1622000Y1862430D01*
X1620000Y1862430D01*
X1620000Y1868430D01*
X1618000Y1868430D01*
X1618000Y1876430D01*
X1616000Y1876430D01*
X1616000Y1886430D01*
X1614000Y1886430D01*
X1614000Y1900430D01*
X1612000Y1900430D01*
X1612000Y1944430D01*
X1614000Y1944430D01*
X1614000Y1958430D01*
X1616000Y1958430D01*
X1616000Y1966430D01*
X1618000Y1966430D01*
X1618000Y1974430D01*
X1620000Y1974430D01*
X1620000Y1982430D01*
X1622000Y1982430D01*
X1622000Y1988430D01*
X1624000Y1988430D01*
X1624000Y1992430D01*
X1626000Y1992430D01*
X1626000Y1998430D01*
X1628000Y1998430D01*
X1628000Y2002430D01*
X1630000Y2002430D01*
X1630000Y2006430D01*
X1632000Y2006430D01*
X1632000Y2010430D01*
X1634000Y2010430D01*
X1634000Y2014430D01*
X1636000Y2014430D01*
X1636000Y2016430D01*
X970000Y2016430D01*
G37*
D02*
G36*
X462000Y1994430D02*
X462000Y1992430D01*
X306000Y1992430D01*
X306000Y1990430D01*
X302000Y1990430D01*
X302000Y1988430D01*
X296000Y1988430D01*
X296000Y1986430D01*
X290000Y1986430D01*
X290000Y1984430D01*
X544000Y1984430D01*
X544000Y1986430D01*
X542000Y1986430D01*
X542000Y1988430D01*
X538000Y1988430D01*
X538000Y1990430D01*
X536000Y1990430D01*
X536000Y1992430D01*
X534000Y1992430D01*
X534000Y1994430D01*
X462000Y1994430D01*
G37*
D02*
G36*
X40000Y1984430D02*
X40000Y1982430D01*
X546000Y1982430D01*
X546000Y1984430D01*
X40000Y1984430D01*
G37*
D02*
G36*
X40000Y1984430D02*
X40000Y1982430D01*
X546000Y1982430D01*
X546000Y1984430D01*
X40000Y1984430D01*
G37*
D02*
G36*
X40000Y1982430D02*
X40000Y1902430D01*
X282000Y1902430D01*
X282000Y1900430D01*
X292000Y1900430D01*
X292000Y1898430D01*
X298000Y1898430D01*
X298000Y1896430D01*
X302000Y1896430D01*
X302000Y1894430D01*
X306000Y1894430D01*
X306000Y1892430D01*
X310000Y1892430D01*
X310000Y1890430D01*
X312000Y1890430D01*
X312000Y1888430D01*
X314000Y1888430D01*
X314000Y1886430D01*
X318000Y1886430D01*
X318000Y1884430D01*
X320000Y1884430D01*
X320000Y1880430D01*
X322000Y1880430D01*
X322000Y1878430D01*
X324000Y1878430D01*
X324000Y1876430D01*
X326000Y1876430D01*
X326000Y1872430D01*
X328000Y1872430D01*
X328000Y1870430D01*
X330000Y1870430D01*
X330000Y1864430D01*
X332000Y1864430D01*
X332000Y1858430D01*
X334000Y1858430D01*
X334000Y1850430D01*
X336000Y1850430D01*
X336000Y1836430D01*
X334000Y1836430D01*
X334000Y1826430D01*
X332000Y1826430D01*
X332000Y1820430D01*
X330000Y1820430D01*
X330000Y1816430D01*
X328000Y1816430D01*
X328000Y1812430D01*
X326000Y1812430D01*
X326000Y1808430D01*
X324000Y1808430D01*
X324000Y1806430D01*
X322000Y1806430D01*
X322000Y1804430D01*
X320000Y1804430D01*
X320000Y1802430D01*
X318000Y1802430D01*
X318000Y1800430D01*
X316000Y1800430D01*
X316000Y1798430D01*
X314000Y1798430D01*
X314000Y1796430D01*
X312000Y1796430D01*
X312000Y1794430D01*
X308000Y1794430D01*
X308000Y1792430D01*
X306000Y1792430D01*
X306000Y1790430D01*
X302000Y1790430D01*
X302000Y1788430D01*
X296000Y1788430D01*
X296000Y1786430D01*
X290000Y1786430D01*
X290000Y1784430D01*
X792000Y1784430D01*
X792000Y1786430D01*
X790000Y1786430D01*
X790000Y1788430D01*
X786000Y1788430D01*
X786000Y1790430D01*
X784000Y1790430D01*
X784000Y1792430D01*
X782000Y1792430D01*
X782000Y1794430D01*
X780000Y1794430D01*
X780000Y1796430D01*
X776000Y1796430D01*
X776000Y1798430D01*
X774000Y1798430D01*
X774000Y1800430D01*
X772000Y1800430D01*
X772000Y1802430D01*
X770000Y1802430D01*
X770000Y1804430D01*
X768000Y1804430D01*
X768000Y1806430D01*
X764000Y1806430D01*
X764000Y1808430D01*
X762000Y1808430D01*
X762000Y1810430D01*
X760000Y1810430D01*
X760000Y1812430D01*
X758000Y1812430D01*
X758000Y1814430D01*
X754000Y1814430D01*
X754000Y1816430D01*
X752000Y1816430D01*
X752000Y1818430D01*
X750000Y1818430D01*
X750000Y1820430D01*
X748000Y1820430D01*
X748000Y1822430D01*
X744000Y1822430D01*
X744000Y1824430D01*
X742000Y1824430D01*
X742000Y1826430D01*
X740000Y1826430D01*
X740000Y1828430D01*
X738000Y1828430D01*
X738000Y1830430D01*
X734000Y1830430D01*
X734000Y1832430D01*
X732000Y1832430D01*
X732000Y1834430D01*
X730000Y1834430D01*
X730000Y1836430D01*
X728000Y1836430D01*
X728000Y1838430D01*
X724000Y1838430D01*
X724000Y1840430D01*
X722000Y1840430D01*
X722000Y1842430D01*
X720000Y1842430D01*
X720000Y1844430D01*
X718000Y1844430D01*
X718000Y1846430D01*
X714000Y1846430D01*
X714000Y1848430D01*
X712000Y1848430D01*
X712000Y1850430D01*
X710000Y1850430D01*
X710000Y1852430D01*
X708000Y1852430D01*
X708000Y1854430D01*
X704000Y1854430D01*
X704000Y1856430D01*
X702000Y1856430D01*
X702000Y1858430D01*
X700000Y1858430D01*
X700000Y1860430D01*
X698000Y1860430D01*
X698000Y1862430D01*
X696000Y1862430D01*
X696000Y1864430D01*
X692000Y1864430D01*
X692000Y1866430D01*
X690000Y1866430D01*
X690000Y1868430D01*
X688000Y1868430D01*
X688000Y1870430D01*
X686000Y1870430D01*
X686000Y1872430D01*
X682000Y1872430D01*
X682000Y1874430D01*
X680000Y1874430D01*
X680000Y1876430D01*
X678000Y1876430D01*
X678000Y1878430D01*
X676000Y1878430D01*
X676000Y1880430D01*
X672000Y1880430D01*
X672000Y1882430D01*
X670000Y1882430D01*
X670000Y1884430D01*
X668000Y1884430D01*
X668000Y1886430D01*
X666000Y1886430D01*
X666000Y1888430D01*
X662000Y1888430D01*
X662000Y1890430D01*
X660000Y1890430D01*
X660000Y1892430D01*
X658000Y1892430D01*
X658000Y1894430D01*
X656000Y1894430D01*
X656000Y1896430D01*
X652000Y1896430D01*
X652000Y1898430D01*
X650000Y1898430D01*
X650000Y1900430D01*
X648000Y1900430D01*
X648000Y1902430D01*
X646000Y1902430D01*
X646000Y1904430D01*
X642000Y1904430D01*
X642000Y1906430D01*
X640000Y1906430D01*
X640000Y1908430D01*
X638000Y1908430D01*
X638000Y1910430D01*
X636000Y1910430D01*
X636000Y1912430D01*
X632000Y1912430D01*
X632000Y1914430D01*
X630000Y1914430D01*
X630000Y1916430D01*
X628000Y1916430D01*
X628000Y1918430D01*
X626000Y1918430D01*
X626000Y1920430D01*
X624000Y1920430D01*
X624000Y1922430D01*
X620000Y1922430D01*
X620000Y1924430D01*
X618000Y1924430D01*
X618000Y1926430D01*
X616000Y1926430D01*
X616000Y1928430D01*
X614000Y1928430D01*
X614000Y1930430D01*
X610000Y1930430D01*
X610000Y1932430D01*
X608000Y1932430D01*
X608000Y1934430D01*
X606000Y1934430D01*
X606000Y1936430D01*
X604000Y1936430D01*
X604000Y1938430D01*
X600000Y1938430D01*
X600000Y1940430D01*
X598000Y1940430D01*
X598000Y1942430D01*
X596000Y1942430D01*
X596000Y1944430D01*
X594000Y1944430D01*
X594000Y1946430D01*
X590000Y1946430D01*
X590000Y1948430D01*
X588000Y1948430D01*
X588000Y1950430D01*
X586000Y1950430D01*
X586000Y1952430D01*
X584000Y1952430D01*
X584000Y1954430D01*
X580000Y1954430D01*
X580000Y1956430D01*
X578000Y1956430D01*
X578000Y1958430D01*
X576000Y1958430D01*
X576000Y1960430D01*
X574000Y1960430D01*
X574000Y1962430D01*
X570000Y1962430D01*
X570000Y1964430D01*
X568000Y1964430D01*
X568000Y1966430D01*
X566000Y1966430D01*
X566000Y1968430D01*
X564000Y1968430D01*
X564000Y1970430D01*
X562000Y1970430D01*
X562000Y1972430D01*
X558000Y1972430D01*
X558000Y1974430D01*
X556000Y1974430D01*
X556000Y1976430D01*
X554000Y1976430D01*
X554000Y1978430D01*
X552000Y1978430D01*
X552000Y1980430D01*
X548000Y1980430D01*
X548000Y1982430D01*
X40000Y1982430D01*
G37*
D02*
G36*
X40000Y1902430D02*
X40000Y1784430D01*
X264000Y1784430D01*
X264000Y1786430D01*
X256000Y1786430D01*
X256000Y1788430D01*
X252000Y1788430D01*
X252000Y1790430D01*
X248000Y1790430D01*
X248000Y1792430D01*
X244000Y1792430D01*
X244000Y1794430D01*
X242000Y1794430D01*
X242000Y1796430D01*
X240000Y1796430D01*
X240000Y1798430D01*
X236000Y1798430D01*
X236000Y1800430D01*
X234000Y1800430D01*
X234000Y1802430D01*
X232000Y1802430D01*
X232000Y1806430D01*
X230000Y1806430D01*
X230000Y1808430D01*
X228000Y1808430D01*
X228000Y1810430D01*
X226000Y1810430D01*
X226000Y1814430D01*
X224000Y1814430D01*
X224000Y1818430D01*
X222000Y1818430D01*
X222000Y1822430D01*
X220000Y1822430D01*
X220000Y1830430D01*
X218000Y1830430D01*
X218000Y1854430D01*
X220000Y1854430D01*
X220000Y1862430D01*
X222000Y1862430D01*
X222000Y1866430D01*
X224000Y1866430D01*
X224000Y1870430D01*
X226000Y1870430D01*
X226000Y1874430D01*
X228000Y1874430D01*
X228000Y1876430D01*
X230000Y1876430D01*
X230000Y1880430D01*
X232000Y1880430D01*
X232000Y1882430D01*
X234000Y1882430D01*
X234000Y1884430D01*
X236000Y1884430D01*
X236000Y1886430D01*
X238000Y1886430D01*
X238000Y1888430D01*
X242000Y1888430D01*
X242000Y1890430D01*
X244000Y1890430D01*
X244000Y1892430D01*
X246000Y1892430D01*
X246000Y1894430D01*
X250000Y1894430D01*
X250000Y1896430D01*
X254000Y1896430D01*
X254000Y1898430D01*
X260000Y1898430D01*
X260000Y1900430D01*
X272000Y1900430D01*
X272000Y1902430D01*
X40000Y1902430D01*
G37*
D02*
G36*
X40000Y1784430D02*
X40000Y1782430D01*
X794000Y1782430D01*
X794000Y1784430D01*
X40000Y1784430D01*
G37*
D02*
G36*
X40000Y1784430D02*
X40000Y1782430D01*
X794000Y1782430D01*
X794000Y1784430D01*
X40000Y1784430D01*
G37*
D02*
G36*
X40000Y1782430D02*
X40000Y1668430D01*
X288000Y1668430D01*
X288000Y1666430D01*
X296000Y1666430D01*
X296000Y1664430D01*
X300000Y1664430D01*
X300000Y1662430D01*
X304000Y1662430D01*
X304000Y1660430D01*
X308000Y1660430D01*
X308000Y1658430D01*
X310000Y1658430D01*
X310000Y1656430D01*
X314000Y1656430D01*
X314000Y1654430D01*
X316000Y1654430D01*
X316000Y1652430D01*
X318000Y1652430D01*
X318000Y1650430D01*
X320000Y1650430D01*
X320000Y1648430D01*
X322000Y1648430D01*
X322000Y1646430D01*
X324000Y1646430D01*
X324000Y1642430D01*
X326000Y1642430D01*
X326000Y1640430D01*
X328000Y1640430D01*
X328000Y1636430D01*
X330000Y1636430D01*
X330000Y1632430D01*
X332000Y1632430D01*
X332000Y1626430D01*
X334000Y1626430D01*
X334000Y1616430D01*
X336000Y1616430D01*
X336000Y1602430D01*
X334000Y1602430D01*
X334000Y1592430D01*
X332000Y1592430D01*
X332000Y1586430D01*
X330000Y1586430D01*
X330000Y1582430D01*
X328000Y1582430D01*
X328000Y1578430D01*
X326000Y1578430D01*
X326000Y1576430D01*
X324000Y1576430D01*
X324000Y1574430D01*
X322000Y1574430D01*
X322000Y1570430D01*
X320000Y1570430D01*
X320000Y1568430D01*
X318000Y1568430D01*
X318000Y1566430D01*
X316000Y1566430D01*
X316000Y1564430D01*
X312000Y1564430D01*
X312000Y1562430D01*
X310000Y1562430D01*
X310000Y1560430D01*
X308000Y1560430D01*
X308000Y1558430D01*
X304000Y1558430D01*
X304000Y1556430D01*
X300000Y1556430D01*
X300000Y1554430D01*
X294000Y1554430D01*
X294000Y1552430D01*
X284000Y1552430D01*
X284000Y1550430D01*
X1082000Y1550430D01*
X1082000Y1552430D01*
X1080000Y1552430D01*
X1080000Y1554430D01*
X1078000Y1554430D01*
X1078000Y1556430D01*
X1074000Y1556430D01*
X1074000Y1558430D01*
X1072000Y1558430D01*
X1072000Y1560430D01*
X1070000Y1560430D01*
X1070000Y1562430D01*
X1068000Y1562430D01*
X1068000Y1564430D01*
X1064000Y1564430D01*
X1064000Y1566430D01*
X1062000Y1566430D01*
X1062000Y1568430D01*
X1060000Y1568430D01*
X1060000Y1570430D01*
X1058000Y1570430D01*
X1058000Y1572430D01*
X1054000Y1572430D01*
X1054000Y1574430D01*
X1052000Y1574430D01*
X1052000Y1576430D01*
X1050000Y1576430D01*
X1050000Y1578430D01*
X1048000Y1578430D01*
X1048000Y1580430D01*
X1044000Y1580430D01*
X1044000Y1582430D01*
X1042000Y1582430D01*
X1042000Y1584430D01*
X1040000Y1584430D01*
X1040000Y1586430D01*
X1038000Y1586430D01*
X1038000Y1588430D01*
X1036000Y1588430D01*
X1036000Y1590430D01*
X1032000Y1590430D01*
X1032000Y1592430D01*
X1030000Y1592430D01*
X1030000Y1594430D01*
X1028000Y1594430D01*
X1028000Y1596430D01*
X1026000Y1596430D01*
X1026000Y1598430D01*
X1022000Y1598430D01*
X1022000Y1600430D01*
X1020000Y1600430D01*
X1020000Y1602430D01*
X1018000Y1602430D01*
X1018000Y1604430D01*
X1016000Y1604430D01*
X1016000Y1606430D01*
X1012000Y1606430D01*
X1012000Y1608430D01*
X1010000Y1608430D01*
X1010000Y1610430D01*
X1008000Y1610430D01*
X1008000Y1612430D01*
X1006000Y1612430D01*
X1006000Y1614430D01*
X1002000Y1614430D01*
X1002000Y1616430D01*
X1000000Y1616430D01*
X1000000Y1618430D01*
X998000Y1618430D01*
X998000Y1620430D01*
X996000Y1620430D01*
X996000Y1622430D01*
X992000Y1622430D01*
X992000Y1624430D01*
X990000Y1624430D01*
X990000Y1626430D01*
X988000Y1626430D01*
X988000Y1628430D01*
X986000Y1628430D01*
X986000Y1630430D01*
X982000Y1630430D01*
X982000Y1632430D01*
X980000Y1632430D01*
X980000Y1634430D01*
X978000Y1634430D01*
X978000Y1636430D01*
X976000Y1636430D01*
X976000Y1638430D01*
X974000Y1638430D01*
X974000Y1640430D01*
X970000Y1640430D01*
X970000Y1642430D01*
X968000Y1642430D01*
X968000Y1644430D01*
X966000Y1644430D01*
X966000Y1646430D01*
X964000Y1646430D01*
X964000Y1648430D01*
X960000Y1648430D01*
X960000Y1650430D01*
X958000Y1650430D01*
X958000Y1652430D01*
X956000Y1652430D01*
X956000Y1654430D01*
X954000Y1654430D01*
X954000Y1656430D01*
X950000Y1656430D01*
X950000Y1658430D01*
X948000Y1658430D01*
X948000Y1660430D01*
X946000Y1660430D01*
X946000Y1662430D01*
X944000Y1662430D01*
X944000Y1664430D01*
X940000Y1664430D01*
X940000Y1666430D01*
X938000Y1666430D01*
X938000Y1668430D01*
X936000Y1668430D01*
X936000Y1670430D01*
X934000Y1670430D01*
X934000Y1672430D01*
X930000Y1672430D01*
X930000Y1674430D01*
X928000Y1674430D01*
X928000Y1676430D01*
X926000Y1676430D01*
X926000Y1678430D01*
X924000Y1678430D01*
X924000Y1680430D01*
X920000Y1680430D01*
X920000Y1682430D01*
X918000Y1682430D01*
X918000Y1684430D01*
X916000Y1684430D01*
X916000Y1686430D01*
X914000Y1686430D01*
X914000Y1688430D01*
X910000Y1688430D01*
X910000Y1690430D01*
X908000Y1690430D01*
X908000Y1692430D01*
X906000Y1692430D01*
X906000Y1694430D01*
X904000Y1694430D01*
X904000Y1696430D01*
X902000Y1696430D01*
X902000Y1698430D01*
X898000Y1698430D01*
X898000Y1700430D01*
X896000Y1700430D01*
X896000Y1702430D01*
X894000Y1702430D01*
X894000Y1704430D01*
X892000Y1704430D01*
X892000Y1706430D01*
X888000Y1706430D01*
X888000Y1708430D01*
X886000Y1708430D01*
X886000Y1710430D01*
X884000Y1710430D01*
X884000Y1712430D01*
X882000Y1712430D01*
X882000Y1714430D01*
X878000Y1714430D01*
X878000Y1716430D01*
X876000Y1716430D01*
X876000Y1718430D01*
X874000Y1718430D01*
X874000Y1720430D01*
X872000Y1720430D01*
X872000Y1722430D01*
X868000Y1722430D01*
X868000Y1724430D01*
X866000Y1724430D01*
X866000Y1726430D01*
X864000Y1726430D01*
X864000Y1728430D01*
X862000Y1728430D01*
X862000Y1730430D01*
X858000Y1730430D01*
X858000Y1732430D01*
X856000Y1732430D01*
X856000Y1734430D01*
X854000Y1734430D01*
X854000Y1736430D01*
X852000Y1736430D01*
X852000Y1738430D01*
X848000Y1738430D01*
X848000Y1740430D01*
X846000Y1740430D01*
X846000Y1742430D01*
X844000Y1742430D01*
X844000Y1744430D01*
X842000Y1744430D01*
X842000Y1746430D01*
X838000Y1746430D01*
X838000Y1748430D01*
X836000Y1748430D01*
X836000Y1750430D01*
X834000Y1750430D01*
X834000Y1752430D01*
X832000Y1752430D01*
X832000Y1754430D01*
X830000Y1754430D01*
X830000Y1756430D01*
X826000Y1756430D01*
X826000Y1758430D01*
X824000Y1758430D01*
X824000Y1760430D01*
X822000Y1760430D01*
X822000Y1762430D01*
X820000Y1762430D01*
X820000Y1764430D01*
X816000Y1764430D01*
X816000Y1766430D01*
X814000Y1766430D01*
X814000Y1768430D01*
X812000Y1768430D01*
X812000Y1770430D01*
X810000Y1770430D01*
X810000Y1772430D01*
X806000Y1772430D01*
X806000Y1774430D01*
X804000Y1774430D01*
X804000Y1776430D01*
X802000Y1776430D01*
X802000Y1778430D01*
X800000Y1778430D01*
X800000Y1780430D01*
X796000Y1780430D01*
X796000Y1782430D01*
X40000Y1782430D01*
G37*
D02*
G36*
X1946000Y1772430D02*
X1946000Y1770430D01*
X1944000Y1770430D01*
X1944000Y1768430D01*
X1942000Y1768430D01*
X1942000Y1766430D01*
X1938000Y1766430D01*
X1938000Y1764430D01*
X1936000Y1764430D01*
X1936000Y1762430D01*
X1934000Y1762430D01*
X1934000Y1760430D01*
X1932000Y1760430D01*
X1932000Y1758430D01*
X1928000Y1758430D01*
X1928000Y1756430D01*
X1926000Y1756430D01*
X1926000Y1754430D01*
X1922000Y1754430D01*
X1922000Y1752430D01*
X1920000Y1752430D01*
X1920000Y1750430D01*
X1916000Y1750430D01*
X1916000Y1748430D01*
X1912000Y1748430D01*
X1912000Y1746430D01*
X1910000Y1746430D01*
X1910000Y1744430D01*
X1906000Y1744430D01*
X1906000Y1742430D01*
X1902000Y1742430D01*
X1902000Y1740430D01*
X1896000Y1740430D01*
X1896000Y1738430D01*
X1892000Y1738430D01*
X1892000Y1736430D01*
X1888000Y1736430D01*
X1888000Y1734430D01*
X1882000Y1734430D01*
X1882000Y1732430D01*
X1876000Y1732430D01*
X1876000Y1730430D01*
X1870000Y1730430D01*
X1870000Y1728430D01*
X1864000Y1728430D01*
X1864000Y1726430D01*
X1856000Y1726430D01*
X1856000Y1724430D01*
X1846000Y1724430D01*
X1846000Y1722430D01*
X1828000Y1722430D01*
X1828000Y1720430D01*
X1966000Y1720430D01*
X1966000Y1772430D01*
X1946000Y1772430D01*
G37*
D02*
G36*
X1232000Y1720430D02*
X1232000Y1718430D01*
X1966000Y1718430D01*
X1966000Y1720430D01*
X1232000Y1720430D01*
G37*
D02*
G36*
X1232000Y1720430D02*
X1232000Y1718430D01*
X1966000Y1718430D01*
X1966000Y1720430D01*
X1232000Y1720430D01*
G37*
D02*
G36*
X1232000Y1718430D02*
X1232000Y1702430D01*
X1390000Y1702430D01*
X1390000Y1700430D01*
X1398000Y1700430D01*
X1398000Y1698430D01*
X1402000Y1698430D01*
X1402000Y1696430D01*
X1406000Y1696430D01*
X1406000Y1694430D01*
X1408000Y1694430D01*
X1408000Y1692430D01*
X1412000Y1692430D01*
X1412000Y1690430D01*
X1414000Y1690430D01*
X1414000Y1688430D01*
X1416000Y1688430D01*
X1416000Y1686430D01*
X1418000Y1686430D01*
X1418000Y1684430D01*
X1420000Y1684430D01*
X1420000Y1682430D01*
X1422000Y1682430D01*
X1422000Y1680430D01*
X1424000Y1680430D01*
X1424000Y1676430D01*
X1426000Y1676430D01*
X1426000Y1672430D01*
X1428000Y1672430D01*
X1428000Y1668430D01*
X1430000Y1668430D01*
X1430000Y1662430D01*
X1432000Y1662430D01*
X1432000Y1636430D01*
X1430000Y1636430D01*
X1430000Y1630430D01*
X1428000Y1630430D01*
X1428000Y1626430D01*
X1426000Y1626430D01*
X1426000Y1622430D01*
X1424000Y1622430D01*
X1424000Y1596430D01*
X1426000Y1596430D01*
X1426000Y1594430D01*
X1428000Y1594430D01*
X1428000Y1590430D01*
X1430000Y1590430D01*
X1430000Y1582430D01*
X1432000Y1582430D01*
X1432000Y1558430D01*
X1430000Y1558430D01*
X1430000Y1550430D01*
X1428000Y1550430D01*
X1428000Y1546430D01*
X1426000Y1546430D01*
X1426000Y1542430D01*
X1424000Y1542430D01*
X1424000Y1518430D01*
X1426000Y1518430D01*
X1426000Y1514430D01*
X1428000Y1514430D01*
X1428000Y1510430D01*
X1430000Y1510430D01*
X1430000Y1504430D01*
X1432000Y1504430D01*
X1432000Y1478430D01*
X1430000Y1478430D01*
X1430000Y1472430D01*
X1428000Y1472430D01*
X1428000Y1468430D01*
X1426000Y1468430D01*
X1426000Y1464430D01*
X1424000Y1464430D01*
X1424000Y1440430D01*
X1426000Y1440430D01*
X1426000Y1436430D01*
X1428000Y1436430D01*
X1428000Y1432430D01*
X1430000Y1432430D01*
X1430000Y1424430D01*
X1432000Y1424430D01*
X1432000Y1400430D01*
X1430000Y1400430D01*
X1430000Y1392430D01*
X1428000Y1392430D01*
X1428000Y1388430D01*
X1426000Y1388430D01*
X1426000Y1386430D01*
X1424000Y1386430D01*
X1424000Y1360430D01*
X1426000Y1360430D01*
X1426000Y1358430D01*
X1428000Y1358430D01*
X1428000Y1354430D01*
X1430000Y1354430D01*
X1430000Y1346430D01*
X1432000Y1346430D01*
X1432000Y1322430D01*
X1430000Y1322430D01*
X1430000Y1314430D01*
X1428000Y1314430D01*
X1428000Y1310430D01*
X1426000Y1310430D01*
X1426000Y1306430D01*
X1424000Y1306430D01*
X1424000Y1282430D01*
X1426000Y1282430D01*
X1426000Y1278430D01*
X1428000Y1278430D01*
X1428000Y1274430D01*
X1430000Y1274430D01*
X1430000Y1268430D01*
X1432000Y1268430D01*
X1432000Y1242430D01*
X1430000Y1242430D01*
X1430000Y1236430D01*
X1428000Y1236430D01*
X1428000Y1232430D01*
X1426000Y1232430D01*
X1426000Y1228430D01*
X1424000Y1228430D01*
X1424000Y1204430D01*
X1426000Y1204430D01*
X1426000Y1200430D01*
X1428000Y1200430D01*
X1428000Y1196430D01*
X1430000Y1196430D01*
X1430000Y1188430D01*
X1432000Y1188430D01*
X1432000Y1164430D01*
X1430000Y1164430D01*
X1430000Y1156430D01*
X1428000Y1156430D01*
X1428000Y1152430D01*
X1426000Y1152430D01*
X1426000Y1150430D01*
X1424000Y1150430D01*
X1424000Y1124430D01*
X1426000Y1124430D01*
X1426000Y1120430D01*
X1428000Y1120430D01*
X1428000Y1116430D01*
X1430000Y1116430D01*
X1430000Y1110430D01*
X1432000Y1110430D01*
X1432000Y1084430D01*
X1430000Y1084430D01*
X1430000Y1078430D01*
X1428000Y1078430D01*
X1428000Y1074430D01*
X1426000Y1074430D01*
X1426000Y1070430D01*
X1424000Y1070430D01*
X1424000Y1046430D01*
X1426000Y1046430D01*
X1426000Y1042430D01*
X1428000Y1042430D01*
X1428000Y1038430D01*
X1430000Y1038430D01*
X1430000Y1032430D01*
X1432000Y1032430D01*
X1432000Y1006430D01*
X1430000Y1006430D01*
X1430000Y1000430D01*
X1428000Y1000430D01*
X1428000Y996430D01*
X1426000Y996430D01*
X1426000Y992430D01*
X1424000Y992430D01*
X1424000Y988430D01*
X1422000Y988430D01*
X1422000Y986430D01*
X1420000Y986430D01*
X1420000Y984430D01*
X1418000Y984430D01*
X1418000Y980430D01*
X1414000Y980430D01*
X1414000Y978430D01*
X1412000Y978430D01*
X1412000Y976430D01*
X1410000Y976430D01*
X1410000Y974430D01*
X1406000Y974430D01*
X1406000Y972430D01*
X1404000Y972430D01*
X1404000Y970430D01*
X1400000Y970430D01*
X1400000Y968430D01*
X1394000Y968430D01*
X1394000Y966430D01*
X1380000Y966430D01*
X1380000Y964430D01*
X1966000Y964430D01*
X1966000Y1718430D01*
X1232000Y1718430D01*
G37*
D02*
G36*
X1232000Y1702430D02*
X1232000Y1666430D01*
X1234000Y1666430D01*
X1234000Y1658430D01*
X1236000Y1658430D01*
X1236000Y1634430D01*
X1234000Y1634430D01*
X1234000Y1626430D01*
X1232000Y1626430D01*
X1232000Y1622430D01*
X1230000Y1622430D01*
X1230000Y1618430D01*
X1228000Y1618430D01*
X1228000Y1594430D01*
X1230000Y1594430D01*
X1230000Y1590430D01*
X1232000Y1590430D01*
X1232000Y1586430D01*
X1234000Y1586430D01*
X1234000Y1580430D01*
X1236000Y1580430D01*
X1236000Y1554430D01*
X1234000Y1554430D01*
X1234000Y1548430D01*
X1232000Y1548430D01*
X1232000Y1544430D01*
X1230000Y1544430D01*
X1230000Y1540430D01*
X1228000Y1540430D01*
X1228000Y1516430D01*
X1230000Y1516430D01*
X1230000Y1512430D01*
X1232000Y1512430D01*
X1232000Y1508430D01*
X1234000Y1508430D01*
X1234000Y1502430D01*
X1236000Y1502430D01*
X1236000Y1476430D01*
X1234000Y1476430D01*
X1234000Y1468430D01*
X1232000Y1468430D01*
X1232000Y1464430D01*
X1230000Y1464430D01*
X1230000Y1462430D01*
X1228000Y1462430D01*
X1228000Y1436430D01*
X1230000Y1436430D01*
X1230000Y1434430D01*
X1232000Y1434430D01*
X1232000Y1430430D01*
X1234000Y1430430D01*
X1234000Y1422430D01*
X1236000Y1422430D01*
X1236000Y1396430D01*
X1234000Y1396430D01*
X1234000Y1390430D01*
X1232000Y1390430D01*
X1232000Y1386430D01*
X1230000Y1386430D01*
X1230000Y1382430D01*
X1228000Y1382430D01*
X1228000Y1358430D01*
X1230000Y1358430D01*
X1230000Y1354430D01*
X1232000Y1354430D01*
X1232000Y1350430D01*
X1234000Y1350430D01*
X1234000Y1344430D01*
X1236000Y1344430D01*
X1236000Y1318430D01*
X1234000Y1318430D01*
X1234000Y1312430D01*
X1232000Y1312430D01*
X1232000Y1308430D01*
X1230000Y1308430D01*
X1230000Y1304430D01*
X1228000Y1304430D01*
X1228000Y1280430D01*
X1230000Y1280430D01*
X1230000Y1276430D01*
X1232000Y1276430D01*
X1232000Y1272430D01*
X1234000Y1272430D01*
X1234000Y1264430D01*
X1236000Y1264430D01*
X1236000Y1240430D01*
X1234000Y1240430D01*
X1234000Y1232430D01*
X1232000Y1232430D01*
X1232000Y1228430D01*
X1230000Y1228430D01*
X1230000Y1226430D01*
X1228000Y1226430D01*
X1228000Y1200430D01*
X1230000Y1200430D01*
X1230000Y1198430D01*
X1232000Y1198430D01*
X1232000Y1192430D01*
X1234000Y1192430D01*
X1234000Y1186430D01*
X1236000Y1186430D01*
X1236000Y1160430D01*
X1234000Y1160430D01*
X1234000Y1154430D01*
X1232000Y1154430D01*
X1232000Y1150430D01*
X1230000Y1150430D01*
X1230000Y1146430D01*
X1228000Y1146430D01*
X1228000Y1122430D01*
X1230000Y1122430D01*
X1230000Y1118430D01*
X1232000Y1118430D01*
X1232000Y1114430D01*
X1234000Y1114430D01*
X1234000Y1108430D01*
X1236000Y1108430D01*
X1236000Y1082430D01*
X1234000Y1082430D01*
X1234000Y1076430D01*
X1232000Y1076430D01*
X1232000Y1072430D01*
X1230000Y1072430D01*
X1230000Y1068430D01*
X1228000Y1068430D01*
X1228000Y1044430D01*
X1230000Y1044430D01*
X1230000Y1040430D01*
X1232000Y1040430D01*
X1232000Y1036430D01*
X1234000Y1036430D01*
X1234000Y1028430D01*
X1236000Y1028430D01*
X1236000Y1004430D01*
X1234000Y1004430D01*
X1234000Y996430D01*
X1232000Y996430D01*
X1232000Y992430D01*
X1230000Y992430D01*
X1230000Y988430D01*
X1228000Y988430D01*
X1228000Y986430D01*
X1226000Y986430D01*
X1226000Y982430D01*
X1224000Y982430D01*
X1224000Y980430D01*
X1222000Y980430D01*
X1222000Y978430D01*
X1220000Y978430D01*
X1220000Y976430D01*
X1218000Y976430D01*
X1218000Y974430D01*
X1214000Y974430D01*
X1214000Y972430D01*
X1212000Y972430D01*
X1212000Y970430D01*
X1208000Y970430D01*
X1208000Y968430D01*
X1204000Y968430D01*
X1204000Y966430D01*
X1200000Y966430D01*
X1200000Y964430D01*
X1378000Y964430D01*
X1378000Y966430D01*
X1364000Y966430D01*
X1364000Y968430D01*
X1358000Y968430D01*
X1358000Y970430D01*
X1354000Y970430D01*
X1354000Y972430D01*
X1352000Y972430D01*
X1352000Y974430D01*
X1348000Y974430D01*
X1348000Y976430D01*
X1346000Y976430D01*
X1346000Y978430D01*
X1342000Y978430D01*
X1342000Y980430D01*
X1340000Y980430D01*
X1340000Y982430D01*
X1338000Y982430D01*
X1338000Y986430D01*
X1336000Y986430D01*
X1336000Y988430D01*
X1334000Y988430D01*
X1334000Y992430D01*
X1332000Y992430D01*
X1332000Y994430D01*
X1330000Y994430D01*
X1330000Y998430D01*
X1328000Y998430D01*
X1328000Y1006430D01*
X1326000Y1006430D01*
X1326000Y1032430D01*
X1328000Y1032430D01*
X1328000Y1038430D01*
X1330000Y1038430D01*
X1330000Y1042430D01*
X1332000Y1042430D01*
X1332000Y1046430D01*
X1334000Y1046430D01*
X1334000Y1070430D01*
X1332000Y1070430D01*
X1332000Y1074430D01*
X1330000Y1074430D01*
X1330000Y1078430D01*
X1328000Y1078430D01*
X1328000Y1084430D01*
X1326000Y1084430D01*
X1326000Y1110430D01*
X1328000Y1110430D01*
X1328000Y1118430D01*
X1330000Y1118430D01*
X1330000Y1122430D01*
X1332000Y1122430D01*
X1332000Y1124430D01*
X1334000Y1124430D01*
X1334000Y1148430D01*
X1332000Y1148430D01*
X1332000Y1152430D01*
X1330000Y1152430D01*
X1330000Y1156430D01*
X1328000Y1156430D01*
X1328000Y1162430D01*
X1326000Y1162430D01*
X1326000Y1190430D01*
X1328000Y1190430D01*
X1328000Y1196430D01*
X1330000Y1196430D01*
X1330000Y1200430D01*
X1332000Y1200430D01*
X1332000Y1204430D01*
X1334000Y1204430D01*
X1334000Y1228430D01*
X1332000Y1228430D01*
X1332000Y1232430D01*
X1330000Y1232430D01*
X1330000Y1234430D01*
X1328000Y1234430D01*
X1328000Y1242430D01*
X1326000Y1242430D01*
X1326000Y1268430D01*
X1328000Y1268430D01*
X1328000Y1274430D01*
X1330000Y1274430D01*
X1330000Y1278430D01*
X1332000Y1278430D01*
X1332000Y1282430D01*
X1334000Y1282430D01*
X1334000Y1306430D01*
X1332000Y1306430D01*
X1332000Y1310430D01*
X1330000Y1310430D01*
X1330000Y1314430D01*
X1328000Y1314430D01*
X1328000Y1320430D01*
X1326000Y1320430D01*
X1326000Y1348430D01*
X1328000Y1348430D01*
X1328000Y1354430D01*
X1330000Y1354430D01*
X1330000Y1358430D01*
X1332000Y1358430D01*
X1332000Y1362430D01*
X1334000Y1362430D01*
X1334000Y1384430D01*
X1332000Y1384430D01*
X1332000Y1388430D01*
X1330000Y1388430D01*
X1330000Y1392430D01*
X1328000Y1392430D01*
X1328000Y1398430D01*
X1326000Y1398430D01*
X1326000Y1426430D01*
X1328000Y1426430D01*
X1328000Y1432430D01*
X1330000Y1432430D01*
X1330000Y1436430D01*
X1332000Y1436430D01*
X1332000Y1440430D01*
X1334000Y1440430D01*
X1334000Y1464430D01*
X1332000Y1464430D01*
X1332000Y1468430D01*
X1330000Y1468430D01*
X1330000Y1472430D01*
X1328000Y1472430D01*
X1328000Y1478430D01*
X1326000Y1478430D01*
X1326000Y1504430D01*
X1328000Y1504430D01*
X1328000Y1512430D01*
X1330000Y1512430D01*
X1330000Y1514430D01*
X1332000Y1514430D01*
X1332000Y1518430D01*
X1334000Y1518430D01*
X1334000Y1542430D01*
X1332000Y1542430D01*
X1332000Y1546430D01*
X1330000Y1546430D01*
X1330000Y1550430D01*
X1328000Y1550430D01*
X1328000Y1556430D01*
X1326000Y1556430D01*
X1326000Y1584430D01*
X1328000Y1584430D01*
X1328000Y1590430D01*
X1330000Y1590430D01*
X1330000Y1594430D01*
X1332000Y1594430D01*
X1332000Y1598430D01*
X1334000Y1598430D01*
X1334000Y1622430D01*
X1332000Y1622430D01*
X1332000Y1624430D01*
X1330000Y1624430D01*
X1330000Y1628430D01*
X1328000Y1628430D01*
X1328000Y1636430D01*
X1326000Y1636430D01*
X1326000Y1662430D01*
X1328000Y1662430D01*
X1328000Y1668430D01*
X1330000Y1668430D01*
X1330000Y1672430D01*
X1332000Y1672430D01*
X1332000Y1676430D01*
X1334000Y1676430D01*
X1334000Y1680430D01*
X1336000Y1680430D01*
X1336000Y1682430D01*
X1338000Y1682430D01*
X1338000Y1684430D01*
X1340000Y1684430D01*
X1340000Y1686430D01*
X1342000Y1686430D01*
X1342000Y1688430D01*
X1344000Y1688430D01*
X1344000Y1690430D01*
X1346000Y1690430D01*
X1346000Y1692430D01*
X1348000Y1692430D01*
X1348000Y1694430D01*
X1352000Y1694430D01*
X1352000Y1696430D01*
X1356000Y1696430D01*
X1356000Y1698430D01*
X1360000Y1698430D01*
X1360000Y1700430D01*
X1368000Y1700430D01*
X1368000Y1702430D01*
X1232000Y1702430D01*
G37*
D02*
G36*
X40000Y1668430D02*
X40000Y1550430D01*
X268000Y1550430D01*
X268000Y1552430D01*
X258000Y1552430D01*
X258000Y1554430D01*
X254000Y1554430D01*
X254000Y1556430D01*
X250000Y1556430D01*
X250000Y1558430D01*
X246000Y1558430D01*
X246000Y1560430D01*
X242000Y1560430D01*
X242000Y1562430D01*
X240000Y1562430D01*
X240000Y1564430D01*
X238000Y1564430D01*
X238000Y1566430D01*
X236000Y1566430D01*
X236000Y1568430D01*
X234000Y1568430D01*
X234000Y1570430D01*
X232000Y1570430D01*
X232000Y1572430D01*
X230000Y1572430D01*
X230000Y1574430D01*
X228000Y1574430D01*
X228000Y1578430D01*
X226000Y1578430D01*
X226000Y1580430D01*
X224000Y1580430D01*
X224000Y1584430D01*
X222000Y1584430D01*
X222000Y1590430D01*
X220000Y1590430D01*
X220000Y1596430D01*
X218000Y1596430D01*
X218000Y1622430D01*
X220000Y1622430D01*
X220000Y1628430D01*
X222000Y1628430D01*
X222000Y1634430D01*
X224000Y1634430D01*
X224000Y1638430D01*
X226000Y1638430D01*
X226000Y1640430D01*
X228000Y1640430D01*
X228000Y1644430D01*
X230000Y1644430D01*
X230000Y1646430D01*
X232000Y1646430D01*
X232000Y1648430D01*
X234000Y1648430D01*
X234000Y1650430D01*
X236000Y1650430D01*
X236000Y1652430D01*
X238000Y1652430D01*
X238000Y1654430D01*
X240000Y1654430D01*
X240000Y1656430D01*
X242000Y1656430D01*
X242000Y1658430D01*
X246000Y1658430D01*
X246000Y1660430D01*
X248000Y1660430D01*
X248000Y1662430D01*
X252000Y1662430D01*
X252000Y1664430D01*
X258000Y1664430D01*
X258000Y1666430D01*
X266000Y1666430D01*
X266000Y1668430D01*
X40000Y1668430D01*
G37*
D02*
G36*
X40000Y1550430D02*
X40000Y1548430D01*
X1084000Y1548430D01*
X1084000Y1550430D01*
X40000Y1550430D01*
G37*
D02*
G36*
X40000Y1550430D02*
X40000Y1548430D01*
X1084000Y1548430D01*
X1084000Y1550430D01*
X40000Y1550430D01*
G37*
D02*
G36*
X40000Y1548430D02*
X40000Y1530430D01*
X690000Y1530430D01*
X690000Y1528430D01*
X904000Y1528430D01*
X904000Y1526430D01*
X1090000Y1526430D01*
X1090000Y1546430D01*
X1088000Y1546430D01*
X1088000Y1548430D01*
X40000Y1548430D01*
G37*
D02*
G36*
X40000Y1530430D02*
X40000Y1468430D01*
X288000Y1468430D01*
X288000Y1466430D01*
X296000Y1466430D01*
X296000Y1464430D01*
X300000Y1464430D01*
X300000Y1462430D01*
X304000Y1462430D01*
X304000Y1460430D01*
X308000Y1460430D01*
X308000Y1458430D01*
X310000Y1458430D01*
X310000Y1456430D01*
X314000Y1456430D01*
X314000Y1454430D01*
X316000Y1454430D01*
X316000Y1452430D01*
X318000Y1452430D01*
X318000Y1450430D01*
X320000Y1450430D01*
X320000Y1448430D01*
X322000Y1448430D01*
X322000Y1446430D01*
X324000Y1446430D01*
X324000Y1442430D01*
X326000Y1442430D01*
X326000Y1440430D01*
X328000Y1440430D01*
X328000Y1436430D01*
X330000Y1436430D01*
X330000Y1432430D01*
X332000Y1432430D01*
X332000Y1426430D01*
X334000Y1426430D01*
X334000Y1416430D01*
X336000Y1416430D01*
X336000Y1402430D01*
X334000Y1402430D01*
X334000Y1392430D01*
X332000Y1392430D01*
X332000Y1386430D01*
X330000Y1386430D01*
X330000Y1382430D01*
X328000Y1382430D01*
X328000Y1378430D01*
X326000Y1378430D01*
X326000Y1376430D01*
X324000Y1376430D01*
X324000Y1374430D01*
X322000Y1374430D01*
X322000Y1370430D01*
X320000Y1370430D01*
X320000Y1368430D01*
X318000Y1368430D01*
X318000Y1366430D01*
X316000Y1366430D01*
X316000Y1364430D01*
X312000Y1364430D01*
X312000Y1362430D01*
X310000Y1362430D01*
X310000Y1360430D01*
X308000Y1360430D01*
X308000Y1358430D01*
X304000Y1358430D01*
X304000Y1356430D01*
X300000Y1356430D01*
X300000Y1354430D01*
X294000Y1354430D01*
X294000Y1352430D01*
X284000Y1352430D01*
X284000Y1350430D01*
X398000Y1350430D01*
X398000Y1352430D01*
X400000Y1352430D01*
X400000Y1354430D01*
X402000Y1354430D01*
X402000Y1356430D01*
X404000Y1356430D01*
X404000Y1358430D01*
X406000Y1358430D01*
X406000Y1360430D01*
X408000Y1360430D01*
X408000Y1362430D01*
X410000Y1362430D01*
X410000Y1364430D01*
X412000Y1364430D01*
X412000Y1366430D01*
X414000Y1366430D01*
X414000Y1368430D01*
X416000Y1368430D01*
X416000Y1370430D01*
X418000Y1370430D01*
X418000Y1372430D01*
X420000Y1372430D01*
X420000Y1374430D01*
X422000Y1374430D01*
X422000Y1376430D01*
X424000Y1376430D01*
X424000Y1378430D01*
X426000Y1378430D01*
X426000Y1380430D01*
X428000Y1380430D01*
X428000Y1382430D01*
X430000Y1382430D01*
X430000Y1384430D01*
X432000Y1384430D01*
X432000Y1386430D01*
X434000Y1386430D01*
X434000Y1388430D01*
X436000Y1388430D01*
X436000Y1390430D01*
X438000Y1390430D01*
X438000Y1392430D01*
X440000Y1392430D01*
X440000Y1394430D01*
X442000Y1394430D01*
X442000Y1396430D01*
X444000Y1396430D01*
X444000Y1398430D01*
X446000Y1398430D01*
X446000Y1400430D01*
X448000Y1400430D01*
X448000Y1402430D01*
X450000Y1402430D01*
X450000Y1404430D01*
X452000Y1404430D01*
X452000Y1406430D01*
X454000Y1406430D01*
X454000Y1408430D01*
X456000Y1408430D01*
X456000Y1410430D01*
X458000Y1410430D01*
X458000Y1412430D01*
X460000Y1412430D01*
X460000Y1414430D01*
X462000Y1414430D01*
X462000Y1416430D01*
X464000Y1416430D01*
X464000Y1418430D01*
X466000Y1418430D01*
X466000Y1420430D01*
X468000Y1420430D01*
X468000Y1422430D01*
X470000Y1422430D01*
X470000Y1424430D01*
X472000Y1424430D01*
X472000Y1426430D01*
X474000Y1426430D01*
X474000Y1428430D01*
X476000Y1428430D01*
X476000Y1430430D01*
X478000Y1430430D01*
X478000Y1432430D01*
X480000Y1432430D01*
X480000Y1434430D01*
X482000Y1434430D01*
X482000Y1436430D01*
X484000Y1436430D01*
X484000Y1438430D01*
X486000Y1438430D01*
X486000Y1440430D01*
X488000Y1440430D01*
X488000Y1442430D01*
X490000Y1442430D01*
X490000Y1444430D01*
X492000Y1444430D01*
X492000Y1446430D01*
X494000Y1446430D01*
X494000Y1448430D01*
X496000Y1448430D01*
X496000Y1450430D01*
X498000Y1450430D01*
X498000Y1452430D01*
X500000Y1452430D01*
X500000Y1454430D01*
X502000Y1454430D01*
X502000Y1456430D01*
X504000Y1456430D01*
X504000Y1458430D01*
X506000Y1458430D01*
X506000Y1460430D01*
X508000Y1460430D01*
X508000Y1462430D01*
X510000Y1462430D01*
X510000Y1464430D01*
X512000Y1464430D01*
X512000Y1466430D01*
X514000Y1466430D01*
X514000Y1468430D01*
X516000Y1468430D01*
X516000Y1470430D01*
X518000Y1470430D01*
X518000Y1472430D01*
X520000Y1472430D01*
X520000Y1474430D01*
X522000Y1474430D01*
X522000Y1476430D01*
X524000Y1476430D01*
X524000Y1478430D01*
X526000Y1478430D01*
X526000Y1480430D01*
X528000Y1480430D01*
X528000Y1482430D01*
X530000Y1482430D01*
X530000Y1484430D01*
X532000Y1484430D01*
X532000Y1486430D01*
X534000Y1486430D01*
X534000Y1488430D01*
X536000Y1488430D01*
X536000Y1490430D01*
X538000Y1490430D01*
X538000Y1492430D01*
X540000Y1492430D01*
X540000Y1494430D01*
X542000Y1494430D01*
X542000Y1496430D01*
X544000Y1496430D01*
X544000Y1498430D01*
X546000Y1498430D01*
X546000Y1500430D01*
X548000Y1500430D01*
X548000Y1502430D01*
X550000Y1502430D01*
X550000Y1504430D01*
X552000Y1504430D01*
X552000Y1506430D01*
X554000Y1506430D01*
X554000Y1508430D01*
X556000Y1508430D01*
X556000Y1510430D01*
X558000Y1510430D01*
X558000Y1512430D01*
X560000Y1512430D01*
X560000Y1514430D01*
X562000Y1514430D01*
X562000Y1516430D01*
X564000Y1516430D01*
X564000Y1518430D01*
X566000Y1518430D01*
X566000Y1520430D01*
X568000Y1520430D01*
X568000Y1522430D01*
X570000Y1522430D01*
X570000Y1524430D01*
X574000Y1524430D01*
X574000Y1526430D01*
X576000Y1526430D01*
X576000Y1528430D01*
X584000Y1528430D01*
X584000Y1530430D01*
X40000Y1530430D01*
G37*
D02*
G36*
X40000Y1468430D02*
X40000Y1350430D01*
X268000Y1350430D01*
X268000Y1352430D01*
X258000Y1352430D01*
X258000Y1354430D01*
X254000Y1354430D01*
X254000Y1356430D01*
X250000Y1356430D01*
X250000Y1358430D01*
X246000Y1358430D01*
X246000Y1360430D01*
X242000Y1360430D01*
X242000Y1362430D01*
X240000Y1362430D01*
X240000Y1364430D01*
X238000Y1364430D01*
X238000Y1366430D01*
X236000Y1366430D01*
X236000Y1368430D01*
X234000Y1368430D01*
X234000Y1370430D01*
X232000Y1370430D01*
X232000Y1372430D01*
X230000Y1372430D01*
X230000Y1374430D01*
X228000Y1374430D01*
X228000Y1378430D01*
X226000Y1378430D01*
X226000Y1380430D01*
X224000Y1380430D01*
X224000Y1384430D01*
X222000Y1384430D01*
X222000Y1390430D01*
X220000Y1390430D01*
X220000Y1396430D01*
X218000Y1396430D01*
X218000Y1422430D01*
X220000Y1422430D01*
X220000Y1428430D01*
X222000Y1428430D01*
X222000Y1434430D01*
X224000Y1434430D01*
X224000Y1438430D01*
X226000Y1438430D01*
X226000Y1440430D01*
X228000Y1440430D01*
X228000Y1444430D01*
X230000Y1444430D01*
X230000Y1446430D01*
X232000Y1446430D01*
X232000Y1448430D01*
X234000Y1448430D01*
X234000Y1450430D01*
X236000Y1450430D01*
X236000Y1452430D01*
X238000Y1452430D01*
X238000Y1454430D01*
X240000Y1454430D01*
X240000Y1456430D01*
X242000Y1456430D01*
X242000Y1458430D01*
X246000Y1458430D01*
X246000Y1460430D01*
X248000Y1460430D01*
X248000Y1462430D01*
X252000Y1462430D01*
X252000Y1464430D01*
X258000Y1464430D01*
X258000Y1466430D01*
X266000Y1466430D01*
X266000Y1468430D01*
X40000Y1468430D01*
G37*
D02*
G36*
X606000Y1458430D02*
X606000Y1456430D01*
X604000Y1456430D01*
X604000Y1454430D01*
X602000Y1454430D01*
X602000Y1452430D01*
X600000Y1452430D01*
X600000Y1450430D01*
X598000Y1450430D01*
X598000Y1448430D01*
X596000Y1448430D01*
X596000Y1446430D01*
X594000Y1446430D01*
X594000Y1444430D01*
X592000Y1444430D01*
X592000Y1442430D01*
X590000Y1442430D01*
X590000Y1440430D01*
X588000Y1440430D01*
X588000Y1438430D01*
X586000Y1438430D01*
X586000Y1436430D01*
X584000Y1436430D01*
X584000Y1434430D01*
X582000Y1434430D01*
X582000Y1432430D01*
X580000Y1432430D01*
X580000Y1430430D01*
X578000Y1430430D01*
X578000Y1428430D01*
X576000Y1428430D01*
X576000Y1426430D01*
X574000Y1426430D01*
X574000Y1424430D01*
X572000Y1424430D01*
X572000Y1422430D01*
X570000Y1422430D01*
X570000Y1420430D01*
X568000Y1420430D01*
X568000Y1418430D01*
X566000Y1418430D01*
X566000Y1416430D01*
X564000Y1416430D01*
X564000Y1414430D01*
X562000Y1414430D01*
X562000Y1412430D01*
X560000Y1412430D01*
X560000Y1410430D01*
X558000Y1410430D01*
X558000Y1408430D01*
X556000Y1408430D01*
X556000Y1406430D01*
X554000Y1406430D01*
X554000Y1404430D01*
X552000Y1404430D01*
X552000Y1402430D01*
X550000Y1402430D01*
X550000Y1400430D01*
X548000Y1400430D01*
X548000Y1398430D01*
X546000Y1398430D01*
X546000Y1396430D01*
X544000Y1396430D01*
X544000Y1394430D01*
X542000Y1394430D01*
X542000Y1392430D01*
X540000Y1392430D01*
X540000Y1390430D01*
X538000Y1390430D01*
X538000Y1388430D01*
X536000Y1388430D01*
X536000Y1386430D01*
X534000Y1386430D01*
X534000Y1384430D01*
X532000Y1384430D01*
X532000Y1382430D01*
X530000Y1382430D01*
X530000Y1380430D01*
X528000Y1380430D01*
X528000Y1378430D01*
X526000Y1378430D01*
X526000Y1376430D01*
X524000Y1376430D01*
X524000Y1374430D01*
X522000Y1374430D01*
X522000Y1372430D01*
X520000Y1372430D01*
X520000Y1370430D01*
X518000Y1370430D01*
X518000Y1368430D01*
X516000Y1368430D01*
X516000Y1366430D01*
X514000Y1366430D01*
X514000Y1364430D01*
X512000Y1364430D01*
X512000Y1362430D01*
X510000Y1362430D01*
X510000Y1360430D01*
X508000Y1360430D01*
X508000Y1358430D01*
X506000Y1358430D01*
X506000Y1356430D01*
X504000Y1356430D01*
X504000Y1354430D01*
X502000Y1354430D01*
X502000Y1352430D01*
X500000Y1352430D01*
X500000Y1350430D01*
X498000Y1350430D01*
X498000Y1348430D01*
X496000Y1348430D01*
X496000Y1346430D01*
X494000Y1346430D01*
X494000Y1344430D01*
X492000Y1344430D01*
X492000Y1342430D01*
X490000Y1342430D01*
X490000Y1340430D01*
X488000Y1340430D01*
X488000Y1338430D01*
X486000Y1338430D01*
X486000Y1336430D01*
X484000Y1336430D01*
X484000Y1334430D01*
X482000Y1334430D01*
X482000Y1332430D01*
X480000Y1332430D01*
X480000Y1330430D01*
X478000Y1330430D01*
X478000Y1328430D01*
X476000Y1328430D01*
X476000Y1326430D01*
X474000Y1326430D01*
X474000Y1324430D01*
X472000Y1324430D01*
X472000Y1322430D01*
X470000Y1322430D01*
X470000Y1320430D01*
X468000Y1320430D01*
X468000Y1318430D01*
X466000Y1318430D01*
X466000Y1316430D01*
X464000Y1316430D01*
X464000Y1314430D01*
X462000Y1314430D01*
X462000Y1312430D01*
X460000Y1312430D01*
X460000Y1310430D01*
X458000Y1310430D01*
X458000Y1308430D01*
X456000Y1308430D01*
X456000Y1306430D01*
X454000Y1306430D01*
X454000Y1304430D01*
X452000Y1304430D01*
X452000Y1302430D01*
X450000Y1302430D01*
X450000Y1300430D01*
X448000Y1300430D01*
X448000Y1298430D01*
X446000Y1298430D01*
X446000Y1296430D01*
X444000Y1296430D01*
X444000Y1294430D01*
X442000Y1294430D01*
X442000Y1292430D01*
X440000Y1292430D01*
X440000Y1290430D01*
X848000Y1290430D01*
X848000Y1288430D01*
X1136000Y1288430D01*
X1136000Y1308430D01*
X1134000Y1308430D01*
X1134000Y1312430D01*
X1132000Y1312430D01*
X1132000Y1318430D01*
X1130000Y1318430D01*
X1130000Y1344430D01*
X1132000Y1344430D01*
X1132000Y1350430D01*
X1134000Y1350430D01*
X1134000Y1354430D01*
X1136000Y1354430D01*
X1136000Y1358430D01*
X1138000Y1358430D01*
X1138000Y1382430D01*
X1136000Y1382430D01*
X1136000Y1386430D01*
X1134000Y1386430D01*
X1134000Y1390430D01*
X1132000Y1390430D01*
X1132000Y1396430D01*
X1130000Y1396430D01*
X1130000Y1422430D01*
X1132000Y1422430D01*
X1132000Y1430430D01*
X1134000Y1430430D01*
X1134000Y1452430D01*
X1116000Y1452430D01*
X1116000Y1454430D01*
X902000Y1454430D01*
X902000Y1456430D01*
X688000Y1456430D01*
X688000Y1458430D01*
X606000Y1458430D01*
G37*
D02*
G36*
X40000Y1350430D02*
X40000Y1348430D01*
X396000Y1348430D01*
X396000Y1350430D01*
X40000Y1350430D01*
G37*
D02*
G36*
X40000Y1350430D02*
X40000Y1348430D01*
X396000Y1348430D01*
X396000Y1350430D01*
X40000Y1350430D01*
G37*
D02*
G36*
X40000Y1348430D02*
X40000Y1118430D01*
X262000Y1118430D01*
X262000Y1120430D01*
X256000Y1120430D01*
X256000Y1122430D01*
X252000Y1122430D01*
X252000Y1124430D01*
X248000Y1124430D01*
X248000Y1126430D01*
X244000Y1126430D01*
X244000Y1128430D01*
X242000Y1128430D01*
X242000Y1130430D01*
X240000Y1130430D01*
X240000Y1132430D01*
X236000Y1132430D01*
X236000Y1134430D01*
X234000Y1134430D01*
X234000Y1136430D01*
X232000Y1136430D01*
X232000Y1140430D01*
X230000Y1140430D01*
X230000Y1142430D01*
X228000Y1142430D01*
X228000Y1144430D01*
X226000Y1144430D01*
X226000Y1148430D01*
X224000Y1148430D01*
X224000Y1152430D01*
X222000Y1152430D01*
X222000Y1156430D01*
X220000Y1156430D01*
X220000Y1164430D01*
X218000Y1164430D01*
X218000Y1188430D01*
X220000Y1188430D01*
X220000Y1196430D01*
X222000Y1196430D01*
X222000Y1200430D01*
X224000Y1200430D01*
X224000Y1204430D01*
X226000Y1204430D01*
X226000Y1208430D01*
X228000Y1208430D01*
X228000Y1210430D01*
X230000Y1210430D01*
X230000Y1214430D01*
X232000Y1214430D01*
X232000Y1216430D01*
X234000Y1216430D01*
X234000Y1218430D01*
X236000Y1218430D01*
X236000Y1220430D01*
X238000Y1220430D01*
X238000Y1222430D01*
X242000Y1222430D01*
X242000Y1224430D01*
X244000Y1224430D01*
X244000Y1226430D01*
X246000Y1226430D01*
X246000Y1228430D01*
X250000Y1228430D01*
X250000Y1230430D01*
X254000Y1230430D01*
X254000Y1232430D01*
X262000Y1232430D01*
X262000Y1234430D01*
X274000Y1234430D01*
X274000Y1236430D01*
X286000Y1236430D01*
X286000Y1238430D01*
X288000Y1238430D01*
X288000Y1240430D01*
X290000Y1240430D01*
X290000Y1242430D01*
X292000Y1242430D01*
X292000Y1244430D01*
X294000Y1244430D01*
X294000Y1246430D01*
X296000Y1246430D01*
X296000Y1248430D01*
X298000Y1248430D01*
X298000Y1250430D01*
X300000Y1250430D01*
X300000Y1252430D01*
X302000Y1252430D01*
X302000Y1254430D01*
X304000Y1254430D01*
X304000Y1256430D01*
X306000Y1256430D01*
X306000Y1258430D01*
X308000Y1258430D01*
X308000Y1260430D01*
X310000Y1260430D01*
X310000Y1262430D01*
X312000Y1262430D01*
X312000Y1264430D01*
X314000Y1264430D01*
X314000Y1266430D01*
X316000Y1266430D01*
X316000Y1268430D01*
X318000Y1268430D01*
X318000Y1270430D01*
X320000Y1270430D01*
X320000Y1272430D01*
X322000Y1272430D01*
X322000Y1274430D01*
X324000Y1274430D01*
X324000Y1276430D01*
X326000Y1276430D01*
X326000Y1278430D01*
X328000Y1278430D01*
X328000Y1280430D01*
X330000Y1280430D01*
X330000Y1282430D01*
X332000Y1282430D01*
X332000Y1284430D01*
X334000Y1284430D01*
X334000Y1286430D01*
X336000Y1286430D01*
X336000Y1288430D01*
X338000Y1288430D01*
X338000Y1290430D01*
X340000Y1290430D01*
X340000Y1292430D01*
X342000Y1292430D01*
X342000Y1294430D01*
X344000Y1294430D01*
X344000Y1296430D01*
X346000Y1296430D01*
X346000Y1298430D01*
X348000Y1298430D01*
X348000Y1300430D01*
X350000Y1300430D01*
X350000Y1302430D01*
X352000Y1302430D01*
X352000Y1304430D01*
X354000Y1304430D01*
X354000Y1306430D01*
X356000Y1306430D01*
X356000Y1308430D01*
X358000Y1308430D01*
X358000Y1310430D01*
X360000Y1310430D01*
X360000Y1312430D01*
X362000Y1312430D01*
X362000Y1314430D01*
X364000Y1314430D01*
X364000Y1316430D01*
X366000Y1316430D01*
X366000Y1318430D01*
X368000Y1318430D01*
X368000Y1320430D01*
X370000Y1320430D01*
X370000Y1322430D01*
X372000Y1322430D01*
X372000Y1324430D01*
X374000Y1324430D01*
X374000Y1326430D01*
X376000Y1326430D01*
X376000Y1328430D01*
X378000Y1328430D01*
X378000Y1330430D01*
X380000Y1330430D01*
X380000Y1332430D01*
X382000Y1332430D01*
X382000Y1334430D01*
X384000Y1334430D01*
X384000Y1336430D01*
X386000Y1336430D01*
X386000Y1338430D01*
X388000Y1338430D01*
X388000Y1340430D01*
X390000Y1340430D01*
X390000Y1342430D01*
X392000Y1342430D01*
X392000Y1344430D01*
X394000Y1344430D01*
X394000Y1348430D01*
X40000Y1348430D01*
G37*
D02*
G36*
X438000Y1290430D02*
X438000Y1288430D01*
X436000Y1288430D01*
X436000Y1286430D01*
X434000Y1286430D01*
X434000Y1284430D01*
X432000Y1284430D01*
X432000Y1282430D01*
X430000Y1282430D01*
X430000Y1280430D01*
X428000Y1280430D01*
X428000Y1278430D01*
X426000Y1278430D01*
X426000Y1274430D01*
X424000Y1274430D01*
X424000Y1272430D01*
X422000Y1272430D01*
X422000Y1270430D01*
X420000Y1270430D01*
X420000Y1268430D01*
X418000Y1268430D01*
X418000Y1266430D01*
X416000Y1266430D01*
X416000Y1264430D01*
X414000Y1264430D01*
X414000Y1262430D01*
X412000Y1262430D01*
X412000Y1260430D01*
X410000Y1260430D01*
X410000Y1258430D01*
X408000Y1258430D01*
X408000Y1256430D01*
X406000Y1256430D01*
X406000Y1254430D01*
X404000Y1254430D01*
X404000Y1252430D01*
X402000Y1252430D01*
X402000Y1250430D01*
X400000Y1250430D01*
X400000Y1248430D01*
X398000Y1248430D01*
X398000Y1246430D01*
X396000Y1246430D01*
X396000Y1244430D01*
X394000Y1244430D01*
X394000Y1242430D01*
X392000Y1242430D01*
X392000Y1240430D01*
X390000Y1240430D01*
X390000Y1238430D01*
X388000Y1238430D01*
X388000Y1236430D01*
X386000Y1236430D01*
X386000Y1234430D01*
X384000Y1234430D01*
X384000Y1232430D01*
X382000Y1232430D01*
X382000Y1230430D01*
X380000Y1230430D01*
X380000Y1228430D01*
X378000Y1228430D01*
X378000Y1226430D01*
X376000Y1226430D01*
X376000Y1224430D01*
X374000Y1224430D01*
X374000Y1222430D01*
X372000Y1222430D01*
X372000Y1220430D01*
X370000Y1220430D01*
X370000Y1218430D01*
X368000Y1218430D01*
X368000Y1216430D01*
X366000Y1216430D01*
X366000Y1214430D01*
X364000Y1214430D01*
X364000Y1212430D01*
X362000Y1212430D01*
X362000Y1210430D01*
X360000Y1210430D01*
X360000Y1208430D01*
X358000Y1208430D01*
X358000Y1206430D01*
X356000Y1206430D01*
X356000Y1204430D01*
X354000Y1204430D01*
X354000Y1202430D01*
X352000Y1202430D01*
X352000Y1200430D01*
X350000Y1200430D01*
X350000Y1198430D01*
X348000Y1198430D01*
X348000Y1196430D01*
X346000Y1196430D01*
X346000Y1194430D01*
X344000Y1194430D01*
X344000Y1192430D01*
X342000Y1192430D01*
X342000Y1190430D01*
X340000Y1190430D01*
X340000Y1188430D01*
X338000Y1188430D01*
X338000Y1186430D01*
X336000Y1186430D01*
X336000Y1170430D01*
X334000Y1170430D01*
X334000Y1160430D01*
X332000Y1160430D01*
X332000Y1154430D01*
X330000Y1154430D01*
X330000Y1150430D01*
X328000Y1150430D01*
X328000Y1146430D01*
X326000Y1146430D01*
X326000Y1142430D01*
X324000Y1142430D01*
X324000Y1140430D01*
X322000Y1140430D01*
X322000Y1138430D01*
X320000Y1138430D01*
X320000Y1136430D01*
X318000Y1136430D01*
X318000Y1134430D01*
X316000Y1134430D01*
X316000Y1132430D01*
X314000Y1132430D01*
X314000Y1130430D01*
X312000Y1130430D01*
X312000Y1128430D01*
X308000Y1128430D01*
X308000Y1126430D01*
X306000Y1126430D01*
X306000Y1124430D01*
X302000Y1124430D01*
X302000Y1122430D01*
X298000Y1122430D01*
X298000Y1120430D01*
X290000Y1120430D01*
X290000Y1118430D01*
X478000Y1118430D01*
X478000Y1120430D01*
X480000Y1120430D01*
X480000Y1124430D01*
X482000Y1124430D01*
X482000Y1126430D01*
X484000Y1126430D01*
X484000Y1128430D01*
X486000Y1128430D01*
X486000Y1130430D01*
X488000Y1130430D01*
X488000Y1134430D01*
X490000Y1134430D01*
X490000Y1136430D01*
X492000Y1136430D01*
X492000Y1138430D01*
X494000Y1138430D01*
X494000Y1140430D01*
X496000Y1140430D01*
X496000Y1144430D01*
X498000Y1144430D01*
X498000Y1146430D01*
X500000Y1146430D01*
X500000Y1148430D01*
X502000Y1148430D01*
X502000Y1150430D01*
X504000Y1150430D01*
X504000Y1154430D01*
X506000Y1154430D01*
X506000Y1156430D01*
X508000Y1156430D01*
X508000Y1158430D01*
X510000Y1158430D01*
X510000Y1160430D01*
X512000Y1160430D01*
X512000Y1164430D01*
X514000Y1164430D01*
X514000Y1166430D01*
X516000Y1166430D01*
X516000Y1168430D01*
X518000Y1168430D01*
X518000Y1170430D01*
X520000Y1170430D01*
X520000Y1174430D01*
X522000Y1174430D01*
X522000Y1176430D01*
X524000Y1176430D01*
X524000Y1178430D01*
X526000Y1178430D01*
X526000Y1180430D01*
X528000Y1180430D01*
X528000Y1184430D01*
X530000Y1184430D01*
X530000Y1186430D01*
X532000Y1186430D01*
X532000Y1188430D01*
X534000Y1188430D01*
X534000Y1190430D01*
X536000Y1190430D01*
X536000Y1194430D01*
X538000Y1194430D01*
X538000Y1196430D01*
X540000Y1196430D01*
X540000Y1198430D01*
X542000Y1198430D01*
X542000Y1200430D01*
X544000Y1200430D01*
X544000Y1204430D01*
X546000Y1204430D01*
X546000Y1206430D01*
X548000Y1206430D01*
X548000Y1208430D01*
X550000Y1208430D01*
X550000Y1210430D01*
X552000Y1210430D01*
X552000Y1214430D01*
X554000Y1214430D01*
X554000Y1216430D01*
X556000Y1216430D01*
X556000Y1218430D01*
X558000Y1218430D01*
X558000Y1220430D01*
X560000Y1220430D01*
X560000Y1224430D01*
X562000Y1224430D01*
X562000Y1226430D01*
X564000Y1226430D01*
X564000Y1228430D01*
X566000Y1228430D01*
X566000Y1230430D01*
X568000Y1230430D01*
X568000Y1234430D01*
X570000Y1234430D01*
X570000Y1236430D01*
X572000Y1236430D01*
X572000Y1238430D01*
X574000Y1238430D01*
X574000Y1240430D01*
X576000Y1240430D01*
X576000Y1244430D01*
X578000Y1244430D01*
X578000Y1246430D01*
X580000Y1246430D01*
X580000Y1248430D01*
X582000Y1248430D01*
X582000Y1252430D01*
X584000Y1252430D01*
X584000Y1254430D01*
X586000Y1254430D01*
X586000Y1256430D01*
X588000Y1256430D01*
X588000Y1258430D01*
X590000Y1258430D01*
X590000Y1262430D01*
X592000Y1262430D01*
X592000Y1264430D01*
X594000Y1264430D01*
X594000Y1266430D01*
X596000Y1266430D01*
X596000Y1268430D01*
X598000Y1268430D01*
X598000Y1272430D01*
X600000Y1272430D01*
X600000Y1274430D01*
X602000Y1274430D01*
X602000Y1276430D01*
X604000Y1276430D01*
X604000Y1278430D01*
X606000Y1278430D01*
X606000Y1280430D01*
X608000Y1280430D01*
X608000Y1282430D01*
X610000Y1282430D01*
X610000Y1284430D01*
X614000Y1284430D01*
X614000Y1286430D01*
X618000Y1286430D01*
X618000Y1288430D01*
X626000Y1288430D01*
X626000Y1290430D01*
X438000Y1290430D01*
G37*
D02*
G36*
X688000Y1138430D02*
X688000Y1136430D01*
X686000Y1136430D01*
X686000Y1134430D01*
X684000Y1134430D01*
X684000Y1130430D01*
X682000Y1130430D01*
X682000Y1128430D01*
X680000Y1128430D01*
X680000Y1126430D01*
X678000Y1126430D01*
X678000Y1124430D01*
X676000Y1124430D01*
X676000Y1120430D01*
X674000Y1120430D01*
X674000Y1118430D01*
X672000Y1118430D01*
X672000Y1116430D01*
X670000Y1116430D01*
X670000Y1114430D01*
X668000Y1114430D01*
X668000Y1112430D01*
X666000Y1112430D01*
X666000Y1108430D01*
X664000Y1108430D01*
X664000Y1106430D01*
X662000Y1106430D01*
X662000Y1104430D01*
X660000Y1104430D01*
X660000Y1102430D01*
X658000Y1102430D01*
X658000Y1098430D01*
X656000Y1098430D01*
X656000Y1096430D01*
X654000Y1096430D01*
X654000Y1094430D01*
X652000Y1094430D01*
X652000Y1092430D01*
X650000Y1092430D01*
X650000Y1088430D01*
X648000Y1088430D01*
X648000Y1086430D01*
X646000Y1086430D01*
X646000Y1084430D01*
X644000Y1084430D01*
X644000Y1082430D01*
X642000Y1082430D01*
X642000Y1078430D01*
X640000Y1078430D01*
X640000Y1076430D01*
X638000Y1076430D01*
X638000Y1074430D01*
X636000Y1074430D01*
X636000Y1072430D01*
X634000Y1072430D01*
X634000Y1070430D01*
X632000Y1070430D01*
X632000Y1066430D01*
X630000Y1066430D01*
X630000Y1064430D01*
X628000Y1064430D01*
X628000Y1062430D01*
X626000Y1062430D01*
X626000Y1060430D01*
X624000Y1060430D01*
X624000Y1056430D01*
X622000Y1056430D01*
X622000Y1054430D01*
X620000Y1054430D01*
X620000Y1052430D01*
X618000Y1052430D01*
X618000Y1050430D01*
X616000Y1050430D01*
X616000Y1046430D01*
X614000Y1046430D01*
X614000Y1044430D01*
X612000Y1044430D01*
X612000Y1042430D01*
X610000Y1042430D01*
X610000Y1040430D01*
X608000Y1040430D01*
X608000Y1036430D01*
X606000Y1036430D01*
X606000Y1034430D01*
X604000Y1034430D01*
X604000Y1032430D01*
X602000Y1032430D01*
X602000Y1030430D01*
X600000Y1030430D01*
X600000Y1026430D01*
X598000Y1026430D01*
X598000Y1024430D01*
X596000Y1024430D01*
X596000Y1022430D01*
X594000Y1022430D01*
X594000Y1020430D01*
X592000Y1020430D01*
X592000Y1018430D01*
X590000Y1018430D01*
X590000Y1014430D01*
X588000Y1014430D01*
X588000Y1012430D01*
X586000Y1012430D01*
X586000Y1010430D01*
X584000Y1010430D01*
X584000Y1008430D01*
X582000Y1008430D01*
X582000Y1004430D01*
X580000Y1004430D01*
X580000Y1002430D01*
X578000Y1002430D01*
X578000Y1000430D01*
X576000Y1000430D01*
X576000Y998430D01*
X574000Y998430D01*
X574000Y994430D01*
X572000Y994430D01*
X572000Y992430D01*
X570000Y992430D01*
X570000Y990430D01*
X568000Y990430D01*
X568000Y988430D01*
X566000Y988430D01*
X566000Y984430D01*
X564000Y984430D01*
X564000Y982430D01*
X562000Y982430D01*
X562000Y980430D01*
X560000Y980430D01*
X560000Y978430D01*
X558000Y978430D01*
X558000Y976430D01*
X556000Y976430D01*
X556000Y972430D01*
X554000Y972430D01*
X554000Y970430D01*
X552000Y970430D01*
X552000Y968430D01*
X550000Y968430D01*
X550000Y966430D01*
X548000Y966430D01*
X548000Y962430D01*
X1174000Y962430D01*
X1174000Y964430D01*
X1166000Y964430D01*
X1166000Y966430D01*
X1160000Y966430D01*
X1160000Y968430D01*
X1158000Y968430D01*
X1158000Y970430D01*
X1154000Y970430D01*
X1154000Y972430D01*
X1152000Y972430D01*
X1152000Y974430D01*
X1148000Y974430D01*
X1148000Y976430D01*
X1146000Y976430D01*
X1146000Y978430D01*
X1144000Y978430D01*
X1144000Y980430D01*
X1142000Y980430D01*
X1142000Y982430D01*
X1140000Y982430D01*
X1140000Y986430D01*
X1138000Y986430D01*
X1138000Y988430D01*
X1136000Y988430D01*
X1136000Y992430D01*
X1134000Y992430D01*
X1134000Y996430D01*
X1132000Y996430D01*
X1132000Y1002430D01*
X1130000Y1002430D01*
X1130000Y1030430D01*
X1132000Y1030430D01*
X1132000Y1036430D01*
X1134000Y1036430D01*
X1134000Y1040430D01*
X1136000Y1040430D01*
X1136000Y1044430D01*
X1138000Y1044430D01*
X1138000Y1068430D01*
X1136000Y1068430D01*
X1136000Y1070430D01*
X1134000Y1070430D01*
X1134000Y1074430D01*
X1132000Y1074430D01*
X1132000Y1082430D01*
X1130000Y1082430D01*
X1130000Y1108430D01*
X1132000Y1108430D01*
X1132000Y1114430D01*
X1134000Y1114430D01*
X1134000Y1118430D01*
X1136000Y1118430D01*
X1136000Y1138430D01*
X688000Y1138430D01*
G37*
D02*
G36*
X40000Y1118430D02*
X40000Y1116430D01*
X476000Y1116430D01*
X476000Y1118430D01*
X40000Y1118430D01*
G37*
D02*
G36*
X40000Y1118430D02*
X40000Y1116430D01*
X476000Y1116430D01*
X476000Y1118430D01*
X40000Y1118430D01*
G37*
D02*
G36*
X40000Y1116430D02*
X40000Y1036430D01*
X280000Y1036430D01*
X280000Y1034430D01*
X292000Y1034430D01*
X292000Y1032430D01*
X298000Y1032430D01*
X298000Y1030430D01*
X302000Y1030430D01*
X302000Y1028430D01*
X306000Y1028430D01*
X306000Y1026430D01*
X310000Y1026430D01*
X310000Y1024430D01*
X312000Y1024430D01*
X312000Y1022430D01*
X314000Y1022430D01*
X314000Y1020430D01*
X316000Y1020430D01*
X316000Y1018430D01*
X318000Y1018430D01*
X318000Y1016430D01*
X320000Y1016430D01*
X320000Y1014430D01*
X322000Y1014430D01*
X322000Y1012430D01*
X324000Y1012430D01*
X324000Y1010430D01*
X326000Y1010430D01*
X326000Y1006430D01*
X328000Y1006430D01*
X328000Y1002430D01*
X330000Y1002430D01*
X330000Y998430D01*
X332000Y998430D01*
X332000Y992430D01*
X334000Y992430D01*
X334000Y984430D01*
X336000Y984430D01*
X336000Y970430D01*
X334000Y970430D01*
X334000Y962430D01*
X354000Y962430D01*
X354000Y964430D01*
X356000Y964430D01*
X356000Y968430D01*
X358000Y968430D01*
X358000Y970430D01*
X360000Y970430D01*
X360000Y972430D01*
X362000Y972430D01*
X362000Y976430D01*
X364000Y976430D01*
X364000Y978430D01*
X366000Y978430D01*
X366000Y980430D01*
X368000Y980430D01*
X368000Y982430D01*
X370000Y982430D01*
X370000Y986430D01*
X372000Y986430D01*
X372000Y988430D01*
X374000Y988430D01*
X374000Y990430D01*
X376000Y990430D01*
X376000Y992430D01*
X378000Y992430D01*
X378000Y996430D01*
X380000Y996430D01*
X380000Y998430D01*
X382000Y998430D01*
X382000Y1000430D01*
X384000Y1000430D01*
X384000Y1002430D01*
X386000Y1002430D01*
X386000Y1006430D01*
X388000Y1006430D01*
X388000Y1008430D01*
X390000Y1008430D01*
X390000Y1010430D01*
X392000Y1010430D01*
X392000Y1012430D01*
X394000Y1012430D01*
X394000Y1016430D01*
X396000Y1016430D01*
X396000Y1018430D01*
X398000Y1018430D01*
X398000Y1020430D01*
X400000Y1020430D01*
X400000Y1022430D01*
X402000Y1022430D01*
X402000Y1026430D01*
X404000Y1026430D01*
X404000Y1028430D01*
X406000Y1028430D01*
X406000Y1030430D01*
X408000Y1030430D01*
X408000Y1032430D01*
X410000Y1032430D01*
X410000Y1036430D01*
X412000Y1036430D01*
X412000Y1038430D01*
X414000Y1038430D01*
X414000Y1040430D01*
X416000Y1040430D01*
X416000Y1042430D01*
X418000Y1042430D01*
X418000Y1046430D01*
X420000Y1046430D01*
X420000Y1048430D01*
X422000Y1048430D01*
X422000Y1050430D01*
X424000Y1050430D01*
X424000Y1052430D01*
X426000Y1052430D01*
X426000Y1056430D01*
X428000Y1056430D01*
X428000Y1058430D01*
X430000Y1058430D01*
X430000Y1060430D01*
X432000Y1060430D01*
X432000Y1062430D01*
X434000Y1062430D01*
X434000Y1066430D01*
X436000Y1066430D01*
X436000Y1068430D01*
X438000Y1068430D01*
X438000Y1070430D01*
X440000Y1070430D01*
X440000Y1072430D01*
X442000Y1072430D01*
X442000Y1076430D01*
X444000Y1076430D01*
X444000Y1078430D01*
X446000Y1078430D01*
X446000Y1080430D01*
X448000Y1080430D01*
X448000Y1082430D01*
X450000Y1082430D01*
X450000Y1086430D01*
X452000Y1086430D01*
X452000Y1088430D01*
X454000Y1088430D01*
X454000Y1090430D01*
X456000Y1090430D01*
X456000Y1092430D01*
X458000Y1092430D01*
X458000Y1096430D01*
X460000Y1096430D01*
X460000Y1098430D01*
X462000Y1098430D01*
X462000Y1100430D01*
X464000Y1100430D01*
X464000Y1102430D01*
X466000Y1102430D01*
X466000Y1106430D01*
X468000Y1106430D01*
X468000Y1108430D01*
X470000Y1108430D01*
X470000Y1110430D01*
X472000Y1110430D01*
X472000Y1114430D01*
X474000Y1114430D01*
X474000Y1116430D01*
X40000Y1116430D01*
G37*
D02*
G36*
X40000Y1036430D02*
X40000Y918430D01*
X262000Y918430D01*
X262000Y920430D01*
X256000Y920430D01*
X256000Y922430D01*
X252000Y922430D01*
X252000Y924430D01*
X248000Y924430D01*
X248000Y926430D01*
X244000Y926430D01*
X244000Y928430D01*
X242000Y928430D01*
X242000Y930430D01*
X240000Y930430D01*
X240000Y932430D01*
X236000Y932430D01*
X236000Y934430D01*
X234000Y934430D01*
X234000Y936430D01*
X232000Y936430D01*
X232000Y940430D01*
X230000Y940430D01*
X230000Y942430D01*
X228000Y942430D01*
X228000Y944430D01*
X226000Y944430D01*
X226000Y948430D01*
X224000Y948430D01*
X224000Y952430D01*
X222000Y952430D01*
X222000Y956430D01*
X220000Y956430D01*
X220000Y964430D01*
X218000Y964430D01*
X218000Y988430D01*
X220000Y988430D01*
X220000Y996430D01*
X222000Y996430D01*
X222000Y1000430D01*
X224000Y1000430D01*
X224000Y1004430D01*
X226000Y1004430D01*
X226000Y1008430D01*
X228000Y1008430D01*
X228000Y1010430D01*
X230000Y1010430D01*
X230000Y1014430D01*
X232000Y1014430D01*
X232000Y1016430D01*
X234000Y1016430D01*
X234000Y1018430D01*
X236000Y1018430D01*
X236000Y1020430D01*
X238000Y1020430D01*
X238000Y1022430D01*
X242000Y1022430D01*
X242000Y1024430D01*
X244000Y1024430D01*
X244000Y1026430D01*
X246000Y1026430D01*
X246000Y1028430D01*
X250000Y1028430D01*
X250000Y1030430D01*
X254000Y1030430D01*
X254000Y1032430D01*
X262000Y1032430D01*
X262000Y1034430D01*
X274000Y1034430D01*
X274000Y1036430D01*
X40000Y1036430D01*
G37*
D02*
G36*
X1192000Y964430D02*
X1192000Y962430D01*
X1966000Y962430D01*
X1966000Y964430D01*
X1192000Y964430D01*
G37*
D02*
G36*
X1192000Y964430D02*
X1192000Y962430D01*
X1966000Y962430D01*
X1966000Y964430D01*
X1192000Y964430D01*
G37*
D02*
G36*
X546000Y962430D02*
X546000Y960430D01*
X1966000Y960430D01*
X1966000Y962430D01*
X546000Y962430D01*
G37*
D02*
G36*
X546000Y962430D02*
X546000Y960430D01*
X1966000Y960430D01*
X1966000Y962430D01*
X546000Y962430D01*
G37*
D02*
G36*
X544000Y960430D02*
X544000Y958430D01*
X542000Y958430D01*
X542000Y956430D01*
X540000Y956430D01*
X540000Y952430D01*
X538000Y952430D01*
X538000Y950430D01*
X536000Y950430D01*
X536000Y948430D01*
X534000Y948430D01*
X534000Y946430D01*
X532000Y946430D01*
X532000Y942430D01*
X1826000Y942430D01*
X1826000Y940430D01*
X1844000Y940430D01*
X1844000Y938430D01*
X1854000Y938430D01*
X1854000Y936430D01*
X1864000Y936430D01*
X1864000Y934430D01*
X1870000Y934430D01*
X1870000Y932430D01*
X1876000Y932430D01*
X1876000Y930430D01*
X1882000Y930430D01*
X1882000Y928430D01*
X1888000Y928430D01*
X1888000Y926430D01*
X1892000Y926430D01*
X1892000Y924430D01*
X1896000Y924430D01*
X1896000Y922430D01*
X1900000Y922430D01*
X1900000Y920430D01*
X1904000Y920430D01*
X1904000Y918430D01*
X1908000Y918430D01*
X1908000Y916430D01*
X1912000Y916430D01*
X1912000Y914430D01*
X1916000Y914430D01*
X1916000Y912430D01*
X1918000Y912430D01*
X1918000Y910430D01*
X1922000Y910430D01*
X1922000Y908430D01*
X1926000Y908430D01*
X1926000Y906430D01*
X1928000Y906430D01*
X1928000Y904430D01*
X1930000Y904430D01*
X1930000Y902430D01*
X1934000Y902430D01*
X1934000Y900430D01*
X1936000Y900430D01*
X1936000Y898430D01*
X1938000Y898430D01*
X1938000Y896430D01*
X1942000Y896430D01*
X1942000Y894430D01*
X1944000Y894430D01*
X1944000Y892430D01*
X1946000Y892430D01*
X1946000Y890430D01*
X1966000Y890430D01*
X1966000Y960430D01*
X544000Y960430D01*
G37*
D02*
G36*
X530000Y942430D02*
X530000Y940430D01*
X528000Y940430D01*
X528000Y938430D01*
X526000Y938430D01*
X526000Y936430D01*
X524000Y936430D01*
X524000Y934430D01*
X522000Y934430D01*
X522000Y930430D01*
X520000Y930430D01*
X520000Y928430D01*
X518000Y928430D01*
X518000Y926430D01*
X516000Y926430D01*
X516000Y924430D01*
X514000Y924430D01*
X514000Y920430D01*
X512000Y920430D01*
X512000Y918430D01*
X510000Y918430D01*
X510000Y916430D01*
X508000Y916430D01*
X508000Y914430D01*
X506000Y914430D01*
X506000Y910430D01*
X504000Y910430D01*
X504000Y908430D01*
X502000Y908430D01*
X502000Y906430D01*
X500000Y906430D01*
X500000Y904430D01*
X498000Y904430D01*
X498000Y900430D01*
X496000Y900430D01*
X496000Y898430D01*
X494000Y898430D01*
X494000Y896430D01*
X492000Y896430D01*
X492000Y894430D01*
X490000Y894430D01*
X490000Y890430D01*
X488000Y890430D01*
X488000Y888430D01*
X486000Y888430D01*
X486000Y886430D01*
X484000Y886430D01*
X484000Y884430D01*
X482000Y884430D01*
X482000Y882430D01*
X480000Y882430D01*
X480000Y878430D01*
X478000Y878430D01*
X478000Y876430D01*
X476000Y876430D01*
X476000Y874430D01*
X474000Y874430D01*
X474000Y872430D01*
X472000Y872430D01*
X472000Y868430D01*
X470000Y868430D01*
X470000Y866430D01*
X468000Y866430D01*
X468000Y864430D01*
X466000Y864430D01*
X466000Y862430D01*
X464000Y862430D01*
X464000Y858430D01*
X462000Y858430D01*
X462000Y856430D01*
X460000Y856430D01*
X460000Y854430D01*
X458000Y854430D01*
X458000Y852430D01*
X456000Y852430D01*
X456000Y848430D01*
X454000Y848430D01*
X454000Y846430D01*
X452000Y846430D01*
X452000Y844430D01*
X450000Y844430D01*
X450000Y842430D01*
X448000Y842430D01*
X448000Y840430D01*
X446000Y840430D01*
X446000Y836430D01*
X444000Y836430D01*
X444000Y834430D01*
X442000Y834430D01*
X442000Y832430D01*
X440000Y832430D01*
X440000Y830430D01*
X438000Y830430D01*
X438000Y826430D01*
X436000Y826430D01*
X436000Y824430D01*
X434000Y824430D01*
X434000Y822430D01*
X432000Y822430D01*
X432000Y820430D01*
X430000Y820430D01*
X430000Y816430D01*
X428000Y816430D01*
X428000Y814430D01*
X426000Y814430D01*
X426000Y812430D01*
X424000Y812430D01*
X424000Y810430D01*
X422000Y810430D01*
X422000Y806430D01*
X420000Y806430D01*
X420000Y804430D01*
X418000Y804430D01*
X418000Y802430D01*
X416000Y802430D01*
X416000Y800430D01*
X414000Y800430D01*
X414000Y798430D01*
X412000Y798430D01*
X412000Y794430D01*
X410000Y794430D01*
X410000Y792430D01*
X408000Y792430D01*
X408000Y790430D01*
X406000Y790430D01*
X406000Y788430D01*
X404000Y788430D01*
X404000Y784430D01*
X402000Y784430D01*
X402000Y782430D01*
X400000Y782430D01*
X400000Y780430D01*
X398000Y780430D01*
X398000Y778430D01*
X396000Y778430D01*
X396000Y774430D01*
X394000Y774430D01*
X394000Y772430D01*
X392000Y772430D01*
X392000Y770430D01*
X390000Y770430D01*
X390000Y768430D01*
X388000Y768430D01*
X388000Y764430D01*
X386000Y764430D01*
X386000Y762430D01*
X384000Y762430D01*
X384000Y760430D01*
X382000Y760430D01*
X382000Y758430D01*
X380000Y758430D01*
X380000Y756430D01*
X378000Y756430D01*
X378000Y754430D01*
X374000Y754430D01*
X374000Y752430D01*
X370000Y752430D01*
X370000Y750430D01*
X364000Y750430D01*
X364000Y748430D01*
X336000Y748430D01*
X336000Y736430D01*
X334000Y736430D01*
X334000Y726430D01*
X332000Y726430D01*
X332000Y720430D01*
X330000Y720430D01*
X330000Y716430D01*
X328000Y716430D01*
X328000Y712430D01*
X326000Y712430D01*
X326000Y710430D01*
X324000Y710430D01*
X324000Y708430D01*
X322000Y708430D01*
X322000Y704430D01*
X320000Y704430D01*
X320000Y702430D01*
X318000Y702430D01*
X318000Y700430D01*
X316000Y700430D01*
X316000Y698430D01*
X312000Y698430D01*
X312000Y696430D01*
X310000Y696430D01*
X310000Y694430D01*
X308000Y694430D01*
X308000Y692430D01*
X304000Y692430D01*
X304000Y690430D01*
X300000Y690430D01*
X300000Y688430D01*
X294000Y688430D01*
X294000Y686430D01*
X286000Y686430D01*
X286000Y684430D01*
X1620000Y684430D01*
X1620000Y688430D01*
X1618000Y688430D01*
X1618000Y694430D01*
X1616000Y694430D01*
X1616000Y704430D01*
X1614000Y704430D01*
X1614000Y718430D01*
X1612000Y718430D01*
X1612000Y762430D01*
X1614000Y762430D01*
X1614000Y776430D01*
X1616000Y776430D01*
X1616000Y786430D01*
X1618000Y786430D01*
X1618000Y794430D01*
X1620000Y794430D01*
X1620000Y800430D01*
X1622000Y800430D01*
X1622000Y806430D01*
X1624000Y806430D01*
X1624000Y812430D01*
X1626000Y812430D01*
X1626000Y818430D01*
X1628000Y818430D01*
X1628000Y822430D01*
X1630000Y822430D01*
X1630000Y826430D01*
X1632000Y826430D01*
X1632000Y830430D01*
X1634000Y830430D01*
X1634000Y834430D01*
X1636000Y834430D01*
X1636000Y838430D01*
X1638000Y838430D01*
X1638000Y840430D01*
X1640000Y840430D01*
X1640000Y844430D01*
X1642000Y844430D01*
X1642000Y848430D01*
X1644000Y848430D01*
X1644000Y850430D01*
X1646000Y850430D01*
X1646000Y854430D01*
X1648000Y854430D01*
X1648000Y856430D01*
X1650000Y856430D01*
X1650000Y860430D01*
X1652000Y860430D01*
X1652000Y862430D01*
X1654000Y862430D01*
X1654000Y864430D01*
X1656000Y864430D01*
X1656000Y868430D01*
X1658000Y868430D01*
X1658000Y870430D01*
X1660000Y870430D01*
X1660000Y872430D01*
X1662000Y872430D01*
X1662000Y874430D01*
X1664000Y874430D01*
X1664000Y876430D01*
X1666000Y876430D01*
X1666000Y878430D01*
X1668000Y878430D01*
X1668000Y880430D01*
X1670000Y880430D01*
X1670000Y882430D01*
X1672000Y882430D01*
X1672000Y884430D01*
X1674000Y884430D01*
X1674000Y886430D01*
X1676000Y886430D01*
X1676000Y888430D01*
X1678000Y888430D01*
X1678000Y890430D01*
X1680000Y890430D01*
X1680000Y892430D01*
X1682000Y892430D01*
X1682000Y894430D01*
X1684000Y894430D01*
X1684000Y896430D01*
X1688000Y896430D01*
X1688000Y898430D01*
X1690000Y898430D01*
X1690000Y900430D01*
X1692000Y900430D01*
X1692000Y902430D01*
X1694000Y902430D01*
X1694000Y904430D01*
X1698000Y904430D01*
X1698000Y906430D01*
X1700000Y906430D01*
X1700000Y908430D01*
X1704000Y908430D01*
X1704000Y910430D01*
X1706000Y910430D01*
X1706000Y912430D01*
X1710000Y912430D01*
X1710000Y914430D01*
X1714000Y914430D01*
X1714000Y916430D01*
X1716000Y916430D01*
X1716000Y918430D01*
X1720000Y918430D01*
X1720000Y920430D01*
X1726000Y920430D01*
X1726000Y922430D01*
X1730000Y922430D01*
X1730000Y924430D01*
X1734000Y924430D01*
X1734000Y926430D01*
X1738000Y926430D01*
X1738000Y928430D01*
X1744000Y928430D01*
X1744000Y930430D01*
X1750000Y930430D01*
X1750000Y932430D01*
X1756000Y932430D01*
X1756000Y934430D01*
X1762000Y934430D01*
X1762000Y936430D01*
X1770000Y936430D01*
X1770000Y938430D01*
X1782000Y938430D01*
X1782000Y940430D01*
X1800000Y940430D01*
X1800000Y942430D01*
X530000Y942430D01*
G37*
D02*
G36*
X290000Y920430D02*
X290000Y918430D01*
X310000Y918430D01*
X310000Y920430D01*
X290000Y920430D01*
G37*
D02*
G36*
X40000Y918430D02*
X40000Y916430D01*
X310000Y916430D01*
X310000Y918430D01*
X40000Y918430D01*
G37*
D02*
G36*
X40000Y918430D02*
X40000Y916430D01*
X310000Y916430D01*
X310000Y918430D01*
X40000Y918430D01*
G37*
D02*
G36*
X40000Y916430D02*
X40000Y252430D01*
X262000Y252430D01*
X262000Y254430D01*
X256000Y254430D01*
X256000Y256430D01*
X250000Y256430D01*
X250000Y258430D01*
X248000Y258430D01*
X248000Y260430D01*
X244000Y260430D01*
X244000Y262430D01*
X242000Y262430D01*
X242000Y264430D01*
X238000Y264430D01*
X238000Y266430D01*
X236000Y266430D01*
X236000Y268430D01*
X234000Y268430D01*
X234000Y270430D01*
X232000Y270430D01*
X232000Y274430D01*
X230000Y274430D01*
X230000Y276430D01*
X228000Y276430D01*
X228000Y278430D01*
X226000Y278430D01*
X226000Y282430D01*
X224000Y282430D01*
X224000Y286430D01*
X222000Y286430D01*
X222000Y290430D01*
X220000Y290430D01*
X220000Y298430D01*
X218000Y298430D01*
X218000Y318430D01*
X216000Y318430D01*
X216000Y320430D01*
X214000Y320430D01*
X214000Y322430D01*
X212000Y322430D01*
X212000Y324430D01*
X210000Y324430D01*
X210000Y326430D01*
X208000Y326430D01*
X208000Y328430D01*
X206000Y328430D01*
X206000Y330430D01*
X204000Y330430D01*
X204000Y332430D01*
X202000Y332430D01*
X202000Y334430D01*
X200000Y334430D01*
X200000Y336430D01*
X198000Y336430D01*
X198000Y338430D01*
X196000Y338430D01*
X196000Y340430D01*
X194000Y340430D01*
X194000Y342430D01*
X192000Y342430D01*
X192000Y344430D01*
X190000Y344430D01*
X190000Y346430D01*
X188000Y346430D01*
X188000Y348430D01*
X186000Y348430D01*
X186000Y350430D01*
X184000Y350430D01*
X184000Y352430D01*
X182000Y352430D01*
X182000Y354430D01*
X180000Y354430D01*
X180000Y356430D01*
X178000Y356430D01*
X178000Y358430D01*
X176000Y358430D01*
X176000Y360430D01*
X174000Y360430D01*
X174000Y362430D01*
X172000Y362430D01*
X172000Y364430D01*
X170000Y364430D01*
X170000Y366430D01*
X168000Y366430D01*
X168000Y368430D01*
X166000Y368430D01*
X166000Y370430D01*
X164000Y370430D01*
X164000Y372430D01*
X162000Y372430D01*
X162000Y374430D01*
X160000Y374430D01*
X160000Y376430D01*
X158000Y376430D01*
X158000Y378430D01*
X156000Y378430D01*
X156000Y380430D01*
X154000Y380430D01*
X154000Y382430D01*
X152000Y382430D01*
X152000Y384430D01*
X150000Y384430D01*
X150000Y386430D01*
X148000Y386430D01*
X148000Y388430D01*
X146000Y388430D01*
X146000Y390430D01*
X144000Y390430D01*
X144000Y392430D01*
X142000Y392430D01*
X142000Y394430D01*
X140000Y394430D01*
X140000Y396430D01*
X138000Y396430D01*
X138000Y398430D01*
X136000Y398430D01*
X136000Y400430D01*
X134000Y400430D01*
X134000Y402430D01*
X132000Y402430D01*
X132000Y404430D01*
X130000Y404430D01*
X130000Y406430D01*
X128000Y406430D01*
X128000Y408430D01*
X126000Y408430D01*
X126000Y412430D01*
X124000Y412430D01*
X124000Y416430D01*
X122000Y416430D01*
X122000Y422430D01*
X120000Y422430D01*
X120000Y832430D01*
X122000Y832430D01*
X122000Y838430D01*
X124000Y838430D01*
X124000Y842430D01*
X126000Y842430D01*
X126000Y846430D01*
X128000Y846430D01*
X128000Y848430D01*
X130000Y848430D01*
X130000Y850430D01*
X132000Y850430D01*
X132000Y852430D01*
X134000Y852430D01*
X134000Y854430D01*
X136000Y854430D01*
X136000Y856430D01*
X138000Y856430D01*
X138000Y858430D01*
X142000Y858430D01*
X142000Y860430D01*
X144000Y860430D01*
X144000Y862430D01*
X146000Y862430D01*
X146000Y864430D01*
X148000Y864430D01*
X148000Y866430D01*
X150000Y866430D01*
X150000Y868430D01*
X152000Y868430D01*
X152000Y870430D01*
X156000Y870430D01*
X156000Y872430D01*
X158000Y872430D01*
X158000Y874430D01*
X160000Y874430D01*
X160000Y876430D01*
X162000Y876430D01*
X162000Y878430D01*
X164000Y878430D01*
X164000Y880430D01*
X166000Y880430D01*
X166000Y882430D01*
X170000Y882430D01*
X170000Y884430D01*
X172000Y884430D01*
X172000Y886430D01*
X174000Y886430D01*
X174000Y888430D01*
X176000Y888430D01*
X176000Y890430D01*
X180000Y890430D01*
X180000Y892430D01*
X186000Y892430D01*
X186000Y894430D01*
X300000Y894430D01*
X300000Y898430D01*
X302000Y898430D01*
X302000Y900430D01*
X304000Y900430D01*
X304000Y902430D01*
X306000Y902430D01*
X306000Y904430D01*
X308000Y904430D01*
X308000Y908430D01*
X310000Y908430D01*
X310000Y916430D01*
X40000Y916430D01*
G37*
D02*
G36*
X208000Y822430D02*
X208000Y820430D01*
X206000Y820430D01*
X206000Y818430D01*
X202000Y818430D01*
X202000Y816430D01*
X200000Y816430D01*
X200000Y814430D01*
X198000Y814430D01*
X198000Y812430D01*
X196000Y812430D01*
X196000Y810430D01*
X194000Y810430D01*
X194000Y808430D01*
X192000Y808430D01*
X192000Y684430D01*
X268000Y684430D01*
X268000Y686430D01*
X258000Y686430D01*
X258000Y688430D01*
X252000Y688430D01*
X252000Y690430D01*
X250000Y690430D01*
X250000Y692430D01*
X246000Y692430D01*
X246000Y694430D01*
X242000Y694430D01*
X242000Y696430D01*
X240000Y696430D01*
X240000Y698430D01*
X238000Y698430D01*
X238000Y700430D01*
X236000Y700430D01*
X236000Y702430D01*
X234000Y702430D01*
X234000Y704430D01*
X232000Y704430D01*
X232000Y706430D01*
X230000Y706430D01*
X230000Y708430D01*
X228000Y708430D01*
X228000Y712430D01*
X226000Y712430D01*
X226000Y714430D01*
X224000Y714430D01*
X224000Y718430D01*
X222000Y718430D01*
X222000Y724430D01*
X220000Y724430D01*
X220000Y730430D01*
X218000Y730430D01*
X218000Y756430D01*
X220000Y756430D01*
X220000Y762430D01*
X222000Y762430D01*
X222000Y768430D01*
X224000Y768430D01*
X224000Y772430D01*
X226000Y772430D01*
X226000Y774430D01*
X228000Y774430D01*
X228000Y778430D01*
X230000Y778430D01*
X230000Y780430D01*
X232000Y780430D01*
X232000Y782430D01*
X234000Y782430D01*
X234000Y784430D01*
X236000Y784430D01*
X236000Y786430D01*
X238000Y786430D01*
X238000Y788430D01*
X240000Y788430D01*
X240000Y790430D01*
X242000Y790430D01*
X242000Y792430D01*
X246000Y792430D01*
X246000Y794430D01*
X248000Y794430D01*
X248000Y796430D01*
X252000Y796430D01*
X252000Y798430D01*
X258000Y798430D01*
X258000Y800430D01*
X266000Y800430D01*
X266000Y802430D01*
X284000Y802430D01*
X284000Y822430D01*
X208000Y822430D01*
G37*
D02*
G36*
X192000Y684430D02*
X192000Y682430D01*
X1620000Y682430D01*
X1620000Y684430D01*
X192000Y684430D01*
G37*
D02*
G36*
X192000Y684430D02*
X192000Y682430D01*
X1620000Y682430D01*
X1620000Y684430D01*
X192000Y684430D01*
G37*
D02*
G36*
X192000Y682430D02*
X192000Y602430D01*
X286000Y602430D01*
X286000Y600430D01*
X296000Y600430D01*
X296000Y598430D01*
X300000Y598430D01*
X300000Y596430D01*
X304000Y596430D01*
X304000Y594430D01*
X308000Y594430D01*
X308000Y592430D01*
X310000Y592430D01*
X310000Y590430D01*
X314000Y590430D01*
X314000Y588430D01*
X316000Y588430D01*
X316000Y586430D01*
X318000Y586430D01*
X318000Y584430D01*
X320000Y584430D01*
X320000Y582430D01*
X322000Y582430D01*
X322000Y578430D01*
X324000Y578430D01*
X324000Y576430D01*
X326000Y576430D01*
X326000Y574430D01*
X328000Y574430D01*
X328000Y570430D01*
X330000Y570430D01*
X330000Y566430D01*
X332000Y566430D01*
X332000Y560430D01*
X334000Y560430D01*
X334000Y550430D01*
X336000Y550430D01*
X336000Y540430D01*
X1786000Y540430D01*
X1786000Y542430D01*
X1774000Y542430D01*
X1774000Y544430D01*
X1766000Y544430D01*
X1766000Y546430D01*
X1758000Y546430D01*
X1758000Y548430D01*
X1752000Y548430D01*
X1752000Y550430D01*
X1746000Y550430D01*
X1746000Y552430D01*
X1740000Y552430D01*
X1740000Y554430D01*
X1734000Y554430D01*
X1734000Y556430D01*
X1730000Y556430D01*
X1730000Y558430D01*
X1726000Y558430D01*
X1726000Y560430D01*
X1722000Y560430D01*
X1722000Y562430D01*
X1718000Y562430D01*
X1718000Y564430D01*
X1714000Y564430D01*
X1714000Y566430D01*
X1712000Y566430D01*
X1712000Y568430D01*
X1708000Y568430D01*
X1708000Y570430D01*
X1704000Y570430D01*
X1704000Y572430D01*
X1702000Y572430D01*
X1702000Y574430D01*
X1698000Y574430D01*
X1698000Y576430D01*
X1696000Y576430D01*
X1696000Y578430D01*
X1694000Y578430D01*
X1694000Y580430D01*
X1690000Y580430D01*
X1690000Y582430D01*
X1688000Y582430D01*
X1688000Y584430D01*
X1686000Y584430D01*
X1686000Y586430D01*
X1684000Y586430D01*
X1684000Y588430D01*
X1680000Y588430D01*
X1680000Y590430D01*
X1678000Y590430D01*
X1678000Y592430D01*
X1676000Y592430D01*
X1676000Y594430D01*
X1674000Y594430D01*
X1674000Y596430D01*
X1672000Y596430D01*
X1672000Y598430D01*
X1670000Y598430D01*
X1670000Y600430D01*
X1668000Y600430D01*
X1668000Y602430D01*
X1666000Y602430D01*
X1666000Y604430D01*
X1664000Y604430D01*
X1664000Y606430D01*
X1662000Y606430D01*
X1662000Y608430D01*
X1660000Y608430D01*
X1660000Y612430D01*
X1658000Y612430D01*
X1658000Y614430D01*
X1656000Y614430D01*
X1656000Y616430D01*
X1654000Y616430D01*
X1654000Y618430D01*
X1652000Y618430D01*
X1652000Y622430D01*
X1650000Y622430D01*
X1650000Y624430D01*
X1648000Y624430D01*
X1648000Y626430D01*
X1646000Y626430D01*
X1646000Y630430D01*
X1644000Y630430D01*
X1644000Y634430D01*
X1642000Y634430D01*
X1642000Y636430D01*
X1640000Y636430D01*
X1640000Y640430D01*
X1638000Y640430D01*
X1638000Y644430D01*
X1636000Y644430D01*
X1636000Y646430D01*
X1634000Y646430D01*
X1634000Y650430D01*
X1632000Y650430D01*
X1632000Y656430D01*
X1630000Y656430D01*
X1630000Y660430D01*
X1628000Y660430D01*
X1628000Y664430D01*
X1626000Y664430D01*
X1626000Y670430D01*
X1624000Y670430D01*
X1624000Y674430D01*
X1622000Y674430D01*
X1622000Y680430D01*
X1620000Y680430D01*
X1620000Y682430D01*
X192000Y682430D01*
G37*
D02*
G36*
X192000Y602430D02*
X192000Y484430D01*
X268000Y484430D01*
X268000Y486430D01*
X258000Y486430D01*
X258000Y488430D01*
X252000Y488430D01*
X252000Y490430D01*
X250000Y490430D01*
X250000Y492430D01*
X246000Y492430D01*
X246000Y494430D01*
X242000Y494430D01*
X242000Y496430D01*
X240000Y496430D01*
X240000Y498430D01*
X238000Y498430D01*
X238000Y500430D01*
X236000Y500430D01*
X236000Y502430D01*
X234000Y502430D01*
X234000Y504430D01*
X232000Y504430D01*
X232000Y506430D01*
X230000Y506430D01*
X230000Y508430D01*
X228000Y508430D01*
X228000Y512430D01*
X226000Y512430D01*
X226000Y514430D01*
X224000Y514430D01*
X224000Y518430D01*
X222000Y518430D01*
X222000Y524430D01*
X220000Y524430D01*
X220000Y530430D01*
X218000Y530430D01*
X218000Y556430D01*
X220000Y556430D01*
X220000Y562430D01*
X222000Y562430D01*
X222000Y568430D01*
X224000Y568430D01*
X224000Y572430D01*
X226000Y572430D01*
X226000Y574430D01*
X228000Y574430D01*
X228000Y578430D01*
X230000Y578430D01*
X230000Y580430D01*
X232000Y580430D01*
X232000Y582430D01*
X234000Y582430D01*
X234000Y584430D01*
X236000Y584430D01*
X236000Y586430D01*
X238000Y586430D01*
X238000Y588430D01*
X240000Y588430D01*
X240000Y590430D01*
X242000Y590430D01*
X242000Y592430D01*
X246000Y592430D01*
X246000Y594430D01*
X248000Y594430D01*
X248000Y596430D01*
X252000Y596430D01*
X252000Y598430D01*
X258000Y598430D01*
X258000Y600430D01*
X266000Y600430D01*
X266000Y602430D01*
X192000Y602430D01*
G37*
D02*
G36*
X1944000Y590430D02*
X1944000Y588430D01*
X1942000Y588430D01*
X1942000Y586430D01*
X1940000Y586430D01*
X1940000Y584430D01*
X1938000Y584430D01*
X1938000Y582430D01*
X1936000Y582430D01*
X1936000Y580430D01*
X1932000Y580430D01*
X1932000Y578430D01*
X1930000Y578430D01*
X1930000Y576430D01*
X1928000Y576430D01*
X1928000Y574430D01*
X1924000Y574430D01*
X1924000Y572430D01*
X1920000Y572430D01*
X1920000Y570430D01*
X1918000Y570430D01*
X1918000Y568430D01*
X1914000Y568430D01*
X1914000Y566430D01*
X1910000Y566430D01*
X1910000Y564430D01*
X1908000Y564430D01*
X1908000Y562430D01*
X1904000Y562430D01*
X1904000Y560430D01*
X1900000Y560430D01*
X1900000Y558430D01*
X1896000Y558430D01*
X1896000Y556430D01*
X1890000Y556430D01*
X1890000Y554430D01*
X1886000Y554430D01*
X1886000Y552430D01*
X1880000Y552430D01*
X1880000Y550430D01*
X1874000Y550430D01*
X1874000Y548430D01*
X1868000Y548430D01*
X1868000Y546430D01*
X1860000Y546430D01*
X1860000Y544430D01*
X1852000Y544430D01*
X1852000Y542430D01*
X1838000Y542430D01*
X1838000Y540430D01*
X1966000Y540430D01*
X1966000Y590430D01*
X1944000Y590430D01*
G37*
D02*
G36*
X336000Y540430D02*
X336000Y538430D01*
X1966000Y538430D01*
X1966000Y540430D01*
X336000Y540430D01*
G37*
D02*
G36*
X336000Y540430D02*
X336000Y538430D01*
X1966000Y538430D01*
X1966000Y540430D01*
X336000Y540430D01*
G37*
D02*
G36*
X336000Y538430D02*
X336000Y536430D01*
X334000Y536430D01*
X334000Y526430D01*
X332000Y526430D01*
X332000Y520430D01*
X330000Y520430D01*
X330000Y516430D01*
X328000Y516430D01*
X328000Y512430D01*
X326000Y512430D01*
X326000Y510430D01*
X324000Y510430D01*
X324000Y508430D01*
X322000Y508430D01*
X322000Y504430D01*
X320000Y504430D01*
X320000Y502430D01*
X318000Y502430D01*
X318000Y500430D01*
X316000Y500430D01*
X316000Y498430D01*
X312000Y498430D01*
X312000Y496430D01*
X310000Y496430D01*
X310000Y494430D01*
X308000Y494430D01*
X308000Y492430D01*
X304000Y492430D01*
X304000Y490430D01*
X300000Y490430D01*
X300000Y488430D01*
X294000Y488430D01*
X294000Y486430D01*
X286000Y486430D01*
X286000Y484430D01*
X1966000Y484430D01*
X1966000Y538430D01*
X336000Y538430D01*
G37*
D02*
G36*
X192000Y484430D02*
X192000Y482430D01*
X1966000Y482430D01*
X1966000Y484430D01*
X192000Y484430D01*
G37*
D02*
G36*
X192000Y484430D02*
X192000Y482430D01*
X1966000Y482430D01*
X1966000Y484430D01*
X192000Y484430D01*
G37*
D02*
G36*
X192000Y482430D02*
X192000Y444430D01*
X194000Y444430D01*
X194000Y442430D01*
X196000Y442430D01*
X196000Y440430D01*
X198000Y440430D01*
X198000Y438430D01*
X200000Y438430D01*
X200000Y436430D01*
X202000Y436430D01*
X202000Y434430D01*
X204000Y434430D01*
X204000Y432430D01*
X206000Y432430D01*
X206000Y430430D01*
X208000Y430430D01*
X208000Y428430D01*
X210000Y428430D01*
X210000Y426430D01*
X212000Y426430D01*
X212000Y424430D01*
X214000Y424430D01*
X214000Y422430D01*
X216000Y422430D01*
X216000Y420430D01*
X218000Y420430D01*
X218000Y418430D01*
X220000Y418430D01*
X220000Y416430D01*
X222000Y416430D01*
X222000Y414430D01*
X224000Y414430D01*
X224000Y412430D01*
X226000Y412430D01*
X226000Y410430D01*
X228000Y410430D01*
X228000Y408430D01*
X230000Y408430D01*
X230000Y406430D01*
X232000Y406430D01*
X232000Y404430D01*
X234000Y404430D01*
X234000Y402430D01*
X236000Y402430D01*
X236000Y400430D01*
X238000Y400430D01*
X238000Y398430D01*
X240000Y398430D01*
X240000Y396430D01*
X242000Y396430D01*
X242000Y394430D01*
X244000Y394430D01*
X244000Y392430D01*
X246000Y392430D01*
X246000Y390430D01*
X248000Y390430D01*
X248000Y388430D01*
X250000Y388430D01*
X250000Y386430D01*
X252000Y386430D01*
X252000Y384430D01*
X254000Y384430D01*
X254000Y382430D01*
X256000Y382430D01*
X256000Y380430D01*
X258000Y380430D01*
X258000Y378430D01*
X260000Y378430D01*
X260000Y376430D01*
X262000Y376430D01*
X262000Y374430D01*
X264000Y374430D01*
X264000Y372430D01*
X266000Y372430D01*
X266000Y370430D01*
X268000Y370430D01*
X268000Y368430D01*
X292000Y368430D01*
X292000Y366430D01*
X298000Y366430D01*
X298000Y364430D01*
X302000Y364430D01*
X302000Y362430D01*
X306000Y362430D01*
X306000Y360430D01*
X310000Y360430D01*
X310000Y358430D01*
X312000Y358430D01*
X312000Y356430D01*
X314000Y356430D01*
X314000Y354430D01*
X316000Y354430D01*
X316000Y352430D01*
X318000Y352430D01*
X318000Y350430D01*
X320000Y350430D01*
X320000Y348430D01*
X322000Y348430D01*
X322000Y346430D01*
X324000Y346430D01*
X324000Y344430D01*
X326000Y344430D01*
X326000Y340430D01*
X328000Y340430D01*
X328000Y336430D01*
X330000Y336430D01*
X330000Y332430D01*
X332000Y332430D01*
X332000Y326430D01*
X334000Y326430D01*
X334000Y316430D01*
X336000Y316430D01*
X336000Y304430D01*
X334000Y304430D01*
X334000Y294430D01*
X332000Y294430D01*
X332000Y288430D01*
X330000Y288430D01*
X330000Y284430D01*
X328000Y284430D01*
X328000Y280430D01*
X326000Y280430D01*
X326000Y276430D01*
X324000Y276430D01*
X324000Y274430D01*
X322000Y274430D01*
X322000Y272430D01*
X320000Y272430D01*
X320000Y270430D01*
X318000Y270430D01*
X318000Y268430D01*
X316000Y268430D01*
X316000Y266430D01*
X314000Y266430D01*
X314000Y264430D01*
X312000Y264430D01*
X312000Y262430D01*
X310000Y262430D01*
X310000Y260430D01*
X306000Y260430D01*
X306000Y258430D01*
X302000Y258430D01*
X302000Y256430D01*
X298000Y256430D01*
X298000Y254430D01*
X290000Y254430D01*
X290000Y252430D01*
X1966000Y252430D01*
X1966000Y482430D01*
X192000Y482430D01*
G37*
D02*
G36*
X40000Y252430D02*
X40000Y250430D01*
X1966000Y250430D01*
X1966000Y252430D01*
X40000Y252430D01*
G37*
D02*
G36*
X40000Y252430D02*
X40000Y250430D01*
X1966000Y250430D01*
X1966000Y252430D01*
X40000Y252430D01*
G37*
D02*
G36*
X40000Y250430D02*
X40000Y168430D01*
X292000Y168430D01*
X292000Y166430D01*
X298000Y166430D01*
X298000Y164430D01*
X302000Y164430D01*
X302000Y162430D01*
X306000Y162430D01*
X306000Y160430D01*
X310000Y160430D01*
X310000Y158430D01*
X312000Y158430D01*
X312000Y156430D01*
X314000Y156430D01*
X314000Y154430D01*
X316000Y154430D01*
X316000Y152430D01*
X318000Y152430D01*
X318000Y150430D01*
X320000Y150430D01*
X320000Y148430D01*
X322000Y148430D01*
X322000Y146430D01*
X324000Y146430D01*
X324000Y144430D01*
X326000Y144430D01*
X326000Y140430D01*
X328000Y140430D01*
X328000Y136430D01*
X330000Y136430D01*
X330000Y132430D01*
X332000Y132430D01*
X332000Y126430D01*
X334000Y126430D01*
X334000Y116430D01*
X336000Y116430D01*
X336000Y104430D01*
X334000Y104430D01*
X334000Y94430D01*
X332000Y94430D01*
X332000Y88430D01*
X330000Y88430D01*
X330000Y84430D01*
X328000Y84430D01*
X328000Y80430D01*
X326000Y80430D01*
X326000Y76430D01*
X324000Y76430D01*
X324000Y74430D01*
X322000Y74430D01*
X322000Y72430D01*
X320000Y72430D01*
X320000Y70430D01*
X318000Y70430D01*
X318000Y68430D01*
X316000Y68430D01*
X316000Y66430D01*
X314000Y66430D01*
X314000Y64430D01*
X312000Y64430D01*
X312000Y62430D01*
X310000Y62430D01*
X310000Y60430D01*
X306000Y60430D01*
X306000Y40430D01*
X1966000Y40430D01*
X1966000Y250430D01*
X40000Y250430D01*
G37*
D02*
G36*
X40000Y168430D02*
X40000Y40430D01*
X248000Y40430D01*
X248000Y60430D01*
X244000Y60430D01*
X244000Y62430D01*
X242000Y62430D01*
X242000Y64430D01*
X238000Y64430D01*
X238000Y66430D01*
X236000Y66430D01*
X236000Y68430D01*
X234000Y68430D01*
X234000Y70430D01*
X232000Y70430D01*
X232000Y74430D01*
X230000Y74430D01*
X230000Y76430D01*
X228000Y76430D01*
X228000Y78430D01*
X226000Y78430D01*
X226000Y82430D01*
X224000Y82430D01*
X224000Y86430D01*
X222000Y86430D01*
X222000Y90430D01*
X220000Y90430D01*
X220000Y98430D01*
X218000Y98430D01*
X218000Y122430D01*
X220000Y122430D01*
X220000Y130430D01*
X222000Y130430D01*
X222000Y134430D01*
X224000Y134430D01*
X224000Y138430D01*
X226000Y138430D01*
X226000Y142430D01*
X228000Y142430D01*
X228000Y144430D01*
X230000Y144430D01*
X230000Y146430D01*
X232000Y146430D01*
X232000Y150430D01*
X234000Y150430D01*
X234000Y152430D01*
X236000Y152430D01*
X236000Y154430D01*
X238000Y154430D01*
X238000Y156430D01*
X242000Y156430D01*
X242000Y158430D01*
X244000Y158430D01*
X244000Y160430D01*
X248000Y160430D01*
X248000Y162430D01*
X250000Y162430D01*
X250000Y164430D01*
X256000Y164430D01*
X256000Y166430D01*
X262000Y166430D01*
X262000Y168430D01*
X40000Y168430D01*
G37*
D02*
G36*
X1798000Y782430D02*
X1798000Y780430D01*
X1794000Y780430D01*
X1794000Y778430D01*
X1790000Y778430D01*
X1790000Y776430D01*
X1788000Y776430D01*
X1788000Y774430D01*
X1784000Y774430D01*
X1784000Y772430D01*
X1782000Y772430D01*
X1782000Y770430D01*
X1780000Y770430D01*
X1780000Y766430D01*
X1778000Y766430D01*
X1778000Y764430D01*
X1776000Y764430D01*
X1776000Y760430D01*
X1774000Y760430D01*
X1774000Y756430D01*
X1772000Y756430D01*
X1772000Y750430D01*
X1770000Y750430D01*
X1770000Y730430D01*
X1772000Y730430D01*
X1772000Y724430D01*
X1774000Y724430D01*
X1774000Y720430D01*
X1776000Y720430D01*
X1776000Y716430D01*
X1778000Y716430D01*
X1778000Y714430D01*
X1780000Y714430D01*
X1780000Y712430D01*
X1782000Y712430D01*
X1782000Y710430D01*
X1784000Y710430D01*
X1784000Y708430D01*
X1786000Y708430D01*
X1786000Y706430D01*
X1788000Y706430D01*
X1788000Y704430D01*
X1792000Y704430D01*
X1792000Y702430D01*
X1796000Y702430D01*
X1796000Y700430D01*
X1800000Y700430D01*
X1800000Y698430D01*
X1824000Y698430D01*
X1824000Y700430D01*
X1830000Y700430D01*
X1830000Y702430D01*
X1834000Y702430D01*
X1834000Y704430D01*
X1838000Y704430D01*
X1838000Y706430D01*
X1840000Y706430D01*
X1840000Y708430D01*
X1842000Y708430D01*
X1842000Y710430D01*
X1844000Y710430D01*
X1844000Y712430D01*
X1846000Y712430D01*
X1846000Y714430D01*
X1848000Y714430D01*
X1848000Y718430D01*
X1850000Y718430D01*
X1850000Y720430D01*
X1852000Y720430D01*
X1852000Y724430D01*
X1854000Y724430D01*
X1854000Y756430D01*
X1852000Y756430D01*
X1852000Y760430D01*
X1850000Y760430D01*
X1850000Y764430D01*
X1848000Y764430D01*
X1848000Y766430D01*
X1846000Y766430D01*
X1846000Y768430D01*
X1844000Y768430D01*
X1844000Y770430D01*
X1842000Y770430D01*
X1842000Y772430D01*
X1840000Y772430D01*
X1840000Y774430D01*
X1838000Y774430D01*
X1838000Y776430D01*
X1836000Y776430D01*
X1836000Y778430D01*
X1832000Y778430D01*
X1832000Y780430D01*
X1828000Y780430D01*
X1828000Y782430D01*
X1798000Y782430D01*
G37*
D02*
G36*
X1140000Y2230430D02*
X1173000Y2230430D01*
X1173000Y2165430D01*
X1140000Y2165430D01*
X1140000Y2230430D01*
G37*
D02*
G36*
X1267000Y2230430D02*
X1302000Y2230430D01*
X1302000Y2165430D01*
X1267000Y2165430D01*
X1267000Y2230430D01*
G37*
D02*
G36*
X254000Y2338430D02*
X298000Y2338430D01*
X298000Y2296430D01*
X254000Y2296430D01*
X254000Y2338430D01*
G37*
D02*
G36*
X254000Y2258430D02*
X298000Y2258430D01*
X298000Y2216430D01*
X254000Y2216430D01*
X254000Y2258430D01*
G37*
D02*
G36*
X214000Y2298430D02*
X256000Y2298430D01*
X256000Y2254430D01*
X214000Y2254430D01*
X214000Y2298430D01*
G37*
D02*
G36*
X294000Y2298430D02*
X336000Y2298430D01*
X336000Y2254430D01*
X294000Y2254430D01*
X294000Y2298430D01*
G37*
D02*
G36*
X254000Y1472430D02*
X298000Y1472430D01*
X298000Y1430430D01*
X254000Y1430430D01*
X254000Y1472430D01*
G37*
D02*
G36*
X254000Y1392430D02*
X298000Y1392430D01*
X298000Y1350430D01*
X254000Y1350430D01*
X254000Y1392430D01*
G37*
D02*
G36*
X214000Y1432430D02*
X256000Y1432430D01*
X256000Y1388430D01*
X214000Y1388430D01*
X214000Y1432430D01*
G37*
D02*
G36*
X294000Y1432430D02*
X336000Y1432430D01*
X336000Y1388430D01*
X294000Y1388430D01*
X294000Y1432430D01*
G37*
D02*
G36*
X254000Y1906430D02*
X298000Y1906430D01*
X298000Y1863430D01*
X254000Y1863430D01*
X254000Y1906430D01*
G37*
D02*
G36*
X254000Y1825430D02*
X298000Y1825430D01*
X298000Y1784430D01*
X254000Y1784430D01*
X254000Y1825430D01*
G37*
D02*
G36*
X214000Y1865430D02*
X256000Y1865430D01*
X256000Y1821430D01*
X214000Y1821430D01*
X214000Y1865430D01*
G37*
D02*
G36*
X294000Y1865430D02*
X336000Y1865430D01*
X336000Y1821430D01*
X294000Y1821430D01*
X294000Y1865430D01*
G37*
D02*
G36*
X1197000Y2380430D02*
X1244000Y2380430D01*
X1244000Y2338430D01*
X1197000Y2338430D01*
X1197000Y2380430D01*
G37*
D02*
G36*
X1197000Y2060430D02*
X1244000Y2060430D01*
X1244000Y2018430D01*
X1197000Y2018430D01*
X1197000Y2060430D01*
G37*
D02*
G04 End of Copper1*
M02*