G04 MADE WITH FRITZING*
G04 WWW.FRITZING.ORG*
G04 DOUBLE SIDED*
G04 HOLES PLATED*
G04 CONTOUR ON CENTER OF CONTOUR VECTOR*
%FSLAX26Y26*%
%MOIN*%
%ADD10C,0.075000*%
%ADD11C,0.362204*%
%ADD12C,0.067559*%
%ADD13C,0.083307*%
%ADD14C,0.078000*%
%ADD15C,0.060000*%
%ADD16C,0.032000*%
%ADD17C,0.000100*%
%G04COPPER0*%
%FSLAX26Y26*%
%MOIN*%
D10*
X410390Y2499243D03*
D11*
X1812860Y1921872D03*
X1812860Y740780D03*
D12*
X1182940Y1646286D03*
X1182940Y1567550D03*
X1182940Y1488810D03*
X1182940Y1410070D03*
X1182940Y1331320D03*
X1182940Y1252580D03*
X1182940Y1173840D03*
X1182940Y1095100D03*
X1182940Y1016360D03*
X1378910Y1649019D03*
X1378910Y1570280D03*
X1378910Y1491540D03*
X1378910Y1412800D03*
X1378910Y1334060D03*
X1378910Y1255320D03*
X1378910Y1176580D03*
X1378910Y1097840D03*
X1378910Y1019100D03*
D13*
X1222310Y2079352D03*
X1222310Y2315574D03*
D14*
X276552Y2042719D03*
X276552Y1842719D03*
X276552Y1609641D03*
X276552Y1409640D03*
X276552Y2475786D03*
X276552Y2275786D03*
X276552Y310430D03*
X276552Y110430D03*
X276552Y1176570D03*
X276552Y976570D03*
X276552Y743500D03*
X276552Y543500D03*
D15*
X1340750Y1809119D02*
X1380810Y1769056D01*
D02*
X1380810Y1769063D02*
X1379130Y1662799D01*
D02*
X985905Y1608808D02*
X1180500Y1809121D01*
D02*
X1180500Y1809119D02*
X1340750Y1809119D01*
D02*
X295552Y1609619D02*
X985906Y1608802D01*
D16*
D02*
X1536210Y940170D02*
X1536210Y1174830D01*
D02*
X1536210Y1174830D02*
X1456090Y1254960D01*
D02*
X1496150Y900110D02*
X1536210Y940170D01*
D02*
X1456090Y1254950D02*
X1392690Y1255250D01*
D02*
X397287Y900110D02*
X1496150Y900110D01*
D02*
X292604Y966410D02*
X397287Y900110D01*
D02*
X397287Y659740D02*
X290240Y556680D01*
D02*
X397287Y900110D02*
X397287Y659730D01*
D02*
X397287Y270550D02*
X287991Y125600D01*
D02*
X397287Y659740D02*
X397287Y270560D01*
D17*
G36*
X40000Y2558430D02*
X40000Y2534430D01*
X288000Y2534430D01*
X288000Y2532430D01*
X296000Y2532430D01*
X296000Y2530430D01*
X300000Y2530430D01*
X300000Y2528430D01*
X304000Y2528430D01*
X304000Y2526430D01*
X308000Y2526430D01*
X308000Y2524430D01*
X310000Y2524430D01*
X310000Y2522430D01*
X314000Y2522430D01*
X314000Y2520430D01*
X316000Y2520430D01*
X316000Y2518430D01*
X318000Y2518430D01*
X318000Y2516430D01*
X320000Y2516430D01*
X320000Y2514430D01*
X322000Y2514430D01*
X322000Y2512430D01*
X324000Y2512430D01*
X324000Y2508430D01*
X326000Y2508430D01*
X326000Y2506430D01*
X328000Y2506430D01*
X328000Y2502430D01*
X330000Y2502430D01*
X330000Y2498430D01*
X332000Y2498430D01*
X332000Y2492430D01*
X334000Y2492430D01*
X334000Y2482430D01*
X336000Y2482430D01*
X336000Y2468430D01*
X334000Y2468430D01*
X334000Y2458430D01*
X332000Y2458430D01*
X332000Y2452430D01*
X330000Y2452430D01*
X330000Y2448430D01*
X328000Y2448430D01*
X328000Y2446430D01*
X326000Y2446430D01*
X326000Y2442430D01*
X324000Y2442430D01*
X324000Y2440430D01*
X322000Y2440430D01*
X322000Y2438430D01*
X320000Y2438430D01*
X320000Y2434430D01*
X318000Y2434430D01*
X318000Y2432430D01*
X316000Y2432430D01*
X316000Y2430430D01*
X312000Y2430430D01*
X312000Y2428430D01*
X310000Y2428430D01*
X310000Y2426430D01*
X306000Y2426430D01*
X306000Y2424430D01*
X304000Y2424430D01*
X304000Y2422430D01*
X300000Y2422430D01*
X300000Y2420430D01*
X294000Y2420430D01*
X294000Y2418430D01*
X284000Y2418430D01*
X284000Y2416430D01*
X1966000Y2416430D01*
X1966000Y2558430D01*
X40000Y2558430D01*
G37*
D02*
G36*
X40000Y2534430D02*
X40000Y2416430D01*
X270000Y2416430D01*
X270000Y2418430D01*
X260000Y2418430D01*
X260000Y2420430D01*
X254000Y2420430D01*
X254000Y2422430D01*
X250000Y2422430D01*
X250000Y2424430D01*
X246000Y2424430D01*
X246000Y2426430D01*
X244000Y2426430D01*
X244000Y2428430D01*
X240000Y2428430D01*
X240000Y2430430D01*
X238000Y2430430D01*
X238000Y2432430D01*
X236000Y2432430D01*
X236000Y2434430D01*
X234000Y2434430D01*
X234000Y2436430D01*
X232000Y2436430D01*
X232000Y2438430D01*
X230000Y2438430D01*
X230000Y2440430D01*
X228000Y2440430D01*
X228000Y2444430D01*
X226000Y2444430D01*
X226000Y2446430D01*
X224000Y2446430D01*
X224000Y2450430D01*
X222000Y2450430D01*
X222000Y2456430D01*
X220000Y2456430D01*
X220000Y2464430D01*
X218000Y2464430D01*
X218000Y2488430D01*
X220000Y2488430D01*
X220000Y2494430D01*
X222000Y2494430D01*
X222000Y2500430D01*
X224000Y2500430D01*
X224000Y2504430D01*
X226000Y2504430D01*
X226000Y2508430D01*
X228000Y2508430D01*
X228000Y2510430D01*
X230000Y2510430D01*
X230000Y2512430D01*
X232000Y2512430D01*
X232000Y2514430D01*
X234000Y2514430D01*
X234000Y2518430D01*
X238000Y2518430D01*
X238000Y2520430D01*
X240000Y2520430D01*
X240000Y2522430D01*
X242000Y2522430D01*
X242000Y2524430D01*
X244000Y2524430D01*
X244000Y2526430D01*
X248000Y2526430D01*
X248000Y2528430D01*
X252000Y2528430D01*
X252000Y2530430D01*
X258000Y2530430D01*
X258000Y2532430D01*
X264000Y2532430D01*
X264000Y2534430D01*
X40000Y2534430D01*
G37*
D02*
G36*
X40000Y2416430D02*
X40000Y2414430D01*
X1966000Y2414430D01*
X1966000Y2416430D01*
X40000Y2416430D01*
G37*
D02*
G36*
X40000Y2416430D02*
X40000Y2414430D01*
X1966000Y2414430D01*
X1966000Y2416430D01*
X40000Y2416430D01*
G37*
D02*
G36*
X40000Y2414430D02*
X40000Y2376430D01*
X1236000Y2376430D01*
X1236000Y2374430D01*
X1244000Y2374430D01*
X1244000Y2372430D01*
X1248000Y2372430D01*
X1248000Y2370430D01*
X1252000Y2370430D01*
X1252000Y2368430D01*
X1256000Y2368430D01*
X1256000Y2366430D01*
X1258000Y2366430D01*
X1258000Y2364430D01*
X1260000Y2364430D01*
X1260000Y2362430D01*
X1264000Y2362430D01*
X1264000Y2360430D01*
X1266000Y2360430D01*
X1266000Y2358430D01*
X1268000Y2358430D01*
X1268000Y2356430D01*
X1270000Y2356430D01*
X1270000Y2352430D01*
X1272000Y2352430D01*
X1272000Y2350430D01*
X1274000Y2350430D01*
X1274000Y2346430D01*
X1276000Y2346430D01*
X1276000Y2344430D01*
X1278000Y2344430D01*
X1278000Y2340430D01*
X1280000Y2340430D01*
X1280000Y2334430D01*
X1282000Y2334430D01*
X1282000Y2324430D01*
X1284000Y2324430D01*
X1284000Y2306430D01*
X1282000Y2306430D01*
X1282000Y2296430D01*
X1280000Y2296430D01*
X1280000Y2292430D01*
X1278000Y2292430D01*
X1278000Y2286430D01*
X1276000Y2286430D01*
X1276000Y2284430D01*
X1274000Y2284430D01*
X1274000Y2280430D01*
X1272000Y2280430D01*
X1272000Y2278430D01*
X1270000Y2278430D01*
X1270000Y2276430D01*
X1268000Y2276430D01*
X1268000Y2272430D01*
X1266000Y2272430D01*
X1266000Y2270430D01*
X1264000Y2270430D01*
X1264000Y2268430D01*
X1260000Y2268430D01*
X1260000Y2266430D01*
X1258000Y2266430D01*
X1258000Y2264430D01*
X1254000Y2264430D01*
X1254000Y2262430D01*
X1252000Y2262430D01*
X1252000Y2260430D01*
X1248000Y2260430D01*
X1248000Y2258430D01*
X1242000Y2258430D01*
X1242000Y2256430D01*
X1236000Y2256430D01*
X1236000Y2254430D01*
X1966000Y2254430D01*
X1966000Y2414430D01*
X40000Y2414430D01*
G37*
D02*
G36*
X40000Y2376430D02*
X40000Y2334430D01*
X288000Y2334430D01*
X288000Y2332430D01*
X296000Y2332430D01*
X296000Y2330430D01*
X300000Y2330430D01*
X300000Y2328430D01*
X304000Y2328430D01*
X304000Y2326430D01*
X308000Y2326430D01*
X308000Y2324430D01*
X310000Y2324430D01*
X310000Y2322430D01*
X314000Y2322430D01*
X314000Y2320430D01*
X316000Y2320430D01*
X316000Y2318430D01*
X318000Y2318430D01*
X318000Y2316430D01*
X320000Y2316430D01*
X320000Y2314430D01*
X322000Y2314430D01*
X322000Y2312430D01*
X324000Y2312430D01*
X324000Y2308430D01*
X326000Y2308430D01*
X326000Y2306430D01*
X328000Y2306430D01*
X328000Y2302430D01*
X330000Y2302430D01*
X330000Y2298430D01*
X332000Y2298430D01*
X332000Y2292430D01*
X334000Y2292430D01*
X334000Y2282430D01*
X336000Y2282430D01*
X336000Y2268430D01*
X334000Y2268430D01*
X334000Y2258430D01*
X332000Y2258430D01*
X332000Y2254430D01*
X1210000Y2254430D01*
X1210000Y2256430D01*
X1202000Y2256430D01*
X1202000Y2258430D01*
X1196000Y2258430D01*
X1196000Y2260430D01*
X1194000Y2260430D01*
X1194000Y2262430D01*
X1190000Y2262430D01*
X1190000Y2264430D01*
X1186000Y2264430D01*
X1186000Y2266430D01*
X1184000Y2266430D01*
X1184000Y2268430D01*
X1182000Y2268430D01*
X1182000Y2270430D01*
X1180000Y2270430D01*
X1180000Y2272430D01*
X1178000Y2272430D01*
X1178000Y2274430D01*
X1176000Y2274430D01*
X1176000Y2276430D01*
X1174000Y2276430D01*
X1174000Y2278430D01*
X1172000Y2278430D01*
X1172000Y2282430D01*
X1170000Y2282430D01*
X1170000Y2284430D01*
X1168000Y2284430D01*
X1168000Y2288430D01*
X1166000Y2288430D01*
X1166000Y2292430D01*
X1164000Y2292430D01*
X1164000Y2298430D01*
X1162000Y2298430D01*
X1162000Y2310430D01*
X1160000Y2310430D01*
X1160000Y2320430D01*
X1162000Y2320430D01*
X1162000Y2332430D01*
X1164000Y2332430D01*
X1164000Y2338430D01*
X1166000Y2338430D01*
X1166000Y2342430D01*
X1168000Y2342430D01*
X1168000Y2346430D01*
X1170000Y2346430D01*
X1170000Y2350430D01*
X1172000Y2350430D01*
X1172000Y2352430D01*
X1174000Y2352430D01*
X1174000Y2354430D01*
X1176000Y2354430D01*
X1176000Y2356430D01*
X1178000Y2356430D01*
X1178000Y2358430D01*
X1180000Y2358430D01*
X1180000Y2360430D01*
X1182000Y2360430D01*
X1182000Y2362430D01*
X1184000Y2362430D01*
X1184000Y2364430D01*
X1186000Y2364430D01*
X1186000Y2366430D01*
X1190000Y2366430D01*
X1190000Y2368430D01*
X1192000Y2368430D01*
X1192000Y2370430D01*
X1196000Y2370430D01*
X1196000Y2372430D01*
X1202000Y2372430D01*
X1202000Y2374430D01*
X1208000Y2374430D01*
X1208000Y2376430D01*
X40000Y2376430D01*
G37*
D02*
G36*
X40000Y2334430D02*
X40000Y2216430D01*
X270000Y2216430D01*
X270000Y2218430D01*
X260000Y2218430D01*
X260000Y2220430D01*
X254000Y2220430D01*
X254000Y2222430D01*
X250000Y2222430D01*
X250000Y2224430D01*
X246000Y2224430D01*
X246000Y2226430D01*
X244000Y2226430D01*
X244000Y2228430D01*
X240000Y2228430D01*
X240000Y2230430D01*
X238000Y2230430D01*
X238000Y2232430D01*
X236000Y2232430D01*
X236000Y2234430D01*
X234000Y2234430D01*
X234000Y2236430D01*
X232000Y2236430D01*
X232000Y2238430D01*
X230000Y2238430D01*
X230000Y2240430D01*
X228000Y2240430D01*
X228000Y2244430D01*
X226000Y2244430D01*
X226000Y2246430D01*
X224000Y2246430D01*
X224000Y2250430D01*
X222000Y2250430D01*
X222000Y2256430D01*
X220000Y2256430D01*
X220000Y2264430D01*
X218000Y2264430D01*
X218000Y2288430D01*
X220000Y2288430D01*
X220000Y2294430D01*
X222000Y2294430D01*
X222000Y2300430D01*
X224000Y2300430D01*
X224000Y2304430D01*
X226000Y2304430D01*
X226000Y2308430D01*
X228000Y2308430D01*
X228000Y2310430D01*
X230000Y2310430D01*
X230000Y2312430D01*
X232000Y2312430D01*
X232000Y2314430D01*
X234000Y2314430D01*
X234000Y2318430D01*
X238000Y2318430D01*
X238000Y2320430D01*
X240000Y2320430D01*
X240000Y2322430D01*
X242000Y2322430D01*
X242000Y2324430D01*
X244000Y2324430D01*
X244000Y2326430D01*
X248000Y2326430D01*
X248000Y2328430D01*
X252000Y2328430D01*
X252000Y2330430D01*
X258000Y2330430D01*
X258000Y2332430D01*
X264000Y2332430D01*
X264000Y2334430D01*
X40000Y2334430D01*
G37*
D02*
G36*
X332000Y2254430D02*
X332000Y2252430D01*
X1966000Y2252430D01*
X1966000Y2254430D01*
X332000Y2254430D01*
G37*
D02*
G36*
X332000Y2254430D02*
X332000Y2252430D01*
X1966000Y2252430D01*
X1966000Y2254430D01*
X332000Y2254430D01*
G37*
D02*
G36*
X330000Y2252430D02*
X330000Y2248430D01*
X328000Y2248430D01*
X328000Y2246430D01*
X326000Y2246430D01*
X326000Y2242430D01*
X324000Y2242430D01*
X324000Y2240430D01*
X322000Y2240430D01*
X322000Y2238430D01*
X320000Y2238430D01*
X320000Y2234430D01*
X318000Y2234430D01*
X318000Y2232430D01*
X316000Y2232430D01*
X316000Y2230430D01*
X312000Y2230430D01*
X312000Y2228430D01*
X310000Y2228430D01*
X310000Y2226430D01*
X306000Y2226430D01*
X306000Y2224430D01*
X304000Y2224430D01*
X304000Y2222430D01*
X300000Y2222430D01*
X300000Y2220430D01*
X294000Y2220430D01*
X294000Y2218430D01*
X284000Y2218430D01*
X284000Y2216430D01*
X1966000Y2216430D01*
X1966000Y2252430D01*
X330000Y2252430D01*
G37*
D02*
G36*
X40000Y2216430D02*
X40000Y2214430D01*
X1966000Y2214430D01*
X1966000Y2216430D01*
X40000Y2216430D01*
G37*
D02*
G36*
X40000Y2216430D02*
X40000Y2214430D01*
X1966000Y2214430D01*
X1966000Y2216430D01*
X40000Y2216430D01*
G37*
D02*
G36*
X40000Y2214430D02*
X40000Y2140430D01*
X1236000Y2140430D01*
X1236000Y2138430D01*
X1242000Y2138430D01*
X1242000Y2136430D01*
X1248000Y2136430D01*
X1248000Y2134430D01*
X1252000Y2134430D01*
X1252000Y2132430D01*
X1254000Y2132430D01*
X1254000Y2130430D01*
X1258000Y2130430D01*
X1258000Y2128430D01*
X1260000Y2128430D01*
X1260000Y2126430D01*
X1264000Y2126430D01*
X1264000Y2124430D01*
X1266000Y2124430D01*
X1266000Y2122430D01*
X1838000Y2122430D01*
X1838000Y2120430D01*
X1850000Y2120430D01*
X1850000Y2118430D01*
X1860000Y2118430D01*
X1860000Y2116430D01*
X1868000Y2116430D01*
X1868000Y2114430D01*
X1874000Y2114430D01*
X1874000Y2112430D01*
X1880000Y2112430D01*
X1880000Y2110430D01*
X1884000Y2110430D01*
X1884000Y2108430D01*
X1890000Y2108430D01*
X1890000Y2106430D01*
X1894000Y2106430D01*
X1894000Y2104430D01*
X1898000Y2104430D01*
X1898000Y2102430D01*
X1902000Y2102430D01*
X1902000Y2100430D01*
X1908000Y2100430D01*
X1908000Y2098430D01*
X1910000Y2098430D01*
X1910000Y2096430D01*
X1914000Y2096430D01*
X1914000Y2094430D01*
X1918000Y2094430D01*
X1918000Y2092430D01*
X1920000Y2092430D01*
X1920000Y2090430D01*
X1924000Y2090430D01*
X1924000Y2088430D01*
X1926000Y2088430D01*
X1926000Y2086430D01*
X1930000Y2086430D01*
X1930000Y2084430D01*
X1932000Y2084430D01*
X1932000Y2082430D01*
X1934000Y2082430D01*
X1934000Y2080430D01*
X1938000Y2080430D01*
X1938000Y2078430D01*
X1940000Y2078430D01*
X1940000Y2076430D01*
X1942000Y2076430D01*
X1942000Y2074430D01*
X1944000Y2074430D01*
X1944000Y2072430D01*
X1946000Y2072430D01*
X1946000Y2070430D01*
X1966000Y2070430D01*
X1966000Y2214430D01*
X40000Y2214430D01*
G37*
D02*
G36*
X40000Y2140430D02*
X40000Y2102430D01*
X282000Y2102430D01*
X282000Y2100430D01*
X292000Y2100430D01*
X292000Y2098430D01*
X298000Y2098430D01*
X298000Y2096430D01*
X302000Y2096430D01*
X302000Y2094430D01*
X306000Y2094430D01*
X306000Y2092430D01*
X310000Y2092430D01*
X310000Y2090430D01*
X312000Y2090430D01*
X312000Y2088430D01*
X314000Y2088430D01*
X314000Y2086430D01*
X318000Y2086430D01*
X318000Y2084430D01*
X320000Y2084430D01*
X320000Y2080430D01*
X322000Y2080430D01*
X322000Y2078430D01*
X324000Y2078430D01*
X324000Y2076430D01*
X326000Y2076430D01*
X326000Y2072430D01*
X328000Y2072430D01*
X328000Y2070430D01*
X330000Y2070430D01*
X330000Y2064430D01*
X332000Y2064430D01*
X332000Y2058430D01*
X334000Y2058430D01*
X334000Y2050430D01*
X336000Y2050430D01*
X336000Y2036430D01*
X334000Y2036430D01*
X334000Y2026430D01*
X332000Y2026430D01*
X332000Y2020430D01*
X330000Y2020430D01*
X330000Y2018430D01*
X1208000Y2018430D01*
X1208000Y2020430D01*
X1202000Y2020430D01*
X1202000Y2022430D01*
X1196000Y2022430D01*
X1196000Y2024430D01*
X1192000Y2024430D01*
X1192000Y2026430D01*
X1190000Y2026430D01*
X1190000Y2028430D01*
X1186000Y2028430D01*
X1186000Y2030430D01*
X1184000Y2030430D01*
X1184000Y2032430D01*
X1182000Y2032430D01*
X1182000Y2034430D01*
X1180000Y2034430D01*
X1180000Y2036430D01*
X1178000Y2036430D01*
X1178000Y2038430D01*
X1176000Y2038430D01*
X1176000Y2040430D01*
X1174000Y2040430D01*
X1174000Y2042430D01*
X1172000Y2042430D01*
X1172000Y2046430D01*
X1170000Y2046430D01*
X1170000Y2048430D01*
X1168000Y2048430D01*
X1168000Y2052430D01*
X1166000Y2052430D01*
X1166000Y2056430D01*
X1164000Y2056430D01*
X1164000Y2062430D01*
X1162000Y2062430D01*
X1162000Y2074430D01*
X1160000Y2074430D01*
X1160000Y2084430D01*
X1162000Y2084430D01*
X1162000Y2096430D01*
X1164000Y2096430D01*
X1164000Y2102430D01*
X1166000Y2102430D01*
X1166000Y2106430D01*
X1168000Y2106430D01*
X1168000Y2110430D01*
X1170000Y2110430D01*
X1170000Y2112430D01*
X1172000Y2112430D01*
X1172000Y2116430D01*
X1174000Y2116430D01*
X1174000Y2118430D01*
X1176000Y2118430D01*
X1176000Y2120430D01*
X1178000Y2120430D01*
X1178000Y2122430D01*
X1180000Y2122430D01*
X1180000Y2124430D01*
X1182000Y2124430D01*
X1182000Y2126430D01*
X1184000Y2126430D01*
X1184000Y2128430D01*
X1186000Y2128430D01*
X1186000Y2130430D01*
X1190000Y2130430D01*
X1190000Y2132430D01*
X1192000Y2132430D01*
X1192000Y2134430D01*
X1196000Y2134430D01*
X1196000Y2136430D01*
X1202000Y2136430D01*
X1202000Y2138430D01*
X1210000Y2138430D01*
X1210000Y2140430D01*
X40000Y2140430D01*
G37*
D02*
G36*
X1268000Y2122430D02*
X1268000Y2120430D01*
X1270000Y2120430D01*
X1270000Y2116430D01*
X1272000Y2116430D01*
X1272000Y2114430D01*
X1274000Y2114430D01*
X1274000Y2110430D01*
X1276000Y2110430D01*
X1276000Y2108430D01*
X1278000Y2108430D01*
X1278000Y2104430D01*
X1280000Y2104430D01*
X1280000Y2098430D01*
X1282000Y2098430D01*
X1282000Y2088430D01*
X1284000Y2088430D01*
X1284000Y2070430D01*
X1282000Y2070430D01*
X1282000Y2060430D01*
X1280000Y2060430D01*
X1280000Y2054430D01*
X1278000Y2054430D01*
X1278000Y2050430D01*
X1276000Y2050430D01*
X1276000Y2048430D01*
X1274000Y2048430D01*
X1274000Y2044430D01*
X1272000Y2044430D01*
X1272000Y2042430D01*
X1270000Y2042430D01*
X1270000Y2038430D01*
X1268000Y2038430D01*
X1268000Y2036430D01*
X1266000Y2036430D01*
X1266000Y2034430D01*
X1264000Y2034430D01*
X1264000Y2032430D01*
X1260000Y2032430D01*
X1260000Y2030430D01*
X1258000Y2030430D01*
X1258000Y2028430D01*
X1256000Y2028430D01*
X1256000Y2026430D01*
X1252000Y2026430D01*
X1252000Y2024430D01*
X1248000Y2024430D01*
X1248000Y2022430D01*
X1244000Y2022430D01*
X1244000Y2020430D01*
X1236000Y2020430D01*
X1236000Y2018430D01*
X1638000Y2018430D01*
X1638000Y2022430D01*
X1640000Y2022430D01*
X1640000Y2026430D01*
X1642000Y2026430D01*
X1642000Y2028430D01*
X1644000Y2028430D01*
X1644000Y2032430D01*
X1646000Y2032430D01*
X1646000Y2036430D01*
X1648000Y2036430D01*
X1648000Y2038430D01*
X1650000Y2038430D01*
X1650000Y2040430D01*
X1652000Y2040430D01*
X1652000Y2044430D01*
X1654000Y2044430D01*
X1654000Y2046430D01*
X1656000Y2046430D01*
X1656000Y2048430D01*
X1658000Y2048430D01*
X1658000Y2050430D01*
X1660000Y2050430D01*
X1660000Y2052430D01*
X1662000Y2052430D01*
X1662000Y2056430D01*
X1664000Y2056430D01*
X1664000Y2058430D01*
X1666000Y2058430D01*
X1666000Y2060430D01*
X1668000Y2060430D01*
X1668000Y2062430D01*
X1670000Y2062430D01*
X1670000Y2064430D01*
X1672000Y2064430D01*
X1672000Y2066430D01*
X1674000Y2066430D01*
X1674000Y2068430D01*
X1676000Y2068430D01*
X1676000Y2070430D01*
X1678000Y2070430D01*
X1678000Y2072430D01*
X1682000Y2072430D01*
X1682000Y2074430D01*
X1684000Y2074430D01*
X1684000Y2076430D01*
X1686000Y2076430D01*
X1686000Y2078430D01*
X1688000Y2078430D01*
X1688000Y2080430D01*
X1690000Y2080430D01*
X1690000Y2082430D01*
X1694000Y2082430D01*
X1694000Y2084430D01*
X1696000Y2084430D01*
X1696000Y2086430D01*
X1698000Y2086430D01*
X1698000Y2088430D01*
X1702000Y2088430D01*
X1702000Y2090430D01*
X1706000Y2090430D01*
X1706000Y2092430D01*
X1708000Y2092430D01*
X1708000Y2094430D01*
X1712000Y2094430D01*
X1712000Y2096430D01*
X1716000Y2096430D01*
X1716000Y2098430D01*
X1718000Y2098430D01*
X1718000Y2100430D01*
X1722000Y2100430D01*
X1722000Y2102430D01*
X1726000Y2102430D01*
X1726000Y2104430D01*
X1732000Y2104430D01*
X1732000Y2106430D01*
X1736000Y2106430D01*
X1736000Y2108430D01*
X1740000Y2108430D01*
X1740000Y2110430D01*
X1746000Y2110430D01*
X1746000Y2112430D01*
X1752000Y2112430D01*
X1752000Y2114430D01*
X1758000Y2114430D01*
X1758000Y2116430D01*
X1766000Y2116430D01*
X1766000Y2118430D01*
X1776000Y2118430D01*
X1776000Y2120430D01*
X1788000Y2120430D01*
X1788000Y2122430D01*
X1268000Y2122430D01*
G37*
D02*
G36*
X40000Y2102430D02*
X40000Y1984430D01*
X264000Y1984430D01*
X264000Y1986430D01*
X256000Y1986430D01*
X256000Y1988430D01*
X252000Y1988430D01*
X252000Y1990430D01*
X248000Y1990430D01*
X248000Y1992430D01*
X244000Y1992430D01*
X244000Y1994430D01*
X242000Y1994430D01*
X242000Y1996430D01*
X240000Y1996430D01*
X240000Y1998430D01*
X236000Y1998430D01*
X236000Y2000430D01*
X234000Y2000430D01*
X234000Y2002430D01*
X232000Y2002430D01*
X232000Y2006430D01*
X230000Y2006430D01*
X230000Y2008430D01*
X228000Y2008430D01*
X228000Y2010430D01*
X226000Y2010430D01*
X226000Y2014430D01*
X224000Y2014430D01*
X224000Y2018430D01*
X222000Y2018430D01*
X222000Y2022430D01*
X220000Y2022430D01*
X220000Y2030430D01*
X218000Y2030430D01*
X218000Y2054430D01*
X220000Y2054430D01*
X220000Y2062430D01*
X222000Y2062430D01*
X222000Y2066430D01*
X224000Y2066430D01*
X224000Y2070430D01*
X226000Y2070430D01*
X226000Y2074430D01*
X228000Y2074430D01*
X228000Y2076430D01*
X230000Y2076430D01*
X230000Y2080430D01*
X232000Y2080430D01*
X232000Y2082430D01*
X234000Y2082430D01*
X234000Y2084430D01*
X236000Y2084430D01*
X236000Y2086430D01*
X238000Y2086430D01*
X238000Y2088430D01*
X242000Y2088430D01*
X242000Y2090430D01*
X244000Y2090430D01*
X244000Y2092430D01*
X246000Y2092430D01*
X246000Y2094430D01*
X250000Y2094430D01*
X250000Y2096430D01*
X254000Y2096430D01*
X254000Y2098430D01*
X260000Y2098430D01*
X260000Y2100430D01*
X272000Y2100430D01*
X272000Y2102430D01*
X40000Y2102430D01*
G37*
D02*
G36*
X330000Y2018430D02*
X330000Y2016430D01*
X1636000Y2016430D01*
X1636000Y2018430D01*
X330000Y2018430D01*
G37*
D02*
G36*
X330000Y2018430D02*
X330000Y2016430D01*
X1636000Y2016430D01*
X1636000Y2018430D01*
X330000Y2018430D01*
G37*
D02*
G36*
X328000Y2016430D02*
X328000Y2012430D01*
X326000Y2012430D01*
X326000Y2008430D01*
X324000Y2008430D01*
X324000Y2006430D01*
X322000Y2006430D01*
X322000Y2004430D01*
X320000Y2004430D01*
X320000Y2002430D01*
X318000Y2002430D01*
X318000Y2000430D01*
X316000Y2000430D01*
X316000Y1998430D01*
X314000Y1998430D01*
X314000Y1996430D01*
X312000Y1996430D01*
X312000Y1994430D01*
X308000Y1994430D01*
X308000Y1992430D01*
X306000Y1992430D01*
X306000Y1990430D01*
X302000Y1990430D01*
X302000Y1988430D01*
X296000Y1988430D01*
X296000Y1986430D01*
X290000Y1986430D01*
X290000Y1984430D01*
X1622000Y1984430D01*
X1622000Y1988430D01*
X1624000Y1988430D01*
X1624000Y1992430D01*
X1626000Y1992430D01*
X1626000Y1998430D01*
X1628000Y1998430D01*
X1628000Y2002430D01*
X1630000Y2002430D01*
X1630000Y2006430D01*
X1632000Y2006430D01*
X1632000Y2010430D01*
X1634000Y2010430D01*
X1634000Y2014430D01*
X1636000Y2014430D01*
X1636000Y2016430D01*
X328000Y2016430D01*
G37*
D02*
G36*
X40000Y1984430D02*
X40000Y1982430D01*
X1622000Y1982430D01*
X1622000Y1984430D01*
X40000Y1984430D01*
G37*
D02*
G36*
X40000Y1984430D02*
X40000Y1982430D01*
X1622000Y1982430D01*
X1622000Y1984430D01*
X40000Y1984430D01*
G37*
D02*
G36*
X40000Y1982430D02*
X40000Y1902430D01*
X282000Y1902430D01*
X282000Y1900430D01*
X292000Y1900430D01*
X292000Y1898430D01*
X298000Y1898430D01*
X298000Y1896430D01*
X302000Y1896430D01*
X302000Y1894430D01*
X306000Y1894430D01*
X306000Y1892430D01*
X310000Y1892430D01*
X310000Y1890430D01*
X312000Y1890430D01*
X312000Y1888430D01*
X314000Y1888430D01*
X314000Y1886430D01*
X318000Y1886430D01*
X318000Y1884430D01*
X320000Y1884430D01*
X320000Y1880430D01*
X322000Y1880430D01*
X322000Y1878430D01*
X324000Y1878430D01*
X324000Y1876430D01*
X326000Y1876430D01*
X326000Y1872430D01*
X328000Y1872430D01*
X328000Y1870430D01*
X330000Y1870430D01*
X330000Y1864430D01*
X332000Y1864430D01*
X332000Y1858430D01*
X1354000Y1858430D01*
X1354000Y1856430D01*
X1360000Y1856430D01*
X1360000Y1854430D01*
X1364000Y1854430D01*
X1364000Y1852430D01*
X1368000Y1852430D01*
X1368000Y1850430D01*
X1370000Y1850430D01*
X1370000Y1848430D01*
X1372000Y1848430D01*
X1372000Y1846430D01*
X1374000Y1846430D01*
X1374000Y1844430D01*
X1378000Y1844430D01*
X1378000Y1842430D01*
X1380000Y1842430D01*
X1380000Y1840430D01*
X1382000Y1840430D01*
X1382000Y1838430D01*
X1384000Y1838430D01*
X1384000Y1836430D01*
X1386000Y1836430D01*
X1386000Y1834430D01*
X1388000Y1834430D01*
X1388000Y1832430D01*
X1390000Y1832430D01*
X1390000Y1830430D01*
X1392000Y1830430D01*
X1392000Y1828430D01*
X1394000Y1828430D01*
X1394000Y1826430D01*
X1396000Y1826430D01*
X1396000Y1824430D01*
X1398000Y1824430D01*
X1398000Y1822430D01*
X1400000Y1822430D01*
X1400000Y1820430D01*
X1402000Y1820430D01*
X1402000Y1818430D01*
X1404000Y1818430D01*
X1404000Y1816430D01*
X1406000Y1816430D01*
X1406000Y1814430D01*
X1408000Y1814430D01*
X1408000Y1812430D01*
X1410000Y1812430D01*
X1410000Y1810430D01*
X1412000Y1810430D01*
X1412000Y1808430D01*
X1414000Y1808430D01*
X1414000Y1806430D01*
X1416000Y1806430D01*
X1416000Y1804430D01*
X1418000Y1804430D01*
X1418000Y1800430D01*
X1420000Y1800430D01*
X1420000Y1798430D01*
X1422000Y1798430D01*
X1422000Y1796430D01*
X1424000Y1796430D01*
X1424000Y1792430D01*
X1426000Y1792430D01*
X1426000Y1788430D01*
X1428000Y1788430D01*
X1428000Y1782430D01*
X1430000Y1782430D01*
X1430000Y1720430D01*
X1798000Y1720430D01*
X1798000Y1722430D01*
X1780000Y1722430D01*
X1780000Y1724430D01*
X1770000Y1724430D01*
X1770000Y1726430D01*
X1762000Y1726430D01*
X1762000Y1728430D01*
X1754000Y1728430D01*
X1754000Y1730430D01*
X1748000Y1730430D01*
X1748000Y1732430D01*
X1744000Y1732430D01*
X1744000Y1734430D01*
X1738000Y1734430D01*
X1738000Y1736430D01*
X1732000Y1736430D01*
X1732000Y1738430D01*
X1728000Y1738430D01*
X1728000Y1740430D01*
X1724000Y1740430D01*
X1724000Y1742430D01*
X1720000Y1742430D01*
X1720000Y1744430D01*
X1716000Y1744430D01*
X1716000Y1746430D01*
X1714000Y1746430D01*
X1714000Y1748430D01*
X1710000Y1748430D01*
X1710000Y1750430D01*
X1706000Y1750430D01*
X1706000Y1752430D01*
X1704000Y1752430D01*
X1704000Y1754430D01*
X1700000Y1754430D01*
X1700000Y1756430D01*
X1698000Y1756430D01*
X1698000Y1758430D01*
X1694000Y1758430D01*
X1694000Y1760430D01*
X1692000Y1760430D01*
X1692000Y1762430D01*
X1690000Y1762430D01*
X1690000Y1764430D01*
X1686000Y1764430D01*
X1686000Y1766430D01*
X1684000Y1766430D01*
X1684000Y1768430D01*
X1682000Y1768430D01*
X1682000Y1770430D01*
X1680000Y1770430D01*
X1680000Y1772430D01*
X1678000Y1772430D01*
X1678000Y1774430D01*
X1676000Y1774430D01*
X1676000Y1776430D01*
X1674000Y1776430D01*
X1674000Y1778430D01*
X1670000Y1778430D01*
X1670000Y1782430D01*
X1668000Y1782430D01*
X1668000Y1784430D01*
X1666000Y1784430D01*
X1666000Y1786430D01*
X1664000Y1786430D01*
X1664000Y1788430D01*
X1662000Y1788430D01*
X1662000Y1790430D01*
X1660000Y1790430D01*
X1660000Y1792430D01*
X1658000Y1792430D01*
X1658000Y1794430D01*
X1656000Y1794430D01*
X1656000Y1798430D01*
X1654000Y1798430D01*
X1654000Y1800430D01*
X1652000Y1800430D01*
X1652000Y1802430D01*
X1650000Y1802430D01*
X1650000Y1806430D01*
X1648000Y1806430D01*
X1648000Y1808430D01*
X1646000Y1808430D01*
X1646000Y1810430D01*
X1644000Y1810430D01*
X1644000Y1814430D01*
X1642000Y1814430D01*
X1642000Y1818430D01*
X1640000Y1818430D01*
X1640000Y1820430D01*
X1638000Y1820430D01*
X1638000Y1824430D01*
X1636000Y1824430D01*
X1636000Y1828430D01*
X1634000Y1828430D01*
X1634000Y1832430D01*
X1632000Y1832430D01*
X1632000Y1836430D01*
X1630000Y1836430D01*
X1630000Y1840430D01*
X1628000Y1840430D01*
X1628000Y1844430D01*
X1626000Y1844430D01*
X1626000Y1850430D01*
X1624000Y1850430D01*
X1624000Y1856430D01*
X1622000Y1856430D01*
X1622000Y1862430D01*
X1620000Y1862430D01*
X1620000Y1868430D01*
X1618000Y1868430D01*
X1618000Y1876430D01*
X1616000Y1876430D01*
X1616000Y1886430D01*
X1614000Y1886430D01*
X1614000Y1900430D01*
X1612000Y1900430D01*
X1612000Y1944430D01*
X1614000Y1944430D01*
X1614000Y1958430D01*
X1616000Y1958430D01*
X1616000Y1966430D01*
X1618000Y1966430D01*
X1618000Y1974430D01*
X1620000Y1974430D01*
X1620000Y1982430D01*
X40000Y1982430D01*
G37*
D02*
G36*
X40000Y1902430D02*
X40000Y1784430D01*
X264000Y1784430D01*
X264000Y1786430D01*
X256000Y1786430D01*
X256000Y1788430D01*
X252000Y1788430D01*
X252000Y1790430D01*
X248000Y1790430D01*
X248000Y1792430D01*
X244000Y1792430D01*
X244000Y1794430D01*
X242000Y1794430D01*
X242000Y1796430D01*
X240000Y1796430D01*
X240000Y1798430D01*
X236000Y1798430D01*
X236000Y1800430D01*
X234000Y1800430D01*
X234000Y1802430D01*
X232000Y1802430D01*
X232000Y1806430D01*
X230000Y1806430D01*
X230000Y1808430D01*
X228000Y1808430D01*
X228000Y1810430D01*
X226000Y1810430D01*
X226000Y1814430D01*
X224000Y1814430D01*
X224000Y1818430D01*
X222000Y1818430D01*
X222000Y1822430D01*
X220000Y1822430D01*
X220000Y1830430D01*
X218000Y1830430D01*
X218000Y1854430D01*
X220000Y1854430D01*
X220000Y1862430D01*
X222000Y1862430D01*
X222000Y1866430D01*
X224000Y1866430D01*
X224000Y1870430D01*
X226000Y1870430D01*
X226000Y1874430D01*
X228000Y1874430D01*
X228000Y1876430D01*
X230000Y1876430D01*
X230000Y1880430D01*
X232000Y1880430D01*
X232000Y1882430D01*
X234000Y1882430D01*
X234000Y1884430D01*
X236000Y1884430D01*
X236000Y1886430D01*
X238000Y1886430D01*
X238000Y1888430D01*
X242000Y1888430D01*
X242000Y1890430D01*
X244000Y1890430D01*
X244000Y1892430D01*
X246000Y1892430D01*
X246000Y1894430D01*
X250000Y1894430D01*
X250000Y1896430D01*
X254000Y1896430D01*
X254000Y1898430D01*
X260000Y1898430D01*
X260000Y1900430D01*
X272000Y1900430D01*
X272000Y1902430D01*
X40000Y1902430D01*
G37*
D02*
G36*
X334000Y1858430D02*
X334000Y1850430D01*
X336000Y1850430D01*
X336000Y1836430D01*
X334000Y1836430D01*
X334000Y1826430D01*
X332000Y1826430D01*
X332000Y1820430D01*
X330000Y1820430D01*
X330000Y1816430D01*
X328000Y1816430D01*
X328000Y1812430D01*
X326000Y1812430D01*
X326000Y1808430D01*
X324000Y1808430D01*
X324000Y1806430D01*
X322000Y1806430D01*
X322000Y1804430D01*
X320000Y1804430D01*
X320000Y1802430D01*
X318000Y1802430D01*
X318000Y1800430D01*
X316000Y1800430D01*
X316000Y1798430D01*
X314000Y1798430D01*
X314000Y1796430D01*
X312000Y1796430D01*
X312000Y1794430D01*
X308000Y1794430D01*
X308000Y1792430D01*
X306000Y1792430D01*
X306000Y1790430D01*
X302000Y1790430D01*
X302000Y1788430D01*
X296000Y1788430D01*
X296000Y1786430D01*
X290000Y1786430D01*
X290000Y1784430D01*
X1088000Y1784430D01*
X1088000Y1786430D01*
X1090000Y1786430D01*
X1090000Y1788430D01*
X1092000Y1788430D01*
X1092000Y1790430D01*
X1094000Y1790430D01*
X1094000Y1792430D01*
X1096000Y1792430D01*
X1096000Y1794430D01*
X1098000Y1794430D01*
X1098000Y1796430D01*
X1100000Y1796430D01*
X1100000Y1798430D01*
X1102000Y1798430D01*
X1102000Y1800430D01*
X1104000Y1800430D01*
X1104000Y1802430D01*
X1106000Y1802430D01*
X1106000Y1804430D01*
X1108000Y1804430D01*
X1108000Y1806430D01*
X1110000Y1806430D01*
X1110000Y1808430D01*
X1112000Y1808430D01*
X1112000Y1810430D01*
X1114000Y1810430D01*
X1114000Y1814430D01*
X1116000Y1814430D01*
X1116000Y1816430D01*
X1118000Y1816430D01*
X1118000Y1818430D01*
X1120000Y1818430D01*
X1120000Y1820430D01*
X1122000Y1820430D01*
X1122000Y1822430D01*
X1124000Y1822430D01*
X1124000Y1824430D01*
X1126000Y1824430D01*
X1126000Y1826430D01*
X1128000Y1826430D01*
X1128000Y1828430D01*
X1130000Y1828430D01*
X1130000Y1830430D01*
X1132000Y1830430D01*
X1132000Y1832430D01*
X1134000Y1832430D01*
X1134000Y1834430D01*
X1136000Y1834430D01*
X1136000Y1836430D01*
X1138000Y1836430D01*
X1138000Y1838430D01*
X1140000Y1838430D01*
X1140000Y1840430D01*
X1142000Y1840430D01*
X1142000Y1842430D01*
X1144000Y1842430D01*
X1144000Y1844430D01*
X1146000Y1844430D01*
X1146000Y1846430D01*
X1148000Y1846430D01*
X1148000Y1848430D01*
X1152000Y1848430D01*
X1152000Y1850430D01*
X1154000Y1850430D01*
X1154000Y1852430D01*
X1158000Y1852430D01*
X1158000Y1854430D01*
X1162000Y1854430D01*
X1162000Y1856430D01*
X1168000Y1856430D01*
X1168000Y1858430D01*
X334000Y1858430D01*
G37*
D02*
G36*
X40000Y1784430D02*
X40000Y1782430D01*
X1086000Y1782430D01*
X1086000Y1784430D01*
X40000Y1784430D01*
G37*
D02*
G36*
X40000Y1784430D02*
X40000Y1782430D01*
X1086000Y1782430D01*
X1086000Y1784430D01*
X40000Y1784430D01*
G37*
D02*
G36*
X40000Y1782430D02*
X40000Y1668430D01*
X288000Y1668430D01*
X288000Y1666430D01*
X296000Y1666430D01*
X296000Y1664430D01*
X300000Y1664430D01*
X300000Y1662430D01*
X304000Y1662430D01*
X304000Y1660430D01*
X462000Y1660430D01*
X462000Y1658430D01*
X966000Y1658430D01*
X966000Y1660430D01*
X968000Y1660430D01*
X968000Y1662430D01*
X970000Y1662430D01*
X970000Y1664430D01*
X972000Y1664430D01*
X972000Y1666430D01*
X974000Y1666430D01*
X974000Y1668430D01*
X976000Y1668430D01*
X976000Y1670430D01*
X978000Y1670430D01*
X978000Y1674430D01*
X980000Y1674430D01*
X980000Y1676430D01*
X982000Y1676430D01*
X982000Y1678430D01*
X984000Y1678430D01*
X984000Y1680430D01*
X986000Y1680430D01*
X986000Y1682430D01*
X988000Y1682430D01*
X988000Y1684430D01*
X990000Y1684430D01*
X990000Y1686430D01*
X992000Y1686430D01*
X992000Y1688430D01*
X994000Y1688430D01*
X994000Y1690430D01*
X996000Y1690430D01*
X996000Y1692430D01*
X998000Y1692430D01*
X998000Y1694430D01*
X1000000Y1694430D01*
X1000000Y1696430D01*
X1002000Y1696430D01*
X1002000Y1698430D01*
X1004000Y1698430D01*
X1004000Y1700430D01*
X1006000Y1700430D01*
X1006000Y1702430D01*
X1008000Y1702430D01*
X1008000Y1704430D01*
X1010000Y1704430D01*
X1010000Y1706430D01*
X1012000Y1706430D01*
X1012000Y1708430D01*
X1014000Y1708430D01*
X1014000Y1710430D01*
X1016000Y1710430D01*
X1016000Y1712430D01*
X1018000Y1712430D01*
X1018000Y1714430D01*
X1020000Y1714430D01*
X1020000Y1716430D01*
X1022000Y1716430D01*
X1022000Y1718430D01*
X1024000Y1718430D01*
X1024000Y1720430D01*
X1026000Y1720430D01*
X1026000Y1722430D01*
X1028000Y1722430D01*
X1028000Y1724430D01*
X1030000Y1724430D01*
X1030000Y1726430D01*
X1032000Y1726430D01*
X1032000Y1728430D01*
X1034000Y1728430D01*
X1034000Y1730430D01*
X1036000Y1730430D01*
X1036000Y1732430D01*
X1038000Y1732430D01*
X1038000Y1734430D01*
X1040000Y1734430D01*
X1040000Y1736430D01*
X1042000Y1736430D01*
X1042000Y1738430D01*
X1044000Y1738430D01*
X1044000Y1740430D01*
X1046000Y1740430D01*
X1046000Y1744430D01*
X1048000Y1744430D01*
X1048000Y1746430D01*
X1050000Y1746430D01*
X1050000Y1748430D01*
X1052000Y1748430D01*
X1052000Y1750430D01*
X1054000Y1750430D01*
X1054000Y1752430D01*
X1056000Y1752430D01*
X1056000Y1754430D01*
X1058000Y1754430D01*
X1058000Y1756430D01*
X1060000Y1756430D01*
X1060000Y1758430D01*
X1062000Y1758430D01*
X1062000Y1760430D01*
X1064000Y1760430D01*
X1064000Y1762430D01*
X1066000Y1762430D01*
X1066000Y1764430D01*
X1068000Y1764430D01*
X1068000Y1766430D01*
X1070000Y1766430D01*
X1070000Y1768430D01*
X1072000Y1768430D01*
X1072000Y1770430D01*
X1074000Y1770430D01*
X1074000Y1772430D01*
X1076000Y1772430D01*
X1076000Y1774430D01*
X1078000Y1774430D01*
X1078000Y1776430D01*
X1080000Y1776430D01*
X1080000Y1778430D01*
X1082000Y1778430D01*
X1082000Y1780430D01*
X1084000Y1780430D01*
X1084000Y1782430D01*
X40000Y1782430D01*
G37*
D02*
G36*
X1946000Y1772430D02*
X1946000Y1770430D01*
X1944000Y1770430D01*
X1944000Y1768430D01*
X1942000Y1768430D01*
X1942000Y1766430D01*
X1938000Y1766430D01*
X1938000Y1764430D01*
X1936000Y1764430D01*
X1936000Y1762430D01*
X1934000Y1762430D01*
X1934000Y1760430D01*
X1932000Y1760430D01*
X1932000Y1758430D01*
X1928000Y1758430D01*
X1928000Y1756430D01*
X1926000Y1756430D01*
X1926000Y1754430D01*
X1922000Y1754430D01*
X1922000Y1752430D01*
X1920000Y1752430D01*
X1920000Y1750430D01*
X1916000Y1750430D01*
X1916000Y1748430D01*
X1912000Y1748430D01*
X1912000Y1746430D01*
X1910000Y1746430D01*
X1910000Y1744430D01*
X1906000Y1744430D01*
X1906000Y1742430D01*
X1902000Y1742430D01*
X1902000Y1740430D01*
X1896000Y1740430D01*
X1896000Y1738430D01*
X1892000Y1738430D01*
X1892000Y1736430D01*
X1888000Y1736430D01*
X1888000Y1734430D01*
X1882000Y1734430D01*
X1882000Y1732430D01*
X1876000Y1732430D01*
X1876000Y1730430D01*
X1870000Y1730430D01*
X1870000Y1728430D01*
X1864000Y1728430D01*
X1864000Y1726430D01*
X1856000Y1726430D01*
X1856000Y1724430D01*
X1846000Y1724430D01*
X1846000Y1722430D01*
X1828000Y1722430D01*
X1828000Y1720430D01*
X1966000Y1720430D01*
X1966000Y1772430D01*
X1946000Y1772430D01*
G37*
D02*
G36*
X1200000Y1758430D02*
X1200000Y1756430D01*
X1198000Y1756430D01*
X1198000Y1754430D01*
X1196000Y1754430D01*
X1196000Y1752430D01*
X1194000Y1752430D01*
X1194000Y1750430D01*
X1192000Y1750430D01*
X1192000Y1748430D01*
X1190000Y1748430D01*
X1190000Y1746430D01*
X1188000Y1746430D01*
X1188000Y1744430D01*
X1186000Y1744430D01*
X1186000Y1742430D01*
X1184000Y1742430D01*
X1184000Y1740430D01*
X1182000Y1740430D01*
X1182000Y1738430D01*
X1180000Y1738430D01*
X1180000Y1736430D01*
X1178000Y1736430D01*
X1178000Y1734430D01*
X1176000Y1734430D01*
X1176000Y1732430D01*
X1174000Y1732430D01*
X1174000Y1730430D01*
X1172000Y1730430D01*
X1172000Y1728430D01*
X1170000Y1728430D01*
X1170000Y1726430D01*
X1168000Y1726430D01*
X1168000Y1724430D01*
X1166000Y1724430D01*
X1166000Y1720430D01*
X1164000Y1720430D01*
X1164000Y1718430D01*
X1162000Y1718430D01*
X1162000Y1716430D01*
X1160000Y1716430D01*
X1160000Y1714430D01*
X1158000Y1714430D01*
X1158000Y1712430D01*
X1156000Y1712430D01*
X1156000Y1700430D01*
X1190000Y1700430D01*
X1190000Y1698430D01*
X1200000Y1698430D01*
X1200000Y1696430D01*
X1204000Y1696430D01*
X1204000Y1694430D01*
X1208000Y1694430D01*
X1208000Y1692430D01*
X1212000Y1692430D01*
X1212000Y1690430D01*
X1214000Y1690430D01*
X1214000Y1688430D01*
X1218000Y1688430D01*
X1218000Y1686430D01*
X1220000Y1686430D01*
X1220000Y1684430D01*
X1222000Y1684430D01*
X1222000Y1682430D01*
X1224000Y1682430D01*
X1224000Y1678430D01*
X1226000Y1678430D01*
X1226000Y1676430D01*
X1228000Y1676430D01*
X1228000Y1674430D01*
X1230000Y1674430D01*
X1230000Y1670430D01*
X1232000Y1670430D01*
X1232000Y1666430D01*
X1234000Y1666430D01*
X1234000Y1658430D01*
X1236000Y1658430D01*
X1236000Y1634430D01*
X1234000Y1634430D01*
X1234000Y1626430D01*
X1232000Y1626430D01*
X1232000Y1622430D01*
X1230000Y1622430D01*
X1230000Y1618430D01*
X1228000Y1618430D01*
X1228000Y1594430D01*
X1230000Y1594430D01*
X1230000Y1590430D01*
X1232000Y1590430D01*
X1232000Y1586430D01*
X1234000Y1586430D01*
X1234000Y1580430D01*
X1236000Y1580430D01*
X1236000Y1554430D01*
X1234000Y1554430D01*
X1234000Y1548430D01*
X1232000Y1548430D01*
X1232000Y1544430D01*
X1230000Y1544430D01*
X1230000Y1540430D01*
X1228000Y1540430D01*
X1228000Y1516430D01*
X1230000Y1516430D01*
X1230000Y1512430D01*
X1232000Y1512430D01*
X1232000Y1508430D01*
X1234000Y1508430D01*
X1234000Y1502430D01*
X1236000Y1502430D01*
X1236000Y1476430D01*
X1234000Y1476430D01*
X1234000Y1468430D01*
X1232000Y1468430D01*
X1232000Y1464430D01*
X1230000Y1464430D01*
X1230000Y1462430D01*
X1228000Y1462430D01*
X1228000Y1436430D01*
X1230000Y1436430D01*
X1230000Y1434430D01*
X1232000Y1434430D01*
X1232000Y1430430D01*
X1234000Y1430430D01*
X1234000Y1422430D01*
X1236000Y1422430D01*
X1236000Y1396430D01*
X1234000Y1396430D01*
X1234000Y1390430D01*
X1232000Y1390430D01*
X1232000Y1386430D01*
X1230000Y1386430D01*
X1230000Y1382430D01*
X1228000Y1382430D01*
X1228000Y1358430D01*
X1230000Y1358430D01*
X1230000Y1354430D01*
X1232000Y1354430D01*
X1232000Y1350430D01*
X1234000Y1350430D01*
X1234000Y1344430D01*
X1236000Y1344430D01*
X1236000Y1318430D01*
X1234000Y1318430D01*
X1234000Y1312430D01*
X1232000Y1312430D01*
X1232000Y1308430D01*
X1230000Y1308430D01*
X1230000Y1304430D01*
X1228000Y1304430D01*
X1228000Y1280430D01*
X1230000Y1280430D01*
X1230000Y1276430D01*
X1232000Y1276430D01*
X1232000Y1272430D01*
X1234000Y1272430D01*
X1234000Y1264430D01*
X1236000Y1264430D01*
X1236000Y1240430D01*
X1234000Y1240430D01*
X1234000Y1232430D01*
X1232000Y1232430D01*
X1232000Y1228430D01*
X1230000Y1228430D01*
X1230000Y1226430D01*
X1228000Y1226430D01*
X1228000Y1200430D01*
X1230000Y1200430D01*
X1230000Y1198430D01*
X1232000Y1198430D01*
X1232000Y1192430D01*
X1234000Y1192430D01*
X1234000Y1186430D01*
X1236000Y1186430D01*
X1236000Y1160430D01*
X1234000Y1160430D01*
X1234000Y1154430D01*
X1232000Y1154430D01*
X1232000Y1150430D01*
X1230000Y1150430D01*
X1230000Y1146430D01*
X1228000Y1146430D01*
X1228000Y1122430D01*
X1230000Y1122430D01*
X1230000Y1118430D01*
X1232000Y1118430D01*
X1232000Y1114430D01*
X1234000Y1114430D01*
X1234000Y1108430D01*
X1236000Y1108430D01*
X1236000Y1082430D01*
X1234000Y1082430D01*
X1234000Y1076430D01*
X1232000Y1076430D01*
X1232000Y1072430D01*
X1230000Y1072430D01*
X1230000Y1068430D01*
X1228000Y1068430D01*
X1228000Y1044430D01*
X1230000Y1044430D01*
X1230000Y1040430D01*
X1232000Y1040430D01*
X1232000Y1036430D01*
X1234000Y1036430D01*
X1234000Y1028430D01*
X1236000Y1028430D01*
X1236000Y1004430D01*
X1234000Y1004430D01*
X1234000Y996430D01*
X1232000Y996430D01*
X1232000Y992430D01*
X1230000Y992430D01*
X1230000Y988430D01*
X1228000Y988430D01*
X1228000Y986430D01*
X1226000Y986430D01*
X1226000Y982430D01*
X1224000Y982430D01*
X1224000Y980430D01*
X1222000Y980430D01*
X1222000Y978430D01*
X1220000Y978430D01*
X1220000Y976430D01*
X1218000Y976430D01*
X1218000Y974430D01*
X1214000Y974430D01*
X1214000Y972430D01*
X1212000Y972430D01*
X1212000Y970430D01*
X1208000Y970430D01*
X1208000Y968430D01*
X1204000Y968430D01*
X1204000Y966430D01*
X1200000Y966430D01*
X1200000Y964430D01*
X1378000Y964430D01*
X1378000Y966430D01*
X1364000Y966430D01*
X1364000Y968430D01*
X1358000Y968430D01*
X1358000Y970430D01*
X1354000Y970430D01*
X1354000Y972430D01*
X1352000Y972430D01*
X1352000Y974430D01*
X1348000Y974430D01*
X1348000Y976430D01*
X1346000Y976430D01*
X1346000Y978430D01*
X1342000Y978430D01*
X1342000Y980430D01*
X1340000Y980430D01*
X1340000Y982430D01*
X1338000Y982430D01*
X1338000Y986430D01*
X1336000Y986430D01*
X1336000Y988430D01*
X1334000Y988430D01*
X1334000Y992430D01*
X1332000Y992430D01*
X1332000Y994430D01*
X1330000Y994430D01*
X1330000Y998430D01*
X1328000Y998430D01*
X1328000Y1006430D01*
X1326000Y1006430D01*
X1326000Y1032430D01*
X1328000Y1032430D01*
X1328000Y1038430D01*
X1330000Y1038430D01*
X1330000Y1042430D01*
X1332000Y1042430D01*
X1332000Y1046430D01*
X1334000Y1046430D01*
X1334000Y1070430D01*
X1332000Y1070430D01*
X1332000Y1074430D01*
X1330000Y1074430D01*
X1330000Y1078430D01*
X1328000Y1078430D01*
X1328000Y1084430D01*
X1326000Y1084430D01*
X1326000Y1110430D01*
X1328000Y1110430D01*
X1328000Y1118430D01*
X1330000Y1118430D01*
X1330000Y1122430D01*
X1332000Y1122430D01*
X1332000Y1124430D01*
X1334000Y1124430D01*
X1334000Y1148430D01*
X1332000Y1148430D01*
X1332000Y1152430D01*
X1330000Y1152430D01*
X1330000Y1156430D01*
X1328000Y1156430D01*
X1328000Y1162430D01*
X1326000Y1162430D01*
X1326000Y1190430D01*
X1328000Y1190430D01*
X1328000Y1196430D01*
X1330000Y1196430D01*
X1330000Y1200430D01*
X1332000Y1200430D01*
X1332000Y1204430D01*
X1334000Y1204430D01*
X1334000Y1228430D01*
X1332000Y1228430D01*
X1332000Y1232430D01*
X1330000Y1232430D01*
X1330000Y1234430D01*
X1328000Y1234430D01*
X1328000Y1242430D01*
X1326000Y1242430D01*
X1326000Y1268430D01*
X1328000Y1268430D01*
X1328000Y1274430D01*
X1330000Y1274430D01*
X1330000Y1278430D01*
X1332000Y1278430D01*
X1332000Y1282430D01*
X1334000Y1282430D01*
X1334000Y1306430D01*
X1332000Y1306430D01*
X1332000Y1310430D01*
X1330000Y1310430D01*
X1330000Y1314430D01*
X1328000Y1314430D01*
X1328000Y1320430D01*
X1326000Y1320430D01*
X1326000Y1348430D01*
X1328000Y1348430D01*
X1328000Y1354430D01*
X1330000Y1354430D01*
X1330000Y1358430D01*
X1332000Y1358430D01*
X1332000Y1362430D01*
X1334000Y1362430D01*
X1334000Y1384430D01*
X1332000Y1384430D01*
X1332000Y1388430D01*
X1330000Y1388430D01*
X1330000Y1392430D01*
X1328000Y1392430D01*
X1328000Y1398430D01*
X1326000Y1398430D01*
X1326000Y1426430D01*
X1328000Y1426430D01*
X1328000Y1432430D01*
X1330000Y1432430D01*
X1330000Y1436430D01*
X1332000Y1436430D01*
X1332000Y1440430D01*
X1334000Y1440430D01*
X1334000Y1464430D01*
X1332000Y1464430D01*
X1332000Y1468430D01*
X1330000Y1468430D01*
X1330000Y1472430D01*
X1328000Y1472430D01*
X1328000Y1478430D01*
X1326000Y1478430D01*
X1326000Y1504430D01*
X1328000Y1504430D01*
X1328000Y1512430D01*
X1330000Y1512430D01*
X1330000Y1514430D01*
X1332000Y1514430D01*
X1332000Y1518430D01*
X1334000Y1518430D01*
X1334000Y1542430D01*
X1332000Y1542430D01*
X1332000Y1546430D01*
X1330000Y1546430D01*
X1330000Y1550430D01*
X1328000Y1550430D01*
X1328000Y1556430D01*
X1326000Y1556430D01*
X1326000Y1584430D01*
X1328000Y1584430D01*
X1328000Y1590430D01*
X1330000Y1590430D01*
X1330000Y1594430D01*
X1332000Y1594430D01*
X1332000Y1598430D01*
X1334000Y1598430D01*
X1334000Y1622430D01*
X1332000Y1622430D01*
X1332000Y1624430D01*
X1330000Y1624430D01*
X1330000Y1628430D01*
X1328000Y1628430D01*
X1328000Y1636430D01*
X1326000Y1636430D01*
X1326000Y1662430D01*
X1328000Y1662430D01*
X1328000Y1668430D01*
X1330000Y1668430D01*
X1330000Y1750430D01*
X1328000Y1750430D01*
X1328000Y1752430D01*
X1326000Y1752430D01*
X1326000Y1754430D01*
X1324000Y1754430D01*
X1324000Y1756430D01*
X1322000Y1756430D01*
X1322000Y1758430D01*
X1200000Y1758430D01*
G37*
D02*
G36*
X1430000Y1720430D02*
X1430000Y1718430D01*
X1966000Y1718430D01*
X1966000Y1720430D01*
X1430000Y1720430D01*
G37*
D02*
G36*
X1430000Y1720430D02*
X1430000Y1718430D01*
X1966000Y1718430D01*
X1966000Y1720430D01*
X1430000Y1720430D01*
G37*
D02*
G36*
X1430000Y1718430D02*
X1430000Y1662430D01*
X1432000Y1662430D01*
X1432000Y1636430D01*
X1430000Y1636430D01*
X1430000Y1630430D01*
X1428000Y1630430D01*
X1428000Y1626430D01*
X1426000Y1626430D01*
X1426000Y1622430D01*
X1424000Y1622430D01*
X1424000Y1596430D01*
X1426000Y1596430D01*
X1426000Y1594430D01*
X1428000Y1594430D01*
X1428000Y1590430D01*
X1430000Y1590430D01*
X1430000Y1582430D01*
X1432000Y1582430D01*
X1432000Y1558430D01*
X1430000Y1558430D01*
X1430000Y1550430D01*
X1428000Y1550430D01*
X1428000Y1546430D01*
X1426000Y1546430D01*
X1426000Y1542430D01*
X1424000Y1542430D01*
X1424000Y1518430D01*
X1426000Y1518430D01*
X1426000Y1514430D01*
X1428000Y1514430D01*
X1428000Y1510430D01*
X1430000Y1510430D01*
X1430000Y1504430D01*
X1432000Y1504430D01*
X1432000Y1478430D01*
X1430000Y1478430D01*
X1430000Y1472430D01*
X1428000Y1472430D01*
X1428000Y1468430D01*
X1426000Y1468430D01*
X1426000Y1464430D01*
X1424000Y1464430D01*
X1424000Y1440430D01*
X1426000Y1440430D01*
X1426000Y1436430D01*
X1428000Y1436430D01*
X1428000Y1432430D01*
X1430000Y1432430D01*
X1430000Y1424430D01*
X1432000Y1424430D01*
X1432000Y1400430D01*
X1430000Y1400430D01*
X1430000Y1392430D01*
X1428000Y1392430D01*
X1428000Y1388430D01*
X1426000Y1388430D01*
X1426000Y1386430D01*
X1424000Y1386430D01*
X1424000Y1360430D01*
X1426000Y1360430D01*
X1426000Y1358430D01*
X1428000Y1358430D01*
X1428000Y1354430D01*
X1430000Y1354430D01*
X1430000Y1346430D01*
X1432000Y1346430D01*
X1432000Y1322430D01*
X1430000Y1322430D01*
X1430000Y1314430D01*
X1428000Y1314430D01*
X1428000Y1310430D01*
X1426000Y1310430D01*
X1426000Y1290430D01*
X1466000Y1290430D01*
X1466000Y1288430D01*
X1472000Y1288430D01*
X1472000Y1286430D01*
X1476000Y1286430D01*
X1476000Y1284430D01*
X1478000Y1284430D01*
X1478000Y1282430D01*
X1480000Y1282430D01*
X1480000Y1280430D01*
X1482000Y1280430D01*
X1482000Y1278430D01*
X1484000Y1278430D01*
X1484000Y1276430D01*
X1486000Y1276430D01*
X1486000Y1274430D01*
X1488000Y1274430D01*
X1488000Y1272430D01*
X1490000Y1272430D01*
X1490000Y1270430D01*
X1492000Y1270430D01*
X1492000Y1268430D01*
X1494000Y1268430D01*
X1494000Y1266430D01*
X1496000Y1266430D01*
X1496000Y1264430D01*
X1498000Y1264430D01*
X1498000Y1262430D01*
X1500000Y1262430D01*
X1500000Y1260430D01*
X1502000Y1260430D01*
X1502000Y1258430D01*
X1504000Y1258430D01*
X1504000Y1256430D01*
X1506000Y1256430D01*
X1506000Y1254430D01*
X1508000Y1254430D01*
X1508000Y1252430D01*
X1510000Y1252430D01*
X1510000Y1250430D01*
X1512000Y1250430D01*
X1512000Y1248430D01*
X1514000Y1248430D01*
X1514000Y1246430D01*
X1516000Y1246430D01*
X1516000Y1244430D01*
X1518000Y1244430D01*
X1518000Y1242430D01*
X1520000Y1242430D01*
X1520000Y1240430D01*
X1522000Y1240430D01*
X1522000Y1238430D01*
X1524000Y1238430D01*
X1524000Y1236430D01*
X1526000Y1236430D01*
X1526000Y1234430D01*
X1528000Y1234430D01*
X1528000Y1232430D01*
X1530000Y1232430D01*
X1530000Y1230430D01*
X1532000Y1230430D01*
X1532000Y1228430D01*
X1534000Y1228430D01*
X1534000Y1226430D01*
X1536000Y1226430D01*
X1536000Y1224430D01*
X1538000Y1224430D01*
X1538000Y1222430D01*
X1540000Y1222430D01*
X1540000Y1220430D01*
X1542000Y1220430D01*
X1542000Y1218430D01*
X1544000Y1218430D01*
X1544000Y1216430D01*
X1546000Y1216430D01*
X1546000Y1214430D01*
X1548000Y1214430D01*
X1548000Y1212430D01*
X1550000Y1212430D01*
X1550000Y1210430D01*
X1552000Y1210430D01*
X1552000Y1208430D01*
X1554000Y1208430D01*
X1554000Y1206430D01*
X1556000Y1206430D01*
X1556000Y1204430D01*
X1558000Y1204430D01*
X1558000Y1202430D01*
X1560000Y1202430D01*
X1560000Y1200430D01*
X1562000Y1200430D01*
X1562000Y1198430D01*
X1564000Y1198430D01*
X1564000Y1196430D01*
X1566000Y1196430D01*
X1566000Y1192430D01*
X1568000Y1192430D01*
X1568000Y1190430D01*
X1570000Y1190430D01*
X1570000Y1184430D01*
X1572000Y1184430D01*
X1572000Y942430D01*
X1826000Y942430D01*
X1826000Y940430D01*
X1844000Y940430D01*
X1844000Y938430D01*
X1854000Y938430D01*
X1854000Y936430D01*
X1864000Y936430D01*
X1864000Y934430D01*
X1870000Y934430D01*
X1870000Y932430D01*
X1876000Y932430D01*
X1876000Y930430D01*
X1882000Y930430D01*
X1882000Y928430D01*
X1888000Y928430D01*
X1888000Y926430D01*
X1892000Y926430D01*
X1892000Y924430D01*
X1896000Y924430D01*
X1896000Y922430D01*
X1900000Y922430D01*
X1900000Y920430D01*
X1904000Y920430D01*
X1904000Y918430D01*
X1908000Y918430D01*
X1908000Y916430D01*
X1912000Y916430D01*
X1912000Y914430D01*
X1916000Y914430D01*
X1916000Y912430D01*
X1918000Y912430D01*
X1918000Y910430D01*
X1922000Y910430D01*
X1922000Y908430D01*
X1926000Y908430D01*
X1926000Y906430D01*
X1928000Y906430D01*
X1928000Y904430D01*
X1930000Y904430D01*
X1930000Y902430D01*
X1934000Y902430D01*
X1934000Y900430D01*
X1936000Y900430D01*
X1936000Y898430D01*
X1938000Y898430D01*
X1938000Y896430D01*
X1942000Y896430D01*
X1942000Y894430D01*
X1944000Y894430D01*
X1944000Y892430D01*
X1946000Y892430D01*
X1946000Y890430D01*
X1966000Y890430D01*
X1966000Y1718430D01*
X1430000Y1718430D01*
G37*
D02*
G36*
X1156000Y1700430D02*
X1156000Y1698430D01*
X1176000Y1698430D01*
X1176000Y1700430D01*
X1156000Y1700430D01*
G37*
D02*
G36*
X1116000Y1672430D02*
X1116000Y1670430D01*
X1114000Y1670430D01*
X1114000Y1668430D01*
X1112000Y1668430D01*
X1112000Y1666430D01*
X1110000Y1666430D01*
X1110000Y1664430D01*
X1108000Y1664430D01*
X1108000Y1662430D01*
X1106000Y1662430D01*
X1106000Y1660430D01*
X1104000Y1660430D01*
X1104000Y1658430D01*
X1102000Y1658430D01*
X1102000Y1656430D01*
X1100000Y1656430D01*
X1100000Y1654430D01*
X1098000Y1654430D01*
X1098000Y1650430D01*
X1096000Y1650430D01*
X1096000Y1648430D01*
X1094000Y1648430D01*
X1094000Y1646430D01*
X1092000Y1646430D01*
X1092000Y1644430D01*
X1090000Y1644430D01*
X1090000Y1642430D01*
X1088000Y1642430D01*
X1088000Y1640430D01*
X1086000Y1640430D01*
X1086000Y1638430D01*
X1084000Y1638430D01*
X1084000Y1636430D01*
X1082000Y1636430D01*
X1082000Y1634430D01*
X1080000Y1634430D01*
X1080000Y1632430D01*
X1078000Y1632430D01*
X1078000Y1630430D01*
X1076000Y1630430D01*
X1076000Y1628430D01*
X1074000Y1628430D01*
X1074000Y1626430D01*
X1072000Y1626430D01*
X1072000Y1624430D01*
X1070000Y1624430D01*
X1070000Y1622430D01*
X1068000Y1622430D01*
X1068000Y1620430D01*
X1066000Y1620430D01*
X1066000Y1618430D01*
X1064000Y1618430D01*
X1064000Y1616430D01*
X1062000Y1616430D01*
X1062000Y1614430D01*
X1060000Y1614430D01*
X1060000Y1612430D01*
X1058000Y1612430D01*
X1058000Y1610430D01*
X1056000Y1610430D01*
X1056000Y1608430D01*
X1054000Y1608430D01*
X1054000Y1606430D01*
X1052000Y1606430D01*
X1052000Y1604430D01*
X1050000Y1604430D01*
X1050000Y1602430D01*
X1048000Y1602430D01*
X1048000Y1600430D01*
X1046000Y1600430D01*
X1046000Y1598430D01*
X1044000Y1598430D01*
X1044000Y1596430D01*
X1042000Y1596430D01*
X1042000Y1594430D01*
X1040000Y1594430D01*
X1040000Y1592430D01*
X1038000Y1592430D01*
X1038000Y1590430D01*
X1036000Y1590430D01*
X1036000Y1588430D01*
X1034000Y1588430D01*
X1034000Y1586430D01*
X1032000Y1586430D01*
X1032000Y1584430D01*
X1030000Y1584430D01*
X1030000Y1580430D01*
X1028000Y1580430D01*
X1028000Y1578430D01*
X1026000Y1578430D01*
X1026000Y1576430D01*
X1024000Y1576430D01*
X1024000Y1574430D01*
X1022000Y1574430D01*
X1022000Y1572430D01*
X1018000Y1572430D01*
X1018000Y1570430D01*
X1016000Y1570430D01*
X1016000Y1568430D01*
X1014000Y1568430D01*
X1014000Y1566430D01*
X1010000Y1566430D01*
X1010000Y1564430D01*
X1006000Y1564430D01*
X1006000Y1562430D01*
X1002000Y1562430D01*
X1002000Y1560430D01*
X994000Y1560430D01*
X994000Y1558430D01*
X1130000Y1558430D01*
X1130000Y1580430D01*
X1132000Y1580430D01*
X1132000Y1586430D01*
X1134000Y1586430D01*
X1134000Y1590430D01*
X1136000Y1590430D01*
X1136000Y1594430D01*
X1138000Y1594430D01*
X1138000Y1618430D01*
X1136000Y1618430D01*
X1136000Y1622430D01*
X1134000Y1622430D01*
X1134000Y1626430D01*
X1132000Y1626430D01*
X1132000Y1632430D01*
X1130000Y1632430D01*
X1130000Y1660430D01*
X1132000Y1660430D01*
X1132000Y1666430D01*
X1134000Y1666430D01*
X1134000Y1670430D01*
X1136000Y1670430D01*
X1136000Y1672430D01*
X1116000Y1672430D01*
G37*
D02*
G36*
X40000Y1668430D02*
X40000Y1550430D01*
X268000Y1550430D01*
X268000Y1552430D01*
X258000Y1552430D01*
X258000Y1554430D01*
X254000Y1554430D01*
X254000Y1556430D01*
X250000Y1556430D01*
X250000Y1558430D01*
X246000Y1558430D01*
X246000Y1560430D01*
X242000Y1560430D01*
X242000Y1562430D01*
X240000Y1562430D01*
X240000Y1564430D01*
X238000Y1564430D01*
X238000Y1566430D01*
X236000Y1566430D01*
X236000Y1568430D01*
X234000Y1568430D01*
X234000Y1570430D01*
X232000Y1570430D01*
X232000Y1572430D01*
X230000Y1572430D01*
X230000Y1574430D01*
X228000Y1574430D01*
X228000Y1578430D01*
X226000Y1578430D01*
X226000Y1580430D01*
X224000Y1580430D01*
X224000Y1584430D01*
X222000Y1584430D01*
X222000Y1590430D01*
X220000Y1590430D01*
X220000Y1596430D01*
X218000Y1596430D01*
X218000Y1622430D01*
X220000Y1622430D01*
X220000Y1628430D01*
X222000Y1628430D01*
X222000Y1634430D01*
X224000Y1634430D01*
X224000Y1638430D01*
X226000Y1638430D01*
X226000Y1640430D01*
X228000Y1640430D01*
X228000Y1644430D01*
X230000Y1644430D01*
X230000Y1646430D01*
X232000Y1646430D01*
X232000Y1648430D01*
X234000Y1648430D01*
X234000Y1650430D01*
X236000Y1650430D01*
X236000Y1652430D01*
X238000Y1652430D01*
X238000Y1654430D01*
X240000Y1654430D01*
X240000Y1656430D01*
X242000Y1656430D01*
X242000Y1658430D01*
X246000Y1658430D01*
X246000Y1660430D01*
X248000Y1660430D01*
X248000Y1662430D01*
X252000Y1662430D01*
X252000Y1664430D01*
X258000Y1664430D01*
X258000Y1666430D01*
X266000Y1666430D01*
X266000Y1668430D01*
X40000Y1668430D01*
G37*
D02*
G36*
X308000Y1560430D02*
X308000Y1558430D01*
X454000Y1558430D01*
X454000Y1560430D01*
X308000Y1560430D01*
G37*
D02*
G36*
X304000Y1558430D02*
X304000Y1556430D01*
X1130000Y1556430D01*
X1130000Y1558430D01*
X304000Y1558430D01*
G37*
D02*
G36*
X304000Y1558430D02*
X304000Y1556430D01*
X1130000Y1556430D01*
X1130000Y1558430D01*
X304000Y1558430D01*
G37*
D02*
G36*
X300000Y1556430D02*
X300000Y1554430D01*
X294000Y1554430D01*
X294000Y1552430D01*
X284000Y1552430D01*
X284000Y1550430D01*
X1132000Y1550430D01*
X1132000Y1554430D01*
X1130000Y1554430D01*
X1130000Y1556430D01*
X300000Y1556430D01*
G37*
D02*
G36*
X40000Y1550430D02*
X40000Y1548430D01*
X1132000Y1548430D01*
X1132000Y1550430D01*
X40000Y1550430D01*
G37*
D02*
G36*
X40000Y1550430D02*
X40000Y1548430D01*
X1132000Y1548430D01*
X1132000Y1550430D01*
X40000Y1550430D01*
G37*
D02*
G36*
X40000Y1548430D02*
X40000Y1468430D01*
X288000Y1468430D01*
X288000Y1466430D01*
X296000Y1466430D01*
X296000Y1464430D01*
X300000Y1464430D01*
X300000Y1462430D01*
X304000Y1462430D01*
X304000Y1460430D01*
X308000Y1460430D01*
X308000Y1458430D01*
X310000Y1458430D01*
X310000Y1456430D01*
X314000Y1456430D01*
X314000Y1454430D01*
X316000Y1454430D01*
X316000Y1452430D01*
X318000Y1452430D01*
X318000Y1450430D01*
X320000Y1450430D01*
X320000Y1448430D01*
X322000Y1448430D01*
X322000Y1446430D01*
X324000Y1446430D01*
X324000Y1442430D01*
X326000Y1442430D01*
X326000Y1440430D01*
X328000Y1440430D01*
X328000Y1436430D01*
X330000Y1436430D01*
X330000Y1432430D01*
X332000Y1432430D01*
X332000Y1426430D01*
X334000Y1426430D01*
X334000Y1416430D01*
X336000Y1416430D01*
X336000Y1402430D01*
X334000Y1402430D01*
X334000Y1392430D01*
X332000Y1392430D01*
X332000Y1386430D01*
X330000Y1386430D01*
X330000Y1382430D01*
X328000Y1382430D01*
X328000Y1378430D01*
X326000Y1378430D01*
X326000Y1376430D01*
X324000Y1376430D01*
X324000Y1374430D01*
X322000Y1374430D01*
X322000Y1370430D01*
X320000Y1370430D01*
X320000Y1368430D01*
X318000Y1368430D01*
X318000Y1366430D01*
X316000Y1366430D01*
X316000Y1364430D01*
X312000Y1364430D01*
X312000Y1362430D01*
X310000Y1362430D01*
X310000Y1360430D01*
X308000Y1360430D01*
X308000Y1358430D01*
X304000Y1358430D01*
X304000Y1356430D01*
X300000Y1356430D01*
X300000Y1354430D01*
X294000Y1354430D01*
X294000Y1352430D01*
X284000Y1352430D01*
X284000Y1350430D01*
X1134000Y1350430D01*
X1134000Y1354430D01*
X1136000Y1354430D01*
X1136000Y1358430D01*
X1138000Y1358430D01*
X1138000Y1382430D01*
X1136000Y1382430D01*
X1136000Y1386430D01*
X1134000Y1386430D01*
X1134000Y1390430D01*
X1132000Y1390430D01*
X1132000Y1396430D01*
X1130000Y1396430D01*
X1130000Y1422430D01*
X1132000Y1422430D01*
X1132000Y1430430D01*
X1134000Y1430430D01*
X1134000Y1434430D01*
X1136000Y1434430D01*
X1136000Y1438430D01*
X1138000Y1438430D01*
X1138000Y1460430D01*
X1136000Y1460430D01*
X1136000Y1464430D01*
X1134000Y1464430D01*
X1134000Y1468430D01*
X1132000Y1468430D01*
X1132000Y1476430D01*
X1130000Y1476430D01*
X1130000Y1502430D01*
X1132000Y1502430D01*
X1132000Y1508430D01*
X1134000Y1508430D01*
X1134000Y1512430D01*
X1136000Y1512430D01*
X1136000Y1516430D01*
X1138000Y1516430D01*
X1138000Y1540430D01*
X1136000Y1540430D01*
X1136000Y1544430D01*
X1134000Y1544430D01*
X1134000Y1548430D01*
X40000Y1548430D01*
G37*
D02*
G36*
X40000Y1468430D02*
X40000Y1350430D01*
X268000Y1350430D01*
X268000Y1352430D01*
X258000Y1352430D01*
X258000Y1354430D01*
X254000Y1354430D01*
X254000Y1356430D01*
X250000Y1356430D01*
X250000Y1358430D01*
X246000Y1358430D01*
X246000Y1360430D01*
X242000Y1360430D01*
X242000Y1362430D01*
X240000Y1362430D01*
X240000Y1364430D01*
X238000Y1364430D01*
X238000Y1366430D01*
X236000Y1366430D01*
X236000Y1368430D01*
X234000Y1368430D01*
X234000Y1370430D01*
X232000Y1370430D01*
X232000Y1372430D01*
X230000Y1372430D01*
X230000Y1374430D01*
X228000Y1374430D01*
X228000Y1378430D01*
X226000Y1378430D01*
X226000Y1380430D01*
X224000Y1380430D01*
X224000Y1384430D01*
X222000Y1384430D01*
X222000Y1390430D01*
X220000Y1390430D01*
X220000Y1396430D01*
X218000Y1396430D01*
X218000Y1422430D01*
X220000Y1422430D01*
X220000Y1428430D01*
X222000Y1428430D01*
X222000Y1434430D01*
X224000Y1434430D01*
X224000Y1438430D01*
X226000Y1438430D01*
X226000Y1440430D01*
X228000Y1440430D01*
X228000Y1444430D01*
X230000Y1444430D01*
X230000Y1446430D01*
X232000Y1446430D01*
X232000Y1448430D01*
X234000Y1448430D01*
X234000Y1450430D01*
X236000Y1450430D01*
X236000Y1452430D01*
X238000Y1452430D01*
X238000Y1454430D01*
X240000Y1454430D01*
X240000Y1456430D01*
X242000Y1456430D01*
X242000Y1458430D01*
X246000Y1458430D01*
X246000Y1460430D01*
X248000Y1460430D01*
X248000Y1462430D01*
X252000Y1462430D01*
X252000Y1464430D01*
X258000Y1464430D01*
X258000Y1466430D01*
X266000Y1466430D01*
X266000Y1468430D01*
X40000Y1468430D01*
G37*
D02*
G36*
X40000Y1350430D02*
X40000Y1348430D01*
X1132000Y1348430D01*
X1132000Y1350430D01*
X40000Y1350430D01*
G37*
D02*
G36*
X40000Y1350430D02*
X40000Y1348430D01*
X1132000Y1348430D01*
X1132000Y1350430D01*
X40000Y1350430D01*
G37*
D02*
G36*
X40000Y1348430D02*
X40000Y1236430D01*
X280000Y1236430D01*
X280000Y1234430D01*
X292000Y1234430D01*
X292000Y1232430D01*
X298000Y1232430D01*
X298000Y1230430D01*
X302000Y1230430D01*
X302000Y1228430D01*
X306000Y1228430D01*
X306000Y1226430D01*
X310000Y1226430D01*
X310000Y1224430D01*
X312000Y1224430D01*
X312000Y1222430D01*
X314000Y1222430D01*
X314000Y1220430D01*
X316000Y1220430D01*
X316000Y1218430D01*
X318000Y1218430D01*
X318000Y1216430D01*
X320000Y1216430D01*
X320000Y1214430D01*
X322000Y1214430D01*
X322000Y1212430D01*
X324000Y1212430D01*
X324000Y1210430D01*
X326000Y1210430D01*
X326000Y1206430D01*
X328000Y1206430D01*
X328000Y1202430D01*
X330000Y1202430D01*
X330000Y1198430D01*
X332000Y1198430D01*
X332000Y1192430D01*
X334000Y1192430D01*
X334000Y1184430D01*
X336000Y1184430D01*
X336000Y1170430D01*
X334000Y1170430D01*
X334000Y1160430D01*
X332000Y1160430D01*
X332000Y1154430D01*
X330000Y1154430D01*
X330000Y1150430D01*
X328000Y1150430D01*
X328000Y1146430D01*
X326000Y1146430D01*
X326000Y1142430D01*
X324000Y1142430D01*
X324000Y1140430D01*
X322000Y1140430D01*
X322000Y1138430D01*
X320000Y1138430D01*
X320000Y1136430D01*
X318000Y1136430D01*
X318000Y1134430D01*
X316000Y1134430D01*
X316000Y1132430D01*
X314000Y1132430D01*
X314000Y1130430D01*
X312000Y1130430D01*
X312000Y1128430D01*
X308000Y1128430D01*
X308000Y1126430D01*
X306000Y1126430D01*
X306000Y1124430D01*
X302000Y1124430D01*
X302000Y1122430D01*
X298000Y1122430D01*
X298000Y1120430D01*
X290000Y1120430D01*
X290000Y1118430D01*
X1136000Y1118430D01*
X1136000Y1122430D01*
X1138000Y1122430D01*
X1138000Y1146430D01*
X1136000Y1146430D01*
X1136000Y1150430D01*
X1134000Y1150430D01*
X1134000Y1154430D01*
X1132000Y1154430D01*
X1132000Y1160430D01*
X1130000Y1160430D01*
X1130000Y1186430D01*
X1132000Y1186430D01*
X1132000Y1194430D01*
X1134000Y1194430D01*
X1134000Y1198430D01*
X1136000Y1198430D01*
X1136000Y1200430D01*
X1138000Y1200430D01*
X1138000Y1224430D01*
X1136000Y1224430D01*
X1136000Y1228430D01*
X1134000Y1228430D01*
X1134000Y1232430D01*
X1132000Y1232430D01*
X1132000Y1238430D01*
X1130000Y1238430D01*
X1130000Y1266430D01*
X1132000Y1266430D01*
X1132000Y1272430D01*
X1134000Y1272430D01*
X1134000Y1276430D01*
X1136000Y1276430D01*
X1136000Y1280430D01*
X1138000Y1280430D01*
X1138000Y1304430D01*
X1136000Y1304430D01*
X1136000Y1308430D01*
X1134000Y1308430D01*
X1134000Y1312430D01*
X1132000Y1312430D01*
X1132000Y1318430D01*
X1130000Y1318430D01*
X1130000Y1344430D01*
X1132000Y1344430D01*
X1132000Y1348430D01*
X40000Y1348430D01*
G37*
D02*
G36*
X40000Y1236430D02*
X40000Y1118430D01*
X262000Y1118430D01*
X262000Y1120430D01*
X256000Y1120430D01*
X256000Y1122430D01*
X252000Y1122430D01*
X252000Y1124430D01*
X248000Y1124430D01*
X248000Y1126430D01*
X244000Y1126430D01*
X244000Y1128430D01*
X242000Y1128430D01*
X242000Y1130430D01*
X240000Y1130430D01*
X240000Y1132430D01*
X236000Y1132430D01*
X236000Y1134430D01*
X234000Y1134430D01*
X234000Y1136430D01*
X232000Y1136430D01*
X232000Y1140430D01*
X230000Y1140430D01*
X230000Y1142430D01*
X228000Y1142430D01*
X228000Y1144430D01*
X226000Y1144430D01*
X226000Y1148430D01*
X224000Y1148430D01*
X224000Y1152430D01*
X222000Y1152430D01*
X222000Y1156430D01*
X220000Y1156430D01*
X220000Y1164430D01*
X218000Y1164430D01*
X218000Y1188430D01*
X220000Y1188430D01*
X220000Y1196430D01*
X222000Y1196430D01*
X222000Y1200430D01*
X224000Y1200430D01*
X224000Y1204430D01*
X226000Y1204430D01*
X226000Y1208430D01*
X228000Y1208430D01*
X228000Y1210430D01*
X230000Y1210430D01*
X230000Y1214430D01*
X232000Y1214430D01*
X232000Y1216430D01*
X234000Y1216430D01*
X234000Y1218430D01*
X236000Y1218430D01*
X236000Y1220430D01*
X238000Y1220430D01*
X238000Y1222430D01*
X242000Y1222430D01*
X242000Y1224430D01*
X244000Y1224430D01*
X244000Y1226430D01*
X246000Y1226430D01*
X246000Y1228430D01*
X250000Y1228430D01*
X250000Y1230430D01*
X254000Y1230430D01*
X254000Y1232430D01*
X262000Y1232430D01*
X262000Y1234430D01*
X274000Y1234430D01*
X274000Y1236430D01*
X40000Y1236430D01*
G37*
D02*
G36*
X1428000Y1212430D02*
X1428000Y1196430D01*
X1430000Y1196430D01*
X1430000Y1188430D01*
X1432000Y1188430D01*
X1432000Y1164430D01*
X1430000Y1164430D01*
X1430000Y1156430D01*
X1428000Y1156430D01*
X1428000Y1152430D01*
X1426000Y1152430D01*
X1426000Y1150430D01*
X1424000Y1150430D01*
X1424000Y1124430D01*
X1426000Y1124430D01*
X1426000Y1120430D01*
X1428000Y1120430D01*
X1428000Y1116430D01*
X1430000Y1116430D01*
X1430000Y1110430D01*
X1432000Y1110430D01*
X1432000Y1084430D01*
X1430000Y1084430D01*
X1430000Y1078430D01*
X1428000Y1078430D01*
X1428000Y1074430D01*
X1426000Y1074430D01*
X1426000Y1070430D01*
X1424000Y1070430D01*
X1424000Y1046430D01*
X1426000Y1046430D01*
X1426000Y1042430D01*
X1428000Y1042430D01*
X1428000Y1038430D01*
X1430000Y1038430D01*
X1430000Y1032430D01*
X1432000Y1032430D01*
X1432000Y1006430D01*
X1430000Y1006430D01*
X1430000Y1000430D01*
X1428000Y1000430D01*
X1428000Y996430D01*
X1426000Y996430D01*
X1426000Y992430D01*
X1424000Y992430D01*
X1424000Y988430D01*
X1422000Y988430D01*
X1422000Y986430D01*
X1420000Y986430D01*
X1420000Y984430D01*
X1418000Y984430D01*
X1418000Y980430D01*
X1414000Y980430D01*
X1414000Y978430D01*
X1412000Y978430D01*
X1412000Y976430D01*
X1410000Y976430D01*
X1410000Y974430D01*
X1406000Y974430D01*
X1406000Y972430D01*
X1404000Y972430D01*
X1404000Y970430D01*
X1400000Y970430D01*
X1400000Y968430D01*
X1394000Y968430D01*
X1394000Y966430D01*
X1380000Y966430D01*
X1380000Y964430D01*
X1500000Y964430D01*
X1500000Y1160430D01*
X1498000Y1160430D01*
X1498000Y1162430D01*
X1496000Y1162430D01*
X1496000Y1164430D01*
X1494000Y1164430D01*
X1494000Y1166430D01*
X1492000Y1166430D01*
X1492000Y1168430D01*
X1490000Y1168430D01*
X1490000Y1170430D01*
X1488000Y1170430D01*
X1488000Y1172430D01*
X1486000Y1172430D01*
X1486000Y1174430D01*
X1484000Y1174430D01*
X1484000Y1176430D01*
X1482000Y1176430D01*
X1482000Y1178430D01*
X1480000Y1178430D01*
X1480000Y1180430D01*
X1478000Y1180430D01*
X1478000Y1182430D01*
X1476000Y1182430D01*
X1476000Y1184430D01*
X1474000Y1184430D01*
X1474000Y1186430D01*
X1472000Y1186430D01*
X1472000Y1188430D01*
X1470000Y1188430D01*
X1470000Y1190430D01*
X1468000Y1190430D01*
X1468000Y1192430D01*
X1466000Y1192430D01*
X1466000Y1194430D01*
X1464000Y1194430D01*
X1464000Y1196430D01*
X1462000Y1196430D01*
X1462000Y1198430D01*
X1460000Y1198430D01*
X1460000Y1200430D01*
X1458000Y1200430D01*
X1458000Y1202430D01*
X1456000Y1202430D01*
X1456000Y1204430D01*
X1454000Y1204430D01*
X1454000Y1206430D01*
X1452000Y1206430D01*
X1452000Y1208430D01*
X1450000Y1208430D01*
X1450000Y1210430D01*
X1448000Y1210430D01*
X1448000Y1212430D01*
X1428000Y1212430D01*
G37*
D02*
G36*
X40000Y1118430D02*
X40000Y1116430D01*
X1134000Y1116430D01*
X1134000Y1118430D01*
X40000Y1118430D01*
G37*
D02*
G36*
X40000Y1118430D02*
X40000Y1116430D01*
X1134000Y1116430D01*
X1134000Y1118430D01*
X40000Y1118430D01*
G37*
D02*
G36*
X40000Y1116430D02*
X40000Y1036430D01*
X280000Y1036430D01*
X280000Y1034430D01*
X292000Y1034430D01*
X292000Y1032430D01*
X298000Y1032430D01*
X298000Y1030430D01*
X302000Y1030430D01*
X302000Y1028430D01*
X306000Y1028430D01*
X306000Y1026430D01*
X310000Y1026430D01*
X310000Y1024430D01*
X312000Y1024430D01*
X312000Y1022430D01*
X314000Y1022430D01*
X314000Y1020430D01*
X316000Y1020430D01*
X316000Y1018430D01*
X318000Y1018430D01*
X318000Y1016430D01*
X320000Y1016430D01*
X320000Y1014430D01*
X322000Y1014430D01*
X322000Y1012430D01*
X324000Y1012430D01*
X324000Y1010430D01*
X326000Y1010430D01*
X326000Y1006430D01*
X328000Y1006430D01*
X328000Y1002430D01*
X330000Y1002430D01*
X330000Y998430D01*
X332000Y998430D01*
X332000Y992430D01*
X334000Y992430D01*
X334000Y984430D01*
X336000Y984430D01*
X336000Y980430D01*
X340000Y980430D01*
X340000Y978430D01*
X342000Y978430D01*
X342000Y976430D01*
X346000Y976430D01*
X346000Y974430D01*
X348000Y974430D01*
X348000Y972430D01*
X352000Y972430D01*
X352000Y970430D01*
X356000Y970430D01*
X356000Y968430D01*
X358000Y968430D01*
X358000Y966430D01*
X362000Y966430D01*
X362000Y964430D01*
X364000Y964430D01*
X364000Y962430D01*
X1174000Y962430D01*
X1174000Y964430D01*
X1166000Y964430D01*
X1166000Y966430D01*
X1160000Y966430D01*
X1160000Y968430D01*
X1158000Y968430D01*
X1158000Y970430D01*
X1154000Y970430D01*
X1154000Y972430D01*
X1152000Y972430D01*
X1152000Y974430D01*
X1148000Y974430D01*
X1148000Y976430D01*
X1146000Y976430D01*
X1146000Y978430D01*
X1144000Y978430D01*
X1144000Y980430D01*
X1142000Y980430D01*
X1142000Y982430D01*
X1140000Y982430D01*
X1140000Y986430D01*
X1138000Y986430D01*
X1138000Y988430D01*
X1136000Y988430D01*
X1136000Y992430D01*
X1134000Y992430D01*
X1134000Y996430D01*
X1132000Y996430D01*
X1132000Y1002430D01*
X1130000Y1002430D01*
X1130000Y1030430D01*
X1132000Y1030430D01*
X1132000Y1036430D01*
X1134000Y1036430D01*
X1134000Y1040430D01*
X1136000Y1040430D01*
X1136000Y1044430D01*
X1138000Y1044430D01*
X1138000Y1068430D01*
X1136000Y1068430D01*
X1136000Y1070430D01*
X1134000Y1070430D01*
X1134000Y1074430D01*
X1132000Y1074430D01*
X1132000Y1082430D01*
X1130000Y1082430D01*
X1130000Y1108430D01*
X1132000Y1108430D01*
X1132000Y1114430D01*
X1134000Y1114430D01*
X1134000Y1116430D01*
X40000Y1116430D01*
G37*
D02*
G36*
X40000Y1036430D02*
X40000Y802430D01*
X286000Y802430D01*
X286000Y800430D01*
X296000Y800430D01*
X296000Y798430D01*
X300000Y798430D01*
X300000Y796430D01*
X304000Y796430D01*
X304000Y794430D01*
X308000Y794430D01*
X308000Y792430D01*
X310000Y792430D01*
X310000Y790430D01*
X314000Y790430D01*
X314000Y788430D01*
X316000Y788430D01*
X316000Y786430D01*
X318000Y786430D01*
X318000Y784430D01*
X320000Y784430D01*
X320000Y782430D01*
X322000Y782430D01*
X322000Y778430D01*
X324000Y778430D01*
X324000Y776430D01*
X326000Y776430D01*
X326000Y774430D01*
X328000Y774430D01*
X328000Y770430D01*
X330000Y770430D01*
X330000Y766430D01*
X332000Y766430D01*
X332000Y760430D01*
X334000Y760430D01*
X334000Y750430D01*
X336000Y750430D01*
X336000Y736430D01*
X334000Y736430D01*
X334000Y726430D01*
X332000Y726430D01*
X332000Y720430D01*
X330000Y720430D01*
X330000Y716430D01*
X328000Y716430D01*
X328000Y712430D01*
X326000Y712430D01*
X326000Y710430D01*
X324000Y710430D01*
X324000Y708430D01*
X322000Y708430D01*
X322000Y704430D01*
X320000Y704430D01*
X320000Y702430D01*
X318000Y702430D01*
X318000Y700430D01*
X316000Y700430D01*
X316000Y698430D01*
X312000Y698430D01*
X312000Y696430D01*
X310000Y696430D01*
X310000Y694430D01*
X308000Y694430D01*
X308000Y692430D01*
X304000Y692430D01*
X304000Y690430D01*
X300000Y690430D01*
X300000Y688430D01*
X294000Y688430D01*
X294000Y686430D01*
X286000Y686430D01*
X286000Y684430D01*
X362000Y684430D01*
X362000Y880430D01*
X360000Y880430D01*
X360000Y882430D01*
X356000Y882430D01*
X356000Y884430D01*
X354000Y884430D01*
X354000Y886430D01*
X350000Y886430D01*
X350000Y888430D01*
X346000Y888430D01*
X346000Y890430D01*
X344000Y890430D01*
X344000Y892430D01*
X340000Y892430D01*
X340000Y894430D01*
X338000Y894430D01*
X338000Y896430D01*
X334000Y896430D01*
X334000Y898430D01*
X332000Y898430D01*
X332000Y900430D01*
X328000Y900430D01*
X328000Y902430D01*
X324000Y902430D01*
X324000Y904430D01*
X322000Y904430D01*
X322000Y906430D01*
X318000Y906430D01*
X318000Y908430D01*
X316000Y908430D01*
X316000Y910430D01*
X312000Y910430D01*
X312000Y912430D01*
X308000Y912430D01*
X308000Y914430D01*
X306000Y914430D01*
X306000Y916430D01*
X302000Y916430D01*
X302000Y918430D01*
X262000Y918430D01*
X262000Y920430D01*
X256000Y920430D01*
X256000Y922430D01*
X252000Y922430D01*
X252000Y924430D01*
X248000Y924430D01*
X248000Y926430D01*
X244000Y926430D01*
X244000Y928430D01*
X242000Y928430D01*
X242000Y930430D01*
X240000Y930430D01*
X240000Y932430D01*
X236000Y932430D01*
X236000Y934430D01*
X234000Y934430D01*
X234000Y936430D01*
X232000Y936430D01*
X232000Y940430D01*
X230000Y940430D01*
X230000Y942430D01*
X228000Y942430D01*
X228000Y944430D01*
X226000Y944430D01*
X226000Y948430D01*
X224000Y948430D01*
X224000Y952430D01*
X222000Y952430D01*
X222000Y956430D01*
X220000Y956430D01*
X220000Y964430D01*
X218000Y964430D01*
X218000Y988430D01*
X220000Y988430D01*
X220000Y996430D01*
X222000Y996430D01*
X222000Y1000430D01*
X224000Y1000430D01*
X224000Y1004430D01*
X226000Y1004430D01*
X226000Y1008430D01*
X228000Y1008430D01*
X228000Y1010430D01*
X230000Y1010430D01*
X230000Y1014430D01*
X232000Y1014430D01*
X232000Y1016430D01*
X234000Y1016430D01*
X234000Y1018430D01*
X236000Y1018430D01*
X236000Y1020430D01*
X238000Y1020430D01*
X238000Y1022430D01*
X242000Y1022430D01*
X242000Y1024430D01*
X244000Y1024430D01*
X244000Y1026430D01*
X246000Y1026430D01*
X246000Y1028430D01*
X250000Y1028430D01*
X250000Y1030430D01*
X254000Y1030430D01*
X254000Y1032430D01*
X262000Y1032430D01*
X262000Y1034430D01*
X274000Y1034430D01*
X274000Y1036430D01*
X40000Y1036430D01*
G37*
D02*
G36*
X1192000Y964430D02*
X1192000Y962430D01*
X1500000Y962430D01*
X1500000Y964430D01*
X1192000Y964430D01*
G37*
D02*
G36*
X1192000Y964430D02*
X1192000Y962430D01*
X1500000Y962430D01*
X1500000Y964430D01*
X1192000Y964430D01*
G37*
D02*
G36*
X368000Y962430D02*
X368000Y960430D01*
X1500000Y960430D01*
X1500000Y962430D01*
X368000Y962430D01*
G37*
D02*
G36*
X368000Y962430D02*
X368000Y960430D01*
X1500000Y960430D01*
X1500000Y962430D01*
X368000Y962430D01*
G37*
D02*
G36*
X370000Y960430D02*
X370000Y958430D01*
X374000Y958430D01*
X374000Y956430D01*
X378000Y956430D01*
X378000Y954430D01*
X380000Y954430D01*
X380000Y952430D01*
X384000Y952430D01*
X384000Y950430D01*
X386000Y950430D01*
X386000Y948430D01*
X390000Y948430D01*
X390000Y946430D01*
X394000Y946430D01*
X394000Y944430D01*
X396000Y944430D01*
X396000Y942430D01*
X400000Y942430D01*
X400000Y940430D01*
X402000Y940430D01*
X402000Y938430D01*
X406000Y938430D01*
X406000Y936430D01*
X1482000Y936430D01*
X1482000Y938430D01*
X1484000Y938430D01*
X1484000Y940430D01*
X1486000Y940430D01*
X1486000Y942430D01*
X1488000Y942430D01*
X1488000Y944430D01*
X1490000Y944430D01*
X1490000Y946430D01*
X1492000Y946430D01*
X1492000Y948430D01*
X1494000Y948430D01*
X1494000Y950430D01*
X1496000Y950430D01*
X1496000Y952430D01*
X1498000Y952430D01*
X1498000Y954430D01*
X1500000Y954430D01*
X1500000Y960430D01*
X370000Y960430D01*
G37*
D02*
G36*
X1572000Y942430D02*
X1572000Y930430D01*
X1570000Y930430D01*
X1570000Y926430D01*
X1568000Y926430D01*
X1568000Y922430D01*
X1566000Y922430D01*
X1566000Y918430D01*
X1564000Y918430D01*
X1564000Y916430D01*
X1562000Y916430D01*
X1562000Y914430D01*
X1560000Y914430D01*
X1560000Y912430D01*
X1558000Y912430D01*
X1558000Y910430D01*
X1556000Y910430D01*
X1556000Y908430D01*
X1554000Y908430D01*
X1554000Y906430D01*
X1552000Y906430D01*
X1552000Y904430D01*
X1550000Y904430D01*
X1550000Y902430D01*
X1548000Y902430D01*
X1548000Y900430D01*
X1546000Y900430D01*
X1546000Y898430D01*
X1544000Y898430D01*
X1544000Y896430D01*
X1542000Y896430D01*
X1542000Y894430D01*
X1540000Y894430D01*
X1540000Y892430D01*
X1538000Y892430D01*
X1538000Y890430D01*
X1536000Y890430D01*
X1536000Y888430D01*
X1534000Y888430D01*
X1534000Y886430D01*
X1532000Y886430D01*
X1532000Y884430D01*
X1530000Y884430D01*
X1530000Y882430D01*
X1528000Y882430D01*
X1528000Y880430D01*
X1526000Y880430D01*
X1526000Y878430D01*
X1524000Y878430D01*
X1524000Y876430D01*
X1522000Y876430D01*
X1522000Y874430D01*
X1520000Y874430D01*
X1520000Y872430D01*
X1518000Y872430D01*
X1518000Y870430D01*
X1514000Y870430D01*
X1514000Y868430D01*
X1512000Y868430D01*
X1512000Y866430D01*
X1506000Y866430D01*
X1506000Y864430D01*
X434000Y864430D01*
X434000Y540430D01*
X1786000Y540430D01*
X1786000Y542430D01*
X1774000Y542430D01*
X1774000Y544430D01*
X1766000Y544430D01*
X1766000Y546430D01*
X1758000Y546430D01*
X1758000Y548430D01*
X1752000Y548430D01*
X1752000Y550430D01*
X1746000Y550430D01*
X1746000Y552430D01*
X1740000Y552430D01*
X1740000Y554430D01*
X1734000Y554430D01*
X1734000Y556430D01*
X1730000Y556430D01*
X1730000Y558430D01*
X1726000Y558430D01*
X1726000Y560430D01*
X1722000Y560430D01*
X1722000Y562430D01*
X1718000Y562430D01*
X1718000Y564430D01*
X1714000Y564430D01*
X1714000Y566430D01*
X1712000Y566430D01*
X1712000Y568430D01*
X1708000Y568430D01*
X1708000Y570430D01*
X1704000Y570430D01*
X1704000Y572430D01*
X1702000Y572430D01*
X1702000Y574430D01*
X1698000Y574430D01*
X1698000Y576430D01*
X1696000Y576430D01*
X1696000Y578430D01*
X1694000Y578430D01*
X1694000Y580430D01*
X1690000Y580430D01*
X1690000Y582430D01*
X1688000Y582430D01*
X1688000Y584430D01*
X1686000Y584430D01*
X1686000Y586430D01*
X1684000Y586430D01*
X1684000Y588430D01*
X1680000Y588430D01*
X1680000Y590430D01*
X1678000Y590430D01*
X1678000Y592430D01*
X1676000Y592430D01*
X1676000Y594430D01*
X1674000Y594430D01*
X1674000Y596430D01*
X1672000Y596430D01*
X1672000Y598430D01*
X1670000Y598430D01*
X1670000Y600430D01*
X1668000Y600430D01*
X1668000Y602430D01*
X1666000Y602430D01*
X1666000Y604430D01*
X1664000Y604430D01*
X1664000Y606430D01*
X1662000Y606430D01*
X1662000Y608430D01*
X1660000Y608430D01*
X1660000Y612430D01*
X1658000Y612430D01*
X1658000Y614430D01*
X1656000Y614430D01*
X1656000Y616430D01*
X1654000Y616430D01*
X1654000Y618430D01*
X1652000Y618430D01*
X1652000Y622430D01*
X1650000Y622430D01*
X1650000Y624430D01*
X1648000Y624430D01*
X1648000Y626430D01*
X1646000Y626430D01*
X1646000Y630430D01*
X1644000Y630430D01*
X1644000Y634430D01*
X1642000Y634430D01*
X1642000Y636430D01*
X1640000Y636430D01*
X1640000Y640430D01*
X1638000Y640430D01*
X1638000Y644430D01*
X1636000Y644430D01*
X1636000Y646430D01*
X1634000Y646430D01*
X1634000Y650430D01*
X1632000Y650430D01*
X1632000Y656430D01*
X1630000Y656430D01*
X1630000Y660430D01*
X1628000Y660430D01*
X1628000Y664430D01*
X1626000Y664430D01*
X1626000Y670430D01*
X1624000Y670430D01*
X1624000Y674430D01*
X1622000Y674430D01*
X1622000Y680430D01*
X1620000Y680430D01*
X1620000Y688430D01*
X1618000Y688430D01*
X1618000Y694430D01*
X1616000Y694430D01*
X1616000Y704430D01*
X1614000Y704430D01*
X1614000Y718430D01*
X1612000Y718430D01*
X1612000Y762430D01*
X1614000Y762430D01*
X1614000Y776430D01*
X1616000Y776430D01*
X1616000Y786430D01*
X1618000Y786430D01*
X1618000Y794430D01*
X1620000Y794430D01*
X1620000Y800430D01*
X1622000Y800430D01*
X1622000Y806430D01*
X1624000Y806430D01*
X1624000Y812430D01*
X1626000Y812430D01*
X1626000Y818430D01*
X1628000Y818430D01*
X1628000Y822430D01*
X1630000Y822430D01*
X1630000Y826430D01*
X1632000Y826430D01*
X1632000Y830430D01*
X1634000Y830430D01*
X1634000Y834430D01*
X1636000Y834430D01*
X1636000Y838430D01*
X1638000Y838430D01*
X1638000Y840430D01*
X1640000Y840430D01*
X1640000Y844430D01*
X1642000Y844430D01*
X1642000Y848430D01*
X1644000Y848430D01*
X1644000Y850430D01*
X1646000Y850430D01*
X1646000Y854430D01*
X1648000Y854430D01*
X1648000Y856430D01*
X1650000Y856430D01*
X1650000Y860430D01*
X1652000Y860430D01*
X1652000Y862430D01*
X1654000Y862430D01*
X1654000Y864430D01*
X1656000Y864430D01*
X1656000Y868430D01*
X1658000Y868430D01*
X1658000Y870430D01*
X1660000Y870430D01*
X1660000Y872430D01*
X1662000Y872430D01*
X1662000Y874430D01*
X1664000Y874430D01*
X1664000Y876430D01*
X1666000Y876430D01*
X1666000Y878430D01*
X1668000Y878430D01*
X1668000Y880430D01*
X1670000Y880430D01*
X1670000Y882430D01*
X1672000Y882430D01*
X1672000Y884430D01*
X1674000Y884430D01*
X1674000Y886430D01*
X1676000Y886430D01*
X1676000Y888430D01*
X1678000Y888430D01*
X1678000Y890430D01*
X1680000Y890430D01*
X1680000Y892430D01*
X1682000Y892430D01*
X1682000Y894430D01*
X1684000Y894430D01*
X1684000Y896430D01*
X1688000Y896430D01*
X1688000Y898430D01*
X1690000Y898430D01*
X1690000Y900430D01*
X1692000Y900430D01*
X1692000Y902430D01*
X1694000Y902430D01*
X1694000Y904430D01*
X1698000Y904430D01*
X1698000Y906430D01*
X1700000Y906430D01*
X1700000Y908430D01*
X1704000Y908430D01*
X1704000Y910430D01*
X1706000Y910430D01*
X1706000Y912430D01*
X1710000Y912430D01*
X1710000Y914430D01*
X1714000Y914430D01*
X1714000Y916430D01*
X1716000Y916430D01*
X1716000Y918430D01*
X1720000Y918430D01*
X1720000Y920430D01*
X1726000Y920430D01*
X1726000Y922430D01*
X1730000Y922430D01*
X1730000Y924430D01*
X1734000Y924430D01*
X1734000Y926430D01*
X1738000Y926430D01*
X1738000Y928430D01*
X1744000Y928430D01*
X1744000Y930430D01*
X1750000Y930430D01*
X1750000Y932430D01*
X1756000Y932430D01*
X1756000Y934430D01*
X1762000Y934430D01*
X1762000Y936430D01*
X1770000Y936430D01*
X1770000Y938430D01*
X1782000Y938430D01*
X1782000Y940430D01*
X1800000Y940430D01*
X1800000Y942430D01*
X1572000Y942430D01*
G37*
D02*
G36*
X40000Y802430D02*
X40000Y684430D01*
X268000Y684430D01*
X268000Y686430D01*
X258000Y686430D01*
X258000Y688430D01*
X252000Y688430D01*
X252000Y690430D01*
X250000Y690430D01*
X250000Y692430D01*
X246000Y692430D01*
X246000Y694430D01*
X242000Y694430D01*
X242000Y696430D01*
X240000Y696430D01*
X240000Y698430D01*
X238000Y698430D01*
X238000Y700430D01*
X236000Y700430D01*
X236000Y702430D01*
X234000Y702430D01*
X234000Y704430D01*
X232000Y704430D01*
X232000Y706430D01*
X230000Y706430D01*
X230000Y708430D01*
X228000Y708430D01*
X228000Y712430D01*
X226000Y712430D01*
X226000Y714430D01*
X224000Y714430D01*
X224000Y718430D01*
X222000Y718430D01*
X222000Y724430D01*
X220000Y724430D01*
X220000Y730430D01*
X218000Y730430D01*
X218000Y756430D01*
X220000Y756430D01*
X220000Y762430D01*
X222000Y762430D01*
X222000Y768430D01*
X224000Y768430D01*
X224000Y772430D01*
X226000Y772430D01*
X226000Y774430D01*
X228000Y774430D01*
X228000Y778430D01*
X230000Y778430D01*
X230000Y780430D01*
X232000Y780430D01*
X232000Y782430D01*
X234000Y782430D01*
X234000Y784430D01*
X236000Y784430D01*
X236000Y786430D01*
X238000Y786430D01*
X238000Y788430D01*
X240000Y788430D01*
X240000Y790430D01*
X242000Y790430D01*
X242000Y792430D01*
X246000Y792430D01*
X246000Y794430D01*
X248000Y794430D01*
X248000Y796430D01*
X252000Y796430D01*
X252000Y798430D01*
X258000Y798430D01*
X258000Y800430D01*
X266000Y800430D01*
X266000Y802430D01*
X40000Y802430D01*
G37*
D02*
G36*
X40000Y684430D02*
X40000Y682430D01*
X362000Y682430D01*
X362000Y684430D01*
X40000Y684430D01*
G37*
D02*
G36*
X40000Y684430D02*
X40000Y682430D01*
X362000Y682430D01*
X362000Y684430D01*
X40000Y684430D01*
G37*
D02*
G36*
X40000Y682430D02*
X40000Y484430D01*
X268000Y484430D01*
X268000Y486430D01*
X258000Y486430D01*
X258000Y488430D01*
X252000Y488430D01*
X252000Y490430D01*
X250000Y490430D01*
X250000Y492430D01*
X246000Y492430D01*
X246000Y494430D01*
X242000Y494430D01*
X242000Y496430D01*
X240000Y496430D01*
X240000Y498430D01*
X238000Y498430D01*
X238000Y500430D01*
X236000Y500430D01*
X236000Y502430D01*
X234000Y502430D01*
X234000Y504430D01*
X232000Y504430D01*
X232000Y506430D01*
X230000Y506430D01*
X230000Y508430D01*
X228000Y508430D01*
X228000Y512430D01*
X226000Y512430D01*
X226000Y514430D01*
X224000Y514430D01*
X224000Y518430D01*
X222000Y518430D01*
X222000Y524430D01*
X220000Y524430D01*
X220000Y530430D01*
X218000Y530430D01*
X218000Y556430D01*
X220000Y556430D01*
X220000Y562430D01*
X222000Y562430D01*
X222000Y568430D01*
X224000Y568430D01*
X224000Y572430D01*
X226000Y572430D01*
X226000Y574430D01*
X228000Y574430D01*
X228000Y578430D01*
X230000Y578430D01*
X230000Y580430D01*
X232000Y580430D01*
X232000Y582430D01*
X234000Y582430D01*
X234000Y584430D01*
X236000Y584430D01*
X236000Y586430D01*
X238000Y586430D01*
X238000Y588430D01*
X240000Y588430D01*
X240000Y590430D01*
X242000Y590430D01*
X242000Y592430D01*
X246000Y592430D01*
X246000Y594430D01*
X248000Y594430D01*
X248000Y596430D01*
X252000Y596430D01*
X252000Y598430D01*
X258000Y598430D01*
X258000Y600430D01*
X266000Y600430D01*
X266000Y602430D01*
X286000Y602430D01*
X286000Y604430D01*
X288000Y604430D01*
X288000Y606430D01*
X292000Y606430D01*
X292000Y608430D01*
X294000Y608430D01*
X294000Y610430D01*
X296000Y610430D01*
X296000Y612430D01*
X298000Y612430D01*
X298000Y614430D01*
X300000Y614430D01*
X300000Y616430D01*
X302000Y616430D01*
X302000Y618430D01*
X304000Y618430D01*
X304000Y620430D01*
X306000Y620430D01*
X306000Y622430D01*
X308000Y622430D01*
X308000Y624430D01*
X310000Y624430D01*
X310000Y626430D01*
X312000Y626430D01*
X312000Y628430D01*
X314000Y628430D01*
X314000Y630430D01*
X316000Y630430D01*
X316000Y632430D01*
X318000Y632430D01*
X318000Y634430D01*
X320000Y634430D01*
X320000Y636430D01*
X322000Y636430D01*
X322000Y638430D01*
X324000Y638430D01*
X324000Y640430D01*
X326000Y640430D01*
X326000Y642430D01*
X328000Y642430D01*
X328000Y644430D01*
X330000Y644430D01*
X330000Y646430D01*
X332000Y646430D01*
X332000Y648430D01*
X334000Y648430D01*
X334000Y650430D01*
X336000Y650430D01*
X336000Y652430D01*
X338000Y652430D01*
X338000Y654430D01*
X340000Y654430D01*
X340000Y656430D01*
X342000Y656430D01*
X342000Y658430D01*
X346000Y658430D01*
X346000Y660430D01*
X348000Y660430D01*
X348000Y662430D01*
X350000Y662430D01*
X350000Y664430D01*
X352000Y664430D01*
X352000Y666430D01*
X354000Y666430D01*
X354000Y668430D01*
X356000Y668430D01*
X356000Y670430D01*
X358000Y670430D01*
X358000Y672430D01*
X360000Y672430D01*
X360000Y674430D01*
X362000Y674430D01*
X362000Y682430D01*
X40000Y682430D01*
G37*
D02*
G36*
X1944000Y590430D02*
X1944000Y588430D01*
X1942000Y588430D01*
X1942000Y586430D01*
X1940000Y586430D01*
X1940000Y584430D01*
X1938000Y584430D01*
X1938000Y582430D01*
X1936000Y582430D01*
X1936000Y580430D01*
X1932000Y580430D01*
X1932000Y578430D01*
X1930000Y578430D01*
X1930000Y576430D01*
X1928000Y576430D01*
X1928000Y574430D01*
X1924000Y574430D01*
X1924000Y572430D01*
X1920000Y572430D01*
X1920000Y570430D01*
X1918000Y570430D01*
X1918000Y568430D01*
X1914000Y568430D01*
X1914000Y566430D01*
X1910000Y566430D01*
X1910000Y564430D01*
X1908000Y564430D01*
X1908000Y562430D01*
X1904000Y562430D01*
X1904000Y560430D01*
X1900000Y560430D01*
X1900000Y558430D01*
X1896000Y558430D01*
X1896000Y556430D01*
X1890000Y556430D01*
X1890000Y554430D01*
X1886000Y554430D01*
X1886000Y552430D01*
X1880000Y552430D01*
X1880000Y550430D01*
X1874000Y550430D01*
X1874000Y548430D01*
X1868000Y548430D01*
X1868000Y546430D01*
X1860000Y546430D01*
X1860000Y544430D01*
X1852000Y544430D01*
X1852000Y542430D01*
X1838000Y542430D01*
X1838000Y540430D01*
X1966000Y540430D01*
X1966000Y590430D01*
X1944000Y590430D01*
G37*
D02*
G36*
X342000Y558430D02*
X342000Y556430D01*
X340000Y556430D01*
X340000Y554430D01*
X338000Y554430D01*
X338000Y552430D01*
X336000Y552430D01*
X336000Y536430D01*
X334000Y536430D01*
X334000Y526430D01*
X332000Y526430D01*
X332000Y520430D01*
X330000Y520430D01*
X330000Y516430D01*
X328000Y516430D01*
X328000Y512430D01*
X326000Y512430D01*
X326000Y510430D01*
X324000Y510430D01*
X324000Y508430D01*
X322000Y508430D01*
X322000Y504430D01*
X320000Y504430D01*
X320000Y502430D01*
X318000Y502430D01*
X318000Y500430D01*
X316000Y500430D01*
X316000Y498430D01*
X312000Y498430D01*
X312000Y496430D01*
X310000Y496430D01*
X310000Y494430D01*
X308000Y494430D01*
X308000Y492430D01*
X304000Y492430D01*
X304000Y490430D01*
X300000Y490430D01*
X300000Y488430D01*
X294000Y488430D01*
X294000Y486430D01*
X286000Y486430D01*
X286000Y484430D01*
X362000Y484430D01*
X362000Y558430D01*
X342000Y558430D01*
G37*
D02*
G36*
X434000Y540430D02*
X434000Y538430D01*
X1966000Y538430D01*
X1966000Y540430D01*
X434000Y540430D01*
G37*
D02*
G36*
X434000Y540430D02*
X434000Y538430D01*
X1966000Y538430D01*
X1966000Y540430D01*
X434000Y540430D01*
G37*
D02*
G36*
X434000Y538430D02*
X434000Y266430D01*
X432000Y266430D01*
X432000Y258430D01*
X430000Y258430D01*
X430000Y254430D01*
X428000Y254430D01*
X428000Y250430D01*
X426000Y250430D01*
X426000Y248430D01*
X424000Y248430D01*
X424000Y244430D01*
X422000Y244430D01*
X422000Y242430D01*
X420000Y242430D01*
X420000Y240430D01*
X418000Y240430D01*
X418000Y236430D01*
X416000Y236430D01*
X416000Y234430D01*
X414000Y234430D01*
X414000Y232430D01*
X412000Y232430D01*
X412000Y228430D01*
X410000Y228430D01*
X410000Y226430D01*
X408000Y226430D01*
X408000Y224430D01*
X406000Y224430D01*
X406000Y220430D01*
X404000Y220430D01*
X404000Y218430D01*
X402000Y218430D01*
X402000Y216430D01*
X400000Y216430D01*
X400000Y212430D01*
X398000Y212430D01*
X398000Y210430D01*
X396000Y210430D01*
X396000Y208430D01*
X394000Y208430D01*
X394000Y204430D01*
X392000Y204430D01*
X392000Y202430D01*
X390000Y202430D01*
X390000Y200430D01*
X388000Y200430D01*
X388000Y196430D01*
X386000Y196430D01*
X386000Y194430D01*
X384000Y194430D01*
X384000Y192430D01*
X382000Y192430D01*
X382000Y188430D01*
X380000Y188430D01*
X380000Y186430D01*
X378000Y186430D01*
X378000Y184430D01*
X376000Y184430D01*
X376000Y180430D01*
X374000Y180430D01*
X374000Y178430D01*
X372000Y178430D01*
X372000Y176430D01*
X370000Y176430D01*
X370000Y172430D01*
X368000Y172430D01*
X368000Y170430D01*
X366000Y170430D01*
X366000Y168430D01*
X364000Y168430D01*
X364000Y164430D01*
X362000Y164430D01*
X362000Y162430D01*
X360000Y162430D01*
X360000Y160430D01*
X358000Y160430D01*
X358000Y156430D01*
X356000Y156430D01*
X356000Y154430D01*
X354000Y154430D01*
X354000Y152430D01*
X352000Y152430D01*
X352000Y148430D01*
X350000Y148430D01*
X350000Y146430D01*
X348000Y146430D01*
X348000Y144430D01*
X346000Y144430D01*
X346000Y140430D01*
X344000Y140430D01*
X344000Y138430D01*
X342000Y138430D01*
X342000Y136430D01*
X340000Y136430D01*
X340000Y134430D01*
X338000Y134430D01*
X338000Y130430D01*
X336000Y130430D01*
X336000Y104430D01*
X334000Y104430D01*
X334000Y94430D01*
X332000Y94430D01*
X332000Y88430D01*
X330000Y88430D01*
X330000Y84430D01*
X328000Y84430D01*
X328000Y80430D01*
X326000Y80430D01*
X326000Y76430D01*
X324000Y76430D01*
X324000Y74430D01*
X322000Y74430D01*
X322000Y72430D01*
X320000Y72430D01*
X320000Y70430D01*
X318000Y70430D01*
X318000Y68430D01*
X316000Y68430D01*
X316000Y66430D01*
X314000Y66430D01*
X314000Y64430D01*
X312000Y64430D01*
X312000Y62430D01*
X310000Y62430D01*
X310000Y60430D01*
X306000Y60430D01*
X306000Y40430D01*
X1966000Y40430D01*
X1966000Y538430D01*
X434000Y538430D01*
G37*
D02*
G36*
X40000Y484430D02*
X40000Y482430D01*
X362000Y482430D01*
X362000Y484430D01*
X40000Y484430D01*
G37*
D02*
G36*
X40000Y484430D02*
X40000Y482430D01*
X362000Y482430D01*
X362000Y484430D01*
X40000Y484430D01*
G37*
D02*
G36*
X40000Y482430D02*
X40000Y368430D01*
X292000Y368430D01*
X292000Y366430D01*
X298000Y366430D01*
X298000Y364430D01*
X302000Y364430D01*
X302000Y362430D01*
X306000Y362430D01*
X306000Y360430D01*
X310000Y360430D01*
X310000Y358430D01*
X312000Y358430D01*
X312000Y356430D01*
X314000Y356430D01*
X314000Y354430D01*
X316000Y354430D01*
X316000Y352430D01*
X318000Y352430D01*
X318000Y350430D01*
X320000Y350430D01*
X320000Y348430D01*
X322000Y348430D01*
X322000Y346430D01*
X324000Y346430D01*
X324000Y344430D01*
X326000Y344430D01*
X326000Y340430D01*
X328000Y340430D01*
X328000Y336430D01*
X330000Y336430D01*
X330000Y332430D01*
X332000Y332430D01*
X332000Y326430D01*
X334000Y326430D01*
X334000Y316430D01*
X336000Y316430D01*
X336000Y304430D01*
X334000Y304430D01*
X334000Y294430D01*
X332000Y294430D01*
X332000Y288430D01*
X330000Y288430D01*
X330000Y284430D01*
X328000Y284430D01*
X328000Y280430D01*
X326000Y280430D01*
X326000Y276430D01*
X324000Y276430D01*
X324000Y274430D01*
X322000Y274430D01*
X322000Y272430D01*
X320000Y272430D01*
X320000Y270430D01*
X318000Y270430D01*
X318000Y268430D01*
X316000Y268430D01*
X316000Y266430D01*
X314000Y266430D01*
X314000Y264430D01*
X312000Y264430D01*
X312000Y262430D01*
X310000Y262430D01*
X310000Y260430D01*
X306000Y260430D01*
X306000Y258430D01*
X302000Y258430D01*
X302000Y256430D01*
X298000Y256430D01*
X298000Y254430D01*
X290000Y254430D01*
X290000Y252430D01*
X340000Y252430D01*
X340000Y256430D01*
X342000Y256430D01*
X342000Y258430D01*
X344000Y258430D01*
X344000Y260430D01*
X346000Y260430D01*
X346000Y264430D01*
X348000Y264430D01*
X348000Y266430D01*
X350000Y266430D01*
X350000Y268430D01*
X352000Y268430D01*
X352000Y272430D01*
X354000Y272430D01*
X354000Y274430D01*
X356000Y274430D01*
X356000Y276430D01*
X358000Y276430D01*
X358000Y280430D01*
X360000Y280430D01*
X360000Y282430D01*
X362000Y282430D01*
X362000Y482430D01*
X40000Y482430D01*
G37*
D02*
G36*
X40000Y368430D02*
X40000Y252430D01*
X262000Y252430D01*
X262000Y254430D01*
X256000Y254430D01*
X256000Y256430D01*
X250000Y256430D01*
X250000Y258430D01*
X248000Y258430D01*
X248000Y260430D01*
X244000Y260430D01*
X244000Y262430D01*
X242000Y262430D01*
X242000Y264430D01*
X238000Y264430D01*
X238000Y266430D01*
X236000Y266430D01*
X236000Y268430D01*
X234000Y268430D01*
X234000Y270430D01*
X232000Y270430D01*
X232000Y274430D01*
X230000Y274430D01*
X230000Y276430D01*
X228000Y276430D01*
X228000Y278430D01*
X226000Y278430D01*
X226000Y282430D01*
X224000Y282430D01*
X224000Y286430D01*
X222000Y286430D01*
X222000Y290430D01*
X220000Y290430D01*
X220000Y298430D01*
X218000Y298430D01*
X218000Y322430D01*
X220000Y322430D01*
X220000Y330430D01*
X222000Y330430D01*
X222000Y334430D01*
X224000Y334430D01*
X224000Y338430D01*
X226000Y338430D01*
X226000Y342430D01*
X228000Y342430D01*
X228000Y344430D01*
X230000Y344430D01*
X230000Y346430D01*
X232000Y346430D01*
X232000Y350430D01*
X234000Y350430D01*
X234000Y352430D01*
X236000Y352430D01*
X236000Y354430D01*
X238000Y354430D01*
X238000Y356430D01*
X242000Y356430D01*
X242000Y358430D01*
X244000Y358430D01*
X244000Y360430D01*
X248000Y360430D01*
X248000Y362430D01*
X250000Y362430D01*
X250000Y364430D01*
X256000Y364430D01*
X256000Y366430D01*
X262000Y366430D01*
X262000Y368430D01*
X40000Y368430D01*
G37*
D02*
G36*
X40000Y252430D02*
X40000Y250430D01*
X338000Y250430D01*
X338000Y252430D01*
X40000Y252430D01*
G37*
D02*
G36*
X40000Y252430D02*
X40000Y250430D01*
X338000Y250430D01*
X338000Y252430D01*
X40000Y252430D01*
G37*
D02*
G36*
X40000Y250430D02*
X40000Y40430D01*
X248000Y40430D01*
X248000Y60430D01*
X244000Y60430D01*
X244000Y62430D01*
X242000Y62430D01*
X242000Y64430D01*
X238000Y64430D01*
X238000Y66430D01*
X236000Y66430D01*
X236000Y68430D01*
X234000Y68430D01*
X234000Y70430D01*
X232000Y70430D01*
X232000Y74430D01*
X230000Y74430D01*
X230000Y76430D01*
X228000Y76430D01*
X228000Y78430D01*
X226000Y78430D01*
X226000Y82430D01*
X224000Y82430D01*
X224000Y86430D01*
X222000Y86430D01*
X222000Y90430D01*
X220000Y90430D01*
X220000Y98430D01*
X218000Y98430D01*
X218000Y122430D01*
X220000Y122430D01*
X220000Y130430D01*
X222000Y130430D01*
X222000Y134430D01*
X224000Y134430D01*
X224000Y138430D01*
X226000Y138430D01*
X226000Y142430D01*
X228000Y142430D01*
X228000Y144430D01*
X230000Y144430D01*
X230000Y146430D01*
X232000Y146430D01*
X232000Y150430D01*
X234000Y150430D01*
X234000Y152430D01*
X236000Y152430D01*
X236000Y154430D01*
X238000Y154430D01*
X238000Y156430D01*
X242000Y156430D01*
X242000Y158430D01*
X244000Y158430D01*
X244000Y160430D01*
X248000Y160430D01*
X248000Y162430D01*
X250000Y162430D01*
X250000Y164430D01*
X256000Y164430D01*
X256000Y166430D01*
X262000Y166430D01*
X262000Y168430D01*
X276000Y168430D01*
X276000Y170430D01*
X278000Y170430D01*
X278000Y174430D01*
X280000Y174430D01*
X280000Y176430D01*
X282000Y176430D01*
X282000Y178430D01*
X284000Y178430D01*
X284000Y182430D01*
X286000Y182430D01*
X286000Y184430D01*
X288000Y184430D01*
X288000Y186430D01*
X290000Y186430D01*
X290000Y188430D01*
X292000Y188430D01*
X292000Y192430D01*
X294000Y192430D01*
X294000Y194430D01*
X296000Y194430D01*
X296000Y196430D01*
X298000Y196430D01*
X298000Y200430D01*
X300000Y200430D01*
X300000Y202430D01*
X302000Y202430D01*
X302000Y204430D01*
X304000Y204430D01*
X304000Y208430D01*
X306000Y208430D01*
X306000Y210430D01*
X308000Y210430D01*
X308000Y212430D01*
X310000Y212430D01*
X310000Y216430D01*
X312000Y216430D01*
X312000Y218430D01*
X314000Y218430D01*
X314000Y220430D01*
X316000Y220430D01*
X316000Y224430D01*
X318000Y224430D01*
X318000Y226430D01*
X320000Y226430D01*
X320000Y228430D01*
X322000Y228430D01*
X322000Y232430D01*
X324000Y232430D01*
X324000Y234430D01*
X326000Y234430D01*
X326000Y236430D01*
X328000Y236430D01*
X328000Y240430D01*
X330000Y240430D01*
X330000Y242430D01*
X332000Y242430D01*
X332000Y244430D01*
X334000Y244430D01*
X334000Y248430D01*
X336000Y248430D01*
X336000Y250430D01*
X40000Y250430D01*
G37*
D02*
G36*
X1802000Y1964430D02*
X1802000Y1962430D01*
X1796000Y1962430D01*
X1796000Y1960430D01*
X1792000Y1960430D01*
X1792000Y1958430D01*
X1788000Y1958430D01*
X1788000Y1956430D01*
X1786000Y1956430D01*
X1786000Y1954430D01*
X1784000Y1954430D01*
X1784000Y1952430D01*
X1782000Y1952430D01*
X1782000Y1950430D01*
X1780000Y1950430D01*
X1780000Y1948430D01*
X1778000Y1948430D01*
X1778000Y1946430D01*
X1776000Y1946430D01*
X1776000Y1942430D01*
X1774000Y1942430D01*
X1774000Y1938430D01*
X1772000Y1938430D01*
X1772000Y1932430D01*
X1770000Y1932430D01*
X1770000Y1912430D01*
X1772000Y1912430D01*
X1772000Y1906430D01*
X1774000Y1906430D01*
X1774000Y1900430D01*
X1776000Y1900430D01*
X1776000Y1898430D01*
X1778000Y1898430D01*
X1778000Y1894430D01*
X1780000Y1894430D01*
X1780000Y1892430D01*
X1782000Y1892430D01*
X1782000Y1890430D01*
X1784000Y1890430D01*
X1784000Y1888430D01*
X1788000Y1888430D01*
X1788000Y1886430D01*
X1790000Y1886430D01*
X1790000Y1884430D01*
X1794000Y1884430D01*
X1794000Y1882430D01*
X1798000Y1882430D01*
X1798000Y1880430D01*
X1828000Y1880430D01*
X1828000Y1882430D01*
X1832000Y1882430D01*
X1832000Y1884430D01*
X1836000Y1884430D01*
X1836000Y1886430D01*
X1838000Y1886430D01*
X1838000Y1888430D01*
X1842000Y1888430D01*
X1842000Y1890430D01*
X1844000Y1890430D01*
X1844000Y1892430D01*
X1846000Y1892430D01*
X1846000Y1896430D01*
X1848000Y1896430D01*
X1848000Y1898430D01*
X1850000Y1898430D01*
X1850000Y1902430D01*
X1852000Y1902430D01*
X1852000Y1906430D01*
X1854000Y1906430D01*
X1854000Y1936430D01*
X1852000Y1936430D01*
X1852000Y1942430D01*
X1850000Y1942430D01*
X1850000Y1944430D01*
X1848000Y1944430D01*
X1848000Y1948430D01*
X1846000Y1948430D01*
X1846000Y1950430D01*
X1844000Y1950430D01*
X1844000Y1952430D01*
X1842000Y1952430D01*
X1842000Y1954430D01*
X1840000Y1954430D01*
X1840000Y1956430D01*
X1836000Y1956430D01*
X1836000Y1958430D01*
X1834000Y1958430D01*
X1834000Y1960430D01*
X1830000Y1960430D01*
X1830000Y1962430D01*
X1824000Y1962430D01*
X1824000Y1964430D01*
X1802000Y1964430D01*
G37*
D02*
G36*
X1798000Y782430D02*
X1798000Y780430D01*
X1794000Y780430D01*
X1794000Y778430D01*
X1790000Y778430D01*
X1790000Y776430D01*
X1788000Y776430D01*
X1788000Y774430D01*
X1784000Y774430D01*
X1784000Y772430D01*
X1782000Y772430D01*
X1782000Y770430D01*
X1780000Y770430D01*
X1780000Y766430D01*
X1778000Y766430D01*
X1778000Y764430D01*
X1776000Y764430D01*
X1776000Y760430D01*
X1774000Y760430D01*
X1774000Y756430D01*
X1772000Y756430D01*
X1772000Y750430D01*
X1770000Y750430D01*
X1770000Y730430D01*
X1772000Y730430D01*
X1772000Y724430D01*
X1774000Y724430D01*
X1774000Y720430D01*
X1776000Y720430D01*
X1776000Y716430D01*
X1778000Y716430D01*
X1778000Y714430D01*
X1780000Y714430D01*
X1780000Y712430D01*
X1782000Y712430D01*
X1782000Y710430D01*
X1784000Y710430D01*
X1784000Y708430D01*
X1786000Y708430D01*
X1786000Y706430D01*
X1788000Y706430D01*
X1788000Y704430D01*
X1792000Y704430D01*
X1792000Y702430D01*
X1796000Y702430D01*
X1796000Y700430D01*
X1800000Y700430D01*
X1800000Y698430D01*
X1824000Y698430D01*
X1824000Y700430D01*
X1830000Y700430D01*
X1830000Y702430D01*
X1834000Y702430D01*
X1834000Y704430D01*
X1838000Y704430D01*
X1838000Y706430D01*
X1840000Y706430D01*
X1840000Y708430D01*
X1842000Y708430D01*
X1842000Y710430D01*
X1844000Y710430D01*
X1844000Y712430D01*
X1846000Y712430D01*
X1846000Y714430D01*
X1848000Y714430D01*
X1848000Y718430D01*
X1850000Y718430D01*
X1850000Y720430D01*
X1852000Y720430D01*
X1852000Y724430D01*
X1854000Y724430D01*
X1854000Y756430D01*
X1852000Y756430D01*
X1852000Y760430D01*
X1850000Y760430D01*
X1850000Y764430D01*
X1848000Y764430D01*
X1848000Y766430D01*
X1846000Y766430D01*
X1846000Y768430D01*
X1844000Y768430D01*
X1844000Y770430D01*
X1842000Y770430D01*
X1842000Y772430D01*
X1840000Y772430D01*
X1840000Y774430D01*
X1838000Y774430D01*
X1838000Y776430D01*
X1836000Y776430D01*
X1836000Y778430D01*
X1832000Y778430D01*
X1832000Y780430D01*
X1828000Y780430D01*
X1828000Y782430D01*
X1798000Y782430D01*
G37*
D02*
G36*
X254000Y2338430D02*
X298000Y2338430D01*
X298000Y2296430D01*
X254000Y2296430D01*
X254000Y2338430D01*
G37*
D02*
G36*
X254000Y2258430D02*
X298000Y2258430D01*
X298000Y2216430D01*
X254000Y2216430D01*
X254000Y2258430D01*
G37*
D02*
G36*
X214000Y2298430D02*
X256000Y2298430D01*
X256000Y2254430D01*
X214000Y2254430D01*
X214000Y2298430D01*
G37*
D02*
G36*
X294000Y2298430D02*
X336000Y2298430D01*
X336000Y2254430D01*
X294000Y2254430D01*
X294000Y2298430D01*
G37*
D02*
G36*
X254000Y1472430D02*
X298000Y1472430D01*
X298000Y1430430D01*
X254000Y1430430D01*
X254000Y1472430D01*
G37*
D02*
G36*
X254000Y1392430D02*
X298000Y1392430D01*
X298000Y1350430D01*
X254000Y1350430D01*
X254000Y1392430D01*
G37*
D02*
G36*
X214000Y1432430D02*
X256000Y1432430D01*
X256000Y1388430D01*
X214000Y1388430D01*
X214000Y1432430D01*
G37*
D02*
G36*
X294000Y1432430D02*
X336000Y1432430D01*
X336000Y1388430D01*
X294000Y1388430D01*
X294000Y1432430D01*
G37*
D02*
G36*
X254000Y1906430D02*
X298000Y1906430D01*
X298000Y1863430D01*
X254000Y1863430D01*
X254000Y1906430D01*
G37*
D02*
G36*
X254000Y1825430D02*
X298000Y1825430D01*
X298000Y1784430D01*
X254000Y1784430D01*
X254000Y1825430D01*
G37*
D02*
G36*
X214000Y1865430D02*
X256000Y1865430D01*
X256000Y1821430D01*
X214000Y1821430D01*
X214000Y1865430D01*
G37*
D02*
G36*
X294000Y1865430D02*
X336000Y1865430D01*
X336000Y1821430D01*
X294000Y1821430D01*
X294000Y1865430D01*
G37*
D02*
G36*
X1197000Y2380430D02*
X1244000Y2380430D01*
X1244000Y2338430D01*
X1197000Y2338430D01*
X1197000Y2380430D01*
G37*
D02*
G36*
X1197000Y2296430D02*
X1244000Y2296430D01*
X1244000Y2254430D01*
X1197000Y2254430D01*
X1197000Y2296430D01*
G37*
D02*
G36*
X1156000Y2339430D02*
X1199000Y2339430D01*
X1199000Y2292430D01*
X1156000Y2292430D01*
X1156000Y2339430D01*
G37*
D02*
G36*
X1241000Y2339430D02*
X1284000Y2339430D01*
X1284000Y2292430D01*
X1241000Y2292430D01*
X1241000Y2339430D01*
G37*
D02*
G36*
X1197000Y2144430D02*
X1244000Y2144430D01*
X1244000Y2102430D01*
X1197000Y2102430D01*
X1197000Y2144430D01*
G37*
D02*
G36*
X1197000Y2060430D02*
X1244000Y2060430D01*
X1244000Y2018430D01*
X1197000Y2018430D01*
X1197000Y2060430D01*
G37*
D02*
G36*
X1156000Y2103430D02*
X1199000Y2103430D01*
X1199000Y2056430D01*
X1156000Y2056430D01*
X1156000Y2103430D01*
G37*
D02*
G36*
X1241000Y2103430D02*
X1284000Y2103430D01*
X1284000Y2056430D01*
X1241000Y2056430D01*
X1241000Y2103430D01*
G37*
D02*
G04 End of Copper0*
M02*