; NON-PLATED HOLES START AT T1
; THROUGH (PLATED) HOLES START AT T100
M48
INCH
T100C0.043307
T101C0.125984
T102C0.027559
T103C0.038000
%
T100
X012223Y020793
X012223Y023155
T101
X018128Y007407
X018128Y019218
T102
X013789Y011765
X011829Y011738
X011829Y012525
X011829Y014888
X011829Y013313
X013789Y010191
X011829Y010163
X013789Y016490
X013789Y010978
X011829Y015675
X011829Y016462
X013789Y015702
X011829Y014100
X013789Y014915
X013789Y013340
X011829Y010951
X013789Y012553
X013789Y014127
T103
X002765Y024757
X002765Y018427
X002765Y005435
X002765Y016096
X002765Y007434
X002765Y009765
X002765Y003104
X002765Y022757
X002765Y020427
X002765Y014096
X002765Y011765
X002765Y001104
T00
M30
