G04 MADE WITH FRITZING*
G04 WWW.FRITZING.ORG*
G04 DOUBLE SIDED*
G04 HOLES PLATED*
G04 CONTOUR ON CENTER OF CONTOUR VECTOR*
%FSLAX26Y26*%
%MOIN*%
%ADD10C,0.075000*%
%ADD11C,0.078000*%
%ADD12C,0.080000*%
%ADD13C,0.283464*%
%ADD14R,0.080000X0.080000*%
%ADD15C,0.032000*%
%ADD16C,0.000100*%
%G04COPPER0*%
%FSLAX26Y26*%
%MOIN*%
D10*
X119302Y1212816D03*
D11*
X970790Y878177D03*
X870790Y878177D03*
X770790Y878177D03*
X670790Y878177D03*
X970790Y1232510D03*
X870790Y1232510D03*
X770790Y1232510D03*
X670790Y1232510D03*
D12*
X280244Y127000D03*
X280244Y327000D03*
X831422Y645110D03*
X831422Y445110D03*
D13*
X731322Y166790D03*
X157322Y956788D03*
D14*
X280244Y127000D03*
X831422Y645110D03*
D15*
X794589Y1192743D02*
X477922Y959410D01*
D02*
X477922Y959410D02*
X477922Y442743D01*
D02*
X780546Y1216207D02*
X794586Y1192746D01*
D02*
X361256Y326080D02*
X300239Y326770D01*
D02*
X477922Y442743D02*
X361256Y326080D01*
D02*
X870789Y878177D02*
X872364Y879781D01*
D02*
X872367Y1192743D02*
X871544Y1213522D01*
D02*
X872367Y1153854D02*
X872367Y1192743D01*
D02*
X555700Y914966D02*
X872367Y1153854D01*
D02*
X555700Y403854D02*
X555700Y914966D01*
D02*
X361256Y209410D02*
X555700Y403854D01*
D02*
X294265Y141260D02*
X361259Y209410D01*
D16*
G36*
X144000Y998710D02*
X144000Y996710D01*
X140000Y996710D01*
X140000Y994710D01*
X136000Y994710D01*
X136000Y992710D01*
X132000Y992710D01*
X132000Y990710D01*
X130000Y990710D01*
X130000Y988710D01*
X128000Y988710D01*
X128000Y986710D01*
X126000Y986710D01*
X126000Y984710D01*
X124000Y984710D01*
X124000Y982710D01*
X122000Y982710D01*
X122000Y980710D01*
X120000Y980710D01*
X120000Y976710D01*
X118000Y976710D01*
X118000Y970710D01*
X116000Y970710D01*
X116000Y942710D01*
X118000Y942710D01*
X118000Y936710D01*
X120000Y936710D01*
X120000Y934710D01*
X122000Y934710D01*
X122000Y930710D01*
X124000Y930710D01*
X124000Y928710D01*
X126000Y928710D01*
X126000Y926710D01*
X128000Y926710D01*
X128000Y924710D01*
X130000Y924710D01*
X130000Y922710D01*
X132000Y922710D01*
X132000Y920710D01*
X136000Y920710D01*
X136000Y918710D01*
X140000Y918710D01*
X140000Y916710D01*
X144000Y916710D01*
X144000Y914710D01*
X170000Y914710D01*
X170000Y916710D01*
X176000Y916710D01*
X176000Y918710D01*
X180000Y918710D01*
X180000Y920710D01*
X182000Y920710D01*
X182000Y922710D01*
X184000Y922710D01*
X184000Y924710D01*
X186000Y924710D01*
X186000Y926710D01*
X188000Y926710D01*
X188000Y928710D01*
X190000Y928710D01*
X190000Y930710D01*
X192000Y930710D01*
X192000Y932710D01*
X194000Y932710D01*
X194000Y936710D01*
X196000Y936710D01*
X196000Y940710D01*
X198000Y940710D01*
X198000Y946710D01*
X200000Y946710D01*
X200000Y966710D01*
X198000Y966710D01*
X198000Y972710D01*
X196000Y972710D01*
X196000Y976710D01*
X194000Y976710D01*
X194000Y980710D01*
X192000Y980710D01*
X192000Y982710D01*
X190000Y982710D01*
X190000Y986710D01*
X188000Y986710D01*
X188000Y988710D01*
X184000Y988710D01*
X184000Y990710D01*
X182000Y990710D01*
X182000Y992710D01*
X180000Y992710D01*
X180000Y994710D01*
X176000Y994710D01*
X176000Y996710D01*
X170000Y996710D01*
X170000Y998710D01*
X144000Y998710D01*
G37*
D02*
G36*
X40000Y1290710D02*
X40000Y1118710D01*
X172000Y1118710D01*
X172000Y1116710D01*
X186000Y1116710D01*
X186000Y1114710D01*
X196000Y1114710D01*
X196000Y1112710D01*
X204000Y1112710D01*
X204000Y1110710D01*
X210000Y1110710D01*
X210000Y1108710D01*
X214000Y1108710D01*
X214000Y1106710D01*
X220000Y1106710D01*
X220000Y1104710D01*
X224000Y1104710D01*
X224000Y1102710D01*
X228000Y1102710D01*
X228000Y1100710D01*
X232000Y1100710D01*
X232000Y1098710D01*
X236000Y1098710D01*
X236000Y1096710D01*
X240000Y1096710D01*
X240000Y1094710D01*
X244000Y1094710D01*
X244000Y1092710D01*
X246000Y1092710D01*
X246000Y1090710D01*
X250000Y1090710D01*
X250000Y1088710D01*
X252000Y1088710D01*
X252000Y1086710D01*
X254000Y1086710D01*
X254000Y1084710D01*
X258000Y1084710D01*
X258000Y1082710D01*
X260000Y1082710D01*
X260000Y1080710D01*
X262000Y1080710D01*
X262000Y1078710D01*
X264000Y1078710D01*
X264000Y1076710D01*
X266000Y1076710D01*
X266000Y1074710D01*
X268000Y1074710D01*
X268000Y1072710D01*
X272000Y1072710D01*
X272000Y1068710D01*
X274000Y1068710D01*
X274000Y1066710D01*
X276000Y1066710D01*
X276000Y1064710D01*
X278000Y1064710D01*
X278000Y1062710D01*
X280000Y1062710D01*
X280000Y1060710D01*
X282000Y1060710D01*
X282000Y1058710D01*
X284000Y1058710D01*
X284000Y1056710D01*
X286000Y1056710D01*
X286000Y1052710D01*
X288000Y1052710D01*
X288000Y1050710D01*
X290000Y1050710D01*
X290000Y1048710D01*
X292000Y1048710D01*
X292000Y1044710D01*
X294000Y1044710D01*
X294000Y1040710D01*
X296000Y1040710D01*
X296000Y1038710D01*
X298000Y1038710D01*
X298000Y1034710D01*
X300000Y1034710D01*
X300000Y1030710D01*
X302000Y1030710D01*
X302000Y1026710D01*
X304000Y1026710D01*
X304000Y1022710D01*
X306000Y1022710D01*
X306000Y1018710D01*
X308000Y1018710D01*
X308000Y1012710D01*
X310000Y1012710D01*
X310000Y1006710D01*
X312000Y1006710D01*
X312000Y1000710D01*
X314000Y1000710D01*
X314000Y992710D01*
X316000Y992710D01*
X316000Y980710D01*
X318000Y980710D01*
X318000Y958710D01*
X320000Y958710D01*
X320000Y954710D01*
X318000Y954710D01*
X318000Y932710D01*
X316000Y932710D01*
X316000Y920710D01*
X314000Y920710D01*
X314000Y912710D01*
X312000Y912710D01*
X312000Y906710D01*
X310000Y906710D01*
X310000Y900710D01*
X308000Y900710D01*
X308000Y894710D01*
X306000Y894710D01*
X306000Y890710D01*
X304000Y890710D01*
X304000Y886710D01*
X302000Y886710D01*
X302000Y882710D01*
X300000Y882710D01*
X300000Y878710D01*
X298000Y878710D01*
X298000Y874710D01*
X296000Y874710D01*
X296000Y872710D01*
X294000Y872710D01*
X294000Y868710D01*
X292000Y868710D01*
X292000Y866710D01*
X290000Y866710D01*
X290000Y862710D01*
X288000Y862710D01*
X288000Y860710D01*
X286000Y860710D01*
X286000Y858710D01*
X284000Y858710D01*
X284000Y854710D01*
X282000Y854710D01*
X282000Y852710D01*
X280000Y852710D01*
X280000Y850710D01*
X278000Y850710D01*
X278000Y848710D01*
X276000Y848710D01*
X276000Y846710D01*
X274000Y846710D01*
X274000Y844710D01*
X272000Y844710D01*
X272000Y842710D01*
X270000Y842710D01*
X270000Y840710D01*
X268000Y840710D01*
X268000Y838710D01*
X266000Y838710D01*
X266000Y836710D01*
X264000Y836710D01*
X264000Y834710D01*
X262000Y834710D01*
X262000Y832710D01*
X260000Y832710D01*
X260000Y830710D01*
X258000Y830710D01*
X258000Y828710D01*
X254000Y828710D01*
X254000Y826710D01*
X252000Y826710D01*
X252000Y824710D01*
X250000Y824710D01*
X250000Y822710D01*
X246000Y822710D01*
X246000Y820710D01*
X242000Y820710D01*
X242000Y818710D01*
X240000Y818710D01*
X240000Y816710D01*
X236000Y816710D01*
X236000Y814710D01*
X232000Y814710D01*
X232000Y812710D01*
X228000Y812710D01*
X228000Y810710D01*
X224000Y810710D01*
X224000Y808710D01*
X220000Y808710D01*
X220000Y806710D01*
X214000Y806710D01*
X214000Y804710D01*
X210000Y804710D01*
X210000Y802710D01*
X202000Y802710D01*
X202000Y800710D01*
X196000Y800710D01*
X196000Y798710D01*
X186000Y798710D01*
X186000Y796710D01*
X170000Y796710D01*
X170000Y794710D01*
X442000Y794710D01*
X442000Y968710D01*
X444000Y968710D01*
X444000Y974710D01*
X446000Y974710D01*
X446000Y978710D01*
X448000Y978710D01*
X448000Y980710D01*
X450000Y980710D01*
X450000Y982710D01*
X452000Y982710D01*
X452000Y984710D01*
X454000Y984710D01*
X454000Y986710D01*
X456000Y986710D01*
X456000Y988710D01*
X458000Y988710D01*
X458000Y990710D01*
X462000Y990710D01*
X462000Y992710D01*
X464000Y992710D01*
X464000Y994710D01*
X466000Y994710D01*
X466000Y996710D01*
X470000Y996710D01*
X470000Y998710D01*
X472000Y998710D01*
X472000Y1000710D01*
X474000Y1000710D01*
X474000Y1002710D01*
X478000Y1002710D01*
X478000Y1004710D01*
X480000Y1004710D01*
X480000Y1006710D01*
X482000Y1006710D01*
X482000Y1008710D01*
X486000Y1008710D01*
X486000Y1010710D01*
X488000Y1010710D01*
X488000Y1012710D01*
X490000Y1012710D01*
X490000Y1014710D01*
X494000Y1014710D01*
X494000Y1016710D01*
X496000Y1016710D01*
X496000Y1018710D01*
X500000Y1018710D01*
X500000Y1020710D01*
X502000Y1020710D01*
X502000Y1022710D01*
X504000Y1022710D01*
X504000Y1024710D01*
X508000Y1024710D01*
X508000Y1026710D01*
X510000Y1026710D01*
X510000Y1028710D01*
X512000Y1028710D01*
X512000Y1030710D01*
X516000Y1030710D01*
X516000Y1032710D01*
X518000Y1032710D01*
X518000Y1034710D01*
X520000Y1034710D01*
X520000Y1036710D01*
X524000Y1036710D01*
X524000Y1038710D01*
X526000Y1038710D01*
X526000Y1040710D01*
X528000Y1040710D01*
X528000Y1042710D01*
X532000Y1042710D01*
X532000Y1044710D01*
X534000Y1044710D01*
X534000Y1046710D01*
X538000Y1046710D01*
X538000Y1048710D01*
X540000Y1048710D01*
X540000Y1050710D01*
X542000Y1050710D01*
X542000Y1052710D01*
X546000Y1052710D01*
X546000Y1054710D01*
X548000Y1054710D01*
X548000Y1056710D01*
X550000Y1056710D01*
X550000Y1058710D01*
X554000Y1058710D01*
X554000Y1060710D01*
X556000Y1060710D01*
X556000Y1062710D01*
X558000Y1062710D01*
X558000Y1064710D01*
X562000Y1064710D01*
X562000Y1066710D01*
X564000Y1066710D01*
X564000Y1068710D01*
X566000Y1068710D01*
X566000Y1070710D01*
X570000Y1070710D01*
X570000Y1072710D01*
X572000Y1072710D01*
X572000Y1074710D01*
X576000Y1074710D01*
X576000Y1076710D01*
X578000Y1076710D01*
X578000Y1078710D01*
X580000Y1078710D01*
X580000Y1080710D01*
X584000Y1080710D01*
X584000Y1082710D01*
X586000Y1082710D01*
X586000Y1084710D01*
X588000Y1084710D01*
X588000Y1086710D01*
X592000Y1086710D01*
X592000Y1088710D01*
X594000Y1088710D01*
X594000Y1090710D01*
X596000Y1090710D01*
X596000Y1092710D01*
X600000Y1092710D01*
X600000Y1094710D01*
X602000Y1094710D01*
X602000Y1096710D01*
X604000Y1096710D01*
X604000Y1098710D01*
X608000Y1098710D01*
X608000Y1100710D01*
X610000Y1100710D01*
X610000Y1102710D01*
X614000Y1102710D01*
X614000Y1104710D01*
X616000Y1104710D01*
X616000Y1106710D01*
X618000Y1106710D01*
X618000Y1108710D01*
X622000Y1108710D01*
X622000Y1110710D01*
X624000Y1110710D01*
X624000Y1112710D01*
X626000Y1112710D01*
X626000Y1114710D01*
X630000Y1114710D01*
X630000Y1116710D01*
X632000Y1116710D01*
X632000Y1118710D01*
X634000Y1118710D01*
X634000Y1120710D01*
X638000Y1120710D01*
X638000Y1122710D01*
X640000Y1122710D01*
X640000Y1124710D01*
X642000Y1124710D01*
X642000Y1126710D01*
X646000Y1126710D01*
X646000Y1128710D01*
X648000Y1128710D01*
X648000Y1130710D01*
X652000Y1130710D01*
X652000Y1132710D01*
X654000Y1132710D01*
X654000Y1134710D01*
X656000Y1134710D01*
X656000Y1136710D01*
X660000Y1136710D01*
X660000Y1138710D01*
X662000Y1138710D01*
X662000Y1140710D01*
X664000Y1140710D01*
X664000Y1142710D01*
X668000Y1142710D01*
X668000Y1144710D01*
X670000Y1144710D01*
X670000Y1146710D01*
X672000Y1146710D01*
X672000Y1148710D01*
X676000Y1148710D01*
X676000Y1150710D01*
X678000Y1150710D01*
X678000Y1152710D01*
X680000Y1152710D01*
X680000Y1154710D01*
X684000Y1154710D01*
X684000Y1172710D01*
X668000Y1172710D01*
X668000Y1174710D01*
X656000Y1174710D01*
X656000Y1176710D01*
X650000Y1176710D01*
X650000Y1178710D01*
X644000Y1178710D01*
X644000Y1180710D01*
X642000Y1180710D01*
X642000Y1182710D01*
X638000Y1182710D01*
X638000Y1184710D01*
X636000Y1184710D01*
X636000Y1186710D01*
X632000Y1186710D01*
X632000Y1188710D01*
X630000Y1188710D01*
X630000Y1190710D01*
X628000Y1190710D01*
X628000Y1192710D01*
X626000Y1192710D01*
X626000Y1196710D01*
X624000Y1196710D01*
X624000Y1198710D01*
X622000Y1198710D01*
X622000Y1200710D01*
X620000Y1200710D01*
X620000Y1204710D01*
X618000Y1204710D01*
X618000Y1208710D01*
X616000Y1208710D01*
X616000Y1212710D01*
X614000Y1212710D01*
X614000Y1220710D01*
X612000Y1220710D01*
X612000Y1242710D01*
X614000Y1242710D01*
X614000Y1250710D01*
X616000Y1250710D01*
X616000Y1256710D01*
X618000Y1256710D01*
X618000Y1260710D01*
X620000Y1260710D01*
X620000Y1264710D01*
X622000Y1264710D01*
X622000Y1266710D01*
X624000Y1266710D01*
X624000Y1268710D01*
X626000Y1268710D01*
X626000Y1270710D01*
X628000Y1270710D01*
X628000Y1290710D01*
X40000Y1290710D01*
G37*
D02*
G36*
X1014000Y1290710D02*
X1014000Y1270710D01*
X1016000Y1270710D01*
X1016000Y1268710D01*
X1018000Y1268710D01*
X1018000Y1266710D01*
X1020000Y1266710D01*
X1020000Y1262710D01*
X1022000Y1262710D01*
X1022000Y1260710D01*
X1024000Y1260710D01*
X1024000Y1256710D01*
X1026000Y1256710D01*
X1026000Y1250710D01*
X1028000Y1250710D01*
X1028000Y1240710D01*
X1030000Y1240710D01*
X1030000Y1224710D01*
X1028000Y1224710D01*
X1028000Y1214710D01*
X1026000Y1214710D01*
X1026000Y1208710D01*
X1024000Y1208710D01*
X1024000Y1204710D01*
X1022000Y1204710D01*
X1022000Y1202710D01*
X1020000Y1202710D01*
X1020000Y1198710D01*
X1018000Y1198710D01*
X1018000Y1196710D01*
X1016000Y1196710D01*
X1016000Y1194710D01*
X1014000Y1194710D01*
X1014000Y1190710D01*
X1012000Y1190710D01*
X1012000Y1188710D01*
X1008000Y1188710D01*
X1008000Y1186710D01*
X1006000Y1186710D01*
X1006000Y1184710D01*
X1004000Y1184710D01*
X1004000Y1182710D01*
X1000000Y1182710D01*
X1000000Y1180710D01*
X996000Y1180710D01*
X996000Y1178710D01*
X992000Y1178710D01*
X992000Y1176710D01*
X986000Y1176710D01*
X986000Y1174710D01*
X974000Y1174710D01*
X974000Y1172710D01*
X1082000Y1172710D01*
X1082000Y1290710D01*
X1014000Y1290710D01*
G37*
D02*
G36*
X908000Y1188710D02*
X908000Y1172710D01*
X968000Y1172710D01*
X968000Y1174710D01*
X956000Y1174710D01*
X956000Y1176710D01*
X950000Y1176710D01*
X950000Y1178710D01*
X944000Y1178710D01*
X944000Y1180710D01*
X942000Y1180710D01*
X942000Y1182710D01*
X938000Y1182710D01*
X938000Y1184710D01*
X936000Y1184710D01*
X936000Y1186710D01*
X932000Y1186710D01*
X932000Y1188710D01*
X908000Y1188710D01*
G37*
D02*
G36*
X908000Y1172710D02*
X908000Y1170710D01*
X1082000Y1170710D01*
X1082000Y1172710D01*
X908000Y1172710D01*
G37*
D02*
G36*
X908000Y1172710D02*
X908000Y1170710D01*
X1082000Y1170710D01*
X1082000Y1172710D01*
X908000Y1172710D01*
G37*
D02*
G36*
X908000Y1170710D02*
X908000Y1144710D01*
X906000Y1144710D01*
X906000Y1138710D01*
X904000Y1138710D01*
X904000Y1134710D01*
X902000Y1134710D01*
X902000Y1132710D01*
X900000Y1132710D01*
X900000Y1130710D01*
X898000Y1130710D01*
X898000Y1128710D01*
X896000Y1128710D01*
X896000Y1126710D01*
X894000Y1126710D01*
X894000Y1124710D01*
X892000Y1124710D01*
X892000Y1122710D01*
X890000Y1122710D01*
X890000Y1120710D01*
X886000Y1120710D01*
X886000Y1118710D01*
X884000Y1118710D01*
X884000Y1116710D01*
X882000Y1116710D01*
X882000Y1114710D01*
X878000Y1114710D01*
X878000Y1112710D01*
X876000Y1112710D01*
X876000Y1110710D01*
X874000Y1110710D01*
X874000Y1108710D01*
X870000Y1108710D01*
X870000Y1106710D01*
X868000Y1106710D01*
X868000Y1104710D01*
X866000Y1104710D01*
X866000Y1102710D01*
X864000Y1102710D01*
X864000Y1100710D01*
X860000Y1100710D01*
X860000Y1098710D01*
X858000Y1098710D01*
X858000Y1096710D01*
X856000Y1096710D01*
X856000Y1094710D01*
X852000Y1094710D01*
X852000Y1092710D01*
X850000Y1092710D01*
X850000Y1090710D01*
X848000Y1090710D01*
X848000Y1088710D01*
X844000Y1088710D01*
X844000Y1086710D01*
X842000Y1086710D01*
X842000Y1084710D01*
X840000Y1084710D01*
X840000Y1082710D01*
X836000Y1082710D01*
X836000Y1080710D01*
X834000Y1080710D01*
X834000Y1078710D01*
X832000Y1078710D01*
X832000Y1076710D01*
X828000Y1076710D01*
X828000Y1074710D01*
X826000Y1074710D01*
X826000Y1072710D01*
X824000Y1072710D01*
X824000Y1070710D01*
X820000Y1070710D01*
X820000Y1068710D01*
X818000Y1068710D01*
X818000Y1066710D01*
X816000Y1066710D01*
X816000Y1064710D01*
X812000Y1064710D01*
X812000Y1062710D01*
X810000Y1062710D01*
X810000Y1060710D01*
X808000Y1060710D01*
X808000Y1058710D01*
X804000Y1058710D01*
X804000Y1056710D01*
X802000Y1056710D01*
X802000Y1054710D01*
X800000Y1054710D01*
X800000Y1052710D01*
X796000Y1052710D01*
X796000Y1050710D01*
X794000Y1050710D01*
X794000Y1048710D01*
X792000Y1048710D01*
X792000Y1046710D01*
X788000Y1046710D01*
X788000Y1044710D01*
X786000Y1044710D01*
X786000Y1042710D01*
X784000Y1042710D01*
X784000Y1040710D01*
X780000Y1040710D01*
X780000Y1038710D01*
X778000Y1038710D01*
X778000Y1036710D01*
X776000Y1036710D01*
X776000Y1034710D01*
X772000Y1034710D01*
X772000Y1032710D01*
X770000Y1032710D01*
X770000Y1030710D01*
X768000Y1030710D01*
X768000Y1028710D01*
X764000Y1028710D01*
X764000Y1026710D01*
X762000Y1026710D01*
X762000Y1024710D01*
X760000Y1024710D01*
X760000Y1022710D01*
X756000Y1022710D01*
X756000Y1020710D01*
X754000Y1020710D01*
X754000Y1018710D01*
X752000Y1018710D01*
X752000Y1016710D01*
X750000Y1016710D01*
X750000Y1014710D01*
X746000Y1014710D01*
X746000Y1012710D01*
X744000Y1012710D01*
X744000Y1010710D01*
X742000Y1010710D01*
X742000Y1008710D01*
X738000Y1008710D01*
X738000Y1006710D01*
X736000Y1006710D01*
X736000Y1004710D01*
X734000Y1004710D01*
X734000Y1002710D01*
X730000Y1002710D01*
X730000Y1000710D01*
X728000Y1000710D01*
X728000Y998710D01*
X726000Y998710D01*
X726000Y996710D01*
X722000Y996710D01*
X722000Y994710D01*
X720000Y994710D01*
X720000Y992710D01*
X718000Y992710D01*
X718000Y990710D01*
X714000Y990710D01*
X714000Y988710D01*
X712000Y988710D01*
X712000Y986710D01*
X710000Y986710D01*
X710000Y984710D01*
X706000Y984710D01*
X706000Y982710D01*
X704000Y982710D01*
X704000Y980710D01*
X702000Y980710D01*
X702000Y978710D01*
X698000Y978710D01*
X698000Y976710D01*
X696000Y976710D01*
X696000Y974710D01*
X694000Y974710D01*
X694000Y972710D01*
X690000Y972710D01*
X690000Y970710D01*
X688000Y970710D01*
X688000Y968710D01*
X686000Y968710D01*
X686000Y966710D01*
X682000Y966710D01*
X682000Y964710D01*
X680000Y964710D01*
X680000Y962710D01*
X678000Y962710D01*
X678000Y960710D01*
X674000Y960710D01*
X674000Y958710D01*
X672000Y958710D01*
X672000Y956710D01*
X670000Y956710D01*
X670000Y936710D01*
X984000Y936710D01*
X984000Y934710D01*
X990000Y934710D01*
X990000Y932710D01*
X996000Y932710D01*
X996000Y930710D01*
X1000000Y930710D01*
X1000000Y928710D01*
X1002000Y928710D01*
X1002000Y926710D01*
X1006000Y926710D01*
X1006000Y924710D01*
X1008000Y924710D01*
X1008000Y922710D01*
X1010000Y922710D01*
X1010000Y920710D01*
X1012000Y920710D01*
X1012000Y918710D01*
X1014000Y918710D01*
X1014000Y916710D01*
X1016000Y916710D01*
X1016000Y914710D01*
X1018000Y914710D01*
X1018000Y912710D01*
X1020000Y912710D01*
X1020000Y908710D01*
X1022000Y908710D01*
X1022000Y904710D01*
X1024000Y904710D01*
X1024000Y900710D01*
X1026000Y900710D01*
X1026000Y896710D01*
X1028000Y896710D01*
X1028000Y886710D01*
X1030000Y886710D01*
X1030000Y870710D01*
X1028000Y870710D01*
X1028000Y860710D01*
X1026000Y860710D01*
X1026000Y854710D01*
X1024000Y854710D01*
X1024000Y850710D01*
X1022000Y850710D01*
X1022000Y846710D01*
X1020000Y846710D01*
X1020000Y844710D01*
X1018000Y844710D01*
X1018000Y842710D01*
X1016000Y842710D01*
X1016000Y838710D01*
X1014000Y838710D01*
X1014000Y836710D01*
X1012000Y836710D01*
X1012000Y834710D01*
X1010000Y834710D01*
X1010000Y832710D01*
X1006000Y832710D01*
X1006000Y830710D01*
X1004000Y830710D01*
X1004000Y828710D01*
X1002000Y828710D01*
X1002000Y826710D01*
X998000Y826710D01*
X998000Y824710D01*
X994000Y824710D01*
X994000Y822710D01*
X988000Y822710D01*
X988000Y820710D01*
X978000Y820710D01*
X978000Y818710D01*
X1082000Y818710D01*
X1082000Y1170710D01*
X908000Y1170710D01*
G37*
D02*
G36*
X40000Y1118710D02*
X40000Y1084710D01*
X60000Y1084710D01*
X60000Y1086710D01*
X62000Y1086710D01*
X62000Y1088710D01*
X66000Y1088710D01*
X66000Y1090710D01*
X68000Y1090710D01*
X68000Y1092710D01*
X72000Y1092710D01*
X72000Y1094710D01*
X74000Y1094710D01*
X74000Y1096710D01*
X78000Y1096710D01*
X78000Y1098710D01*
X82000Y1098710D01*
X82000Y1100710D01*
X86000Y1100710D01*
X86000Y1102710D01*
X90000Y1102710D01*
X90000Y1104710D01*
X94000Y1104710D01*
X94000Y1106710D01*
X100000Y1106710D01*
X100000Y1108710D01*
X106000Y1108710D01*
X106000Y1110710D01*
X112000Y1110710D01*
X112000Y1112710D01*
X118000Y1112710D01*
X118000Y1114710D01*
X128000Y1114710D01*
X128000Y1116710D01*
X142000Y1116710D01*
X142000Y1118710D01*
X40000Y1118710D01*
G37*
D02*
G36*
X684000Y936710D02*
X684000Y934710D01*
X690000Y934710D01*
X690000Y932710D01*
X696000Y932710D01*
X696000Y930710D01*
X700000Y930710D01*
X700000Y928710D01*
X702000Y928710D01*
X702000Y926710D01*
X706000Y926710D01*
X706000Y924710D01*
X708000Y924710D01*
X708000Y922710D01*
X710000Y922710D01*
X710000Y920710D01*
X732000Y920710D01*
X732000Y922710D01*
X734000Y922710D01*
X734000Y924710D01*
X736000Y924710D01*
X736000Y926710D01*
X740000Y926710D01*
X740000Y928710D01*
X742000Y928710D01*
X742000Y930710D01*
X746000Y930710D01*
X746000Y932710D01*
X752000Y932710D01*
X752000Y934710D01*
X758000Y934710D01*
X758000Y936710D01*
X684000Y936710D01*
G37*
D02*
G36*
X784000Y936710D02*
X784000Y934710D01*
X790000Y934710D01*
X790000Y932710D01*
X796000Y932710D01*
X796000Y930710D01*
X800000Y930710D01*
X800000Y928710D01*
X802000Y928710D01*
X802000Y926710D01*
X806000Y926710D01*
X806000Y924710D01*
X808000Y924710D01*
X808000Y922710D01*
X810000Y922710D01*
X810000Y920710D01*
X832000Y920710D01*
X832000Y922710D01*
X834000Y922710D01*
X834000Y924710D01*
X836000Y924710D01*
X836000Y926710D01*
X840000Y926710D01*
X840000Y928710D01*
X842000Y928710D01*
X842000Y930710D01*
X846000Y930710D01*
X846000Y932710D01*
X852000Y932710D01*
X852000Y934710D01*
X858000Y934710D01*
X858000Y936710D01*
X784000Y936710D01*
G37*
D02*
G36*
X884000Y936710D02*
X884000Y934710D01*
X890000Y934710D01*
X890000Y932710D01*
X896000Y932710D01*
X896000Y930710D01*
X900000Y930710D01*
X900000Y928710D01*
X902000Y928710D01*
X902000Y926710D01*
X906000Y926710D01*
X906000Y924710D01*
X908000Y924710D01*
X908000Y922710D01*
X910000Y922710D01*
X910000Y920710D01*
X932000Y920710D01*
X932000Y922710D01*
X934000Y922710D01*
X934000Y924710D01*
X936000Y924710D01*
X936000Y926710D01*
X940000Y926710D01*
X940000Y928710D01*
X942000Y928710D01*
X942000Y930710D01*
X946000Y930710D01*
X946000Y932710D01*
X952000Y932710D01*
X952000Y934710D01*
X958000Y934710D01*
X958000Y936710D01*
X884000Y936710D01*
G37*
D02*
G36*
X592000Y898710D02*
X592000Y818710D01*
X664000Y818710D01*
X664000Y820710D01*
X654000Y820710D01*
X654000Y822710D01*
X648000Y822710D01*
X648000Y824710D01*
X644000Y824710D01*
X644000Y826710D01*
X640000Y826710D01*
X640000Y828710D01*
X638000Y828710D01*
X638000Y830710D01*
X634000Y830710D01*
X634000Y832710D01*
X632000Y832710D01*
X632000Y834710D01*
X630000Y834710D01*
X630000Y836710D01*
X628000Y836710D01*
X628000Y838710D01*
X626000Y838710D01*
X626000Y840710D01*
X624000Y840710D01*
X624000Y844710D01*
X622000Y844710D01*
X622000Y846710D01*
X620000Y846710D01*
X620000Y850710D01*
X618000Y850710D01*
X618000Y854710D01*
X616000Y854710D01*
X616000Y858710D01*
X614000Y858710D01*
X614000Y866710D01*
X612000Y866710D01*
X612000Y888710D01*
X614000Y888710D01*
X614000Y898710D01*
X592000Y898710D01*
G37*
D02*
G36*
X710000Y834710D02*
X710000Y832710D01*
X706000Y832710D01*
X706000Y830710D01*
X704000Y830710D01*
X704000Y828710D01*
X702000Y828710D01*
X702000Y826710D01*
X698000Y826710D01*
X698000Y824710D01*
X694000Y824710D01*
X694000Y822710D01*
X688000Y822710D01*
X688000Y820710D01*
X678000Y820710D01*
X678000Y818710D01*
X764000Y818710D01*
X764000Y820710D01*
X754000Y820710D01*
X754000Y822710D01*
X748000Y822710D01*
X748000Y824710D01*
X744000Y824710D01*
X744000Y826710D01*
X740000Y826710D01*
X740000Y828710D01*
X738000Y828710D01*
X738000Y830710D01*
X734000Y830710D01*
X734000Y832710D01*
X732000Y832710D01*
X732000Y834710D01*
X710000Y834710D01*
G37*
D02*
G36*
X810000Y834710D02*
X810000Y832710D01*
X806000Y832710D01*
X806000Y830710D01*
X804000Y830710D01*
X804000Y828710D01*
X802000Y828710D01*
X802000Y826710D01*
X798000Y826710D01*
X798000Y824710D01*
X794000Y824710D01*
X794000Y822710D01*
X788000Y822710D01*
X788000Y820710D01*
X778000Y820710D01*
X778000Y818710D01*
X864000Y818710D01*
X864000Y820710D01*
X854000Y820710D01*
X854000Y822710D01*
X848000Y822710D01*
X848000Y824710D01*
X844000Y824710D01*
X844000Y826710D01*
X840000Y826710D01*
X840000Y828710D01*
X838000Y828710D01*
X838000Y830710D01*
X834000Y830710D01*
X834000Y832710D01*
X832000Y832710D01*
X832000Y834710D01*
X810000Y834710D01*
G37*
D02*
G36*
X910000Y834710D02*
X910000Y832710D01*
X906000Y832710D01*
X906000Y830710D01*
X904000Y830710D01*
X904000Y828710D01*
X902000Y828710D01*
X902000Y826710D01*
X898000Y826710D01*
X898000Y824710D01*
X894000Y824710D01*
X894000Y822710D01*
X888000Y822710D01*
X888000Y820710D01*
X878000Y820710D01*
X878000Y818710D01*
X964000Y818710D01*
X964000Y820710D01*
X954000Y820710D01*
X954000Y822710D01*
X948000Y822710D01*
X948000Y824710D01*
X944000Y824710D01*
X944000Y826710D01*
X940000Y826710D01*
X940000Y828710D01*
X938000Y828710D01*
X938000Y830710D01*
X934000Y830710D01*
X934000Y832710D01*
X932000Y832710D01*
X932000Y834710D01*
X910000Y834710D01*
G37*
D02*
G36*
X40000Y828710D02*
X40000Y794710D01*
X144000Y794710D01*
X144000Y796710D01*
X128000Y796710D01*
X128000Y798710D01*
X120000Y798710D01*
X120000Y800710D01*
X112000Y800710D01*
X112000Y802710D01*
X106000Y802710D01*
X106000Y804710D01*
X100000Y804710D01*
X100000Y806710D01*
X94000Y806710D01*
X94000Y808710D01*
X90000Y808710D01*
X90000Y810710D01*
X86000Y810710D01*
X86000Y812710D01*
X82000Y812710D01*
X82000Y814710D01*
X78000Y814710D01*
X78000Y816710D01*
X76000Y816710D01*
X76000Y818710D01*
X72000Y818710D01*
X72000Y820710D01*
X68000Y820710D01*
X68000Y822710D01*
X66000Y822710D01*
X66000Y824710D01*
X62000Y824710D01*
X62000Y826710D01*
X60000Y826710D01*
X60000Y828710D01*
X40000Y828710D01*
G37*
D02*
G36*
X592000Y818710D02*
X592000Y816710D01*
X1082000Y816710D01*
X1082000Y818710D01*
X592000Y818710D01*
G37*
D02*
G36*
X592000Y818710D02*
X592000Y816710D01*
X1082000Y816710D01*
X1082000Y818710D01*
X592000Y818710D01*
G37*
D02*
G36*
X592000Y818710D02*
X592000Y816710D01*
X1082000Y816710D01*
X1082000Y818710D01*
X592000Y818710D01*
G37*
D02*
G36*
X592000Y818710D02*
X592000Y816710D01*
X1082000Y816710D01*
X1082000Y818710D01*
X592000Y818710D01*
G37*
D02*
G36*
X592000Y818710D02*
X592000Y816710D01*
X1082000Y816710D01*
X1082000Y818710D01*
X592000Y818710D01*
G37*
D02*
G36*
X592000Y816710D02*
X592000Y704710D01*
X892000Y704710D01*
X892000Y584710D01*
X1082000Y584710D01*
X1082000Y816710D01*
X592000Y816710D01*
G37*
D02*
G36*
X40000Y794710D02*
X40000Y792710D01*
X442000Y792710D01*
X442000Y794710D01*
X40000Y794710D01*
G37*
D02*
G36*
X40000Y794710D02*
X40000Y792710D01*
X442000Y792710D01*
X442000Y794710D01*
X40000Y794710D01*
G37*
D02*
G36*
X40000Y792710D02*
X40000Y386710D01*
X292000Y386710D01*
X292000Y384710D01*
X300000Y384710D01*
X300000Y382710D01*
X304000Y382710D01*
X304000Y380710D01*
X308000Y380710D01*
X308000Y378710D01*
X312000Y378710D01*
X312000Y376710D01*
X314000Y376710D01*
X314000Y374710D01*
X318000Y374710D01*
X318000Y372710D01*
X320000Y372710D01*
X320000Y370710D01*
X322000Y370710D01*
X322000Y368710D01*
X324000Y368710D01*
X324000Y366710D01*
X326000Y366710D01*
X326000Y364710D01*
X328000Y364710D01*
X328000Y362710D01*
X348000Y362710D01*
X348000Y364710D01*
X350000Y364710D01*
X350000Y366710D01*
X352000Y366710D01*
X352000Y368710D01*
X354000Y368710D01*
X354000Y370710D01*
X356000Y370710D01*
X356000Y372710D01*
X358000Y372710D01*
X358000Y374710D01*
X360000Y374710D01*
X360000Y376710D01*
X362000Y376710D01*
X362000Y378710D01*
X364000Y378710D01*
X364000Y380710D01*
X366000Y380710D01*
X366000Y382710D01*
X368000Y382710D01*
X368000Y384710D01*
X370000Y384710D01*
X370000Y386710D01*
X372000Y386710D01*
X372000Y388710D01*
X374000Y388710D01*
X374000Y390710D01*
X376000Y390710D01*
X376000Y392710D01*
X378000Y392710D01*
X378000Y394710D01*
X380000Y394710D01*
X380000Y396710D01*
X382000Y396710D01*
X382000Y398710D01*
X384000Y398710D01*
X384000Y400710D01*
X386000Y400710D01*
X386000Y402710D01*
X388000Y402710D01*
X388000Y404710D01*
X390000Y404710D01*
X390000Y406710D01*
X392000Y406710D01*
X392000Y408710D01*
X394000Y408710D01*
X394000Y410710D01*
X396000Y410710D01*
X396000Y412710D01*
X398000Y412710D01*
X398000Y414710D01*
X400000Y414710D01*
X400000Y416710D01*
X402000Y416710D01*
X402000Y418710D01*
X404000Y418710D01*
X404000Y420710D01*
X406000Y420710D01*
X406000Y422710D01*
X408000Y422710D01*
X408000Y424710D01*
X410000Y424710D01*
X410000Y426710D01*
X412000Y426710D01*
X412000Y428710D01*
X414000Y428710D01*
X414000Y430710D01*
X416000Y430710D01*
X416000Y432710D01*
X418000Y432710D01*
X418000Y434710D01*
X420000Y434710D01*
X420000Y436710D01*
X422000Y436710D01*
X422000Y438710D01*
X424000Y438710D01*
X424000Y440710D01*
X426000Y440710D01*
X426000Y442710D01*
X428000Y442710D01*
X428000Y444710D01*
X430000Y444710D01*
X430000Y446710D01*
X432000Y446710D01*
X432000Y448710D01*
X434000Y448710D01*
X434000Y450710D01*
X436000Y450710D01*
X436000Y452710D01*
X438000Y452710D01*
X438000Y454710D01*
X440000Y454710D01*
X440000Y456710D01*
X442000Y456710D01*
X442000Y792710D01*
X40000Y792710D01*
G37*
D02*
G36*
X592000Y704710D02*
X592000Y584710D01*
X772000Y584710D01*
X772000Y704710D01*
X592000Y704710D01*
G37*
D02*
G36*
X592000Y584710D02*
X592000Y582710D01*
X1082000Y582710D01*
X1082000Y584710D01*
X592000Y584710D01*
G37*
D02*
G36*
X592000Y584710D02*
X592000Y582710D01*
X1082000Y582710D01*
X1082000Y584710D01*
X592000Y584710D01*
G37*
D02*
G36*
X592000Y582710D02*
X592000Y504710D01*
X844000Y504710D01*
X844000Y502710D01*
X852000Y502710D01*
X852000Y500710D01*
X856000Y500710D01*
X856000Y498710D01*
X860000Y498710D01*
X860000Y496710D01*
X864000Y496710D01*
X864000Y494710D01*
X866000Y494710D01*
X866000Y492710D01*
X868000Y492710D01*
X868000Y490710D01*
X872000Y490710D01*
X872000Y488710D01*
X874000Y488710D01*
X874000Y486710D01*
X876000Y486710D01*
X876000Y482710D01*
X878000Y482710D01*
X878000Y480710D01*
X880000Y480710D01*
X880000Y478710D01*
X882000Y478710D01*
X882000Y474710D01*
X884000Y474710D01*
X884000Y472710D01*
X886000Y472710D01*
X886000Y466710D01*
X888000Y466710D01*
X888000Y460710D01*
X890000Y460710D01*
X890000Y450710D01*
X892000Y450710D01*
X892000Y438710D01*
X890000Y438710D01*
X890000Y428710D01*
X888000Y428710D01*
X888000Y422710D01*
X886000Y422710D01*
X886000Y418710D01*
X884000Y418710D01*
X884000Y414710D01*
X882000Y414710D01*
X882000Y410710D01*
X880000Y410710D01*
X880000Y408710D01*
X878000Y408710D01*
X878000Y406710D01*
X876000Y406710D01*
X876000Y404710D01*
X874000Y404710D01*
X874000Y402710D01*
X872000Y402710D01*
X872000Y400710D01*
X870000Y400710D01*
X870000Y398710D01*
X868000Y398710D01*
X868000Y396710D01*
X866000Y396710D01*
X866000Y394710D01*
X862000Y394710D01*
X862000Y392710D01*
X858000Y392710D01*
X858000Y390710D01*
X854000Y390710D01*
X854000Y388710D01*
X848000Y388710D01*
X848000Y386710D01*
X838000Y386710D01*
X838000Y384710D01*
X1082000Y384710D01*
X1082000Y582710D01*
X592000Y582710D01*
G37*
D02*
G36*
X592000Y504710D02*
X592000Y396710D01*
X590000Y396710D01*
X590000Y390710D01*
X588000Y390710D01*
X588000Y386710D01*
X586000Y386710D01*
X586000Y384710D01*
X824000Y384710D01*
X824000Y386710D01*
X814000Y386710D01*
X814000Y388710D01*
X808000Y388710D01*
X808000Y390710D01*
X804000Y390710D01*
X804000Y392710D01*
X800000Y392710D01*
X800000Y394710D01*
X798000Y394710D01*
X798000Y396710D01*
X796000Y396710D01*
X796000Y398710D01*
X792000Y398710D01*
X792000Y400710D01*
X790000Y400710D01*
X790000Y402710D01*
X788000Y402710D01*
X788000Y404710D01*
X786000Y404710D01*
X786000Y406710D01*
X784000Y406710D01*
X784000Y410710D01*
X782000Y410710D01*
X782000Y412710D01*
X780000Y412710D01*
X780000Y416710D01*
X778000Y416710D01*
X778000Y420710D01*
X776000Y420710D01*
X776000Y424710D01*
X774000Y424710D01*
X774000Y432710D01*
X772000Y432710D01*
X772000Y458710D01*
X774000Y458710D01*
X774000Y464710D01*
X776000Y464710D01*
X776000Y470710D01*
X778000Y470710D01*
X778000Y474710D01*
X780000Y474710D01*
X780000Y476710D01*
X782000Y476710D01*
X782000Y480710D01*
X784000Y480710D01*
X784000Y482710D01*
X786000Y482710D01*
X786000Y484710D01*
X788000Y484710D01*
X788000Y486710D01*
X790000Y486710D01*
X790000Y488710D01*
X792000Y488710D01*
X792000Y490710D01*
X794000Y490710D01*
X794000Y492710D01*
X796000Y492710D01*
X796000Y494710D01*
X800000Y494710D01*
X800000Y496710D01*
X802000Y496710D01*
X802000Y498710D01*
X806000Y498710D01*
X806000Y500710D01*
X812000Y500710D01*
X812000Y502710D01*
X820000Y502710D01*
X820000Y504710D01*
X592000Y504710D01*
G37*
D02*
G36*
X40000Y386710D02*
X40000Y266710D01*
X272000Y266710D01*
X272000Y268710D01*
X262000Y268710D01*
X262000Y270710D01*
X256000Y270710D01*
X256000Y272710D01*
X252000Y272710D01*
X252000Y274710D01*
X250000Y274710D01*
X250000Y276710D01*
X246000Y276710D01*
X246000Y278710D01*
X244000Y278710D01*
X244000Y280710D01*
X242000Y280710D01*
X242000Y282710D01*
X238000Y282710D01*
X238000Y284710D01*
X236000Y284710D01*
X236000Y288710D01*
X234000Y288710D01*
X234000Y290710D01*
X232000Y290710D01*
X232000Y292710D01*
X230000Y292710D01*
X230000Y296710D01*
X228000Y296710D01*
X228000Y298710D01*
X226000Y298710D01*
X226000Y302710D01*
X224000Y302710D01*
X224000Y308710D01*
X222000Y308710D01*
X222000Y318710D01*
X220000Y318710D01*
X220000Y334710D01*
X222000Y334710D01*
X222000Y344710D01*
X224000Y344710D01*
X224000Y350710D01*
X226000Y350710D01*
X226000Y354710D01*
X228000Y354710D01*
X228000Y358710D01*
X230000Y358710D01*
X230000Y360710D01*
X232000Y360710D01*
X232000Y362710D01*
X234000Y362710D01*
X234000Y366710D01*
X236000Y366710D01*
X236000Y368710D01*
X238000Y368710D01*
X238000Y370710D01*
X240000Y370710D01*
X240000Y372710D01*
X244000Y372710D01*
X244000Y374710D01*
X246000Y374710D01*
X246000Y376710D01*
X248000Y376710D01*
X248000Y378710D01*
X252000Y378710D01*
X252000Y380710D01*
X256000Y380710D01*
X256000Y382710D01*
X260000Y382710D01*
X260000Y384710D01*
X268000Y384710D01*
X268000Y386710D01*
X40000Y386710D01*
G37*
D02*
G36*
X586000Y384710D02*
X586000Y382710D01*
X1082000Y382710D01*
X1082000Y384710D01*
X586000Y384710D01*
G37*
D02*
G36*
X586000Y384710D02*
X586000Y382710D01*
X1082000Y382710D01*
X1082000Y384710D01*
X586000Y384710D01*
G37*
D02*
G36*
X584000Y382710D02*
X584000Y380710D01*
X582000Y380710D01*
X582000Y378710D01*
X580000Y378710D01*
X580000Y376710D01*
X578000Y376710D01*
X578000Y374710D01*
X576000Y374710D01*
X576000Y372710D01*
X574000Y372710D01*
X574000Y370710D01*
X572000Y370710D01*
X572000Y368710D01*
X570000Y368710D01*
X570000Y366710D01*
X568000Y366710D01*
X568000Y364710D01*
X566000Y364710D01*
X566000Y362710D01*
X564000Y362710D01*
X564000Y360710D01*
X562000Y360710D01*
X562000Y358710D01*
X560000Y358710D01*
X560000Y356710D01*
X558000Y356710D01*
X558000Y354710D01*
X556000Y354710D01*
X556000Y352710D01*
X554000Y352710D01*
X554000Y350710D01*
X552000Y350710D01*
X552000Y348710D01*
X550000Y348710D01*
X550000Y346710D01*
X548000Y346710D01*
X548000Y344710D01*
X546000Y344710D01*
X546000Y342710D01*
X544000Y342710D01*
X544000Y340710D01*
X542000Y340710D01*
X542000Y338710D01*
X540000Y338710D01*
X540000Y336710D01*
X538000Y336710D01*
X538000Y334710D01*
X536000Y334710D01*
X536000Y332710D01*
X534000Y332710D01*
X534000Y330710D01*
X532000Y330710D01*
X532000Y328710D01*
X746000Y328710D01*
X746000Y326710D01*
X760000Y326710D01*
X760000Y324710D01*
X770000Y324710D01*
X770000Y322710D01*
X778000Y322710D01*
X778000Y320710D01*
X784000Y320710D01*
X784000Y318710D01*
X788000Y318710D01*
X788000Y316710D01*
X794000Y316710D01*
X794000Y314710D01*
X798000Y314710D01*
X798000Y312710D01*
X802000Y312710D01*
X802000Y310710D01*
X806000Y310710D01*
X806000Y308710D01*
X810000Y308710D01*
X810000Y306710D01*
X814000Y306710D01*
X814000Y304710D01*
X818000Y304710D01*
X818000Y302710D01*
X820000Y302710D01*
X820000Y300710D01*
X824000Y300710D01*
X824000Y298710D01*
X826000Y298710D01*
X826000Y296710D01*
X828000Y296710D01*
X828000Y294710D01*
X832000Y294710D01*
X832000Y292710D01*
X834000Y292710D01*
X834000Y290710D01*
X836000Y290710D01*
X836000Y288710D01*
X838000Y288710D01*
X838000Y286710D01*
X840000Y286710D01*
X840000Y284710D01*
X842000Y284710D01*
X842000Y282710D01*
X846000Y282710D01*
X846000Y278710D01*
X848000Y278710D01*
X848000Y276710D01*
X850000Y276710D01*
X850000Y274710D01*
X852000Y274710D01*
X852000Y272710D01*
X854000Y272710D01*
X854000Y270710D01*
X856000Y270710D01*
X856000Y268710D01*
X858000Y268710D01*
X858000Y266710D01*
X860000Y266710D01*
X860000Y262710D01*
X862000Y262710D01*
X862000Y260710D01*
X864000Y260710D01*
X864000Y258710D01*
X866000Y258710D01*
X866000Y254710D01*
X868000Y254710D01*
X868000Y250710D01*
X870000Y250710D01*
X870000Y248710D01*
X872000Y248710D01*
X872000Y244710D01*
X874000Y244710D01*
X874000Y240710D01*
X876000Y240710D01*
X876000Y236710D01*
X878000Y236710D01*
X878000Y232710D01*
X880000Y232710D01*
X880000Y228710D01*
X882000Y228710D01*
X882000Y222710D01*
X884000Y222710D01*
X884000Y216710D01*
X886000Y216710D01*
X886000Y210710D01*
X888000Y210710D01*
X888000Y202710D01*
X890000Y202710D01*
X890000Y190710D01*
X892000Y190710D01*
X892000Y168710D01*
X894000Y168710D01*
X894000Y164710D01*
X892000Y164710D01*
X892000Y142710D01*
X890000Y142710D01*
X890000Y130710D01*
X888000Y130710D01*
X888000Y122710D01*
X886000Y122710D01*
X886000Y116710D01*
X884000Y116710D01*
X884000Y110710D01*
X882000Y110710D01*
X882000Y104710D01*
X880000Y104710D01*
X880000Y100710D01*
X878000Y100710D01*
X878000Y96710D01*
X876000Y96710D01*
X876000Y92710D01*
X874000Y92710D01*
X874000Y88710D01*
X872000Y88710D01*
X872000Y84710D01*
X870000Y84710D01*
X870000Y82710D01*
X868000Y82710D01*
X868000Y78710D01*
X866000Y78710D01*
X866000Y76710D01*
X864000Y76710D01*
X864000Y72710D01*
X862000Y72710D01*
X862000Y70710D01*
X860000Y70710D01*
X860000Y68710D01*
X858000Y68710D01*
X858000Y64710D01*
X856000Y64710D01*
X856000Y62710D01*
X854000Y62710D01*
X854000Y60710D01*
X852000Y60710D01*
X852000Y40710D01*
X1082000Y40710D01*
X1082000Y382710D01*
X584000Y382710D01*
G37*
D02*
G36*
X530000Y328710D02*
X530000Y326710D01*
X528000Y326710D01*
X528000Y324710D01*
X526000Y324710D01*
X526000Y322710D01*
X524000Y322710D01*
X524000Y320710D01*
X522000Y320710D01*
X522000Y318710D01*
X520000Y318710D01*
X520000Y316710D01*
X518000Y316710D01*
X518000Y314710D01*
X516000Y314710D01*
X516000Y312710D01*
X514000Y312710D01*
X514000Y310710D01*
X512000Y310710D01*
X512000Y308710D01*
X510000Y308710D01*
X510000Y306710D01*
X508000Y306710D01*
X508000Y304710D01*
X506000Y304710D01*
X506000Y302710D01*
X504000Y302710D01*
X504000Y300710D01*
X502000Y300710D01*
X502000Y298710D01*
X500000Y298710D01*
X500000Y296710D01*
X498000Y296710D01*
X498000Y294710D01*
X496000Y294710D01*
X496000Y292710D01*
X494000Y292710D01*
X494000Y290710D01*
X492000Y290710D01*
X492000Y288710D01*
X490000Y288710D01*
X490000Y286710D01*
X488000Y286710D01*
X488000Y284710D01*
X486000Y284710D01*
X486000Y282710D01*
X484000Y282710D01*
X484000Y280710D01*
X482000Y280710D01*
X482000Y278710D01*
X480000Y278710D01*
X480000Y276710D01*
X478000Y276710D01*
X478000Y274710D01*
X476000Y274710D01*
X476000Y272710D01*
X474000Y272710D01*
X474000Y270710D01*
X472000Y270710D01*
X472000Y268710D01*
X470000Y268710D01*
X470000Y266710D01*
X468000Y266710D01*
X468000Y264710D01*
X466000Y264710D01*
X466000Y262710D01*
X464000Y262710D01*
X464000Y260710D01*
X462000Y260710D01*
X462000Y258710D01*
X460000Y258710D01*
X460000Y256710D01*
X458000Y256710D01*
X458000Y254710D01*
X456000Y254710D01*
X456000Y252710D01*
X454000Y252710D01*
X454000Y250710D01*
X452000Y250710D01*
X452000Y248710D01*
X450000Y248710D01*
X450000Y246710D01*
X448000Y246710D01*
X448000Y244710D01*
X446000Y244710D01*
X446000Y242710D01*
X444000Y242710D01*
X444000Y240710D01*
X442000Y240710D01*
X442000Y238710D01*
X440000Y238710D01*
X440000Y236710D01*
X438000Y236710D01*
X438000Y234710D01*
X436000Y234710D01*
X436000Y232710D01*
X434000Y232710D01*
X434000Y230710D01*
X432000Y230710D01*
X432000Y228710D01*
X430000Y228710D01*
X430000Y226710D01*
X428000Y226710D01*
X428000Y224710D01*
X426000Y224710D01*
X426000Y222710D01*
X424000Y222710D01*
X424000Y220710D01*
X422000Y220710D01*
X422000Y218710D01*
X420000Y218710D01*
X420000Y216710D01*
X418000Y216710D01*
X418000Y214710D01*
X416000Y214710D01*
X416000Y212710D01*
X414000Y212710D01*
X414000Y210710D01*
X412000Y210710D01*
X412000Y208710D01*
X410000Y208710D01*
X410000Y206710D01*
X408000Y206710D01*
X408000Y204710D01*
X406000Y204710D01*
X406000Y202710D01*
X404000Y202710D01*
X404000Y200710D01*
X402000Y200710D01*
X402000Y198710D01*
X400000Y198710D01*
X400000Y196710D01*
X398000Y196710D01*
X398000Y194710D01*
X396000Y194710D01*
X396000Y192710D01*
X394000Y192710D01*
X394000Y190710D01*
X392000Y190710D01*
X392000Y188710D01*
X390000Y188710D01*
X390000Y186710D01*
X388000Y186710D01*
X388000Y184710D01*
X386000Y184710D01*
X386000Y182710D01*
X384000Y182710D01*
X384000Y180710D01*
X382000Y180710D01*
X382000Y178710D01*
X380000Y178710D01*
X380000Y176710D01*
X378000Y176710D01*
X378000Y174710D01*
X376000Y174710D01*
X376000Y172710D01*
X374000Y172710D01*
X374000Y170710D01*
X372000Y170710D01*
X372000Y168710D01*
X370000Y168710D01*
X370000Y166710D01*
X368000Y166710D01*
X368000Y164710D01*
X366000Y164710D01*
X366000Y162710D01*
X364000Y162710D01*
X364000Y160710D01*
X362000Y160710D01*
X362000Y158710D01*
X360000Y158710D01*
X360000Y156710D01*
X358000Y156710D01*
X358000Y154710D01*
X356000Y154710D01*
X356000Y150710D01*
X354000Y150710D01*
X354000Y148710D01*
X352000Y148710D01*
X352000Y146710D01*
X350000Y146710D01*
X350000Y144710D01*
X348000Y144710D01*
X348000Y142710D01*
X346000Y142710D01*
X346000Y140710D01*
X344000Y140710D01*
X344000Y138710D01*
X342000Y138710D01*
X342000Y136710D01*
X340000Y136710D01*
X340000Y66710D01*
X604000Y66710D01*
X604000Y68710D01*
X602000Y68710D01*
X602000Y70710D01*
X600000Y70710D01*
X600000Y74710D01*
X598000Y74710D01*
X598000Y76710D01*
X596000Y76710D01*
X596000Y80710D01*
X594000Y80710D01*
X594000Y82710D01*
X592000Y82710D01*
X592000Y86710D01*
X590000Y86710D01*
X590000Y90710D01*
X588000Y90710D01*
X588000Y94710D01*
X586000Y94710D01*
X586000Y98710D01*
X584000Y98710D01*
X584000Y102710D01*
X582000Y102710D01*
X582000Y106710D01*
X580000Y106710D01*
X580000Y112710D01*
X578000Y112710D01*
X578000Y118710D01*
X576000Y118710D01*
X576000Y126710D01*
X574000Y126710D01*
X574000Y134710D01*
X572000Y134710D01*
X572000Y146710D01*
X570000Y146710D01*
X570000Y186710D01*
X572000Y186710D01*
X572000Y200710D01*
X574000Y200710D01*
X574000Y206710D01*
X576000Y206710D01*
X576000Y214710D01*
X578000Y214710D01*
X578000Y220710D01*
X580000Y220710D01*
X580000Y226710D01*
X582000Y226710D01*
X582000Y230710D01*
X584000Y230710D01*
X584000Y234710D01*
X586000Y234710D01*
X586000Y238710D01*
X588000Y238710D01*
X588000Y242710D01*
X590000Y242710D01*
X590000Y246710D01*
X592000Y246710D01*
X592000Y250710D01*
X594000Y250710D01*
X594000Y252710D01*
X596000Y252710D01*
X596000Y256710D01*
X598000Y256710D01*
X598000Y258710D01*
X600000Y258710D01*
X600000Y262710D01*
X602000Y262710D01*
X602000Y264710D01*
X604000Y264710D01*
X604000Y266710D01*
X606000Y266710D01*
X606000Y270710D01*
X608000Y270710D01*
X608000Y272710D01*
X610000Y272710D01*
X610000Y274710D01*
X612000Y274710D01*
X612000Y276710D01*
X614000Y276710D01*
X614000Y278710D01*
X616000Y278710D01*
X616000Y280710D01*
X618000Y280710D01*
X618000Y282710D01*
X620000Y282710D01*
X620000Y284710D01*
X622000Y284710D01*
X622000Y286710D01*
X624000Y286710D01*
X624000Y288710D01*
X626000Y288710D01*
X626000Y290710D01*
X628000Y290710D01*
X628000Y292710D01*
X632000Y292710D01*
X632000Y294710D01*
X634000Y294710D01*
X634000Y296710D01*
X636000Y296710D01*
X636000Y298710D01*
X640000Y298710D01*
X640000Y300710D01*
X642000Y300710D01*
X642000Y302710D01*
X646000Y302710D01*
X646000Y304710D01*
X648000Y304710D01*
X648000Y306710D01*
X652000Y306710D01*
X652000Y308710D01*
X656000Y308710D01*
X656000Y310710D01*
X660000Y310710D01*
X660000Y312710D01*
X664000Y312710D01*
X664000Y314710D01*
X668000Y314710D01*
X668000Y316710D01*
X674000Y316710D01*
X674000Y318710D01*
X680000Y318710D01*
X680000Y320710D01*
X686000Y320710D01*
X686000Y322710D01*
X692000Y322710D01*
X692000Y324710D01*
X702000Y324710D01*
X702000Y326710D01*
X716000Y326710D01*
X716000Y328710D01*
X530000Y328710D01*
G37*
D02*
G36*
X326000Y290710D02*
X326000Y286710D01*
X324000Y286710D01*
X324000Y284710D01*
X322000Y284710D01*
X322000Y282710D01*
X320000Y282710D01*
X320000Y280710D01*
X316000Y280710D01*
X316000Y278710D01*
X314000Y278710D01*
X314000Y276710D01*
X312000Y276710D01*
X312000Y274710D01*
X308000Y274710D01*
X308000Y272710D01*
X304000Y272710D01*
X304000Y270710D01*
X298000Y270710D01*
X298000Y268710D01*
X288000Y268710D01*
X288000Y266710D01*
X368000Y266710D01*
X368000Y268710D01*
X370000Y268710D01*
X370000Y270710D01*
X372000Y270710D01*
X372000Y272710D01*
X374000Y272710D01*
X374000Y290710D01*
X326000Y290710D01*
G37*
D02*
G36*
X40000Y266710D02*
X40000Y264710D01*
X366000Y264710D01*
X366000Y266710D01*
X40000Y266710D01*
G37*
D02*
G36*
X40000Y266710D02*
X40000Y264710D01*
X366000Y264710D01*
X366000Y266710D01*
X40000Y266710D01*
G37*
D02*
G36*
X40000Y264710D02*
X40000Y66710D01*
X220000Y66710D01*
X220000Y186710D01*
X290000Y186710D01*
X290000Y188710D01*
X292000Y188710D01*
X292000Y190710D01*
X294000Y190710D01*
X294000Y192710D01*
X296000Y192710D01*
X296000Y194710D01*
X298000Y194710D01*
X298000Y196710D01*
X300000Y196710D01*
X300000Y198710D01*
X302000Y198710D01*
X302000Y200710D01*
X304000Y200710D01*
X304000Y202710D01*
X306000Y202710D01*
X306000Y204710D01*
X308000Y204710D01*
X308000Y206710D01*
X310000Y206710D01*
X310000Y208710D01*
X312000Y208710D01*
X312000Y210710D01*
X314000Y210710D01*
X314000Y212710D01*
X316000Y212710D01*
X316000Y216710D01*
X318000Y216710D01*
X318000Y218710D01*
X320000Y218710D01*
X320000Y220710D01*
X322000Y220710D01*
X322000Y222710D01*
X324000Y222710D01*
X324000Y224710D01*
X326000Y224710D01*
X326000Y226710D01*
X328000Y226710D01*
X328000Y228710D01*
X330000Y228710D01*
X330000Y230710D01*
X332000Y230710D01*
X332000Y232710D01*
X334000Y232710D01*
X334000Y234710D01*
X336000Y234710D01*
X336000Y236710D01*
X338000Y236710D01*
X338000Y238710D01*
X340000Y238710D01*
X340000Y240710D01*
X342000Y240710D01*
X342000Y242710D01*
X344000Y242710D01*
X344000Y244710D01*
X346000Y244710D01*
X346000Y246710D01*
X348000Y246710D01*
X348000Y248710D01*
X350000Y248710D01*
X350000Y250710D01*
X352000Y250710D01*
X352000Y252710D01*
X354000Y252710D01*
X354000Y254710D01*
X356000Y254710D01*
X356000Y256710D01*
X358000Y256710D01*
X358000Y258710D01*
X360000Y258710D01*
X360000Y260710D01*
X362000Y260710D01*
X362000Y262710D01*
X364000Y262710D01*
X364000Y264710D01*
X40000Y264710D01*
G37*
D02*
G36*
X40000Y66710D02*
X40000Y64710D01*
X606000Y64710D01*
X606000Y66710D01*
X40000Y66710D01*
G37*
D02*
G36*
X40000Y66710D02*
X40000Y64710D01*
X606000Y64710D01*
X606000Y66710D01*
X40000Y66710D01*
G37*
D02*
G36*
X40000Y64710D02*
X40000Y40710D01*
X610000Y40710D01*
X610000Y60710D01*
X608000Y60710D01*
X608000Y62710D01*
X606000Y62710D01*
X606000Y64710D01*
X40000Y64710D01*
G37*
D02*
G36*
X718000Y208710D02*
X718000Y206710D01*
X714000Y206710D01*
X714000Y204710D01*
X710000Y204710D01*
X710000Y202710D01*
X706000Y202710D01*
X706000Y200710D01*
X704000Y200710D01*
X704000Y198710D01*
X702000Y198710D01*
X702000Y196710D01*
X700000Y196710D01*
X700000Y194710D01*
X698000Y194710D01*
X698000Y192710D01*
X696000Y192710D01*
X696000Y190710D01*
X694000Y190710D01*
X694000Y186710D01*
X692000Y186710D01*
X692000Y180710D01*
X690000Y180710D01*
X690000Y152710D01*
X692000Y152710D01*
X692000Y146710D01*
X694000Y146710D01*
X694000Y144710D01*
X696000Y144710D01*
X696000Y140710D01*
X698000Y140710D01*
X698000Y138710D01*
X700000Y138710D01*
X700000Y136710D01*
X702000Y136710D01*
X702000Y134710D01*
X704000Y134710D01*
X704000Y132710D01*
X706000Y132710D01*
X706000Y130710D01*
X710000Y130710D01*
X710000Y128710D01*
X714000Y128710D01*
X714000Y126710D01*
X718000Y126710D01*
X718000Y124710D01*
X744000Y124710D01*
X744000Y126710D01*
X750000Y126710D01*
X750000Y128710D01*
X754000Y128710D01*
X754000Y130710D01*
X756000Y130710D01*
X756000Y132710D01*
X758000Y132710D01*
X758000Y134710D01*
X760000Y134710D01*
X760000Y136710D01*
X762000Y136710D01*
X762000Y138710D01*
X764000Y138710D01*
X764000Y140710D01*
X766000Y140710D01*
X766000Y142710D01*
X768000Y142710D01*
X768000Y146710D01*
X770000Y146710D01*
X770000Y150710D01*
X772000Y150710D01*
X772000Y156710D01*
X774000Y156710D01*
X774000Y176710D01*
X772000Y176710D01*
X772000Y182710D01*
X770000Y182710D01*
X770000Y186710D01*
X768000Y186710D01*
X768000Y190710D01*
X766000Y190710D01*
X766000Y192710D01*
X764000Y192710D01*
X764000Y196710D01*
X762000Y196710D01*
X762000Y198710D01*
X758000Y198710D01*
X758000Y200710D01*
X756000Y200710D01*
X756000Y202710D01*
X754000Y202710D01*
X754000Y204710D01*
X750000Y204710D01*
X750000Y206710D01*
X744000Y206710D01*
X744000Y208710D01*
X718000Y208710D01*
G37*
D02*
G04 End of Copper0*
M02*