G04 MADE WITH FRITZING*
G04 WWW.FRITZING.ORG*
G04 DOUBLE SIDED*
G04 HOLES PLATED*
G04 CONTOUR ON CENTER OF CONTOUR VECTOR*
%FSLAX26Y26*%
%MOIN*%
%ADD10C,0.075000*%
%ADD11C,0.204725*%
%ADD12C,0.000100*%
%G04COPPER0*%
%FSLAX26Y26*%
%MOIN*%
D10*
X3073280Y1676605D03*
X379393Y1799367D03*
X3900640Y1046605D03*
D11*
X1336590Y1758853D03*
X1336590Y144680D03*
X4998010Y144680D03*
X4998010Y1758853D03*
X6125120Y1704602D03*
X6125120Y208550D03*
X219617Y208550D03*
X219617Y1704609D03*
D12*
G36*
X1326000Y1801450D02*
X1326000Y1799450D01*
X1320000Y1799450D01*
X1320000Y1797450D01*
X1316000Y1797450D01*
X1316000Y1795450D01*
X1312000Y1795450D01*
X1312000Y1793450D01*
X1310000Y1793450D01*
X1310000Y1791450D01*
X1308000Y1791450D01*
X1308000Y1789450D01*
X1306000Y1789450D01*
X1306000Y1787450D01*
X1304000Y1787450D01*
X1304000Y1785450D01*
X1302000Y1785450D01*
X1302000Y1783450D01*
X1300000Y1783450D01*
X1300000Y1779450D01*
X1298000Y1779450D01*
X1298000Y1775450D01*
X1296000Y1775450D01*
X1296000Y1769450D01*
X1294000Y1769450D01*
X1294000Y1747450D01*
X1296000Y1747450D01*
X1296000Y1741450D01*
X1298000Y1741450D01*
X1298000Y1737450D01*
X1300000Y1737450D01*
X1300000Y1735450D01*
X1302000Y1735450D01*
X1302000Y1731450D01*
X1304000Y1731450D01*
X1304000Y1729450D01*
X1306000Y1729450D01*
X1306000Y1727450D01*
X1308000Y1727450D01*
X1308000Y1725450D01*
X1310000Y1725450D01*
X1310000Y1723450D01*
X1314000Y1723450D01*
X1314000Y1721450D01*
X1318000Y1721450D01*
X1318000Y1719450D01*
X1322000Y1719450D01*
X1322000Y1717450D01*
X1352000Y1717450D01*
X1352000Y1719450D01*
X1356000Y1719450D01*
X1356000Y1721450D01*
X1360000Y1721450D01*
X1360000Y1723450D01*
X1362000Y1723450D01*
X1362000Y1725450D01*
X1364000Y1725450D01*
X1364000Y1727450D01*
X1366000Y1727450D01*
X1366000Y1729450D01*
X1368000Y1729450D01*
X1368000Y1731450D01*
X1370000Y1731450D01*
X1370000Y1733450D01*
X1372000Y1733450D01*
X1372000Y1735450D01*
X1374000Y1735450D01*
X1374000Y1739450D01*
X1376000Y1739450D01*
X1376000Y1743450D01*
X1378000Y1743450D01*
X1378000Y1773450D01*
X1376000Y1773450D01*
X1376000Y1777450D01*
X1374000Y1777450D01*
X1374000Y1781450D01*
X1372000Y1781450D01*
X1372000Y1785450D01*
X1370000Y1785450D01*
X1370000Y1787450D01*
X1368000Y1787450D01*
X1368000Y1789450D01*
X1366000Y1789450D01*
X1366000Y1791450D01*
X1364000Y1791450D01*
X1364000Y1793450D01*
X1360000Y1793450D01*
X1360000Y1795450D01*
X1358000Y1795450D01*
X1358000Y1797450D01*
X1354000Y1797450D01*
X1354000Y1799450D01*
X1348000Y1799450D01*
X1348000Y1801450D01*
X1326000Y1801450D01*
G37*
D02*
G36*
X4988000Y1801450D02*
X4988000Y1799450D01*
X4982000Y1799450D01*
X4982000Y1797450D01*
X4978000Y1797450D01*
X4978000Y1795450D01*
X4974000Y1795450D01*
X4974000Y1793450D01*
X4972000Y1793450D01*
X4972000Y1791450D01*
X4970000Y1791450D01*
X4970000Y1789450D01*
X4966000Y1789450D01*
X4966000Y1785450D01*
X4964000Y1785450D01*
X4964000Y1783450D01*
X4962000Y1783450D01*
X4962000Y1781450D01*
X4960000Y1781450D01*
X4960000Y1777450D01*
X4958000Y1777450D01*
X4958000Y1771450D01*
X4956000Y1771450D01*
X4956000Y1745450D01*
X4958000Y1745450D01*
X4958000Y1741450D01*
X4960000Y1741450D01*
X4960000Y1737450D01*
X4962000Y1737450D01*
X4962000Y1733450D01*
X4964000Y1733450D01*
X4964000Y1731450D01*
X4966000Y1731450D01*
X4966000Y1729450D01*
X4968000Y1729450D01*
X4968000Y1727450D01*
X4970000Y1727450D01*
X4970000Y1725450D01*
X4972000Y1725450D01*
X4972000Y1723450D01*
X4976000Y1723450D01*
X4976000Y1721450D01*
X4978000Y1721450D01*
X4978000Y1719450D01*
X4984000Y1719450D01*
X4984000Y1717450D01*
X5012000Y1717450D01*
X5012000Y1719450D01*
X5018000Y1719450D01*
X5018000Y1721450D01*
X5022000Y1721450D01*
X5022000Y1723450D01*
X5024000Y1723450D01*
X5024000Y1725450D01*
X5026000Y1725450D01*
X5026000Y1727450D01*
X5028000Y1727450D01*
X5028000Y1729450D01*
X5030000Y1729450D01*
X5030000Y1731450D01*
X5032000Y1731450D01*
X5032000Y1733450D01*
X5034000Y1733450D01*
X5034000Y1737450D01*
X5036000Y1737450D01*
X5036000Y1741450D01*
X5038000Y1741450D01*
X5038000Y1745450D01*
X5040000Y1745450D01*
X5040000Y1771450D01*
X5038000Y1771450D01*
X5038000Y1777450D01*
X5036000Y1777450D01*
X5036000Y1781450D01*
X5034000Y1781450D01*
X5034000Y1783450D01*
X5032000Y1783450D01*
X5032000Y1785450D01*
X5030000Y1785450D01*
X5030000Y1789450D01*
X5028000Y1789450D01*
X5028000Y1791450D01*
X5024000Y1791450D01*
X5024000Y1793450D01*
X5022000Y1793450D01*
X5022000Y1795450D01*
X5018000Y1795450D01*
X5018000Y1797450D01*
X5014000Y1797450D01*
X5014000Y1799450D01*
X5008000Y1799450D01*
X5008000Y1801450D01*
X4988000Y1801450D01*
G37*
D02*
G36*
X3182000Y1757450D02*
X3182000Y1755450D01*
X3164000Y1755450D01*
X3164000Y1753450D01*
X3150000Y1753450D01*
X3150000Y1751450D01*
X3140000Y1751450D01*
X3140000Y1749450D01*
X3128000Y1749450D01*
X3128000Y1747450D01*
X3120000Y1747450D01*
X3120000Y1745450D01*
X3112000Y1745450D01*
X3112000Y1743450D01*
X3104000Y1743450D01*
X3104000Y1741450D01*
X3096000Y1741450D01*
X3096000Y1739450D01*
X3090000Y1739450D01*
X3090000Y1737450D01*
X3084000Y1737450D01*
X3084000Y1735450D01*
X3078000Y1735450D01*
X3078000Y1733450D01*
X3072000Y1733450D01*
X3072000Y1731450D01*
X3066000Y1731450D01*
X3066000Y1729450D01*
X3060000Y1729450D01*
X3060000Y1727450D01*
X3056000Y1727450D01*
X3056000Y1725450D01*
X3050000Y1725450D01*
X3050000Y1723450D01*
X3046000Y1723450D01*
X3046000Y1721450D01*
X3040000Y1721450D01*
X3040000Y1719450D01*
X3036000Y1719450D01*
X3036000Y1717450D01*
X3032000Y1717450D01*
X3032000Y1715450D01*
X3028000Y1715450D01*
X3028000Y1713450D01*
X3022000Y1713450D01*
X3022000Y1711450D01*
X3018000Y1711450D01*
X3018000Y1709450D01*
X3014000Y1709450D01*
X3014000Y1707450D01*
X3010000Y1707450D01*
X3010000Y1705450D01*
X3006000Y1705450D01*
X3006000Y1703450D01*
X3002000Y1703450D01*
X3002000Y1701450D01*
X3000000Y1701450D01*
X3000000Y1699450D01*
X2996000Y1699450D01*
X2996000Y1697450D01*
X2992000Y1697450D01*
X2992000Y1695450D01*
X2988000Y1695450D01*
X2988000Y1693450D01*
X2986000Y1693450D01*
X2986000Y1691450D01*
X2982000Y1691450D01*
X2982000Y1689450D01*
X2978000Y1689450D01*
X2978000Y1687450D01*
X2976000Y1687450D01*
X2976000Y1685450D01*
X2972000Y1685450D01*
X2972000Y1683450D01*
X2970000Y1683450D01*
X2970000Y1681450D01*
X2966000Y1681450D01*
X2966000Y1679450D01*
X2964000Y1679450D01*
X2964000Y1677450D01*
X2960000Y1677450D01*
X2960000Y1675450D01*
X2958000Y1675450D01*
X2958000Y1673450D01*
X2954000Y1673450D01*
X2954000Y1671450D01*
X2952000Y1671450D01*
X2952000Y1669450D01*
X2948000Y1669450D01*
X2948000Y1667450D01*
X2946000Y1667450D01*
X2946000Y1665450D01*
X2944000Y1665450D01*
X2944000Y1663450D01*
X2940000Y1663450D01*
X2940000Y1661450D01*
X2938000Y1661450D01*
X2938000Y1659450D01*
X2936000Y1659450D01*
X2936000Y1657450D01*
X2934000Y1657450D01*
X2934000Y1655450D01*
X2930000Y1655450D01*
X2930000Y1653450D01*
X2928000Y1653450D01*
X2928000Y1651450D01*
X2926000Y1651450D01*
X2926000Y1649450D01*
X2924000Y1649450D01*
X2924000Y1647450D01*
X2922000Y1647450D01*
X2922000Y1645450D01*
X2918000Y1645450D01*
X2918000Y1643450D01*
X2916000Y1643450D01*
X2916000Y1641450D01*
X2914000Y1641450D01*
X2914000Y1639450D01*
X2912000Y1639450D01*
X2912000Y1637450D01*
X2910000Y1637450D01*
X2910000Y1635450D01*
X2908000Y1635450D01*
X2908000Y1633450D01*
X2906000Y1633450D01*
X2906000Y1631450D01*
X2904000Y1631450D01*
X2904000Y1629450D01*
X2902000Y1629450D01*
X2902000Y1627450D01*
X2900000Y1627450D01*
X2900000Y1625450D01*
X2896000Y1625450D01*
X2896000Y1623450D01*
X2894000Y1623450D01*
X2894000Y1621450D01*
X2892000Y1621450D01*
X2892000Y1619450D01*
X2890000Y1619450D01*
X2890000Y1617450D01*
X2888000Y1617450D01*
X2888000Y1615450D01*
X2886000Y1615450D01*
X2886000Y1611450D01*
X2884000Y1611450D01*
X2884000Y1609450D01*
X2882000Y1609450D01*
X2882000Y1607450D01*
X2880000Y1607450D01*
X2880000Y1605450D01*
X2878000Y1605450D01*
X2878000Y1603450D01*
X2876000Y1603450D01*
X2876000Y1601450D01*
X2874000Y1601450D01*
X2874000Y1599450D01*
X2872000Y1599450D01*
X2872000Y1597450D01*
X2870000Y1597450D01*
X2870000Y1595450D01*
X2868000Y1595450D01*
X2868000Y1593450D01*
X2866000Y1593450D01*
X2866000Y1589450D01*
X2864000Y1589450D01*
X2864000Y1587450D01*
X2862000Y1587450D01*
X2862000Y1585450D01*
X2860000Y1585450D01*
X2860000Y1583450D01*
X2858000Y1583450D01*
X2858000Y1579450D01*
X2856000Y1579450D01*
X2856000Y1577450D01*
X2854000Y1577450D01*
X2854000Y1575450D01*
X2852000Y1575450D01*
X2852000Y1573450D01*
X2850000Y1573450D01*
X2850000Y1569450D01*
X2848000Y1569450D01*
X2848000Y1567450D01*
X2846000Y1567450D01*
X2846000Y1565450D01*
X2844000Y1565450D01*
X2844000Y1561450D01*
X2842000Y1561450D01*
X2842000Y1559450D01*
X2840000Y1559450D01*
X2840000Y1555450D01*
X2838000Y1555450D01*
X2838000Y1553450D01*
X2836000Y1553450D01*
X2836000Y1551450D01*
X2834000Y1551450D01*
X2834000Y1547450D01*
X2832000Y1547450D01*
X2832000Y1545450D01*
X2830000Y1545450D01*
X2830000Y1541450D01*
X2828000Y1541450D01*
X2828000Y1537450D01*
X2826000Y1537450D01*
X2826000Y1535450D01*
X2824000Y1535450D01*
X2824000Y1531450D01*
X2822000Y1531450D01*
X2822000Y1529450D01*
X2820000Y1529450D01*
X2820000Y1525450D01*
X2818000Y1525450D01*
X2818000Y1521450D01*
X2816000Y1521450D01*
X2816000Y1517450D01*
X2814000Y1517450D01*
X2814000Y1515450D01*
X2812000Y1515450D01*
X2812000Y1511450D01*
X2810000Y1511450D01*
X2810000Y1507450D01*
X2808000Y1507450D01*
X2808000Y1503450D01*
X2806000Y1503450D01*
X2806000Y1499450D01*
X2804000Y1499450D01*
X2804000Y1495450D01*
X2802000Y1495450D01*
X2802000Y1491450D01*
X2800000Y1491450D01*
X2800000Y1487450D01*
X2798000Y1487450D01*
X2798000Y1483450D01*
X2796000Y1483450D01*
X2796000Y1477450D01*
X2794000Y1477450D01*
X2794000Y1473450D01*
X2792000Y1473450D01*
X2792000Y1469450D01*
X2790000Y1469450D01*
X2790000Y1463450D01*
X2788000Y1463450D01*
X2788000Y1459450D01*
X2786000Y1459450D01*
X2786000Y1453450D01*
X2784000Y1453450D01*
X2784000Y1449450D01*
X2782000Y1449450D01*
X2782000Y1443450D01*
X2780000Y1443450D01*
X2780000Y1437450D01*
X2778000Y1437450D01*
X2778000Y1431450D01*
X2776000Y1431450D01*
X2776000Y1425450D01*
X2774000Y1425450D01*
X2774000Y1417450D01*
X2772000Y1417450D01*
X2772000Y1411450D01*
X2770000Y1411450D01*
X2770000Y1403450D01*
X2768000Y1403450D01*
X2768000Y1395450D01*
X2766000Y1395450D01*
X2766000Y1387450D01*
X2764000Y1387450D01*
X2764000Y1377450D01*
X2762000Y1377450D01*
X2762000Y1365450D01*
X2760000Y1365450D01*
X2760000Y1353450D01*
X2758000Y1353450D01*
X2758000Y1337450D01*
X2756000Y1337450D01*
X2756000Y1313450D01*
X2754000Y1313450D01*
X2754000Y1259450D01*
X2756000Y1259450D01*
X2756000Y1235450D01*
X2758000Y1235450D01*
X2758000Y1219450D01*
X2760000Y1219450D01*
X2760000Y1207450D01*
X2762000Y1207450D01*
X2762000Y1195450D01*
X2764000Y1195450D01*
X2764000Y1185450D01*
X2766000Y1185450D01*
X2766000Y1177450D01*
X2768000Y1177450D01*
X2768000Y1169450D01*
X2770000Y1169450D01*
X2770000Y1161450D01*
X2772000Y1161450D01*
X2772000Y1153450D01*
X2774000Y1153450D01*
X2774000Y1147450D01*
X2776000Y1147450D01*
X2776000Y1141450D01*
X2778000Y1141450D01*
X2778000Y1135450D01*
X2780000Y1135450D01*
X2780000Y1129450D01*
X2782000Y1129450D01*
X2782000Y1123450D01*
X2784000Y1123450D01*
X2784000Y1119450D01*
X2786000Y1119450D01*
X2786000Y1113450D01*
X2788000Y1113450D01*
X2788000Y1109450D01*
X2790000Y1109450D01*
X2790000Y1103450D01*
X2792000Y1103450D01*
X2792000Y1099450D01*
X2794000Y1099450D01*
X2794000Y1095450D01*
X2796000Y1095450D01*
X2796000Y1089450D01*
X2798000Y1089450D01*
X2798000Y1085450D01*
X2800000Y1085450D01*
X2800000Y1081450D01*
X2802000Y1081450D01*
X2802000Y1077450D01*
X2804000Y1077450D01*
X2804000Y1073450D01*
X2806000Y1073450D01*
X2806000Y1069450D01*
X2808000Y1069450D01*
X2808000Y1065450D01*
X2810000Y1065450D01*
X2810000Y1061450D01*
X2812000Y1061450D01*
X2812000Y1057450D01*
X2814000Y1057450D01*
X2814000Y1055450D01*
X2816000Y1055450D01*
X2816000Y1051450D01*
X2818000Y1051450D01*
X2818000Y1047450D01*
X2820000Y1047450D01*
X2820000Y1043450D01*
X2822000Y1043450D01*
X2822000Y1041450D01*
X2824000Y1041450D01*
X2824000Y1037450D01*
X2826000Y1037450D01*
X2826000Y1035450D01*
X2828000Y1035450D01*
X2828000Y1031450D01*
X2830000Y1031450D01*
X2830000Y1027450D01*
X2832000Y1027450D01*
X2832000Y1025450D01*
X2834000Y1025450D01*
X2834000Y1021450D01*
X2836000Y1021450D01*
X2836000Y1019450D01*
X2838000Y1019450D01*
X2838000Y1017450D01*
X2840000Y1017450D01*
X2840000Y1013450D01*
X2842000Y1013450D01*
X2842000Y1011450D01*
X2844000Y1011450D01*
X2844000Y1007450D01*
X2846000Y1007450D01*
X2846000Y1005450D01*
X2848000Y1005450D01*
X2848000Y1003450D01*
X2850000Y1003450D01*
X2850000Y999450D01*
X2852000Y999450D01*
X2852000Y997450D01*
X2854000Y997450D01*
X2854000Y995450D01*
X2856000Y995450D01*
X2856000Y991450D01*
X2858000Y991450D01*
X2858000Y989450D01*
X2860000Y989450D01*
X2860000Y987450D01*
X2862000Y987450D01*
X2862000Y985450D01*
X2864000Y985450D01*
X2864000Y983450D01*
X2866000Y983450D01*
X2866000Y979450D01*
X2868000Y979450D01*
X2868000Y977450D01*
X2870000Y977450D01*
X2870000Y975450D01*
X2872000Y975450D01*
X2872000Y973450D01*
X2874000Y973450D01*
X2874000Y971450D01*
X2876000Y971450D01*
X2876000Y969450D01*
X2878000Y969450D01*
X2878000Y967450D01*
X2880000Y967450D01*
X2880000Y965450D01*
X2882000Y965450D01*
X2882000Y963450D01*
X2884000Y963450D01*
X2884000Y961450D01*
X2886000Y961450D01*
X2886000Y957450D01*
X2888000Y957450D01*
X2888000Y955450D01*
X2890000Y955450D01*
X2890000Y953450D01*
X2892000Y953450D01*
X2892000Y951450D01*
X2894000Y951450D01*
X2894000Y949450D01*
X2896000Y949450D01*
X2896000Y947450D01*
X2898000Y947450D01*
X2898000Y945450D01*
X2902000Y945450D01*
X2902000Y943450D01*
X2904000Y943450D01*
X2904000Y941450D01*
X2906000Y941450D01*
X2906000Y939450D01*
X2908000Y939450D01*
X2908000Y937450D01*
X2910000Y937450D01*
X2910000Y935450D01*
X2912000Y935450D01*
X2912000Y933450D01*
X2914000Y933450D01*
X2914000Y931450D01*
X2916000Y931450D01*
X2916000Y929450D01*
X2918000Y929450D01*
X2918000Y927450D01*
X2920000Y927450D01*
X2920000Y925450D01*
X2924000Y925450D01*
X2924000Y923450D01*
X2926000Y923450D01*
X2926000Y921450D01*
X2928000Y921450D01*
X2928000Y919450D01*
X2930000Y919450D01*
X2930000Y917450D01*
X2934000Y917450D01*
X2934000Y915450D01*
X2936000Y915450D01*
X2936000Y913450D01*
X2938000Y913450D01*
X2938000Y911450D01*
X2940000Y911450D01*
X2940000Y909450D01*
X2944000Y909450D01*
X2944000Y907450D01*
X2946000Y907450D01*
X2946000Y905450D01*
X2948000Y905450D01*
X2948000Y903450D01*
X2952000Y903450D01*
X2952000Y901450D01*
X2954000Y901450D01*
X2954000Y899450D01*
X2958000Y899450D01*
X2958000Y897450D01*
X2960000Y897450D01*
X2960000Y895450D01*
X2962000Y895450D01*
X2962000Y893450D01*
X2966000Y893450D01*
X2966000Y891450D01*
X2970000Y891450D01*
X2970000Y889450D01*
X2972000Y889450D01*
X2972000Y887450D01*
X2976000Y887450D01*
X2976000Y885450D01*
X2978000Y885450D01*
X2978000Y883450D01*
X2982000Y883450D01*
X2982000Y881450D01*
X2986000Y881450D01*
X2986000Y879450D01*
X2988000Y879450D01*
X2988000Y877450D01*
X2992000Y877450D01*
X2992000Y875450D01*
X2996000Y875450D01*
X2996000Y873450D01*
X3000000Y873450D01*
X3000000Y871450D01*
X3002000Y871450D01*
X3002000Y869450D01*
X3006000Y869450D01*
X3006000Y867450D01*
X3010000Y867450D01*
X3010000Y865450D01*
X3014000Y865450D01*
X3014000Y863450D01*
X3018000Y863450D01*
X3018000Y861450D01*
X3022000Y861450D01*
X3022000Y859450D01*
X3026000Y859450D01*
X3026000Y857450D01*
X3032000Y857450D01*
X3032000Y855450D01*
X3036000Y855450D01*
X3036000Y853450D01*
X3040000Y853450D01*
X3040000Y851450D01*
X3044000Y851450D01*
X3044000Y849450D01*
X3050000Y849450D01*
X3050000Y847450D01*
X3056000Y847450D01*
X3056000Y845450D01*
X3060000Y845450D01*
X3060000Y843450D01*
X3066000Y843450D01*
X3066000Y841450D01*
X3072000Y841450D01*
X3072000Y839450D01*
X3078000Y839450D01*
X3078000Y837450D01*
X3084000Y837450D01*
X3084000Y835450D01*
X3090000Y835450D01*
X3090000Y833450D01*
X3096000Y833450D01*
X3096000Y831450D01*
X3104000Y831450D01*
X3104000Y829450D01*
X3110000Y829450D01*
X3110000Y827450D01*
X3120000Y827450D01*
X3120000Y825450D01*
X3128000Y825450D01*
X3128000Y823450D01*
X3138000Y823450D01*
X3138000Y821450D01*
X3150000Y821450D01*
X3150000Y819450D01*
X3164000Y819450D01*
X3164000Y817450D01*
X3182000Y817450D01*
X3182000Y815450D01*
X3272000Y815450D01*
X3272000Y817450D01*
X3288000Y817450D01*
X3288000Y819450D01*
X3302000Y819450D01*
X3302000Y821450D01*
X3314000Y821450D01*
X3314000Y823450D01*
X3324000Y823450D01*
X3324000Y825450D01*
X3334000Y825450D01*
X3334000Y827450D01*
X3342000Y827450D01*
X3342000Y829450D01*
X3350000Y829450D01*
X3350000Y831450D01*
X3356000Y831450D01*
X3356000Y833450D01*
X3364000Y833450D01*
X3364000Y835450D01*
X3370000Y835450D01*
X3370000Y837450D01*
X3376000Y837450D01*
X3376000Y839450D01*
X3382000Y839450D01*
X3382000Y841450D01*
X3388000Y841450D01*
X3388000Y843450D01*
X3392000Y843450D01*
X3392000Y845450D01*
X3398000Y845450D01*
X3398000Y847450D01*
X3402000Y847450D01*
X3402000Y849450D01*
X3408000Y849450D01*
X3408000Y851450D01*
X3412000Y851450D01*
X3412000Y853450D01*
X3416000Y853450D01*
X3416000Y855450D01*
X3422000Y855450D01*
X3422000Y857450D01*
X3426000Y857450D01*
X3426000Y859450D01*
X3430000Y859450D01*
X3430000Y861450D01*
X3434000Y861450D01*
X3434000Y863450D01*
X3438000Y863450D01*
X3438000Y865450D01*
X3442000Y865450D01*
X3442000Y867450D01*
X3446000Y867450D01*
X3446000Y869450D01*
X3450000Y869450D01*
X3450000Y871450D01*
X3454000Y871450D01*
X3454000Y873450D01*
X3458000Y873450D01*
X3458000Y875450D01*
X3460000Y875450D01*
X3460000Y877450D01*
X3464000Y877450D01*
X3464000Y879450D01*
X3468000Y879450D01*
X3468000Y881450D01*
X3472000Y881450D01*
X3472000Y883450D01*
X3474000Y883450D01*
X3474000Y885450D01*
X3478000Y885450D01*
X3478000Y887450D01*
X3480000Y887450D01*
X3480000Y889450D01*
X3484000Y889450D01*
X3484000Y891450D01*
X3486000Y891450D01*
X3486000Y893450D01*
X3490000Y893450D01*
X3490000Y895450D01*
X3492000Y895450D01*
X3492000Y897450D01*
X3496000Y897450D01*
X3496000Y899450D01*
X3498000Y899450D01*
X3498000Y901450D01*
X3502000Y901450D01*
X3502000Y903450D01*
X3504000Y903450D01*
X3504000Y905450D01*
X3506000Y905450D01*
X3506000Y907450D01*
X3510000Y907450D01*
X3510000Y909450D01*
X3512000Y909450D01*
X3512000Y911450D01*
X3514000Y911450D01*
X3514000Y913450D01*
X3518000Y913450D01*
X3518000Y915450D01*
X3520000Y915450D01*
X3520000Y917450D01*
X3522000Y917450D01*
X3522000Y919450D01*
X3524000Y919450D01*
X3524000Y921450D01*
X3528000Y921450D01*
X3528000Y923450D01*
X3530000Y923450D01*
X3530000Y925450D01*
X3532000Y925450D01*
X3532000Y927450D01*
X3534000Y927450D01*
X3534000Y929450D01*
X3536000Y929450D01*
X3536000Y931450D01*
X3538000Y931450D01*
X3538000Y933450D01*
X3540000Y933450D01*
X3540000Y935450D01*
X3544000Y935450D01*
X3544000Y937450D01*
X3546000Y937450D01*
X3546000Y939450D01*
X3548000Y939450D01*
X3548000Y941450D01*
X3550000Y941450D01*
X3550000Y943450D01*
X3552000Y943450D01*
X3552000Y945450D01*
X3554000Y945450D01*
X3554000Y947450D01*
X3556000Y947450D01*
X3556000Y949450D01*
X3558000Y949450D01*
X3558000Y951450D01*
X3560000Y951450D01*
X3560000Y953450D01*
X3562000Y953450D01*
X3562000Y955450D01*
X3564000Y955450D01*
X3564000Y957450D01*
X3566000Y957450D01*
X3566000Y959450D01*
X3568000Y959450D01*
X3568000Y961450D01*
X3570000Y961450D01*
X3570000Y963450D01*
X3572000Y963450D01*
X3572000Y965450D01*
X3574000Y965450D01*
X3574000Y967450D01*
X3576000Y967450D01*
X3576000Y969450D01*
X3578000Y969450D01*
X3578000Y973450D01*
X3580000Y973450D01*
X3580000Y975450D01*
X3582000Y975450D01*
X3582000Y977450D01*
X3584000Y977450D01*
X3584000Y979450D01*
X3586000Y979450D01*
X3586000Y981450D01*
X3588000Y981450D01*
X3588000Y983450D01*
X3590000Y983450D01*
X3590000Y985450D01*
X3592000Y985450D01*
X3592000Y989450D01*
X3594000Y989450D01*
X3594000Y991450D01*
X3596000Y991450D01*
X3596000Y993450D01*
X3598000Y993450D01*
X3598000Y997450D01*
X3600000Y997450D01*
X3600000Y999450D01*
X3602000Y999450D01*
X3602000Y1001450D01*
X3604000Y1001450D01*
X3604000Y1003450D01*
X3606000Y1003450D01*
X3606000Y1007450D01*
X3608000Y1007450D01*
X3608000Y1009450D01*
X3610000Y1009450D01*
X3610000Y1013450D01*
X3612000Y1013450D01*
X3612000Y1015450D01*
X3614000Y1015450D01*
X3614000Y1017450D01*
X3616000Y1017450D01*
X3616000Y1021450D01*
X3618000Y1021450D01*
X3618000Y1023450D01*
X3620000Y1023450D01*
X3620000Y1027450D01*
X3622000Y1027450D01*
X3622000Y1029450D01*
X3624000Y1029450D01*
X3624000Y1033450D01*
X3626000Y1033450D01*
X3626000Y1037450D01*
X3628000Y1037450D01*
X3628000Y1039450D01*
X3630000Y1039450D01*
X3630000Y1043450D01*
X3632000Y1043450D01*
X3632000Y1047450D01*
X3634000Y1047450D01*
X3634000Y1049450D01*
X3636000Y1049450D01*
X3636000Y1053450D01*
X3638000Y1053450D01*
X3638000Y1057450D01*
X3640000Y1057450D01*
X3640000Y1059450D01*
X3642000Y1059450D01*
X3642000Y1063450D01*
X3644000Y1063450D01*
X3644000Y1067450D01*
X3646000Y1067450D01*
X3646000Y1071450D01*
X3648000Y1071450D01*
X3648000Y1075450D01*
X3650000Y1075450D01*
X3650000Y1079450D01*
X3652000Y1079450D01*
X3652000Y1083450D01*
X3654000Y1083450D01*
X3654000Y1089450D01*
X3656000Y1089450D01*
X3656000Y1093450D01*
X3658000Y1093450D01*
X3658000Y1097450D01*
X3660000Y1097450D01*
X3660000Y1101450D01*
X3662000Y1101450D01*
X3662000Y1107450D01*
X3664000Y1107450D01*
X3664000Y1111450D01*
X3666000Y1111450D01*
X3666000Y1117450D01*
X3668000Y1117450D01*
X3668000Y1121450D01*
X3670000Y1121450D01*
X3670000Y1127450D01*
X3672000Y1127450D01*
X3672000Y1133450D01*
X3674000Y1133450D01*
X3674000Y1139450D01*
X3676000Y1139450D01*
X3676000Y1145450D01*
X3678000Y1145450D01*
X3678000Y1151450D01*
X3680000Y1151450D01*
X3680000Y1159450D01*
X3682000Y1159450D01*
X3682000Y1165450D01*
X3684000Y1165450D01*
X3684000Y1173450D01*
X3686000Y1173450D01*
X3686000Y1183450D01*
X3688000Y1183450D01*
X3688000Y1191450D01*
X3690000Y1191450D01*
X3690000Y1203450D01*
X3692000Y1203450D01*
X3692000Y1213450D01*
X3694000Y1213450D01*
X3694000Y1229450D01*
X3696000Y1229450D01*
X3696000Y1249450D01*
X3698000Y1249450D01*
X3698000Y1323450D01*
X3696000Y1323450D01*
X3696000Y1343450D01*
X3694000Y1343450D01*
X3694000Y1359450D01*
X3692000Y1359450D01*
X3692000Y1369450D01*
X3690000Y1369450D01*
X3690000Y1381450D01*
X3688000Y1381450D01*
X3688000Y1389450D01*
X3686000Y1389450D01*
X3686000Y1399450D01*
X3684000Y1399450D01*
X3684000Y1407450D01*
X3682000Y1407450D01*
X3682000Y1413450D01*
X3680000Y1413450D01*
X3680000Y1421450D01*
X3678000Y1421450D01*
X3678000Y1427450D01*
X3676000Y1427450D01*
X3676000Y1433450D01*
X3674000Y1433450D01*
X3674000Y1439450D01*
X3672000Y1439450D01*
X3672000Y1445450D01*
X3670000Y1445450D01*
X3670000Y1451450D01*
X3668000Y1451450D01*
X3668000Y1455450D01*
X3666000Y1455450D01*
X3666000Y1461450D01*
X3664000Y1461450D01*
X3664000Y1465450D01*
X3662000Y1465450D01*
X3662000Y1471450D01*
X3660000Y1471450D01*
X3660000Y1475450D01*
X3658000Y1475450D01*
X3658000Y1479450D01*
X3656000Y1479450D01*
X3656000Y1483450D01*
X3654000Y1483450D01*
X3654000Y1489450D01*
X3652000Y1489450D01*
X3652000Y1493450D01*
X3650000Y1493450D01*
X3650000Y1497450D01*
X3648000Y1497450D01*
X3648000Y1501450D01*
X3646000Y1501450D01*
X3646000Y1505450D01*
X3644000Y1505450D01*
X3644000Y1509450D01*
X3642000Y1509450D01*
X3642000Y1511450D01*
X3640000Y1511450D01*
X3640000Y1515450D01*
X3638000Y1515450D01*
X3638000Y1519450D01*
X3636000Y1519450D01*
X3636000Y1523450D01*
X3634000Y1523450D01*
X3634000Y1525450D01*
X3632000Y1525450D01*
X3632000Y1529450D01*
X3630000Y1529450D01*
X3630000Y1533450D01*
X3628000Y1533450D01*
X3628000Y1535450D01*
X3626000Y1535450D01*
X3626000Y1539450D01*
X3624000Y1539450D01*
X3624000Y1543450D01*
X3622000Y1543450D01*
X3622000Y1545450D01*
X3620000Y1545450D01*
X3620000Y1549450D01*
X3618000Y1549450D01*
X3618000Y1551450D01*
X3616000Y1551450D01*
X3616000Y1555450D01*
X3614000Y1555450D01*
X3614000Y1557450D01*
X3612000Y1557450D01*
X3612000Y1559450D01*
X3610000Y1559450D01*
X3610000Y1563450D01*
X3608000Y1563450D01*
X3608000Y1565450D01*
X3606000Y1565450D01*
X3606000Y1569450D01*
X3604000Y1569450D01*
X3604000Y1571450D01*
X3602000Y1571450D01*
X3602000Y1573450D01*
X3600000Y1573450D01*
X3600000Y1575450D01*
X3598000Y1575450D01*
X3598000Y1579450D01*
X3596000Y1579450D01*
X3596000Y1581450D01*
X3594000Y1581450D01*
X3594000Y1583450D01*
X3592000Y1583450D01*
X3592000Y1585450D01*
X3590000Y1585450D01*
X3590000Y1589450D01*
X3588000Y1589450D01*
X3588000Y1591450D01*
X3586000Y1591450D01*
X3586000Y1593450D01*
X3584000Y1593450D01*
X3584000Y1595450D01*
X3582000Y1595450D01*
X3582000Y1597450D01*
X3580000Y1597450D01*
X3580000Y1599450D01*
X3578000Y1599450D01*
X3578000Y1603450D01*
X3576000Y1603450D01*
X3576000Y1605450D01*
X3574000Y1605450D01*
X3574000Y1607450D01*
X3572000Y1607450D01*
X3572000Y1609450D01*
X3570000Y1609450D01*
X3570000Y1611450D01*
X3568000Y1611450D01*
X3568000Y1613450D01*
X3566000Y1613450D01*
X3566000Y1615450D01*
X3564000Y1615450D01*
X3564000Y1617450D01*
X3562000Y1617450D01*
X3562000Y1619450D01*
X3560000Y1619450D01*
X3560000Y1621450D01*
X3558000Y1621450D01*
X3558000Y1623450D01*
X3556000Y1623450D01*
X3556000Y1625450D01*
X3554000Y1625450D01*
X3554000Y1627450D01*
X3552000Y1627450D01*
X3552000Y1629450D01*
X3550000Y1629450D01*
X3550000Y1631450D01*
X3548000Y1631450D01*
X3548000Y1633450D01*
X3546000Y1633450D01*
X3546000Y1635450D01*
X3544000Y1635450D01*
X3544000Y1637450D01*
X3540000Y1637450D01*
X3540000Y1639450D01*
X3538000Y1639450D01*
X3538000Y1641450D01*
X3536000Y1641450D01*
X3536000Y1643450D01*
X3534000Y1643450D01*
X3534000Y1645450D01*
X3532000Y1645450D01*
X3532000Y1647450D01*
X3530000Y1647450D01*
X3530000Y1649450D01*
X3528000Y1649450D01*
X3528000Y1651450D01*
X3524000Y1651450D01*
X3524000Y1653450D01*
X3522000Y1653450D01*
X3522000Y1655450D01*
X3520000Y1655450D01*
X3520000Y1657450D01*
X3516000Y1657450D01*
X3516000Y1659450D01*
X3514000Y1659450D01*
X3514000Y1661450D01*
X3512000Y1661450D01*
X3512000Y1663450D01*
X3510000Y1663450D01*
X3510000Y1665450D01*
X3506000Y1665450D01*
X3506000Y1667450D01*
X3504000Y1667450D01*
X3504000Y1669450D01*
X3500000Y1669450D01*
X3500000Y1671450D01*
X3498000Y1671450D01*
X3498000Y1673450D01*
X3496000Y1673450D01*
X3496000Y1675450D01*
X3492000Y1675450D01*
X3492000Y1677450D01*
X3490000Y1677450D01*
X3490000Y1679450D01*
X3486000Y1679450D01*
X3486000Y1681450D01*
X3484000Y1681450D01*
X3484000Y1683450D01*
X3480000Y1683450D01*
X3480000Y1685450D01*
X3478000Y1685450D01*
X3478000Y1687450D01*
X3474000Y1687450D01*
X3474000Y1689450D01*
X3470000Y1689450D01*
X3470000Y1691450D01*
X3468000Y1691450D01*
X3468000Y1693450D01*
X3464000Y1693450D01*
X3464000Y1695450D01*
X3460000Y1695450D01*
X3460000Y1697450D01*
X3456000Y1697450D01*
X3456000Y1699450D01*
X3454000Y1699450D01*
X3454000Y1701450D01*
X3450000Y1701450D01*
X3450000Y1703450D01*
X3446000Y1703450D01*
X3446000Y1705450D01*
X3442000Y1705450D01*
X3442000Y1707450D01*
X3438000Y1707450D01*
X3438000Y1709450D01*
X3434000Y1709450D01*
X3434000Y1711450D01*
X3430000Y1711450D01*
X3430000Y1713450D01*
X3426000Y1713450D01*
X3426000Y1715450D01*
X3422000Y1715450D01*
X3422000Y1717450D01*
X3416000Y1717450D01*
X3416000Y1719450D01*
X3412000Y1719450D01*
X3412000Y1721450D01*
X3408000Y1721450D01*
X3408000Y1723450D01*
X3402000Y1723450D01*
X3402000Y1725450D01*
X3398000Y1725450D01*
X3398000Y1727450D01*
X3392000Y1727450D01*
X3392000Y1729450D01*
X3388000Y1729450D01*
X3388000Y1731450D01*
X3382000Y1731450D01*
X3382000Y1733450D01*
X3376000Y1733450D01*
X3376000Y1735450D01*
X3370000Y1735450D01*
X3370000Y1737450D01*
X3362000Y1737450D01*
X3362000Y1739450D01*
X3356000Y1739450D01*
X3356000Y1741450D01*
X3348000Y1741450D01*
X3348000Y1743450D01*
X3342000Y1743450D01*
X3342000Y1745450D01*
X3332000Y1745450D01*
X3332000Y1747450D01*
X3324000Y1747450D01*
X3324000Y1749450D01*
X3314000Y1749450D01*
X3314000Y1751450D01*
X3302000Y1751450D01*
X3302000Y1753450D01*
X3288000Y1753450D01*
X3288000Y1755450D01*
X3270000Y1755450D01*
X3270000Y1757450D01*
X3182000Y1757450D01*
G37*
D02*
G36*
X210000Y1747450D02*
X210000Y1745450D01*
X204000Y1745450D01*
X204000Y1743450D01*
X200000Y1743450D01*
X200000Y1741450D01*
X196000Y1741450D01*
X196000Y1739450D01*
X194000Y1739450D01*
X194000Y1737450D01*
X190000Y1737450D01*
X190000Y1735450D01*
X188000Y1735450D01*
X188000Y1731450D01*
X186000Y1731450D01*
X186000Y1729450D01*
X184000Y1729450D01*
X184000Y1727450D01*
X182000Y1727450D01*
X182000Y1723450D01*
X180000Y1723450D01*
X180000Y1719450D01*
X178000Y1719450D01*
X178000Y1691450D01*
X180000Y1691450D01*
X180000Y1685450D01*
X182000Y1685450D01*
X182000Y1681450D01*
X184000Y1681450D01*
X184000Y1679450D01*
X186000Y1679450D01*
X186000Y1677450D01*
X188000Y1677450D01*
X188000Y1675450D01*
X190000Y1675450D01*
X190000Y1673450D01*
X192000Y1673450D01*
X192000Y1671450D01*
X194000Y1671450D01*
X194000Y1669450D01*
X196000Y1669450D01*
X196000Y1667450D01*
X200000Y1667450D01*
X200000Y1665450D01*
X204000Y1665450D01*
X204000Y1663450D01*
X234000Y1663450D01*
X234000Y1665450D01*
X240000Y1665450D01*
X240000Y1667450D01*
X244000Y1667450D01*
X244000Y1669450D01*
X246000Y1669450D01*
X246000Y1671450D01*
X248000Y1671450D01*
X248000Y1673450D01*
X250000Y1673450D01*
X250000Y1675450D01*
X252000Y1675450D01*
X252000Y1677450D01*
X254000Y1677450D01*
X254000Y1679450D01*
X256000Y1679450D01*
X256000Y1683450D01*
X258000Y1683450D01*
X258000Y1687450D01*
X260000Y1687450D01*
X260000Y1693450D01*
X262000Y1693450D01*
X262000Y1715450D01*
X260000Y1715450D01*
X260000Y1721450D01*
X258000Y1721450D01*
X258000Y1725450D01*
X256000Y1725450D01*
X256000Y1729450D01*
X254000Y1729450D01*
X254000Y1731450D01*
X252000Y1731450D01*
X252000Y1733450D01*
X250000Y1733450D01*
X250000Y1735450D01*
X248000Y1735450D01*
X248000Y1737450D01*
X246000Y1737450D01*
X246000Y1739450D01*
X244000Y1739450D01*
X244000Y1741450D01*
X240000Y1741450D01*
X240000Y1743450D01*
X236000Y1743450D01*
X236000Y1745450D01*
X230000Y1745450D01*
X230000Y1747450D01*
X210000Y1747450D01*
G37*
D02*
G36*
X6110000Y1745450D02*
X6110000Y1743450D01*
X6104000Y1743450D01*
X6104000Y1741450D01*
X6102000Y1741450D01*
X6102000Y1739450D01*
X6098000Y1739450D01*
X6098000Y1737450D01*
X6096000Y1737450D01*
X6096000Y1735450D01*
X6094000Y1735450D01*
X6094000Y1733450D01*
X6092000Y1733450D01*
X6092000Y1731450D01*
X6090000Y1731450D01*
X6090000Y1727450D01*
X6088000Y1727450D01*
X6088000Y1723450D01*
X6086000Y1723450D01*
X6086000Y1719450D01*
X6084000Y1719450D01*
X6084000Y1689450D01*
X6086000Y1689450D01*
X6086000Y1685450D01*
X6088000Y1685450D01*
X6088000Y1681450D01*
X6090000Y1681450D01*
X6090000Y1679450D01*
X6092000Y1679450D01*
X6092000Y1675450D01*
X6094000Y1675450D01*
X6094000Y1673450D01*
X6096000Y1673450D01*
X6096000Y1671450D01*
X6100000Y1671450D01*
X6100000Y1669450D01*
X6102000Y1669450D01*
X6102000Y1667450D01*
X6106000Y1667450D01*
X6106000Y1665450D01*
X6110000Y1665450D01*
X6110000Y1663450D01*
X6140000Y1663450D01*
X6140000Y1665450D01*
X6144000Y1665450D01*
X6144000Y1667450D01*
X6148000Y1667450D01*
X6148000Y1669450D01*
X6152000Y1669450D01*
X6152000Y1671450D01*
X6154000Y1671450D01*
X6154000Y1673450D01*
X6156000Y1673450D01*
X6156000Y1675450D01*
X6158000Y1675450D01*
X6158000Y1677450D01*
X6160000Y1677450D01*
X6160000Y1681450D01*
X6162000Y1681450D01*
X6162000Y1685450D01*
X6164000Y1685450D01*
X6164000Y1689450D01*
X6166000Y1689450D01*
X6166000Y1721450D01*
X6164000Y1721450D01*
X6164000Y1725450D01*
X6162000Y1725450D01*
X6162000Y1729450D01*
X6160000Y1729450D01*
X6160000Y1731450D01*
X6158000Y1731450D01*
X6158000Y1733450D01*
X6156000Y1733450D01*
X6156000Y1735450D01*
X6154000Y1735450D01*
X6154000Y1737450D01*
X6152000Y1737450D01*
X6152000Y1739450D01*
X6150000Y1739450D01*
X6150000Y1741450D01*
X6146000Y1741450D01*
X6146000Y1743450D01*
X6142000Y1743450D01*
X6142000Y1745450D01*
X6110000Y1745450D01*
G37*
D02*
G36*
X376000Y1869450D02*
X376000Y1867450D01*
X360000Y1867450D01*
X360000Y1865450D01*
X350000Y1865450D01*
X350000Y1863450D01*
X340000Y1863450D01*
X340000Y1861450D01*
X332000Y1861450D01*
X332000Y1859450D01*
X324000Y1859450D01*
X324000Y1857450D01*
X318000Y1857450D01*
X318000Y1855450D01*
X310000Y1855450D01*
X310000Y1853450D01*
X304000Y1853450D01*
X304000Y1851450D01*
X298000Y1851450D01*
X298000Y1849450D01*
X292000Y1849450D01*
X292000Y1847450D01*
X288000Y1847450D01*
X288000Y1845450D01*
X282000Y1845450D01*
X282000Y1843450D01*
X278000Y1843450D01*
X278000Y1841450D01*
X272000Y1841450D01*
X272000Y1839450D01*
X268000Y1839450D01*
X268000Y1837450D01*
X264000Y1837450D01*
X264000Y1817450D01*
X270000Y1817450D01*
X270000Y1815450D01*
X274000Y1815450D01*
X274000Y1813450D01*
X278000Y1813450D01*
X278000Y1811450D01*
X280000Y1811450D01*
X280000Y1809450D01*
X284000Y1809450D01*
X284000Y1807450D01*
X288000Y1807450D01*
X288000Y1805450D01*
X290000Y1805450D01*
X290000Y1803450D01*
X292000Y1803450D01*
X292000Y1801450D01*
X296000Y1801450D01*
X296000Y1799450D01*
X298000Y1799450D01*
X298000Y1797450D01*
X300000Y1797450D01*
X300000Y1795450D01*
X302000Y1795450D01*
X302000Y1793450D01*
X304000Y1793450D01*
X304000Y1791450D01*
X306000Y1791450D01*
X306000Y1789450D01*
X308000Y1789450D01*
X308000Y1787450D01*
X310000Y1787450D01*
X310000Y1785450D01*
X312000Y1785450D01*
X312000Y1783450D01*
X314000Y1783450D01*
X314000Y1781450D01*
X316000Y1781450D01*
X316000Y1777450D01*
X318000Y1777450D01*
X318000Y1775450D01*
X320000Y1775450D01*
X320000Y1773450D01*
X322000Y1773450D01*
X322000Y1769450D01*
X324000Y1769450D01*
X324000Y1765450D01*
X326000Y1765450D01*
X326000Y1763450D01*
X328000Y1763450D01*
X328000Y1759450D01*
X330000Y1759450D01*
X330000Y1755450D01*
X332000Y1755450D01*
X332000Y1751450D01*
X334000Y1751450D01*
X334000Y1745450D01*
X336000Y1745450D01*
X336000Y1739450D01*
X338000Y1739450D01*
X338000Y1731450D01*
X340000Y1731450D01*
X340000Y1719450D01*
X342000Y1719450D01*
X342000Y1689450D01*
X340000Y1689450D01*
X340000Y1677450D01*
X338000Y1677450D01*
X338000Y1669450D01*
X336000Y1669450D01*
X336000Y1663450D01*
X334000Y1663450D01*
X334000Y1659450D01*
X332000Y1659450D01*
X332000Y1653450D01*
X330000Y1653450D01*
X330000Y1649450D01*
X328000Y1649450D01*
X328000Y1645450D01*
X326000Y1645450D01*
X326000Y1643450D01*
X324000Y1643450D01*
X324000Y1639450D01*
X322000Y1639450D01*
X322000Y1637450D01*
X1316000Y1637450D01*
X1316000Y1639450D01*
X1306000Y1639450D01*
X1306000Y1641450D01*
X1300000Y1641450D01*
X1300000Y1643450D01*
X1294000Y1643450D01*
X1294000Y1645450D01*
X1288000Y1645450D01*
X1288000Y1647450D01*
X1284000Y1647450D01*
X1284000Y1649450D01*
X1280000Y1649450D01*
X1280000Y1651450D01*
X1276000Y1651450D01*
X1276000Y1653450D01*
X1274000Y1653450D01*
X1274000Y1655450D01*
X1270000Y1655450D01*
X1270000Y1657450D01*
X1268000Y1657450D01*
X1268000Y1659450D01*
X1264000Y1659450D01*
X1264000Y1661450D01*
X1262000Y1661450D01*
X1262000Y1663450D01*
X1258000Y1663450D01*
X1258000Y1665450D01*
X1256000Y1665450D01*
X1256000Y1667450D01*
X1254000Y1667450D01*
X1254000Y1669450D01*
X1252000Y1669450D01*
X1252000Y1671450D01*
X1250000Y1671450D01*
X1250000Y1673450D01*
X1248000Y1673450D01*
X1248000Y1675450D01*
X1246000Y1675450D01*
X1246000Y1677450D01*
X1244000Y1677450D01*
X1244000Y1679450D01*
X1242000Y1679450D01*
X1242000Y1683450D01*
X1240000Y1683450D01*
X1240000Y1685450D01*
X1238000Y1685450D01*
X1238000Y1687450D01*
X1236000Y1687450D01*
X1236000Y1691450D01*
X1234000Y1691450D01*
X1234000Y1693450D01*
X1232000Y1693450D01*
X1232000Y1697450D01*
X1230000Y1697450D01*
X1230000Y1701450D01*
X1228000Y1701450D01*
X1228000Y1705450D01*
X1226000Y1705450D01*
X1226000Y1709450D01*
X1224000Y1709450D01*
X1224000Y1713450D01*
X1222000Y1713450D01*
X1222000Y1719450D01*
X1220000Y1719450D01*
X1220000Y1725450D01*
X1218000Y1725450D01*
X1218000Y1733450D01*
X1216000Y1733450D01*
X1216000Y1745450D01*
X1214000Y1745450D01*
X1214000Y1771450D01*
X1216000Y1771450D01*
X1216000Y1785450D01*
X1218000Y1785450D01*
X1218000Y1791450D01*
X1220000Y1791450D01*
X1220000Y1799450D01*
X1222000Y1799450D01*
X1222000Y1803450D01*
X1224000Y1803450D01*
X1224000Y1809450D01*
X1226000Y1809450D01*
X1226000Y1813450D01*
X1228000Y1813450D01*
X1228000Y1817450D01*
X1230000Y1817450D01*
X1230000Y1819450D01*
X1232000Y1819450D01*
X1232000Y1823450D01*
X1234000Y1823450D01*
X1234000Y1827450D01*
X1236000Y1827450D01*
X1236000Y1829450D01*
X1238000Y1829450D01*
X1238000Y1831450D01*
X1240000Y1831450D01*
X1240000Y1835450D01*
X1242000Y1835450D01*
X1242000Y1837450D01*
X1244000Y1837450D01*
X1244000Y1839450D01*
X1246000Y1839450D01*
X1246000Y1841450D01*
X1248000Y1841450D01*
X1248000Y1843450D01*
X1250000Y1843450D01*
X1250000Y1845450D01*
X1252000Y1845450D01*
X1252000Y1847450D01*
X1254000Y1847450D01*
X1254000Y1849450D01*
X1256000Y1849450D01*
X1256000Y1869450D01*
X376000Y1869450D01*
G37*
D02*
G36*
X1418000Y1869450D02*
X1418000Y1849450D01*
X1420000Y1849450D01*
X1420000Y1847450D01*
X1422000Y1847450D01*
X1422000Y1845450D01*
X1424000Y1845450D01*
X1424000Y1843450D01*
X1426000Y1843450D01*
X1426000Y1841450D01*
X1428000Y1841450D01*
X1428000Y1839450D01*
X1430000Y1839450D01*
X1430000Y1837450D01*
X1432000Y1837450D01*
X1432000Y1833450D01*
X1434000Y1833450D01*
X1434000Y1831450D01*
X1436000Y1831450D01*
X1436000Y1827450D01*
X1438000Y1827450D01*
X1438000Y1825450D01*
X1440000Y1825450D01*
X1440000Y1821450D01*
X1442000Y1821450D01*
X1442000Y1819450D01*
X1444000Y1819450D01*
X1444000Y1815450D01*
X1446000Y1815450D01*
X1446000Y1811450D01*
X1448000Y1811450D01*
X1448000Y1807450D01*
X1450000Y1807450D01*
X1450000Y1801450D01*
X1452000Y1801450D01*
X1452000Y1799450D01*
X3230000Y1799450D01*
X3230000Y1797450D01*
X3270000Y1797450D01*
X3270000Y1795450D01*
X3290000Y1795450D01*
X3290000Y1793450D01*
X3304000Y1793450D01*
X3304000Y1791450D01*
X3316000Y1791450D01*
X3316000Y1789450D01*
X3328000Y1789450D01*
X3328000Y1787450D01*
X3336000Y1787450D01*
X3336000Y1785450D01*
X3346000Y1785450D01*
X3346000Y1783450D01*
X3354000Y1783450D01*
X3354000Y1781450D01*
X3362000Y1781450D01*
X3362000Y1779450D01*
X3368000Y1779450D01*
X3368000Y1777450D01*
X3376000Y1777450D01*
X3376000Y1775450D01*
X3382000Y1775450D01*
X3382000Y1773450D01*
X3388000Y1773450D01*
X3388000Y1771450D01*
X3394000Y1771450D01*
X3394000Y1769450D01*
X3400000Y1769450D01*
X3400000Y1767450D01*
X3406000Y1767450D01*
X3406000Y1765450D01*
X3410000Y1765450D01*
X3410000Y1763450D01*
X3416000Y1763450D01*
X3416000Y1761450D01*
X3420000Y1761450D01*
X3420000Y1759450D01*
X3426000Y1759450D01*
X3426000Y1757450D01*
X3430000Y1757450D01*
X3430000Y1755450D01*
X3434000Y1755450D01*
X3434000Y1753450D01*
X3438000Y1753450D01*
X3438000Y1751450D01*
X3444000Y1751450D01*
X3444000Y1749450D01*
X3448000Y1749450D01*
X3448000Y1747450D01*
X3452000Y1747450D01*
X3452000Y1745450D01*
X3456000Y1745450D01*
X3456000Y1743450D01*
X3460000Y1743450D01*
X3460000Y1741450D01*
X3464000Y1741450D01*
X3464000Y1739450D01*
X3468000Y1739450D01*
X3468000Y1737450D01*
X3470000Y1737450D01*
X3470000Y1735450D01*
X3474000Y1735450D01*
X3474000Y1733450D01*
X3478000Y1733450D01*
X3478000Y1731450D01*
X3482000Y1731450D01*
X3482000Y1729450D01*
X3484000Y1729450D01*
X3484000Y1727450D01*
X3488000Y1727450D01*
X3488000Y1725450D01*
X3492000Y1725450D01*
X3492000Y1723450D01*
X3494000Y1723450D01*
X3494000Y1721450D01*
X3498000Y1721450D01*
X3498000Y1719450D01*
X3502000Y1719450D01*
X3502000Y1717450D01*
X3504000Y1717450D01*
X3504000Y1715450D01*
X3508000Y1715450D01*
X3508000Y1713450D01*
X3510000Y1713450D01*
X3510000Y1711450D01*
X3514000Y1711450D01*
X3514000Y1709450D01*
X3516000Y1709450D01*
X3516000Y1707450D01*
X3520000Y1707450D01*
X3520000Y1705450D01*
X3522000Y1705450D01*
X3522000Y1703450D01*
X3524000Y1703450D01*
X3524000Y1701450D01*
X3528000Y1701450D01*
X3528000Y1699450D01*
X3530000Y1699450D01*
X3530000Y1697450D01*
X3534000Y1697450D01*
X3534000Y1695450D01*
X3536000Y1695450D01*
X3536000Y1693450D01*
X3538000Y1693450D01*
X3538000Y1691450D01*
X3540000Y1691450D01*
X3540000Y1689450D01*
X3544000Y1689450D01*
X3544000Y1687450D01*
X3546000Y1687450D01*
X3546000Y1685450D01*
X3548000Y1685450D01*
X3548000Y1683450D01*
X3550000Y1683450D01*
X3550000Y1681450D01*
X3554000Y1681450D01*
X3554000Y1679450D01*
X3556000Y1679450D01*
X3556000Y1677450D01*
X3558000Y1677450D01*
X3558000Y1675450D01*
X3560000Y1675450D01*
X3560000Y1673450D01*
X3562000Y1673450D01*
X3562000Y1671450D01*
X3564000Y1671450D01*
X3564000Y1669450D01*
X3568000Y1669450D01*
X3568000Y1667450D01*
X3570000Y1667450D01*
X3570000Y1665450D01*
X3572000Y1665450D01*
X3572000Y1663450D01*
X3574000Y1663450D01*
X3574000Y1661450D01*
X3576000Y1661450D01*
X3576000Y1659450D01*
X3578000Y1659450D01*
X3578000Y1657450D01*
X3580000Y1657450D01*
X3580000Y1655450D01*
X3582000Y1655450D01*
X3582000Y1653450D01*
X3584000Y1653450D01*
X3584000Y1651450D01*
X3586000Y1651450D01*
X3586000Y1649450D01*
X3588000Y1649450D01*
X3588000Y1647450D01*
X3590000Y1647450D01*
X3590000Y1645450D01*
X3592000Y1645450D01*
X3592000Y1643450D01*
X3594000Y1643450D01*
X3594000Y1641450D01*
X3596000Y1641450D01*
X3596000Y1639450D01*
X3598000Y1639450D01*
X3598000Y1637450D01*
X4976000Y1637450D01*
X4976000Y1639450D01*
X4968000Y1639450D01*
X4968000Y1641450D01*
X4960000Y1641450D01*
X4960000Y1643450D01*
X4956000Y1643450D01*
X4956000Y1645450D01*
X4950000Y1645450D01*
X4950000Y1647450D01*
X4946000Y1647450D01*
X4946000Y1649450D01*
X4942000Y1649450D01*
X4942000Y1651450D01*
X4938000Y1651450D01*
X4938000Y1653450D01*
X4934000Y1653450D01*
X4934000Y1655450D01*
X4932000Y1655450D01*
X4932000Y1657450D01*
X4928000Y1657450D01*
X4928000Y1659450D01*
X4926000Y1659450D01*
X4926000Y1661450D01*
X4924000Y1661450D01*
X4924000Y1663450D01*
X4920000Y1663450D01*
X4920000Y1665450D01*
X4918000Y1665450D01*
X4918000Y1667450D01*
X4916000Y1667450D01*
X4916000Y1669450D01*
X4914000Y1669450D01*
X4914000Y1671450D01*
X4912000Y1671450D01*
X4912000Y1673450D01*
X4910000Y1673450D01*
X4910000Y1675450D01*
X4908000Y1675450D01*
X4908000Y1677450D01*
X4906000Y1677450D01*
X4906000Y1679450D01*
X4904000Y1679450D01*
X4904000Y1681450D01*
X4902000Y1681450D01*
X4902000Y1685450D01*
X4900000Y1685450D01*
X4900000Y1687450D01*
X4898000Y1687450D01*
X4898000Y1689450D01*
X4896000Y1689450D01*
X4896000Y1693450D01*
X4894000Y1693450D01*
X4894000Y1697450D01*
X4892000Y1697450D01*
X4892000Y1699450D01*
X4890000Y1699450D01*
X4890000Y1703450D01*
X4888000Y1703450D01*
X4888000Y1707450D01*
X4886000Y1707450D01*
X4886000Y1711450D01*
X4884000Y1711450D01*
X4884000Y1717450D01*
X4882000Y1717450D01*
X4882000Y1723450D01*
X4880000Y1723450D01*
X4880000Y1731450D01*
X4878000Y1731450D01*
X4878000Y1741450D01*
X4876000Y1741450D01*
X4876000Y1775450D01*
X4878000Y1775450D01*
X4878000Y1787450D01*
X4880000Y1787450D01*
X4880000Y1793450D01*
X4882000Y1793450D01*
X4882000Y1799450D01*
X4884000Y1799450D01*
X4884000Y1805450D01*
X4886000Y1805450D01*
X4886000Y1809450D01*
X4888000Y1809450D01*
X4888000Y1813450D01*
X4890000Y1813450D01*
X4890000Y1817450D01*
X4892000Y1817450D01*
X4892000Y1821450D01*
X4894000Y1821450D01*
X4894000Y1823450D01*
X4896000Y1823450D01*
X4896000Y1827450D01*
X4898000Y1827450D01*
X4898000Y1829450D01*
X4900000Y1829450D01*
X4900000Y1833450D01*
X4902000Y1833450D01*
X4902000Y1835450D01*
X4904000Y1835450D01*
X4904000Y1837450D01*
X4906000Y1837450D01*
X4906000Y1839450D01*
X4908000Y1839450D01*
X4908000Y1843450D01*
X4910000Y1843450D01*
X4910000Y1845450D01*
X4912000Y1845450D01*
X4912000Y1847450D01*
X4914000Y1847450D01*
X4914000Y1849450D01*
X4918000Y1849450D01*
X4918000Y1869450D01*
X1418000Y1869450D01*
G37*
D02*
G36*
X5078000Y1869450D02*
X5078000Y1849450D01*
X5082000Y1849450D01*
X5082000Y1847450D01*
X5084000Y1847450D01*
X5084000Y1845450D01*
X5086000Y1845450D01*
X5086000Y1843450D01*
X5088000Y1843450D01*
X5088000Y1839450D01*
X5090000Y1839450D01*
X5090000Y1837450D01*
X5092000Y1837450D01*
X5092000Y1835450D01*
X5094000Y1835450D01*
X5094000Y1833450D01*
X5096000Y1833450D01*
X5096000Y1829450D01*
X5098000Y1829450D01*
X5098000Y1827450D01*
X5100000Y1827450D01*
X5100000Y1823450D01*
X5102000Y1823450D01*
X5102000Y1821450D01*
X5104000Y1821450D01*
X5104000Y1817450D01*
X5106000Y1817450D01*
X5106000Y1813450D01*
X5108000Y1813450D01*
X5108000Y1809450D01*
X5110000Y1809450D01*
X5110000Y1805450D01*
X5112000Y1805450D01*
X5112000Y1799450D01*
X5114000Y1799450D01*
X5114000Y1795450D01*
X5116000Y1795450D01*
X5116000Y1787450D01*
X5118000Y1787450D01*
X5118000Y1775450D01*
X5120000Y1775450D01*
X5120000Y1741450D01*
X5118000Y1741450D01*
X5118000Y1731450D01*
X5116000Y1731450D01*
X5116000Y1723450D01*
X5114000Y1723450D01*
X5114000Y1717450D01*
X5112000Y1717450D01*
X5112000Y1711450D01*
X5110000Y1711450D01*
X5110000Y1707450D01*
X5108000Y1707450D01*
X5108000Y1703450D01*
X5106000Y1703450D01*
X5106000Y1699450D01*
X5104000Y1699450D01*
X5104000Y1697450D01*
X5102000Y1697450D01*
X5102000Y1693450D01*
X5100000Y1693450D01*
X5100000Y1689450D01*
X5098000Y1689450D01*
X5098000Y1687450D01*
X5096000Y1687450D01*
X5096000Y1685450D01*
X5094000Y1685450D01*
X5094000Y1681450D01*
X5092000Y1681450D01*
X5092000Y1679450D01*
X5090000Y1679450D01*
X5090000Y1677450D01*
X5088000Y1677450D01*
X5088000Y1675450D01*
X5086000Y1675450D01*
X5086000Y1673450D01*
X5084000Y1673450D01*
X5084000Y1671450D01*
X5082000Y1671450D01*
X5082000Y1669450D01*
X5080000Y1669450D01*
X5080000Y1667450D01*
X5078000Y1667450D01*
X5078000Y1665450D01*
X5076000Y1665450D01*
X5076000Y1663450D01*
X5072000Y1663450D01*
X5072000Y1661450D01*
X5070000Y1661450D01*
X5070000Y1659450D01*
X5068000Y1659450D01*
X5068000Y1657450D01*
X5064000Y1657450D01*
X5064000Y1655450D01*
X5062000Y1655450D01*
X5062000Y1653450D01*
X5058000Y1653450D01*
X5058000Y1651450D01*
X5054000Y1651450D01*
X5054000Y1649450D01*
X5050000Y1649450D01*
X5050000Y1647450D01*
X5046000Y1647450D01*
X5046000Y1645450D01*
X5042000Y1645450D01*
X5042000Y1643450D01*
X5036000Y1643450D01*
X5036000Y1641450D01*
X5028000Y1641450D01*
X5028000Y1639450D01*
X5020000Y1639450D01*
X5020000Y1637450D01*
X6022000Y1637450D01*
X6022000Y1641450D01*
X6020000Y1641450D01*
X6020000Y1643450D01*
X6018000Y1643450D01*
X6018000Y1647450D01*
X6016000Y1647450D01*
X6016000Y1651450D01*
X6014000Y1651450D01*
X6014000Y1655450D01*
X6012000Y1655450D01*
X6012000Y1661450D01*
X6010000Y1661450D01*
X6010000Y1665450D01*
X6008000Y1665450D01*
X6008000Y1673450D01*
X6006000Y1673450D01*
X6006000Y1681450D01*
X6004000Y1681450D01*
X6004000Y1699450D01*
X6002000Y1699450D01*
X6002000Y1709450D01*
X6004000Y1709450D01*
X6004000Y1727450D01*
X6006000Y1727450D01*
X6006000Y1735450D01*
X6008000Y1735450D01*
X6008000Y1743450D01*
X6010000Y1743450D01*
X6010000Y1747450D01*
X6012000Y1747450D01*
X6012000Y1753450D01*
X6014000Y1753450D01*
X6014000Y1757450D01*
X6016000Y1757450D01*
X6016000Y1761450D01*
X6018000Y1761450D01*
X6018000Y1765450D01*
X6020000Y1765450D01*
X6020000Y1767450D01*
X6022000Y1767450D01*
X6022000Y1771450D01*
X6024000Y1771450D01*
X6024000Y1775450D01*
X6026000Y1775450D01*
X6026000Y1777450D01*
X6028000Y1777450D01*
X6028000Y1779450D01*
X6030000Y1779450D01*
X6030000Y1783450D01*
X6032000Y1783450D01*
X6032000Y1785450D01*
X6034000Y1785450D01*
X6034000Y1787450D01*
X6036000Y1787450D01*
X6036000Y1789450D01*
X6038000Y1789450D01*
X6038000Y1791450D01*
X6040000Y1791450D01*
X6040000Y1793450D01*
X6042000Y1793450D01*
X6042000Y1795450D01*
X6044000Y1795450D01*
X6044000Y1797450D01*
X6046000Y1797450D01*
X6046000Y1799450D01*
X6050000Y1799450D01*
X6050000Y1801450D01*
X6052000Y1801450D01*
X6052000Y1803450D01*
X6054000Y1803450D01*
X6054000Y1805450D01*
X6058000Y1805450D01*
X6058000Y1807450D01*
X6060000Y1807450D01*
X6060000Y1809450D01*
X6064000Y1809450D01*
X6064000Y1811450D01*
X6068000Y1811450D01*
X6068000Y1813450D01*
X6072000Y1813450D01*
X6072000Y1815450D01*
X6076000Y1815450D01*
X6076000Y1835450D01*
X6072000Y1835450D01*
X6072000Y1837450D01*
X6068000Y1837450D01*
X6068000Y1839450D01*
X6064000Y1839450D01*
X6064000Y1841450D01*
X6060000Y1841450D01*
X6060000Y1843450D01*
X6054000Y1843450D01*
X6054000Y1845450D01*
X6050000Y1845450D01*
X6050000Y1847450D01*
X6044000Y1847450D01*
X6044000Y1849450D01*
X6038000Y1849450D01*
X6038000Y1851450D01*
X6032000Y1851450D01*
X6032000Y1853450D01*
X6026000Y1853450D01*
X6026000Y1855450D01*
X6020000Y1855450D01*
X6020000Y1857450D01*
X6012000Y1857450D01*
X6012000Y1859450D01*
X6004000Y1859450D01*
X6004000Y1861450D01*
X5996000Y1861450D01*
X5996000Y1863450D01*
X5986000Y1863450D01*
X5986000Y1865450D01*
X5976000Y1865450D01*
X5976000Y1867450D01*
X5962000Y1867450D01*
X5962000Y1869450D01*
X5078000Y1869450D01*
G37*
D02*
G36*
X1452000Y1799450D02*
X1452000Y1795450D01*
X1454000Y1795450D01*
X1454000Y1789450D01*
X1456000Y1789450D01*
X1456000Y1779450D01*
X1458000Y1779450D01*
X1458000Y1737450D01*
X1456000Y1737450D01*
X1456000Y1729450D01*
X1454000Y1729450D01*
X1454000Y1721450D01*
X1452000Y1721450D01*
X1452000Y1715450D01*
X1450000Y1715450D01*
X1450000Y1711450D01*
X1448000Y1711450D01*
X1448000Y1707450D01*
X1446000Y1707450D01*
X1446000Y1701450D01*
X1444000Y1701450D01*
X1444000Y1699450D01*
X1442000Y1699450D01*
X1442000Y1695450D01*
X1440000Y1695450D01*
X1440000Y1691450D01*
X1438000Y1691450D01*
X1438000Y1689450D01*
X1436000Y1689450D01*
X1436000Y1687450D01*
X1434000Y1687450D01*
X1434000Y1683450D01*
X1432000Y1683450D01*
X1432000Y1681450D01*
X1430000Y1681450D01*
X1430000Y1679450D01*
X1428000Y1679450D01*
X1428000Y1677450D01*
X1426000Y1677450D01*
X1426000Y1673450D01*
X1424000Y1673450D01*
X1424000Y1671450D01*
X1422000Y1671450D01*
X1422000Y1669450D01*
X1418000Y1669450D01*
X1418000Y1667450D01*
X1416000Y1667450D01*
X1416000Y1665450D01*
X1414000Y1665450D01*
X1414000Y1663450D01*
X1412000Y1663450D01*
X1412000Y1661450D01*
X1408000Y1661450D01*
X1408000Y1659450D01*
X1406000Y1659450D01*
X1406000Y1657450D01*
X1404000Y1657450D01*
X1404000Y1655450D01*
X1400000Y1655450D01*
X1400000Y1653450D01*
X1396000Y1653450D01*
X1396000Y1651450D01*
X1394000Y1651450D01*
X1394000Y1649450D01*
X1388000Y1649450D01*
X1388000Y1647450D01*
X1384000Y1647450D01*
X1384000Y1645450D01*
X1380000Y1645450D01*
X1380000Y1643450D01*
X1374000Y1643450D01*
X1374000Y1641450D01*
X1366000Y1641450D01*
X1366000Y1639450D01*
X1358000Y1639450D01*
X1358000Y1637450D01*
X2854000Y1637450D01*
X2854000Y1639450D01*
X2856000Y1639450D01*
X2856000Y1641450D01*
X2858000Y1641450D01*
X2858000Y1643450D01*
X2860000Y1643450D01*
X2860000Y1645450D01*
X2862000Y1645450D01*
X2862000Y1647450D01*
X2864000Y1647450D01*
X2864000Y1649450D01*
X2866000Y1649450D01*
X2866000Y1651450D01*
X2868000Y1651450D01*
X2868000Y1653450D01*
X2870000Y1653450D01*
X2870000Y1655450D01*
X2872000Y1655450D01*
X2872000Y1657450D01*
X2874000Y1657450D01*
X2874000Y1659450D01*
X2876000Y1659450D01*
X2876000Y1661450D01*
X2878000Y1661450D01*
X2878000Y1663450D01*
X2880000Y1663450D01*
X2880000Y1665450D01*
X2884000Y1665450D01*
X2884000Y1667450D01*
X2886000Y1667450D01*
X2886000Y1669450D01*
X2888000Y1669450D01*
X2888000Y1671450D01*
X2890000Y1671450D01*
X2890000Y1673450D01*
X2892000Y1673450D01*
X2892000Y1675450D01*
X2894000Y1675450D01*
X2894000Y1677450D01*
X2898000Y1677450D01*
X2898000Y1679450D01*
X2900000Y1679450D01*
X2900000Y1681450D01*
X2902000Y1681450D01*
X2902000Y1683450D01*
X2904000Y1683450D01*
X2904000Y1685450D01*
X2906000Y1685450D01*
X2906000Y1687450D01*
X2910000Y1687450D01*
X2910000Y1689450D01*
X2912000Y1689450D01*
X2912000Y1691450D01*
X2914000Y1691450D01*
X2914000Y1693450D01*
X2918000Y1693450D01*
X2918000Y1695450D01*
X2920000Y1695450D01*
X2920000Y1697450D01*
X2922000Y1697450D01*
X2922000Y1699450D01*
X2926000Y1699450D01*
X2926000Y1701450D01*
X2928000Y1701450D01*
X2928000Y1703450D01*
X2930000Y1703450D01*
X2930000Y1705450D01*
X2934000Y1705450D01*
X2934000Y1707450D01*
X2936000Y1707450D01*
X2936000Y1709450D01*
X2940000Y1709450D01*
X2940000Y1711450D01*
X2942000Y1711450D01*
X2942000Y1713450D01*
X2946000Y1713450D01*
X2946000Y1715450D01*
X2948000Y1715450D01*
X2948000Y1717450D01*
X2952000Y1717450D01*
X2952000Y1719450D01*
X2954000Y1719450D01*
X2954000Y1721450D01*
X2958000Y1721450D01*
X2958000Y1723450D01*
X2962000Y1723450D01*
X2962000Y1725450D01*
X2964000Y1725450D01*
X2964000Y1727450D01*
X2968000Y1727450D01*
X2968000Y1729450D01*
X2972000Y1729450D01*
X2972000Y1731450D01*
X2974000Y1731450D01*
X2974000Y1733450D01*
X2978000Y1733450D01*
X2978000Y1735450D01*
X2982000Y1735450D01*
X2982000Y1737450D01*
X2986000Y1737450D01*
X2986000Y1739450D01*
X2990000Y1739450D01*
X2990000Y1741450D01*
X2994000Y1741450D01*
X2994000Y1743450D01*
X2998000Y1743450D01*
X2998000Y1745450D01*
X3002000Y1745450D01*
X3002000Y1747450D01*
X3006000Y1747450D01*
X3006000Y1749450D01*
X3010000Y1749450D01*
X3010000Y1751450D01*
X3014000Y1751450D01*
X3014000Y1753450D01*
X3018000Y1753450D01*
X3018000Y1755450D01*
X3022000Y1755450D01*
X3022000Y1757450D01*
X3028000Y1757450D01*
X3028000Y1759450D01*
X3032000Y1759450D01*
X3032000Y1761450D01*
X3038000Y1761450D01*
X3038000Y1763450D01*
X3042000Y1763450D01*
X3042000Y1765450D01*
X3048000Y1765450D01*
X3048000Y1767450D01*
X3054000Y1767450D01*
X3054000Y1769450D01*
X3060000Y1769450D01*
X3060000Y1771450D01*
X3066000Y1771450D01*
X3066000Y1773450D01*
X3072000Y1773450D01*
X3072000Y1775450D01*
X3078000Y1775450D01*
X3078000Y1777450D01*
X3084000Y1777450D01*
X3084000Y1779450D01*
X3092000Y1779450D01*
X3092000Y1781450D01*
X3098000Y1781450D01*
X3098000Y1783450D01*
X3108000Y1783450D01*
X3108000Y1785450D01*
X3116000Y1785450D01*
X3116000Y1787450D01*
X3126000Y1787450D01*
X3126000Y1789450D01*
X3136000Y1789450D01*
X3136000Y1791450D01*
X3148000Y1791450D01*
X3148000Y1793450D01*
X3164000Y1793450D01*
X3164000Y1795450D01*
X3182000Y1795450D01*
X3182000Y1797450D01*
X3222000Y1797450D01*
X3222000Y1799450D01*
X1452000Y1799450D01*
G37*
D02*
G36*
X84000Y1665450D02*
X84000Y1663450D01*
X82000Y1663450D01*
X82000Y1659450D01*
X80000Y1659450D01*
X80000Y1655450D01*
X78000Y1655450D01*
X78000Y1651450D01*
X76000Y1651450D01*
X76000Y1645450D01*
X74000Y1645450D01*
X74000Y1641450D01*
X72000Y1641450D01*
X72000Y1637450D01*
X70000Y1637450D01*
X70000Y1633450D01*
X68000Y1633450D01*
X68000Y1627450D01*
X66000Y1627450D01*
X66000Y1623450D01*
X64000Y1623450D01*
X64000Y1617450D01*
X62000Y1617450D01*
X62000Y1611450D01*
X60000Y1611450D01*
X60000Y1605450D01*
X58000Y1605450D01*
X58000Y1599450D01*
X56000Y1599450D01*
X56000Y1593450D01*
X54000Y1593450D01*
X54000Y1585450D01*
X52000Y1585450D01*
X52000Y1581450D01*
X216000Y1581450D01*
X216000Y1583450D01*
X196000Y1583450D01*
X196000Y1585450D01*
X188000Y1585450D01*
X188000Y1587450D01*
X182000Y1587450D01*
X182000Y1589450D01*
X176000Y1589450D01*
X176000Y1591450D01*
X170000Y1591450D01*
X170000Y1593450D01*
X166000Y1593450D01*
X166000Y1595450D01*
X162000Y1595450D01*
X162000Y1597450D01*
X160000Y1597450D01*
X160000Y1599450D01*
X156000Y1599450D01*
X156000Y1601450D01*
X152000Y1601450D01*
X152000Y1603450D01*
X150000Y1603450D01*
X150000Y1605450D01*
X148000Y1605450D01*
X148000Y1607450D01*
X144000Y1607450D01*
X144000Y1609450D01*
X142000Y1609450D01*
X142000Y1611450D01*
X140000Y1611450D01*
X140000Y1613450D01*
X138000Y1613450D01*
X138000Y1615450D01*
X134000Y1615450D01*
X134000Y1617450D01*
X132000Y1617450D01*
X132000Y1619450D01*
X130000Y1619450D01*
X130000Y1623450D01*
X128000Y1623450D01*
X128000Y1625450D01*
X126000Y1625450D01*
X126000Y1627450D01*
X124000Y1627450D01*
X124000Y1629450D01*
X122000Y1629450D01*
X122000Y1633450D01*
X120000Y1633450D01*
X120000Y1635450D01*
X118000Y1635450D01*
X118000Y1637450D01*
X116000Y1637450D01*
X116000Y1641450D01*
X114000Y1641450D01*
X114000Y1645450D01*
X112000Y1645450D01*
X112000Y1649450D01*
X110000Y1649450D01*
X110000Y1653450D01*
X108000Y1653450D01*
X108000Y1657450D01*
X106000Y1657450D01*
X106000Y1661450D01*
X104000Y1661450D01*
X104000Y1665450D01*
X84000Y1665450D01*
G37*
D02*
G36*
X6236000Y1655450D02*
X6236000Y1651450D01*
X6234000Y1651450D01*
X6234000Y1647450D01*
X6232000Y1647450D01*
X6232000Y1643450D01*
X6230000Y1643450D01*
X6230000Y1641450D01*
X6228000Y1641450D01*
X6228000Y1637450D01*
X6226000Y1637450D01*
X6226000Y1633450D01*
X6224000Y1633450D01*
X6224000Y1631450D01*
X6222000Y1631450D01*
X6222000Y1629450D01*
X6220000Y1629450D01*
X6220000Y1625450D01*
X6218000Y1625450D01*
X6218000Y1623450D01*
X6216000Y1623450D01*
X6216000Y1621450D01*
X6214000Y1621450D01*
X6214000Y1619450D01*
X6212000Y1619450D01*
X6212000Y1617450D01*
X6210000Y1617450D01*
X6210000Y1615450D01*
X6208000Y1615450D01*
X6208000Y1613450D01*
X6206000Y1613450D01*
X6206000Y1611450D01*
X6204000Y1611450D01*
X6204000Y1609450D01*
X6200000Y1609450D01*
X6200000Y1607450D01*
X6198000Y1607450D01*
X6198000Y1605450D01*
X6194000Y1605450D01*
X6194000Y1603450D01*
X6192000Y1603450D01*
X6192000Y1601450D01*
X6188000Y1601450D01*
X6188000Y1599450D01*
X6186000Y1599450D01*
X6186000Y1597450D01*
X6182000Y1597450D01*
X6182000Y1595450D01*
X6178000Y1595450D01*
X6178000Y1593450D01*
X6174000Y1593450D01*
X6174000Y1591450D01*
X6168000Y1591450D01*
X6168000Y1589450D01*
X6164000Y1589450D01*
X6164000Y1587450D01*
X6156000Y1587450D01*
X6156000Y1585450D01*
X6148000Y1585450D01*
X6148000Y1583450D01*
X6130000Y1583450D01*
X6130000Y1581450D01*
X6284000Y1581450D01*
X6284000Y1589450D01*
X6282000Y1589450D01*
X6282000Y1595450D01*
X6280000Y1595450D01*
X6280000Y1601450D01*
X6278000Y1601450D01*
X6278000Y1607450D01*
X6276000Y1607450D01*
X6276000Y1613450D01*
X6274000Y1613450D01*
X6274000Y1619450D01*
X6272000Y1619450D01*
X6272000Y1623450D01*
X6270000Y1623450D01*
X6270000Y1629450D01*
X6268000Y1629450D01*
X6268000Y1633450D01*
X6266000Y1633450D01*
X6266000Y1639450D01*
X6264000Y1639450D01*
X6264000Y1643450D01*
X6262000Y1643450D01*
X6262000Y1647450D01*
X6260000Y1647450D01*
X6260000Y1651450D01*
X6258000Y1651450D01*
X6258000Y1655450D01*
X6236000Y1655450D01*
G37*
D02*
G36*
X322000Y1637450D02*
X322000Y1635450D01*
X2852000Y1635450D01*
X2852000Y1637450D01*
X322000Y1637450D01*
G37*
D02*
G36*
X322000Y1637450D02*
X322000Y1635450D01*
X2852000Y1635450D01*
X2852000Y1637450D01*
X322000Y1637450D01*
G37*
D02*
G36*
X3600000Y1637450D02*
X3600000Y1635450D01*
X6024000Y1635450D01*
X6024000Y1637450D01*
X3600000Y1637450D01*
G37*
D02*
G36*
X3600000Y1637450D02*
X3600000Y1635450D01*
X6024000Y1635450D01*
X6024000Y1637450D01*
X3600000Y1637450D01*
G37*
D02*
G36*
X320000Y1635450D02*
X320000Y1633450D01*
X318000Y1633450D01*
X318000Y1631450D01*
X316000Y1631450D01*
X316000Y1627450D01*
X314000Y1627450D01*
X314000Y1625450D01*
X312000Y1625450D01*
X312000Y1623450D01*
X310000Y1623450D01*
X310000Y1621450D01*
X308000Y1621450D01*
X308000Y1619450D01*
X306000Y1619450D01*
X306000Y1617450D01*
X304000Y1617450D01*
X304000Y1615450D01*
X302000Y1615450D01*
X302000Y1613450D01*
X300000Y1613450D01*
X300000Y1611450D01*
X298000Y1611450D01*
X298000Y1609450D01*
X294000Y1609450D01*
X294000Y1607450D01*
X292000Y1607450D01*
X292000Y1605450D01*
X290000Y1605450D01*
X290000Y1603450D01*
X286000Y1603450D01*
X286000Y1601450D01*
X284000Y1601450D01*
X284000Y1599450D01*
X280000Y1599450D01*
X280000Y1597450D01*
X276000Y1597450D01*
X276000Y1595450D01*
X272000Y1595450D01*
X272000Y1593450D01*
X268000Y1593450D01*
X268000Y1591450D01*
X264000Y1591450D01*
X264000Y1589450D01*
X258000Y1589450D01*
X258000Y1587450D01*
X250000Y1587450D01*
X250000Y1585450D01*
X242000Y1585450D01*
X242000Y1583450D01*
X224000Y1583450D01*
X224000Y1581450D01*
X2808000Y1581450D01*
X2808000Y1583450D01*
X2810000Y1583450D01*
X2810000Y1585450D01*
X2812000Y1585450D01*
X2812000Y1589450D01*
X2814000Y1589450D01*
X2814000Y1591450D01*
X2816000Y1591450D01*
X2816000Y1593450D01*
X2818000Y1593450D01*
X2818000Y1597450D01*
X2820000Y1597450D01*
X2820000Y1599450D01*
X2822000Y1599450D01*
X2822000Y1601450D01*
X2824000Y1601450D01*
X2824000Y1603450D01*
X2826000Y1603450D01*
X2826000Y1607450D01*
X2828000Y1607450D01*
X2828000Y1609450D01*
X2830000Y1609450D01*
X2830000Y1611450D01*
X2832000Y1611450D01*
X2832000Y1613450D01*
X2834000Y1613450D01*
X2834000Y1617450D01*
X2836000Y1617450D01*
X2836000Y1619450D01*
X2838000Y1619450D01*
X2838000Y1621450D01*
X2840000Y1621450D01*
X2840000Y1623450D01*
X2842000Y1623450D01*
X2842000Y1625450D01*
X2844000Y1625450D01*
X2844000Y1627450D01*
X2846000Y1627450D01*
X2846000Y1629450D01*
X2848000Y1629450D01*
X2848000Y1633450D01*
X2850000Y1633450D01*
X2850000Y1635450D01*
X320000Y1635450D01*
G37*
D02*
G36*
X3602000Y1635450D02*
X3602000Y1633450D01*
X3604000Y1633450D01*
X3604000Y1631450D01*
X3606000Y1631450D01*
X3606000Y1629450D01*
X3608000Y1629450D01*
X3608000Y1627450D01*
X3610000Y1627450D01*
X3610000Y1623450D01*
X3612000Y1623450D01*
X3612000Y1621450D01*
X3614000Y1621450D01*
X3614000Y1619450D01*
X3616000Y1619450D01*
X3616000Y1617450D01*
X3618000Y1617450D01*
X3618000Y1615450D01*
X3620000Y1615450D01*
X3620000Y1613450D01*
X3622000Y1613450D01*
X3622000Y1609450D01*
X3624000Y1609450D01*
X3624000Y1607450D01*
X3626000Y1607450D01*
X3626000Y1605450D01*
X3628000Y1605450D01*
X3628000Y1603450D01*
X3630000Y1603450D01*
X3630000Y1599450D01*
X3632000Y1599450D01*
X3632000Y1597450D01*
X3634000Y1597450D01*
X3634000Y1595450D01*
X3636000Y1595450D01*
X3636000Y1591450D01*
X3638000Y1591450D01*
X3638000Y1589450D01*
X3640000Y1589450D01*
X3640000Y1587450D01*
X3642000Y1587450D01*
X3642000Y1583450D01*
X3644000Y1583450D01*
X3644000Y1581450D01*
X6122000Y1581450D01*
X6122000Y1583450D01*
X6102000Y1583450D01*
X6102000Y1585450D01*
X6094000Y1585450D01*
X6094000Y1587450D01*
X6086000Y1587450D01*
X6086000Y1589450D01*
X6082000Y1589450D01*
X6082000Y1591450D01*
X6076000Y1591450D01*
X6076000Y1593450D01*
X6072000Y1593450D01*
X6072000Y1595450D01*
X6068000Y1595450D01*
X6068000Y1597450D01*
X6064000Y1597450D01*
X6064000Y1599450D01*
X6062000Y1599450D01*
X6062000Y1601450D01*
X6058000Y1601450D01*
X6058000Y1603450D01*
X6056000Y1603450D01*
X6056000Y1605450D01*
X6052000Y1605450D01*
X6052000Y1607450D01*
X6050000Y1607450D01*
X6050000Y1609450D01*
X6048000Y1609450D01*
X6048000Y1611450D01*
X6044000Y1611450D01*
X6044000Y1613450D01*
X6042000Y1613450D01*
X6042000Y1615450D01*
X6040000Y1615450D01*
X6040000Y1617450D01*
X6038000Y1617450D01*
X6038000Y1619450D01*
X6036000Y1619450D01*
X6036000Y1621450D01*
X6034000Y1621450D01*
X6034000Y1623450D01*
X6032000Y1623450D01*
X6032000Y1627450D01*
X6030000Y1627450D01*
X6030000Y1629450D01*
X6028000Y1629450D01*
X6028000Y1631450D01*
X6026000Y1631450D01*
X6026000Y1635450D01*
X3602000Y1635450D01*
G37*
D02*
G36*
X52000Y1581450D02*
X52000Y1579450D01*
X2808000Y1579450D01*
X2808000Y1581450D01*
X52000Y1581450D01*
G37*
D02*
G36*
X52000Y1581450D02*
X52000Y1579450D01*
X2808000Y1579450D01*
X2808000Y1581450D01*
X52000Y1581450D01*
G37*
D02*
G36*
X3646000Y1581450D02*
X3646000Y1579450D01*
X6286000Y1579450D01*
X6286000Y1581450D01*
X3646000Y1581450D01*
G37*
D02*
G36*
X3646000Y1581450D02*
X3646000Y1579450D01*
X6286000Y1579450D01*
X6286000Y1581450D01*
X3646000Y1581450D01*
G37*
D02*
G36*
X50000Y1579450D02*
X50000Y1571450D01*
X48000Y1571450D01*
X48000Y1561450D01*
X46000Y1561450D01*
X46000Y1551450D01*
X44000Y1551450D01*
X44000Y1541450D01*
X42000Y1541450D01*
X42000Y1525450D01*
X40000Y1525450D01*
X40000Y773450D01*
X3220000Y773450D01*
X3220000Y775450D01*
X3180000Y775450D01*
X3180000Y777450D01*
X3162000Y777450D01*
X3162000Y779450D01*
X3148000Y779450D01*
X3148000Y781450D01*
X3136000Y781450D01*
X3136000Y783450D01*
X3126000Y783450D01*
X3126000Y785450D01*
X3116000Y785450D01*
X3116000Y787450D01*
X3108000Y787450D01*
X3108000Y789450D01*
X3098000Y789450D01*
X3098000Y791450D01*
X3092000Y791450D01*
X3092000Y793450D01*
X3084000Y793450D01*
X3084000Y795450D01*
X3078000Y795450D01*
X3078000Y797450D01*
X3070000Y797450D01*
X3070000Y799450D01*
X3064000Y799450D01*
X3064000Y801450D01*
X3058000Y801450D01*
X3058000Y803450D01*
X3054000Y803450D01*
X3054000Y805450D01*
X3048000Y805450D01*
X3048000Y807450D01*
X3042000Y807450D01*
X3042000Y809450D01*
X3038000Y809450D01*
X3038000Y811450D01*
X3032000Y811450D01*
X3032000Y813450D01*
X3028000Y813450D01*
X3028000Y815450D01*
X3022000Y815450D01*
X3022000Y817450D01*
X3018000Y817450D01*
X3018000Y819450D01*
X3014000Y819450D01*
X3014000Y821450D01*
X3010000Y821450D01*
X3010000Y823450D01*
X3006000Y823450D01*
X3006000Y825450D01*
X3002000Y825450D01*
X3002000Y827450D01*
X2998000Y827450D01*
X2998000Y829450D01*
X2994000Y829450D01*
X2994000Y831450D01*
X2990000Y831450D01*
X2990000Y833450D01*
X2986000Y833450D01*
X2986000Y835450D01*
X2982000Y835450D01*
X2982000Y837450D01*
X2978000Y837450D01*
X2978000Y839450D01*
X2974000Y839450D01*
X2974000Y841450D01*
X2972000Y841450D01*
X2972000Y843450D01*
X2968000Y843450D01*
X2968000Y845450D01*
X2964000Y845450D01*
X2964000Y847450D01*
X2960000Y847450D01*
X2960000Y849450D01*
X2958000Y849450D01*
X2958000Y851450D01*
X2954000Y851450D01*
X2954000Y853450D01*
X2952000Y853450D01*
X2952000Y855450D01*
X2948000Y855450D01*
X2948000Y857450D01*
X2946000Y857450D01*
X2946000Y859450D01*
X2942000Y859450D01*
X2942000Y861450D01*
X2940000Y861450D01*
X2940000Y863450D01*
X2936000Y863450D01*
X2936000Y865450D01*
X2934000Y865450D01*
X2934000Y867450D01*
X2930000Y867450D01*
X2930000Y869450D01*
X2928000Y869450D01*
X2928000Y871450D01*
X2926000Y871450D01*
X2926000Y873450D01*
X2922000Y873450D01*
X2922000Y875450D01*
X2920000Y875450D01*
X2920000Y877450D01*
X2916000Y877450D01*
X2916000Y879450D01*
X2914000Y879450D01*
X2914000Y881450D01*
X2912000Y881450D01*
X2912000Y883450D01*
X2910000Y883450D01*
X2910000Y885450D01*
X2906000Y885450D01*
X2906000Y887450D01*
X2904000Y887450D01*
X2904000Y889450D01*
X2902000Y889450D01*
X2902000Y891450D01*
X2900000Y891450D01*
X2900000Y893450D01*
X2896000Y893450D01*
X2896000Y895450D01*
X2894000Y895450D01*
X2894000Y897450D01*
X2892000Y897450D01*
X2892000Y899450D01*
X2890000Y899450D01*
X2890000Y901450D01*
X2888000Y901450D01*
X2888000Y903450D01*
X2886000Y903450D01*
X2886000Y905450D01*
X2884000Y905450D01*
X2884000Y907450D01*
X2880000Y907450D01*
X2880000Y909450D01*
X2878000Y909450D01*
X2878000Y911450D01*
X2876000Y911450D01*
X2876000Y913450D01*
X2874000Y913450D01*
X2874000Y915450D01*
X2872000Y915450D01*
X2872000Y917450D01*
X2870000Y917450D01*
X2870000Y919450D01*
X2868000Y919450D01*
X2868000Y921450D01*
X2866000Y921450D01*
X2866000Y923450D01*
X2864000Y923450D01*
X2864000Y925450D01*
X2862000Y925450D01*
X2862000Y927450D01*
X2860000Y927450D01*
X2860000Y929450D01*
X2858000Y929450D01*
X2858000Y931450D01*
X2856000Y931450D01*
X2856000Y933450D01*
X2854000Y933450D01*
X2854000Y935450D01*
X2852000Y935450D01*
X2852000Y937450D01*
X2850000Y937450D01*
X2850000Y939450D01*
X2848000Y939450D01*
X2848000Y941450D01*
X2846000Y941450D01*
X2846000Y945450D01*
X2844000Y945450D01*
X2844000Y947450D01*
X2842000Y947450D01*
X2842000Y949450D01*
X2840000Y949450D01*
X2840000Y951450D01*
X2838000Y951450D01*
X2838000Y953450D01*
X2836000Y953450D01*
X2836000Y955450D01*
X2834000Y955450D01*
X2834000Y959450D01*
X2832000Y959450D01*
X2832000Y961450D01*
X2830000Y961450D01*
X2830000Y963450D01*
X2828000Y963450D01*
X2828000Y965450D01*
X2826000Y965450D01*
X2826000Y969450D01*
X2824000Y969450D01*
X2824000Y971450D01*
X2822000Y971450D01*
X2822000Y973450D01*
X2820000Y973450D01*
X2820000Y975450D01*
X2818000Y975450D01*
X2818000Y979450D01*
X2816000Y979450D01*
X2816000Y981450D01*
X2814000Y981450D01*
X2814000Y983450D01*
X2812000Y983450D01*
X2812000Y987450D01*
X2810000Y987450D01*
X2810000Y989450D01*
X2808000Y989450D01*
X2808000Y993450D01*
X2806000Y993450D01*
X2806000Y995450D01*
X2804000Y995450D01*
X2804000Y997450D01*
X2802000Y997450D01*
X2802000Y1001450D01*
X2800000Y1001450D01*
X2800000Y1003450D01*
X2798000Y1003450D01*
X2798000Y1007450D01*
X2796000Y1007450D01*
X2796000Y1011450D01*
X2794000Y1011450D01*
X2794000Y1013450D01*
X2792000Y1013450D01*
X2792000Y1017450D01*
X2790000Y1017450D01*
X2790000Y1019450D01*
X2788000Y1019450D01*
X2788000Y1023450D01*
X2786000Y1023450D01*
X2786000Y1027450D01*
X2784000Y1027450D01*
X2784000Y1029450D01*
X2782000Y1029450D01*
X2782000Y1033450D01*
X2780000Y1033450D01*
X2780000Y1037450D01*
X2778000Y1037450D01*
X2778000Y1041450D01*
X2776000Y1041450D01*
X2776000Y1043450D01*
X2774000Y1043450D01*
X2774000Y1047450D01*
X2772000Y1047450D01*
X2772000Y1051450D01*
X2770000Y1051450D01*
X2770000Y1055450D01*
X2768000Y1055450D01*
X2768000Y1059450D01*
X2766000Y1059450D01*
X2766000Y1063450D01*
X2764000Y1063450D01*
X2764000Y1067450D01*
X2762000Y1067450D01*
X2762000Y1073450D01*
X2760000Y1073450D01*
X2760000Y1077450D01*
X2758000Y1077450D01*
X2758000Y1081450D01*
X2756000Y1081450D01*
X2756000Y1085450D01*
X2754000Y1085450D01*
X2754000Y1091450D01*
X2752000Y1091450D01*
X2752000Y1095450D01*
X2750000Y1095450D01*
X2750000Y1101450D01*
X2748000Y1101450D01*
X2748000Y1105450D01*
X2746000Y1105450D01*
X2746000Y1111450D01*
X2744000Y1111450D01*
X2744000Y1117450D01*
X2742000Y1117450D01*
X2742000Y1123450D01*
X2740000Y1123450D01*
X2740000Y1129450D01*
X2738000Y1129450D01*
X2738000Y1135450D01*
X2736000Y1135450D01*
X2736000Y1141450D01*
X2734000Y1141450D01*
X2734000Y1149450D01*
X2732000Y1149450D01*
X2732000Y1155450D01*
X2730000Y1155450D01*
X2730000Y1165450D01*
X2728000Y1165450D01*
X2728000Y1173450D01*
X2726000Y1173450D01*
X2726000Y1181450D01*
X2724000Y1181450D01*
X2724000Y1193450D01*
X2722000Y1193450D01*
X2722000Y1203450D01*
X2720000Y1203450D01*
X2720000Y1217450D01*
X2718000Y1217450D01*
X2718000Y1233450D01*
X2716000Y1233450D01*
X2716000Y1259450D01*
X2714000Y1259450D01*
X2714000Y1313450D01*
X2716000Y1313450D01*
X2716000Y1339450D01*
X2718000Y1339450D01*
X2718000Y1355450D01*
X2720000Y1355450D01*
X2720000Y1369450D01*
X2722000Y1369450D01*
X2722000Y1379450D01*
X2724000Y1379450D01*
X2724000Y1391450D01*
X2726000Y1391450D01*
X2726000Y1399450D01*
X2728000Y1399450D01*
X2728000Y1407450D01*
X2730000Y1407450D01*
X2730000Y1415450D01*
X2732000Y1415450D01*
X2732000Y1423450D01*
X2734000Y1423450D01*
X2734000Y1431450D01*
X2736000Y1431450D01*
X2736000Y1437450D01*
X2738000Y1437450D01*
X2738000Y1443450D01*
X2740000Y1443450D01*
X2740000Y1449450D01*
X2742000Y1449450D01*
X2742000Y1455450D01*
X2744000Y1455450D01*
X2744000Y1461450D01*
X2746000Y1461450D01*
X2746000Y1467450D01*
X2748000Y1467450D01*
X2748000Y1471450D01*
X2750000Y1471450D01*
X2750000Y1477450D01*
X2752000Y1477450D01*
X2752000Y1481450D01*
X2754000Y1481450D01*
X2754000Y1487450D01*
X2756000Y1487450D01*
X2756000Y1491450D01*
X2758000Y1491450D01*
X2758000Y1495450D01*
X2760000Y1495450D01*
X2760000Y1499450D01*
X2762000Y1499450D01*
X2762000Y1505450D01*
X2764000Y1505450D01*
X2764000Y1509450D01*
X2766000Y1509450D01*
X2766000Y1513450D01*
X2768000Y1513450D01*
X2768000Y1517450D01*
X2770000Y1517450D01*
X2770000Y1521450D01*
X2772000Y1521450D01*
X2772000Y1525450D01*
X2774000Y1525450D01*
X2774000Y1527450D01*
X2776000Y1527450D01*
X2776000Y1531450D01*
X2778000Y1531450D01*
X2778000Y1535450D01*
X2780000Y1535450D01*
X2780000Y1539450D01*
X2782000Y1539450D01*
X2782000Y1543450D01*
X2784000Y1543450D01*
X2784000Y1545450D01*
X2786000Y1545450D01*
X2786000Y1549450D01*
X2788000Y1549450D01*
X2788000Y1553450D01*
X2790000Y1553450D01*
X2790000Y1555450D01*
X2792000Y1555450D01*
X2792000Y1559450D01*
X2794000Y1559450D01*
X2794000Y1561450D01*
X2796000Y1561450D01*
X2796000Y1565450D01*
X2798000Y1565450D01*
X2798000Y1567450D01*
X2800000Y1567450D01*
X2800000Y1571450D01*
X2802000Y1571450D01*
X2802000Y1573450D01*
X2804000Y1573450D01*
X2804000Y1577450D01*
X2806000Y1577450D01*
X2806000Y1579450D01*
X50000Y1579450D01*
G37*
D02*
G36*
X3646000Y1579450D02*
X3646000Y1577450D01*
X3648000Y1577450D01*
X3648000Y1575450D01*
X3650000Y1575450D01*
X3650000Y1573450D01*
X3652000Y1573450D01*
X3652000Y1569450D01*
X3654000Y1569450D01*
X3654000Y1565450D01*
X3656000Y1565450D01*
X3656000Y1563450D01*
X3658000Y1563450D01*
X3658000Y1559450D01*
X3660000Y1559450D01*
X3660000Y1557450D01*
X3662000Y1557450D01*
X3662000Y1553450D01*
X3664000Y1553450D01*
X3664000Y1551450D01*
X3666000Y1551450D01*
X3666000Y1547450D01*
X3668000Y1547450D01*
X3668000Y1543450D01*
X3670000Y1543450D01*
X3670000Y1539450D01*
X3672000Y1539450D01*
X3672000Y1537450D01*
X3674000Y1537450D01*
X3674000Y1533450D01*
X3676000Y1533450D01*
X3676000Y1529450D01*
X3678000Y1529450D01*
X3678000Y1525450D01*
X3680000Y1525450D01*
X3680000Y1521450D01*
X3682000Y1521450D01*
X3682000Y1517450D01*
X3684000Y1517450D01*
X3684000Y1513450D01*
X3686000Y1513450D01*
X3686000Y1509450D01*
X3688000Y1509450D01*
X3688000Y1505450D01*
X3690000Y1505450D01*
X3690000Y1501450D01*
X3692000Y1501450D01*
X3692000Y1497450D01*
X3694000Y1497450D01*
X3694000Y1493450D01*
X3696000Y1493450D01*
X3696000Y1489450D01*
X3698000Y1489450D01*
X3698000Y1483450D01*
X3700000Y1483450D01*
X3700000Y1479450D01*
X3702000Y1479450D01*
X3702000Y1473450D01*
X3704000Y1473450D01*
X3704000Y1469450D01*
X3706000Y1469450D01*
X3706000Y1463450D01*
X3708000Y1463450D01*
X3708000Y1457450D01*
X3710000Y1457450D01*
X3710000Y1451450D01*
X3712000Y1451450D01*
X3712000Y1445450D01*
X3714000Y1445450D01*
X3714000Y1439450D01*
X3716000Y1439450D01*
X3716000Y1433450D01*
X3718000Y1433450D01*
X3718000Y1425450D01*
X3720000Y1425450D01*
X3720000Y1419450D01*
X3722000Y1419450D01*
X3722000Y1411450D01*
X3724000Y1411450D01*
X3724000Y1403450D01*
X3726000Y1403450D01*
X3726000Y1393450D01*
X3728000Y1393450D01*
X3728000Y1383450D01*
X3730000Y1383450D01*
X3730000Y1373450D01*
X3732000Y1373450D01*
X3732000Y1359450D01*
X3734000Y1359450D01*
X3734000Y1345450D01*
X3736000Y1345450D01*
X3736000Y1323450D01*
X3738000Y1323450D01*
X3738000Y1249450D01*
X3736000Y1249450D01*
X3736000Y1227450D01*
X3734000Y1227450D01*
X3734000Y1211450D01*
X3732000Y1211450D01*
X3732000Y1199450D01*
X3730000Y1199450D01*
X3730000Y1189450D01*
X3728000Y1189450D01*
X3728000Y1179450D01*
X3726000Y1179450D01*
X3726000Y1169450D01*
X4060000Y1169450D01*
X4060000Y1167450D01*
X4098000Y1167450D01*
X4098000Y1165450D01*
X4118000Y1165450D01*
X4118000Y1163450D01*
X4132000Y1163450D01*
X4132000Y1161450D01*
X4144000Y1161450D01*
X4144000Y1159450D01*
X4154000Y1159450D01*
X4154000Y1157450D01*
X4164000Y1157450D01*
X4164000Y1155450D01*
X4172000Y1155450D01*
X4172000Y1153450D01*
X4180000Y1153450D01*
X4180000Y1151450D01*
X4188000Y1151450D01*
X4188000Y1149450D01*
X4196000Y1149450D01*
X4196000Y1147450D01*
X4202000Y1147450D01*
X4202000Y1145450D01*
X4208000Y1145450D01*
X4208000Y1143450D01*
X4214000Y1143450D01*
X4214000Y1141450D01*
X4220000Y1141450D01*
X4220000Y1139450D01*
X4226000Y1139450D01*
X4226000Y1137450D01*
X4232000Y1137450D01*
X4232000Y1135450D01*
X4238000Y1135450D01*
X4238000Y1133450D01*
X4242000Y1133450D01*
X4242000Y1131450D01*
X4248000Y1131450D01*
X4248000Y1129450D01*
X4252000Y1129450D01*
X4252000Y1127450D01*
X4256000Y1127450D01*
X4256000Y1125450D01*
X4262000Y1125450D01*
X4262000Y1123450D01*
X4266000Y1123450D01*
X4266000Y1121450D01*
X4270000Y1121450D01*
X4270000Y1119450D01*
X4274000Y1119450D01*
X4274000Y1117450D01*
X4278000Y1117450D01*
X4278000Y1115450D01*
X4282000Y1115450D01*
X4282000Y1113450D01*
X4286000Y1113450D01*
X4286000Y1111450D01*
X4290000Y1111450D01*
X4290000Y1109450D01*
X4294000Y1109450D01*
X4294000Y1107450D01*
X4298000Y1107450D01*
X4298000Y1105450D01*
X4302000Y1105450D01*
X4302000Y1103450D01*
X4304000Y1103450D01*
X4304000Y1101450D01*
X4308000Y1101450D01*
X4308000Y1099450D01*
X4312000Y1099450D01*
X4312000Y1097450D01*
X4316000Y1097450D01*
X4316000Y1095450D01*
X4318000Y1095450D01*
X4318000Y1093450D01*
X4322000Y1093450D01*
X4322000Y1091450D01*
X4324000Y1091450D01*
X4324000Y1089450D01*
X4328000Y1089450D01*
X4328000Y1087450D01*
X4332000Y1087450D01*
X4332000Y1085450D01*
X4334000Y1085450D01*
X4334000Y1083450D01*
X4338000Y1083450D01*
X4338000Y1081450D01*
X4340000Y1081450D01*
X4340000Y1079450D01*
X4344000Y1079450D01*
X4344000Y1077450D01*
X4346000Y1077450D01*
X4346000Y1075450D01*
X4348000Y1075450D01*
X4348000Y1073450D01*
X4352000Y1073450D01*
X4352000Y1071450D01*
X4354000Y1071450D01*
X4354000Y1069450D01*
X4358000Y1069450D01*
X4358000Y1067450D01*
X4360000Y1067450D01*
X4360000Y1065450D01*
X4362000Y1065450D01*
X4362000Y1063450D01*
X4366000Y1063450D01*
X4366000Y1061450D01*
X4368000Y1061450D01*
X4368000Y1059450D01*
X4370000Y1059450D01*
X4370000Y1057450D01*
X4372000Y1057450D01*
X4372000Y1055450D01*
X4376000Y1055450D01*
X4376000Y1053450D01*
X4378000Y1053450D01*
X4378000Y1051450D01*
X4380000Y1051450D01*
X4380000Y1049450D01*
X4382000Y1049450D01*
X4382000Y1047450D01*
X4384000Y1047450D01*
X4384000Y1045450D01*
X4388000Y1045450D01*
X4388000Y1043450D01*
X4390000Y1043450D01*
X4390000Y1041450D01*
X4392000Y1041450D01*
X4392000Y1039450D01*
X4394000Y1039450D01*
X4394000Y1037450D01*
X4396000Y1037450D01*
X4396000Y1035450D01*
X4398000Y1035450D01*
X4398000Y1033450D01*
X4400000Y1033450D01*
X4400000Y1031450D01*
X4402000Y1031450D01*
X4402000Y1029450D01*
X4404000Y1029450D01*
X4404000Y1027450D01*
X4408000Y1027450D01*
X4408000Y1025450D01*
X4410000Y1025450D01*
X4410000Y1023450D01*
X4412000Y1023450D01*
X4412000Y1021450D01*
X4414000Y1021450D01*
X4414000Y1019450D01*
X4416000Y1019450D01*
X4416000Y1017450D01*
X4418000Y1017450D01*
X4418000Y1015450D01*
X4420000Y1015450D01*
X4420000Y1013450D01*
X4422000Y1013450D01*
X4422000Y1011450D01*
X4424000Y1011450D01*
X4424000Y1007450D01*
X4426000Y1007450D01*
X4426000Y1005450D01*
X4428000Y1005450D01*
X4428000Y1003450D01*
X4430000Y1003450D01*
X4430000Y1001450D01*
X4432000Y1001450D01*
X4432000Y999450D01*
X4434000Y999450D01*
X4434000Y997450D01*
X4436000Y997450D01*
X4436000Y995450D01*
X4438000Y995450D01*
X4438000Y993450D01*
X4440000Y993450D01*
X4440000Y991450D01*
X4442000Y991450D01*
X4442000Y987450D01*
X4444000Y987450D01*
X4444000Y985450D01*
X4446000Y985450D01*
X4446000Y983450D01*
X4448000Y983450D01*
X4448000Y981450D01*
X4450000Y981450D01*
X4450000Y979450D01*
X4452000Y979450D01*
X4452000Y975450D01*
X4454000Y975450D01*
X4454000Y973450D01*
X4456000Y973450D01*
X4456000Y971450D01*
X4458000Y971450D01*
X4458000Y969450D01*
X4460000Y969450D01*
X4460000Y965450D01*
X4462000Y965450D01*
X4462000Y963450D01*
X4464000Y963450D01*
X4464000Y961450D01*
X4466000Y961450D01*
X4466000Y957450D01*
X4468000Y957450D01*
X4468000Y955450D01*
X4470000Y955450D01*
X4470000Y951450D01*
X4472000Y951450D01*
X4472000Y949450D01*
X4474000Y949450D01*
X4474000Y947450D01*
X4476000Y947450D01*
X4476000Y943450D01*
X4478000Y943450D01*
X4478000Y941450D01*
X4480000Y941450D01*
X4480000Y937450D01*
X4482000Y937450D01*
X4482000Y935450D01*
X4484000Y935450D01*
X4484000Y931450D01*
X4486000Y931450D01*
X4486000Y927450D01*
X4488000Y927450D01*
X4488000Y925450D01*
X4490000Y925450D01*
X4490000Y921450D01*
X4492000Y921450D01*
X4492000Y919450D01*
X4494000Y919450D01*
X4494000Y915450D01*
X4496000Y915450D01*
X4496000Y911450D01*
X4498000Y911450D01*
X4498000Y907450D01*
X4500000Y907450D01*
X4500000Y905450D01*
X4502000Y905450D01*
X4502000Y901450D01*
X4504000Y901450D01*
X4504000Y897450D01*
X4506000Y897450D01*
X4506000Y893450D01*
X4508000Y893450D01*
X4508000Y889450D01*
X4510000Y889450D01*
X4510000Y885450D01*
X4512000Y885450D01*
X4512000Y881450D01*
X4514000Y881450D01*
X4514000Y877450D01*
X4516000Y877450D01*
X4516000Y873450D01*
X4518000Y873450D01*
X4518000Y869450D01*
X4520000Y869450D01*
X4520000Y865450D01*
X4522000Y865450D01*
X4522000Y859450D01*
X4524000Y859450D01*
X4524000Y855450D01*
X4526000Y855450D01*
X4526000Y851450D01*
X4528000Y851450D01*
X4528000Y845450D01*
X4530000Y845450D01*
X4530000Y841450D01*
X4532000Y841450D01*
X4532000Y835450D01*
X4534000Y835450D01*
X4534000Y829450D01*
X4536000Y829450D01*
X4536000Y823450D01*
X4538000Y823450D01*
X4538000Y817450D01*
X4540000Y817450D01*
X4540000Y811450D01*
X4542000Y811450D01*
X4542000Y805450D01*
X4544000Y805450D01*
X4544000Y799450D01*
X4546000Y799450D01*
X4546000Y791450D01*
X4548000Y791450D01*
X4548000Y785450D01*
X4550000Y785450D01*
X4550000Y775450D01*
X4552000Y775450D01*
X4552000Y767450D01*
X4554000Y767450D01*
X4554000Y757450D01*
X4556000Y757450D01*
X4556000Y747450D01*
X4558000Y747450D01*
X4558000Y735450D01*
X4560000Y735450D01*
X4560000Y721450D01*
X4562000Y721450D01*
X4562000Y703450D01*
X4564000Y703450D01*
X4564000Y667450D01*
X4566000Y667450D01*
X4566000Y645450D01*
X4564000Y645450D01*
X4564000Y609450D01*
X4562000Y609450D01*
X4562000Y591450D01*
X4560000Y591450D01*
X4560000Y577450D01*
X4558000Y577450D01*
X4558000Y565450D01*
X4556000Y565450D01*
X4556000Y555450D01*
X4554000Y555450D01*
X4554000Y545450D01*
X4552000Y545450D01*
X4552000Y537450D01*
X4550000Y537450D01*
X4550000Y527450D01*
X4548000Y527450D01*
X4548000Y521450D01*
X4546000Y521450D01*
X4546000Y513450D01*
X4544000Y513450D01*
X4544000Y507450D01*
X4542000Y507450D01*
X4542000Y501450D01*
X4540000Y501450D01*
X4540000Y495450D01*
X4538000Y495450D01*
X4538000Y489450D01*
X4536000Y489450D01*
X4536000Y483450D01*
X4534000Y483450D01*
X4534000Y477450D01*
X4532000Y477450D01*
X4532000Y471450D01*
X4530000Y471450D01*
X4530000Y467450D01*
X4528000Y467450D01*
X4528000Y461450D01*
X4526000Y461450D01*
X4526000Y457450D01*
X4524000Y457450D01*
X4524000Y453450D01*
X4522000Y453450D01*
X4522000Y447450D01*
X4520000Y447450D01*
X4520000Y443450D01*
X4518000Y443450D01*
X4518000Y439450D01*
X4516000Y439450D01*
X4516000Y435450D01*
X4514000Y435450D01*
X4514000Y431450D01*
X4512000Y431450D01*
X4512000Y427450D01*
X4510000Y427450D01*
X4510000Y423450D01*
X4508000Y423450D01*
X4508000Y419450D01*
X4506000Y419450D01*
X4506000Y415450D01*
X4504000Y415450D01*
X4504000Y411450D01*
X4502000Y411450D01*
X4502000Y407450D01*
X4500000Y407450D01*
X4500000Y405450D01*
X4498000Y405450D01*
X4498000Y401450D01*
X4496000Y401450D01*
X4496000Y397450D01*
X4494000Y397450D01*
X4494000Y393450D01*
X4492000Y393450D01*
X4492000Y391450D01*
X4490000Y391450D01*
X4490000Y387450D01*
X4488000Y387450D01*
X4488000Y385450D01*
X4486000Y385450D01*
X4486000Y381450D01*
X4484000Y381450D01*
X4484000Y379450D01*
X4482000Y379450D01*
X4482000Y375450D01*
X4480000Y375450D01*
X4480000Y371450D01*
X4478000Y371450D01*
X4478000Y369450D01*
X4476000Y369450D01*
X4476000Y365450D01*
X4474000Y365450D01*
X4474000Y363450D01*
X4472000Y363450D01*
X4472000Y361450D01*
X4470000Y361450D01*
X4470000Y357450D01*
X4468000Y357450D01*
X4468000Y355450D01*
X4466000Y355450D01*
X4466000Y351450D01*
X4464000Y351450D01*
X4464000Y349450D01*
X4462000Y349450D01*
X4462000Y347450D01*
X4460000Y347450D01*
X4460000Y343450D01*
X4458000Y343450D01*
X4458000Y341450D01*
X4456000Y341450D01*
X4456000Y339450D01*
X4454000Y339450D01*
X4454000Y337450D01*
X4452000Y337450D01*
X4452000Y333450D01*
X4450000Y333450D01*
X4450000Y331450D01*
X6134000Y331450D01*
X6134000Y329450D01*
X6150000Y329450D01*
X6150000Y327450D01*
X6158000Y327450D01*
X6158000Y325450D01*
X6164000Y325450D01*
X6164000Y323450D01*
X6170000Y323450D01*
X6170000Y321450D01*
X6174000Y321450D01*
X6174000Y319450D01*
X6178000Y319450D01*
X6178000Y317450D01*
X6182000Y317450D01*
X6182000Y315450D01*
X6186000Y315450D01*
X6186000Y313450D01*
X6190000Y313450D01*
X6190000Y311450D01*
X6192000Y311450D01*
X6192000Y309450D01*
X6196000Y309450D01*
X6196000Y307450D01*
X6198000Y307450D01*
X6198000Y305450D01*
X6200000Y305450D01*
X6200000Y303450D01*
X6204000Y303450D01*
X6204000Y301450D01*
X6206000Y301450D01*
X6206000Y299450D01*
X6208000Y299450D01*
X6208000Y297450D01*
X6210000Y297450D01*
X6210000Y295450D01*
X6212000Y295450D01*
X6212000Y293450D01*
X6214000Y293450D01*
X6214000Y291450D01*
X6216000Y291450D01*
X6216000Y289450D01*
X6218000Y289450D01*
X6218000Y287450D01*
X6220000Y287450D01*
X6220000Y283450D01*
X6222000Y283450D01*
X6222000Y281450D01*
X6224000Y281450D01*
X6224000Y279450D01*
X6226000Y279450D01*
X6226000Y275450D01*
X6228000Y275450D01*
X6228000Y273450D01*
X6230000Y273450D01*
X6230000Y269450D01*
X6232000Y269450D01*
X6232000Y265450D01*
X6234000Y265450D01*
X6234000Y261450D01*
X6236000Y261450D01*
X6236000Y257450D01*
X6238000Y257450D01*
X6238000Y255450D01*
X6258000Y255450D01*
X6258000Y259450D01*
X6260000Y259450D01*
X6260000Y263450D01*
X6262000Y263450D01*
X6262000Y267450D01*
X6264000Y267450D01*
X6264000Y273450D01*
X6266000Y273450D01*
X6266000Y277450D01*
X6268000Y277450D01*
X6268000Y281450D01*
X6270000Y281450D01*
X6270000Y287450D01*
X6272000Y287450D01*
X6272000Y293450D01*
X6274000Y293450D01*
X6274000Y297450D01*
X6276000Y297450D01*
X6276000Y303450D01*
X6278000Y303450D01*
X6278000Y309450D01*
X6280000Y309450D01*
X6280000Y315450D01*
X6282000Y315450D01*
X6282000Y323450D01*
X6284000Y323450D01*
X6284000Y329450D01*
X6286000Y329450D01*
X6286000Y337450D01*
X6288000Y337450D01*
X6288000Y347450D01*
X6290000Y347450D01*
X6290000Y355450D01*
X6292000Y355450D01*
X6292000Y367450D01*
X6294000Y367450D01*
X6294000Y381450D01*
X6296000Y381450D01*
X6296000Y399450D01*
X6298000Y399450D01*
X6298000Y1513450D01*
X6296000Y1513450D01*
X6296000Y1531450D01*
X6294000Y1531450D01*
X6294000Y1543450D01*
X6292000Y1543450D01*
X6292000Y1555450D01*
X6290000Y1555450D01*
X6290000Y1565450D01*
X6288000Y1565450D01*
X6288000Y1573450D01*
X6286000Y1573450D01*
X6286000Y1579450D01*
X3646000Y1579450D01*
G37*
D02*
G36*
X3724000Y1169450D02*
X3724000Y1161450D01*
X3722000Y1161450D01*
X3722000Y1153450D01*
X3720000Y1153450D01*
X3720000Y1147450D01*
X3718000Y1147450D01*
X3718000Y1139450D01*
X3716000Y1139450D01*
X3716000Y1133450D01*
X3714000Y1133450D01*
X3714000Y1127450D01*
X3712000Y1127450D01*
X3712000Y1121450D01*
X3710000Y1121450D01*
X3710000Y1115450D01*
X3708000Y1115450D01*
X3708000Y1109450D01*
X3706000Y1109450D01*
X3706000Y1103450D01*
X3704000Y1103450D01*
X3704000Y1099450D01*
X3702000Y1099450D01*
X3702000Y1093450D01*
X3700000Y1093450D01*
X3700000Y1089450D01*
X3698000Y1089450D01*
X3698000Y1083450D01*
X3696000Y1083450D01*
X3696000Y1079450D01*
X3694000Y1079450D01*
X3694000Y1075450D01*
X3692000Y1075450D01*
X3692000Y1071450D01*
X3690000Y1071450D01*
X3690000Y1067450D01*
X3688000Y1067450D01*
X3688000Y1063450D01*
X3686000Y1063450D01*
X3686000Y1059450D01*
X3684000Y1059450D01*
X3684000Y1055450D01*
X3682000Y1055450D01*
X3682000Y1051450D01*
X3680000Y1051450D01*
X3680000Y1047450D01*
X3678000Y1047450D01*
X3678000Y1043450D01*
X3676000Y1043450D01*
X3676000Y1039450D01*
X3674000Y1039450D01*
X3674000Y1035450D01*
X3672000Y1035450D01*
X3672000Y1033450D01*
X3670000Y1033450D01*
X3670000Y1029450D01*
X3668000Y1029450D01*
X3668000Y1025450D01*
X3666000Y1025450D01*
X3666000Y1021450D01*
X3664000Y1021450D01*
X3664000Y1019450D01*
X3662000Y1019450D01*
X3662000Y1015450D01*
X3660000Y1015450D01*
X3660000Y1013450D01*
X3658000Y1013450D01*
X3658000Y1009450D01*
X3656000Y1009450D01*
X3656000Y1005450D01*
X3654000Y1005450D01*
X3654000Y1003450D01*
X3652000Y1003450D01*
X3652000Y999450D01*
X3650000Y999450D01*
X3650000Y997450D01*
X3648000Y997450D01*
X3648000Y995450D01*
X3646000Y995450D01*
X3646000Y991450D01*
X3644000Y991450D01*
X3644000Y989450D01*
X3642000Y989450D01*
X3642000Y985450D01*
X3640000Y985450D01*
X3640000Y983450D01*
X3638000Y983450D01*
X3638000Y981450D01*
X3636000Y981450D01*
X3636000Y977450D01*
X3634000Y977450D01*
X3634000Y975450D01*
X3632000Y975450D01*
X3632000Y973450D01*
X3630000Y973450D01*
X3630000Y971450D01*
X3650000Y971450D01*
X3650000Y973450D01*
X3652000Y973450D01*
X3652000Y975450D01*
X3654000Y975450D01*
X3654000Y977450D01*
X3656000Y977450D01*
X3656000Y981450D01*
X3658000Y981450D01*
X3658000Y983450D01*
X3660000Y983450D01*
X3660000Y985450D01*
X3662000Y985450D01*
X3662000Y987450D01*
X3664000Y987450D01*
X3664000Y989450D01*
X3666000Y989450D01*
X3666000Y993450D01*
X3668000Y993450D01*
X3668000Y995450D01*
X3670000Y995450D01*
X3670000Y997450D01*
X3672000Y997450D01*
X3672000Y999450D01*
X3674000Y999450D01*
X3674000Y1001450D01*
X3676000Y1001450D01*
X3676000Y1003450D01*
X3678000Y1003450D01*
X3678000Y1005450D01*
X3680000Y1005450D01*
X3680000Y1007450D01*
X3682000Y1007450D01*
X3682000Y1009450D01*
X3684000Y1009450D01*
X3684000Y1011450D01*
X3686000Y1011450D01*
X3686000Y1013450D01*
X3688000Y1013450D01*
X3688000Y1017450D01*
X3690000Y1017450D01*
X3690000Y1019450D01*
X3692000Y1019450D01*
X3692000Y1021450D01*
X3696000Y1021450D01*
X3696000Y1023450D01*
X3698000Y1023450D01*
X3698000Y1025450D01*
X3700000Y1025450D01*
X3700000Y1027450D01*
X3702000Y1027450D01*
X3702000Y1029450D01*
X3704000Y1029450D01*
X3704000Y1031450D01*
X3706000Y1031450D01*
X3706000Y1033450D01*
X3708000Y1033450D01*
X3708000Y1035450D01*
X3710000Y1035450D01*
X3710000Y1037450D01*
X3712000Y1037450D01*
X3712000Y1039450D01*
X3714000Y1039450D01*
X3714000Y1041450D01*
X3716000Y1041450D01*
X3716000Y1043450D01*
X3720000Y1043450D01*
X3720000Y1045450D01*
X3722000Y1045450D01*
X3722000Y1047450D01*
X3724000Y1047450D01*
X3724000Y1049450D01*
X3726000Y1049450D01*
X3726000Y1051450D01*
X3728000Y1051450D01*
X3728000Y1053450D01*
X3730000Y1053450D01*
X3730000Y1055450D01*
X3734000Y1055450D01*
X3734000Y1057450D01*
X3736000Y1057450D01*
X3736000Y1059450D01*
X3738000Y1059450D01*
X3738000Y1061450D01*
X3742000Y1061450D01*
X3742000Y1063450D01*
X3744000Y1063450D01*
X3744000Y1065450D01*
X3746000Y1065450D01*
X3746000Y1067450D01*
X3750000Y1067450D01*
X3750000Y1069450D01*
X3752000Y1069450D01*
X3752000Y1071450D01*
X3754000Y1071450D01*
X3754000Y1073450D01*
X3758000Y1073450D01*
X3758000Y1075450D01*
X3760000Y1075450D01*
X3760000Y1077450D01*
X3764000Y1077450D01*
X3764000Y1079450D01*
X3766000Y1079450D01*
X3766000Y1081450D01*
X3768000Y1081450D01*
X3768000Y1083450D01*
X3772000Y1083450D01*
X3772000Y1085450D01*
X3776000Y1085450D01*
X3776000Y1087450D01*
X3778000Y1087450D01*
X3778000Y1089450D01*
X3782000Y1089450D01*
X3782000Y1091450D01*
X3784000Y1091450D01*
X3784000Y1093450D01*
X3788000Y1093450D01*
X3788000Y1095450D01*
X3792000Y1095450D01*
X3792000Y1097450D01*
X3794000Y1097450D01*
X3794000Y1099450D01*
X3798000Y1099450D01*
X3798000Y1101450D01*
X3802000Y1101450D01*
X3802000Y1103450D01*
X3806000Y1103450D01*
X3806000Y1105450D01*
X3808000Y1105450D01*
X3808000Y1107450D01*
X3812000Y1107450D01*
X3812000Y1109450D01*
X3816000Y1109450D01*
X3816000Y1111450D01*
X3820000Y1111450D01*
X3820000Y1113450D01*
X3824000Y1113450D01*
X3824000Y1115450D01*
X3828000Y1115450D01*
X3828000Y1117450D01*
X3832000Y1117450D01*
X3832000Y1119450D01*
X3836000Y1119450D01*
X3836000Y1121450D01*
X3840000Y1121450D01*
X3840000Y1123450D01*
X3846000Y1123450D01*
X3846000Y1125450D01*
X3850000Y1125450D01*
X3850000Y1127450D01*
X3854000Y1127450D01*
X3854000Y1129450D01*
X3860000Y1129450D01*
X3860000Y1131450D01*
X3864000Y1131450D01*
X3864000Y1133450D01*
X3870000Y1133450D01*
X3870000Y1135450D01*
X3874000Y1135450D01*
X3874000Y1137450D01*
X3880000Y1137450D01*
X3880000Y1139450D01*
X3886000Y1139450D01*
X3886000Y1141450D01*
X3892000Y1141450D01*
X3892000Y1143450D01*
X3898000Y1143450D01*
X3898000Y1145450D01*
X3904000Y1145450D01*
X3904000Y1147450D01*
X3912000Y1147450D01*
X3912000Y1149450D01*
X3918000Y1149450D01*
X3918000Y1151450D01*
X3926000Y1151450D01*
X3926000Y1153450D01*
X3934000Y1153450D01*
X3934000Y1155450D01*
X3942000Y1155450D01*
X3942000Y1157450D01*
X3952000Y1157450D01*
X3952000Y1159450D01*
X3962000Y1159450D01*
X3962000Y1161450D01*
X3974000Y1161450D01*
X3974000Y1163450D01*
X3990000Y1163450D01*
X3990000Y1165450D01*
X4008000Y1165450D01*
X4008000Y1167450D01*
X4046000Y1167450D01*
X4046000Y1169450D01*
X3724000Y1169450D01*
G37*
D02*
G36*
X3628000Y969450D02*
X3628000Y967450D01*
X3626000Y967450D01*
X3626000Y965450D01*
X3624000Y965450D01*
X3624000Y963450D01*
X3622000Y963450D01*
X3622000Y959450D01*
X3620000Y959450D01*
X3620000Y957450D01*
X3618000Y957450D01*
X3618000Y955450D01*
X3616000Y955450D01*
X3616000Y953450D01*
X3614000Y953450D01*
X3614000Y951450D01*
X3612000Y951450D01*
X3612000Y949450D01*
X3610000Y949450D01*
X3610000Y945450D01*
X3608000Y945450D01*
X3608000Y943450D01*
X3606000Y943450D01*
X3606000Y941450D01*
X3604000Y941450D01*
X3604000Y939450D01*
X3602000Y939450D01*
X3602000Y937450D01*
X3600000Y937450D01*
X3600000Y935450D01*
X3598000Y935450D01*
X3598000Y933450D01*
X3596000Y933450D01*
X3596000Y931450D01*
X3594000Y931450D01*
X3594000Y929450D01*
X3592000Y929450D01*
X3592000Y927450D01*
X3590000Y927450D01*
X3590000Y925450D01*
X3588000Y925450D01*
X3588000Y923450D01*
X3586000Y923450D01*
X3586000Y921450D01*
X3584000Y921450D01*
X3584000Y919450D01*
X3582000Y919450D01*
X3582000Y917450D01*
X3580000Y917450D01*
X3580000Y915450D01*
X3578000Y915450D01*
X3578000Y913450D01*
X3576000Y913450D01*
X3576000Y911450D01*
X3574000Y911450D01*
X3574000Y909450D01*
X3572000Y909450D01*
X3572000Y907450D01*
X3570000Y907450D01*
X3570000Y905450D01*
X3568000Y905450D01*
X3568000Y903450D01*
X3566000Y903450D01*
X3566000Y901450D01*
X3562000Y901450D01*
X3562000Y899450D01*
X3560000Y899450D01*
X3560000Y897450D01*
X3558000Y897450D01*
X3558000Y895450D01*
X3556000Y895450D01*
X3556000Y893450D01*
X3554000Y893450D01*
X3554000Y891450D01*
X3552000Y891450D01*
X3552000Y889450D01*
X3548000Y889450D01*
X3548000Y887450D01*
X3546000Y887450D01*
X3546000Y885450D01*
X3544000Y885450D01*
X3544000Y883450D01*
X3540000Y883450D01*
X3540000Y881450D01*
X3538000Y881450D01*
X3538000Y879450D01*
X3536000Y879450D01*
X3536000Y877450D01*
X3534000Y877450D01*
X3534000Y875450D01*
X3530000Y875450D01*
X3530000Y873450D01*
X3528000Y873450D01*
X3528000Y871450D01*
X3524000Y871450D01*
X3524000Y869450D01*
X3522000Y869450D01*
X3522000Y867450D01*
X3520000Y867450D01*
X3520000Y865450D01*
X3516000Y865450D01*
X3516000Y863450D01*
X3514000Y863450D01*
X3514000Y861450D01*
X3510000Y861450D01*
X3510000Y859450D01*
X3508000Y859450D01*
X3508000Y857450D01*
X3504000Y857450D01*
X3504000Y855450D01*
X3502000Y855450D01*
X3502000Y853450D01*
X3498000Y853450D01*
X3498000Y851450D01*
X3494000Y851450D01*
X3494000Y849450D01*
X3492000Y849450D01*
X3492000Y847450D01*
X3488000Y847450D01*
X3488000Y845450D01*
X3484000Y845450D01*
X3484000Y843450D01*
X3482000Y843450D01*
X3482000Y841450D01*
X3478000Y841450D01*
X3478000Y839450D01*
X3474000Y839450D01*
X3474000Y837450D01*
X3470000Y837450D01*
X3470000Y835450D01*
X3468000Y835450D01*
X3468000Y833450D01*
X3464000Y833450D01*
X3464000Y831450D01*
X3460000Y831450D01*
X3460000Y829450D01*
X3456000Y829450D01*
X3456000Y827450D01*
X3452000Y827450D01*
X3452000Y825450D01*
X3448000Y825450D01*
X3448000Y823450D01*
X3444000Y823450D01*
X3444000Y821450D01*
X3438000Y821450D01*
X3438000Y819450D01*
X3434000Y819450D01*
X3434000Y817450D01*
X3430000Y817450D01*
X3430000Y815450D01*
X3426000Y815450D01*
X3426000Y813450D01*
X3420000Y813450D01*
X3420000Y811450D01*
X3416000Y811450D01*
X3416000Y809450D01*
X3410000Y809450D01*
X3410000Y807450D01*
X3406000Y807450D01*
X3406000Y805450D01*
X3400000Y805450D01*
X3400000Y803450D01*
X3394000Y803450D01*
X3394000Y801450D01*
X3388000Y801450D01*
X3388000Y799450D01*
X3382000Y799450D01*
X3382000Y797450D01*
X3376000Y797450D01*
X3376000Y795450D01*
X3368000Y795450D01*
X3368000Y793450D01*
X3362000Y793450D01*
X3362000Y791450D01*
X3354000Y791450D01*
X3354000Y789450D01*
X3346000Y789450D01*
X3346000Y787450D01*
X3336000Y787450D01*
X3336000Y785450D01*
X3328000Y785450D01*
X3328000Y783450D01*
X3316000Y783450D01*
X3316000Y781450D01*
X3306000Y781450D01*
X3306000Y779450D01*
X3290000Y779450D01*
X3290000Y777450D01*
X3272000Y777450D01*
X3272000Y775450D01*
X3232000Y775450D01*
X3232000Y773450D01*
X3554000Y773450D01*
X3554000Y775450D01*
X3556000Y775450D01*
X3556000Y783450D01*
X3558000Y783450D01*
X3558000Y791450D01*
X3560000Y791450D01*
X3560000Y797450D01*
X3562000Y797450D01*
X3562000Y805450D01*
X3564000Y805450D01*
X3564000Y811450D01*
X3566000Y811450D01*
X3566000Y817450D01*
X3568000Y817450D01*
X3568000Y823450D01*
X3570000Y823450D01*
X3570000Y829450D01*
X3572000Y829450D01*
X3572000Y835450D01*
X3574000Y835450D01*
X3574000Y839450D01*
X3576000Y839450D01*
X3576000Y845450D01*
X3578000Y845450D01*
X3578000Y849450D01*
X3580000Y849450D01*
X3580000Y855450D01*
X3582000Y855450D01*
X3582000Y859450D01*
X3584000Y859450D01*
X3584000Y863450D01*
X3586000Y863450D01*
X3586000Y869450D01*
X3588000Y869450D01*
X3588000Y873450D01*
X3590000Y873450D01*
X3590000Y877450D01*
X3592000Y877450D01*
X3592000Y881450D01*
X3594000Y881450D01*
X3594000Y885450D01*
X3596000Y885450D01*
X3596000Y889450D01*
X3598000Y889450D01*
X3598000Y893450D01*
X3600000Y893450D01*
X3600000Y897450D01*
X3602000Y897450D01*
X3602000Y901450D01*
X3604000Y901450D01*
X3604000Y903450D01*
X3606000Y903450D01*
X3606000Y907450D01*
X3608000Y907450D01*
X3608000Y911450D01*
X3610000Y911450D01*
X3610000Y915450D01*
X3612000Y915450D01*
X3612000Y917450D01*
X3614000Y917450D01*
X3614000Y921450D01*
X3616000Y921450D01*
X3616000Y925450D01*
X3618000Y925450D01*
X3618000Y927450D01*
X3620000Y927450D01*
X3620000Y931450D01*
X3622000Y931450D01*
X3622000Y933450D01*
X3624000Y933450D01*
X3624000Y937450D01*
X3626000Y937450D01*
X3626000Y939450D01*
X3628000Y939450D01*
X3628000Y943450D01*
X3630000Y943450D01*
X3630000Y945450D01*
X3632000Y945450D01*
X3632000Y949450D01*
X3634000Y949450D01*
X3634000Y951450D01*
X3636000Y951450D01*
X3636000Y955450D01*
X3638000Y955450D01*
X3638000Y957450D01*
X3640000Y957450D01*
X3640000Y959450D01*
X3642000Y959450D01*
X3642000Y963450D01*
X3644000Y963450D01*
X3644000Y965450D01*
X3646000Y965450D01*
X3646000Y967450D01*
X3648000Y967450D01*
X3648000Y969450D01*
X3628000Y969450D01*
G37*
D02*
G36*
X40000Y773450D02*
X40000Y771450D01*
X3554000Y771450D01*
X3554000Y773450D01*
X40000Y773450D01*
G37*
D02*
G36*
X40000Y773450D02*
X40000Y771450D01*
X3554000Y771450D01*
X3554000Y773450D01*
X40000Y773450D01*
G37*
D02*
G36*
X40000Y771450D02*
X40000Y385450D01*
X42000Y385450D01*
X42000Y371450D01*
X44000Y371450D01*
X44000Y359450D01*
X46000Y359450D01*
X46000Y349450D01*
X48000Y349450D01*
X48000Y339450D01*
X50000Y339450D01*
X50000Y331450D01*
X228000Y331450D01*
X228000Y329450D01*
X244000Y329450D01*
X244000Y327450D01*
X252000Y327450D01*
X252000Y325450D01*
X258000Y325450D01*
X258000Y323450D01*
X264000Y323450D01*
X264000Y321450D01*
X268000Y321450D01*
X268000Y319450D01*
X274000Y319450D01*
X274000Y317450D01*
X278000Y317450D01*
X278000Y315450D01*
X280000Y315450D01*
X280000Y313450D01*
X284000Y313450D01*
X284000Y311450D01*
X286000Y311450D01*
X286000Y309450D01*
X290000Y309450D01*
X290000Y307450D01*
X292000Y307450D01*
X292000Y305450D01*
X296000Y305450D01*
X296000Y303450D01*
X298000Y303450D01*
X298000Y301450D01*
X300000Y301450D01*
X300000Y299450D01*
X302000Y299450D01*
X302000Y297450D01*
X304000Y297450D01*
X304000Y295450D01*
X306000Y295450D01*
X306000Y293450D01*
X308000Y293450D01*
X308000Y291450D01*
X310000Y291450D01*
X310000Y289450D01*
X312000Y289450D01*
X312000Y287450D01*
X314000Y287450D01*
X314000Y285450D01*
X316000Y285450D01*
X316000Y281450D01*
X318000Y281450D01*
X318000Y279450D01*
X320000Y279450D01*
X320000Y277450D01*
X322000Y277450D01*
X322000Y273450D01*
X324000Y273450D01*
X324000Y269450D01*
X326000Y269450D01*
X326000Y267450D01*
X1348000Y267450D01*
X1348000Y265450D01*
X1362000Y265450D01*
X1362000Y263450D01*
X1370000Y263450D01*
X1370000Y261450D01*
X1376000Y261450D01*
X1376000Y259450D01*
X1382000Y259450D01*
X1382000Y257450D01*
X1386000Y257450D01*
X1386000Y255450D01*
X1390000Y255450D01*
X1390000Y253450D01*
X1394000Y253450D01*
X1394000Y251450D01*
X1398000Y251450D01*
X1398000Y249450D01*
X1400000Y249450D01*
X1400000Y247450D01*
X1404000Y247450D01*
X1404000Y245450D01*
X1406000Y245450D01*
X1406000Y243450D01*
X1410000Y243450D01*
X1410000Y241450D01*
X1412000Y241450D01*
X1412000Y239450D01*
X1414000Y239450D01*
X1414000Y237450D01*
X1418000Y237450D01*
X1418000Y235450D01*
X1420000Y235450D01*
X1420000Y233450D01*
X1422000Y233450D01*
X1422000Y231450D01*
X1424000Y231450D01*
X1424000Y229450D01*
X1426000Y229450D01*
X1426000Y227450D01*
X1428000Y227450D01*
X1428000Y225450D01*
X1430000Y225450D01*
X1430000Y221450D01*
X1432000Y221450D01*
X1432000Y219450D01*
X1434000Y219450D01*
X1434000Y217450D01*
X1436000Y217450D01*
X1436000Y213450D01*
X1438000Y213450D01*
X1438000Y211450D01*
X1440000Y211450D01*
X1440000Y207450D01*
X1442000Y207450D01*
X1442000Y205450D01*
X1444000Y205450D01*
X1444000Y201450D01*
X1446000Y201450D01*
X1446000Y197450D01*
X1448000Y197450D01*
X1448000Y193450D01*
X1450000Y193450D01*
X1450000Y187450D01*
X1452000Y187450D01*
X1452000Y181450D01*
X1454000Y181450D01*
X1454000Y175450D01*
X1456000Y175450D01*
X1456000Y165450D01*
X1458000Y165450D01*
X1458000Y143450D01*
X4050000Y143450D01*
X4050000Y145450D01*
X4008000Y145450D01*
X4008000Y147450D01*
X3990000Y147450D01*
X3990000Y149450D01*
X3974000Y149450D01*
X3974000Y151450D01*
X3964000Y151450D01*
X3964000Y153450D01*
X3952000Y153450D01*
X3952000Y155450D01*
X3944000Y155450D01*
X3944000Y157450D01*
X3934000Y157450D01*
X3934000Y159450D01*
X3926000Y159450D01*
X3926000Y161450D01*
X3918000Y161450D01*
X3918000Y163450D01*
X3912000Y163450D01*
X3912000Y165450D01*
X3904000Y165450D01*
X3904000Y167450D01*
X3898000Y167450D01*
X3898000Y169450D01*
X3892000Y169450D01*
X3892000Y171450D01*
X3886000Y171450D01*
X3886000Y173450D01*
X3880000Y173450D01*
X3880000Y175450D01*
X3874000Y175450D01*
X3874000Y177450D01*
X3870000Y177450D01*
X3870000Y179450D01*
X3864000Y179450D01*
X3864000Y181450D01*
X3860000Y181450D01*
X3860000Y183450D01*
X3854000Y183450D01*
X3854000Y185450D01*
X3850000Y185450D01*
X3850000Y187450D01*
X3846000Y187450D01*
X3846000Y189450D01*
X3840000Y189450D01*
X3840000Y191450D01*
X3836000Y191450D01*
X3836000Y193450D01*
X3832000Y193450D01*
X3832000Y195450D01*
X3828000Y195450D01*
X3828000Y197450D01*
X3824000Y197450D01*
X3824000Y199450D01*
X3820000Y199450D01*
X3820000Y201450D01*
X3816000Y201450D01*
X3816000Y203450D01*
X3812000Y203450D01*
X3812000Y205450D01*
X3808000Y205450D01*
X3808000Y207450D01*
X3806000Y207450D01*
X3806000Y209450D01*
X3802000Y209450D01*
X3802000Y211450D01*
X3798000Y211450D01*
X3798000Y213450D01*
X3794000Y213450D01*
X3794000Y215450D01*
X3792000Y215450D01*
X3792000Y217450D01*
X3788000Y217450D01*
X3788000Y219450D01*
X3784000Y219450D01*
X3784000Y221450D01*
X3782000Y221450D01*
X3782000Y223450D01*
X3778000Y223450D01*
X3778000Y225450D01*
X3776000Y225450D01*
X3776000Y227450D01*
X3772000Y227450D01*
X3772000Y229450D01*
X3770000Y229450D01*
X3770000Y231450D01*
X3766000Y231450D01*
X3766000Y233450D01*
X3764000Y233450D01*
X3764000Y235450D01*
X3760000Y235450D01*
X3760000Y237450D01*
X3758000Y237450D01*
X3758000Y239450D01*
X3754000Y239450D01*
X3754000Y241450D01*
X3752000Y241450D01*
X3752000Y243450D01*
X3750000Y243450D01*
X3750000Y245450D01*
X3746000Y245450D01*
X3746000Y247450D01*
X3744000Y247450D01*
X3744000Y249450D01*
X3742000Y249450D01*
X3742000Y251450D01*
X3738000Y251450D01*
X3738000Y253450D01*
X3736000Y253450D01*
X3736000Y255450D01*
X3734000Y255450D01*
X3734000Y257450D01*
X3732000Y257450D01*
X3732000Y259450D01*
X3728000Y259450D01*
X3728000Y261450D01*
X3726000Y261450D01*
X3726000Y263450D01*
X3724000Y263450D01*
X3724000Y265450D01*
X3722000Y265450D01*
X3722000Y267450D01*
X3720000Y267450D01*
X3720000Y269450D01*
X3716000Y269450D01*
X3716000Y271450D01*
X3714000Y271450D01*
X3714000Y273450D01*
X3712000Y273450D01*
X3712000Y275450D01*
X3710000Y275450D01*
X3710000Y277450D01*
X3708000Y277450D01*
X3708000Y279450D01*
X3706000Y279450D01*
X3706000Y281450D01*
X3704000Y281450D01*
X3704000Y283450D01*
X3702000Y283450D01*
X3702000Y285450D01*
X3700000Y285450D01*
X3700000Y287450D01*
X3698000Y287450D01*
X3698000Y289450D01*
X3696000Y289450D01*
X3696000Y291450D01*
X3694000Y291450D01*
X3694000Y293450D01*
X3690000Y293450D01*
X3690000Y295450D01*
X3688000Y295450D01*
X3688000Y299450D01*
X3686000Y299450D01*
X3686000Y301450D01*
X3684000Y301450D01*
X3684000Y303450D01*
X3682000Y303450D01*
X3682000Y305450D01*
X3680000Y305450D01*
X3680000Y307450D01*
X3678000Y307450D01*
X3678000Y309450D01*
X3676000Y309450D01*
X3676000Y311450D01*
X3674000Y311450D01*
X3674000Y313450D01*
X3672000Y313450D01*
X3672000Y315450D01*
X3670000Y315450D01*
X3670000Y317450D01*
X3668000Y317450D01*
X3668000Y319450D01*
X3666000Y319450D01*
X3666000Y323450D01*
X3664000Y323450D01*
X3664000Y325450D01*
X3662000Y325450D01*
X3662000Y327450D01*
X3660000Y327450D01*
X3660000Y329450D01*
X3658000Y329450D01*
X3658000Y331450D01*
X3656000Y331450D01*
X3656000Y335450D01*
X3654000Y335450D01*
X3654000Y337450D01*
X3652000Y337450D01*
X3652000Y339450D01*
X3650000Y339450D01*
X3650000Y341450D01*
X3648000Y341450D01*
X3648000Y345450D01*
X3646000Y345450D01*
X3646000Y347450D01*
X3644000Y347450D01*
X3644000Y349450D01*
X3642000Y349450D01*
X3642000Y353450D01*
X3640000Y353450D01*
X3640000Y355450D01*
X3638000Y355450D01*
X3638000Y357450D01*
X3636000Y357450D01*
X3636000Y361450D01*
X3634000Y361450D01*
X3634000Y363450D01*
X3632000Y363450D01*
X3632000Y367450D01*
X3630000Y367450D01*
X3630000Y369450D01*
X3628000Y369450D01*
X3628000Y373450D01*
X3626000Y373450D01*
X3626000Y375450D01*
X3624000Y375450D01*
X3624000Y379450D01*
X3622000Y379450D01*
X3622000Y381450D01*
X3620000Y381450D01*
X3620000Y385450D01*
X3618000Y385450D01*
X3618000Y387450D01*
X3616000Y387450D01*
X3616000Y391450D01*
X3614000Y391450D01*
X3614000Y395450D01*
X3612000Y395450D01*
X3612000Y397450D01*
X3610000Y397450D01*
X3610000Y401450D01*
X3608000Y401450D01*
X3608000Y405450D01*
X3606000Y405450D01*
X3606000Y409450D01*
X3604000Y409450D01*
X3604000Y411450D01*
X3602000Y411450D01*
X3602000Y415450D01*
X3600000Y415450D01*
X3600000Y419450D01*
X3598000Y419450D01*
X3598000Y423450D01*
X3596000Y423450D01*
X3596000Y427450D01*
X3594000Y427450D01*
X3594000Y431450D01*
X3592000Y431450D01*
X3592000Y435450D01*
X3590000Y435450D01*
X3590000Y439450D01*
X3588000Y439450D01*
X3588000Y443450D01*
X3586000Y443450D01*
X3586000Y449450D01*
X3584000Y449450D01*
X3584000Y453450D01*
X3582000Y453450D01*
X3582000Y457450D01*
X3580000Y457450D01*
X3580000Y463450D01*
X3578000Y463450D01*
X3578000Y467450D01*
X3576000Y467450D01*
X3576000Y473450D01*
X3574000Y473450D01*
X3574000Y477450D01*
X3572000Y477450D01*
X3572000Y483450D01*
X3570000Y483450D01*
X3570000Y489450D01*
X3568000Y489450D01*
X3568000Y495450D01*
X3566000Y495450D01*
X3566000Y501450D01*
X3564000Y501450D01*
X3564000Y507450D01*
X3562000Y507450D01*
X3562000Y515450D01*
X3560000Y515450D01*
X3560000Y521450D01*
X3558000Y521450D01*
X3558000Y529450D01*
X3556000Y529450D01*
X3556000Y537450D01*
X3554000Y537450D01*
X3554000Y547450D01*
X3552000Y547450D01*
X3552000Y555450D01*
X3550000Y555450D01*
X3550000Y567450D01*
X3548000Y567450D01*
X3548000Y577450D01*
X3546000Y577450D01*
X3546000Y593450D01*
X3544000Y593450D01*
X3544000Y613450D01*
X3542000Y613450D01*
X3542000Y699450D01*
X3544000Y699450D01*
X3544000Y719450D01*
X3546000Y719450D01*
X3546000Y735450D01*
X3548000Y735450D01*
X3548000Y745450D01*
X3550000Y745450D01*
X3550000Y757450D01*
X3552000Y757450D01*
X3552000Y765450D01*
X3554000Y765450D01*
X3554000Y771450D01*
X40000Y771450D01*
G37*
D02*
G36*
X52000Y331450D02*
X52000Y325450D01*
X54000Y325450D01*
X54000Y317450D01*
X56000Y317450D01*
X56000Y311450D01*
X58000Y311450D01*
X58000Y305450D01*
X60000Y305450D01*
X60000Y299450D01*
X62000Y299450D01*
X62000Y293450D01*
X64000Y293450D01*
X64000Y289450D01*
X66000Y289450D01*
X66000Y283450D01*
X68000Y283450D01*
X68000Y279450D01*
X70000Y279450D01*
X70000Y273450D01*
X72000Y273450D01*
X72000Y269450D01*
X74000Y269450D01*
X74000Y265450D01*
X76000Y265450D01*
X76000Y261450D01*
X78000Y261450D01*
X78000Y257450D01*
X80000Y257450D01*
X80000Y253450D01*
X82000Y253450D01*
X82000Y249450D01*
X84000Y249450D01*
X84000Y245450D01*
X104000Y245450D01*
X104000Y251450D01*
X106000Y251450D01*
X106000Y255450D01*
X108000Y255450D01*
X108000Y261450D01*
X110000Y261450D01*
X110000Y265450D01*
X112000Y265450D01*
X112000Y267450D01*
X114000Y267450D01*
X114000Y271450D01*
X116000Y271450D01*
X116000Y275450D01*
X118000Y275450D01*
X118000Y277450D01*
X120000Y277450D01*
X120000Y281450D01*
X122000Y281450D01*
X122000Y283450D01*
X124000Y283450D01*
X124000Y285450D01*
X126000Y285450D01*
X126000Y287450D01*
X128000Y287450D01*
X128000Y291450D01*
X130000Y291450D01*
X130000Y293450D01*
X132000Y293450D01*
X132000Y295450D01*
X134000Y295450D01*
X134000Y297450D01*
X136000Y297450D01*
X136000Y299450D01*
X140000Y299450D01*
X140000Y301450D01*
X142000Y301450D01*
X142000Y303450D01*
X144000Y303450D01*
X144000Y305450D01*
X146000Y305450D01*
X146000Y307450D01*
X150000Y307450D01*
X150000Y309450D01*
X152000Y309450D01*
X152000Y311450D01*
X156000Y311450D01*
X156000Y313450D01*
X158000Y313450D01*
X158000Y315450D01*
X162000Y315450D01*
X162000Y317450D01*
X166000Y317450D01*
X166000Y319450D01*
X170000Y319450D01*
X170000Y321450D01*
X176000Y321450D01*
X176000Y323450D01*
X180000Y323450D01*
X180000Y325450D01*
X188000Y325450D01*
X188000Y327450D01*
X196000Y327450D01*
X196000Y329450D01*
X210000Y329450D01*
X210000Y331450D01*
X52000Y331450D01*
G37*
D02*
G36*
X4448000Y331450D02*
X4448000Y329450D01*
X4446000Y329450D01*
X4446000Y327450D01*
X4444000Y327450D01*
X4444000Y325450D01*
X4442000Y325450D01*
X4442000Y321450D01*
X4440000Y321450D01*
X4440000Y319450D01*
X4438000Y319450D01*
X4438000Y317450D01*
X4436000Y317450D01*
X4436000Y315450D01*
X4434000Y315450D01*
X4434000Y313450D01*
X4432000Y313450D01*
X4432000Y311450D01*
X4430000Y311450D01*
X4430000Y309450D01*
X4428000Y309450D01*
X4428000Y307450D01*
X4426000Y307450D01*
X4426000Y305450D01*
X4424000Y305450D01*
X4424000Y303450D01*
X4422000Y303450D01*
X4422000Y299450D01*
X4420000Y299450D01*
X4420000Y297450D01*
X4418000Y297450D01*
X4418000Y295450D01*
X4416000Y295450D01*
X4416000Y293450D01*
X4414000Y293450D01*
X4414000Y291450D01*
X4412000Y291450D01*
X4412000Y289450D01*
X4410000Y289450D01*
X4410000Y287450D01*
X4406000Y287450D01*
X4406000Y285450D01*
X4404000Y285450D01*
X4404000Y283450D01*
X4402000Y283450D01*
X4402000Y281450D01*
X4400000Y281450D01*
X4400000Y279450D01*
X4398000Y279450D01*
X4398000Y277450D01*
X4396000Y277450D01*
X4396000Y275450D01*
X4394000Y275450D01*
X4394000Y273450D01*
X4392000Y273450D01*
X4392000Y271450D01*
X4390000Y271450D01*
X4390000Y269450D01*
X4388000Y269450D01*
X4388000Y267450D01*
X5008000Y267450D01*
X5008000Y265450D01*
X5022000Y265450D01*
X5022000Y263450D01*
X5030000Y263450D01*
X5030000Y261450D01*
X5038000Y261450D01*
X5038000Y259450D01*
X5042000Y259450D01*
X5042000Y257450D01*
X5048000Y257450D01*
X5048000Y255450D01*
X5052000Y255450D01*
X5052000Y253450D01*
X5056000Y253450D01*
X5056000Y251450D01*
X5060000Y251450D01*
X5060000Y249450D01*
X5062000Y249450D01*
X5062000Y247450D01*
X5066000Y247450D01*
X5066000Y245450D01*
X5068000Y245450D01*
X5068000Y243450D01*
X5072000Y243450D01*
X5072000Y241450D01*
X5074000Y241450D01*
X5074000Y239450D01*
X5076000Y239450D01*
X5076000Y237450D01*
X5078000Y237450D01*
X5078000Y235450D01*
X5080000Y235450D01*
X5080000Y233450D01*
X5084000Y233450D01*
X5084000Y231450D01*
X5086000Y231450D01*
X5086000Y227450D01*
X5088000Y227450D01*
X5088000Y225450D01*
X5090000Y225450D01*
X5090000Y223450D01*
X5092000Y223450D01*
X5092000Y221450D01*
X5094000Y221450D01*
X5094000Y219450D01*
X5096000Y219450D01*
X5096000Y215450D01*
X5098000Y215450D01*
X5098000Y213450D01*
X5100000Y213450D01*
X5100000Y209450D01*
X5102000Y209450D01*
X5102000Y207450D01*
X5104000Y207450D01*
X5104000Y203450D01*
X5106000Y203450D01*
X5106000Y199450D01*
X5108000Y199450D01*
X5108000Y195450D01*
X5110000Y195450D01*
X5110000Y191450D01*
X5112000Y191450D01*
X5112000Y185450D01*
X5114000Y185450D01*
X5114000Y179450D01*
X5116000Y179450D01*
X5116000Y173450D01*
X5118000Y173450D01*
X5118000Y161450D01*
X5120000Y161450D01*
X5120000Y127450D01*
X5118000Y127450D01*
X5118000Y117450D01*
X5116000Y117450D01*
X5116000Y109450D01*
X5114000Y109450D01*
X5114000Y103450D01*
X5112000Y103450D01*
X5112000Y97450D01*
X5110000Y97450D01*
X5110000Y93450D01*
X5108000Y93450D01*
X5108000Y89450D01*
X5106000Y89450D01*
X5106000Y85450D01*
X5104000Y85450D01*
X5104000Y81450D01*
X5102000Y81450D01*
X5102000Y79450D01*
X5100000Y79450D01*
X5100000Y75450D01*
X5098000Y75450D01*
X5098000Y73450D01*
X5096000Y73450D01*
X5096000Y71450D01*
X5094000Y71450D01*
X5094000Y67450D01*
X5092000Y67450D01*
X5092000Y65450D01*
X5090000Y65450D01*
X5090000Y63450D01*
X5088000Y63450D01*
X5088000Y61450D01*
X5086000Y61450D01*
X5086000Y41450D01*
X5958000Y41450D01*
X5958000Y43450D01*
X5972000Y43450D01*
X5972000Y45450D01*
X5984000Y45450D01*
X5984000Y47450D01*
X5994000Y47450D01*
X5994000Y49450D01*
X6002000Y49450D01*
X6002000Y51450D01*
X6010000Y51450D01*
X6010000Y53450D01*
X6018000Y53450D01*
X6018000Y55450D01*
X6024000Y55450D01*
X6024000Y57450D01*
X6030000Y57450D01*
X6030000Y59450D01*
X6036000Y59450D01*
X6036000Y61450D01*
X6042000Y61450D01*
X6042000Y63450D01*
X6048000Y63450D01*
X6048000Y65450D01*
X6052000Y65450D01*
X6052000Y67450D01*
X6058000Y67450D01*
X6058000Y69450D01*
X6062000Y69450D01*
X6062000Y71450D01*
X6068000Y71450D01*
X6068000Y73450D01*
X6072000Y73450D01*
X6072000Y75450D01*
X6076000Y75450D01*
X6076000Y97450D01*
X6072000Y97450D01*
X6072000Y99450D01*
X6068000Y99450D01*
X6068000Y101450D01*
X6064000Y101450D01*
X6064000Y103450D01*
X6062000Y103450D01*
X6062000Y105450D01*
X6058000Y105450D01*
X6058000Y107450D01*
X6056000Y107450D01*
X6056000Y109450D01*
X6052000Y109450D01*
X6052000Y111450D01*
X6050000Y111450D01*
X6050000Y113450D01*
X6048000Y113450D01*
X6048000Y115450D01*
X6044000Y115450D01*
X6044000Y117450D01*
X6042000Y117450D01*
X6042000Y119450D01*
X6040000Y119450D01*
X6040000Y121450D01*
X6038000Y121450D01*
X6038000Y123450D01*
X6036000Y123450D01*
X6036000Y125450D01*
X6034000Y125450D01*
X6034000Y127450D01*
X6032000Y127450D01*
X6032000Y131450D01*
X6030000Y131450D01*
X6030000Y133450D01*
X6028000Y133450D01*
X6028000Y135450D01*
X6026000Y135450D01*
X6026000Y139450D01*
X6024000Y139450D01*
X6024000Y141450D01*
X6022000Y141450D01*
X6022000Y145450D01*
X6020000Y145450D01*
X6020000Y147450D01*
X6018000Y147450D01*
X6018000Y151450D01*
X6016000Y151450D01*
X6016000Y155450D01*
X6014000Y155450D01*
X6014000Y159450D01*
X6012000Y159450D01*
X6012000Y165450D01*
X6010000Y165450D01*
X6010000Y169450D01*
X6008000Y169450D01*
X6008000Y177450D01*
X6006000Y177450D01*
X6006000Y185450D01*
X6004000Y185450D01*
X6004000Y203450D01*
X6002000Y203450D01*
X6002000Y213450D01*
X6004000Y213450D01*
X6004000Y231450D01*
X6006000Y231450D01*
X6006000Y239450D01*
X6008000Y239450D01*
X6008000Y247450D01*
X6010000Y247450D01*
X6010000Y251450D01*
X6012000Y251450D01*
X6012000Y257450D01*
X6014000Y257450D01*
X6014000Y261450D01*
X6016000Y261450D01*
X6016000Y265450D01*
X6018000Y265450D01*
X6018000Y269450D01*
X6020000Y269450D01*
X6020000Y271450D01*
X6022000Y271450D01*
X6022000Y275450D01*
X6024000Y275450D01*
X6024000Y279450D01*
X6026000Y279450D01*
X6026000Y281450D01*
X6028000Y281450D01*
X6028000Y283450D01*
X6030000Y283450D01*
X6030000Y287450D01*
X6032000Y287450D01*
X6032000Y289450D01*
X6034000Y289450D01*
X6034000Y291450D01*
X6036000Y291450D01*
X6036000Y293450D01*
X6038000Y293450D01*
X6038000Y295450D01*
X6040000Y295450D01*
X6040000Y297450D01*
X6042000Y297450D01*
X6042000Y299450D01*
X6044000Y299450D01*
X6044000Y301450D01*
X6046000Y301450D01*
X6046000Y303450D01*
X6050000Y303450D01*
X6050000Y305450D01*
X6052000Y305450D01*
X6052000Y307450D01*
X6054000Y307450D01*
X6054000Y309450D01*
X6058000Y309450D01*
X6058000Y311450D01*
X6062000Y311450D01*
X6062000Y313450D01*
X6064000Y313450D01*
X6064000Y315450D01*
X6068000Y315450D01*
X6068000Y317450D01*
X6072000Y317450D01*
X6072000Y319450D01*
X6076000Y319450D01*
X6076000Y321450D01*
X6080000Y321450D01*
X6080000Y323450D01*
X6086000Y323450D01*
X6086000Y325450D01*
X6092000Y325450D01*
X6092000Y327450D01*
X6100000Y327450D01*
X6100000Y329450D01*
X6116000Y329450D01*
X6116000Y331450D01*
X4448000Y331450D01*
G37*
D02*
G36*
X328000Y267450D02*
X328000Y263450D01*
X330000Y263450D01*
X330000Y259450D01*
X332000Y259450D01*
X332000Y253450D01*
X334000Y253450D01*
X334000Y249450D01*
X336000Y249450D01*
X336000Y243450D01*
X338000Y243450D01*
X338000Y235450D01*
X340000Y235450D01*
X340000Y223450D01*
X342000Y223450D01*
X342000Y193450D01*
X340000Y193450D01*
X340000Y181450D01*
X338000Y181450D01*
X338000Y173450D01*
X336000Y173450D01*
X336000Y167450D01*
X334000Y167450D01*
X334000Y163450D01*
X332000Y163450D01*
X332000Y157450D01*
X330000Y157450D01*
X330000Y153450D01*
X328000Y153450D01*
X328000Y149450D01*
X326000Y149450D01*
X326000Y147450D01*
X324000Y147450D01*
X324000Y143450D01*
X322000Y143450D01*
X322000Y139450D01*
X320000Y139450D01*
X320000Y137450D01*
X318000Y137450D01*
X318000Y135450D01*
X316000Y135450D01*
X316000Y131450D01*
X314000Y131450D01*
X314000Y129450D01*
X312000Y129450D01*
X312000Y127450D01*
X310000Y127450D01*
X310000Y125450D01*
X308000Y125450D01*
X308000Y123450D01*
X306000Y123450D01*
X306000Y121450D01*
X304000Y121450D01*
X304000Y119450D01*
X302000Y119450D01*
X302000Y117450D01*
X300000Y117450D01*
X300000Y115450D01*
X298000Y115450D01*
X298000Y113450D01*
X294000Y113450D01*
X294000Y111450D01*
X292000Y111450D01*
X292000Y109450D01*
X290000Y109450D01*
X290000Y107450D01*
X286000Y107450D01*
X286000Y105450D01*
X284000Y105450D01*
X284000Y103450D01*
X280000Y103450D01*
X280000Y101450D01*
X276000Y101450D01*
X276000Y99450D01*
X272000Y99450D01*
X272000Y97450D01*
X268000Y97450D01*
X268000Y95450D01*
X264000Y95450D01*
X264000Y75450D01*
X266000Y75450D01*
X266000Y73450D01*
X270000Y73450D01*
X270000Y71450D01*
X274000Y71450D01*
X274000Y69450D01*
X278000Y69450D01*
X278000Y67450D01*
X284000Y67450D01*
X284000Y65450D01*
X288000Y65450D01*
X288000Y63450D01*
X294000Y63450D01*
X294000Y61450D01*
X300000Y61450D01*
X300000Y59450D01*
X306000Y59450D01*
X306000Y57450D01*
X312000Y57450D01*
X312000Y55450D01*
X320000Y55450D01*
X320000Y53450D01*
X326000Y53450D01*
X326000Y51450D01*
X334000Y51450D01*
X334000Y49450D01*
X342000Y49450D01*
X342000Y47450D01*
X354000Y47450D01*
X354000Y45450D01*
X364000Y45450D01*
X364000Y43450D01*
X380000Y43450D01*
X380000Y41450D01*
X1248000Y41450D01*
X1248000Y61450D01*
X1246000Y61450D01*
X1246000Y63450D01*
X1244000Y63450D01*
X1244000Y65450D01*
X1242000Y65450D01*
X1242000Y69450D01*
X1240000Y69450D01*
X1240000Y71450D01*
X1238000Y71450D01*
X1238000Y73450D01*
X1236000Y73450D01*
X1236000Y77450D01*
X1234000Y77450D01*
X1234000Y79450D01*
X1232000Y79450D01*
X1232000Y83450D01*
X1230000Y83450D01*
X1230000Y87450D01*
X1228000Y87450D01*
X1228000Y91450D01*
X1226000Y91450D01*
X1226000Y95450D01*
X1224000Y95450D01*
X1224000Y99450D01*
X1222000Y99450D01*
X1222000Y105450D01*
X1220000Y105450D01*
X1220000Y111450D01*
X1218000Y111450D01*
X1218000Y119450D01*
X1216000Y119450D01*
X1216000Y131450D01*
X1214000Y131450D01*
X1214000Y157450D01*
X1216000Y157450D01*
X1216000Y169450D01*
X1218000Y169450D01*
X1218000Y177450D01*
X1220000Y177450D01*
X1220000Y183450D01*
X1222000Y183450D01*
X1222000Y189450D01*
X1224000Y189450D01*
X1224000Y195450D01*
X1226000Y195450D01*
X1226000Y199450D01*
X1228000Y199450D01*
X1228000Y203450D01*
X1230000Y203450D01*
X1230000Y205450D01*
X1232000Y205450D01*
X1232000Y209450D01*
X1234000Y209450D01*
X1234000Y213450D01*
X1236000Y213450D01*
X1236000Y215450D01*
X1238000Y215450D01*
X1238000Y217450D01*
X1240000Y217450D01*
X1240000Y221450D01*
X1242000Y221450D01*
X1242000Y223450D01*
X1244000Y223450D01*
X1244000Y225450D01*
X1246000Y225450D01*
X1246000Y227450D01*
X1248000Y227450D01*
X1248000Y229450D01*
X1250000Y229450D01*
X1250000Y231450D01*
X1252000Y231450D01*
X1252000Y233450D01*
X1254000Y233450D01*
X1254000Y235450D01*
X1256000Y235450D01*
X1256000Y237450D01*
X1258000Y237450D01*
X1258000Y239450D01*
X1260000Y239450D01*
X1260000Y241450D01*
X1264000Y241450D01*
X1264000Y243450D01*
X1266000Y243450D01*
X1266000Y245450D01*
X1270000Y245450D01*
X1270000Y247450D01*
X1272000Y247450D01*
X1272000Y249450D01*
X1276000Y249450D01*
X1276000Y251450D01*
X1278000Y251450D01*
X1278000Y253450D01*
X1282000Y253450D01*
X1282000Y255450D01*
X1286000Y255450D01*
X1286000Y257450D01*
X1292000Y257450D01*
X1292000Y259450D01*
X1298000Y259450D01*
X1298000Y261450D01*
X1304000Y261450D01*
X1304000Y263450D01*
X1312000Y263450D01*
X1312000Y265450D01*
X1326000Y265450D01*
X1326000Y267450D01*
X328000Y267450D01*
G37*
D02*
G36*
X4384000Y267450D02*
X4384000Y265450D01*
X4382000Y265450D01*
X4382000Y263450D01*
X4380000Y263450D01*
X4380000Y261450D01*
X4378000Y261450D01*
X4378000Y259450D01*
X4376000Y259450D01*
X4376000Y257450D01*
X4372000Y257450D01*
X4372000Y255450D01*
X4370000Y255450D01*
X4370000Y253450D01*
X4368000Y253450D01*
X4368000Y251450D01*
X4364000Y251450D01*
X4364000Y249450D01*
X4362000Y249450D01*
X4362000Y247450D01*
X4360000Y247450D01*
X4360000Y245450D01*
X4358000Y245450D01*
X4358000Y243450D01*
X4354000Y243450D01*
X4354000Y241450D01*
X4352000Y241450D01*
X4352000Y239450D01*
X4348000Y239450D01*
X4348000Y237450D01*
X4346000Y237450D01*
X4346000Y235450D01*
X4342000Y235450D01*
X4342000Y233450D01*
X4340000Y233450D01*
X4340000Y231450D01*
X4338000Y231450D01*
X4338000Y229450D01*
X4334000Y229450D01*
X4334000Y227450D01*
X4330000Y227450D01*
X4330000Y225450D01*
X4328000Y225450D01*
X4328000Y223450D01*
X4324000Y223450D01*
X4324000Y221450D01*
X4322000Y221450D01*
X4322000Y219450D01*
X4318000Y219450D01*
X4318000Y217450D01*
X4314000Y217450D01*
X4314000Y215450D01*
X4312000Y215450D01*
X4312000Y213450D01*
X4308000Y213450D01*
X4308000Y211450D01*
X4304000Y211450D01*
X4304000Y209450D01*
X4302000Y209450D01*
X4302000Y207450D01*
X4298000Y207450D01*
X4298000Y205450D01*
X4294000Y205450D01*
X4294000Y203450D01*
X4290000Y203450D01*
X4290000Y201450D01*
X4286000Y201450D01*
X4286000Y199450D01*
X4282000Y199450D01*
X4282000Y197450D01*
X4278000Y197450D01*
X4278000Y195450D01*
X4274000Y195450D01*
X4274000Y193450D01*
X4270000Y193450D01*
X4270000Y191450D01*
X4266000Y191450D01*
X4266000Y189450D01*
X4260000Y189450D01*
X4260000Y187450D01*
X4256000Y187450D01*
X4256000Y185450D01*
X4252000Y185450D01*
X4252000Y183450D01*
X4248000Y183450D01*
X4248000Y181450D01*
X4242000Y181450D01*
X4242000Y179450D01*
X4236000Y179450D01*
X4236000Y177450D01*
X4232000Y177450D01*
X4232000Y175450D01*
X4226000Y175450D01*
X4226000Y173450D01*
X4220000Y173450D01*
X4220000Y171450D01*
X4214000Y171450D01*
X4214000Y169450D01*
X4208000Y169450D01*
X4208000Y167450D01*
X4202000Y167450D01*
X4202000Y165450D01*
X4194000Y165450D01*
X4194000Y163450D01*
X4188000Y163450D01*
X4188000Y161450D01*
X4180000Y161450D01*
X4180000Y159450D01*
X4172000Y159450D01*
X4172000Y157450D01*
X4164000Y157450D01*
X4164000Y155450D01*
X4154000Y155450D01*
X4154000Y153450D01*
X4142000Y153450D01*
X4142000Y151450D01*
X4132000Y151450D01*
X4132000Y149450D01*
X4116000Y149450D01*
X4116000Y147450D01*
X4098000Y147450D01*
X4098000Y145450D01*
X4056000Y145450D01*
X4056000Y143450D01*
X4876000Y143450D01*
X4876000Y161450D01*
X4878000Y161450D01*
X4878000Y173450D01*
X4880000Y173450D01*
X4880000Y179450D01*
X4882000Y179450D01*
X4882000Y185450D01*
X4884000Y185450D01*
X4884000Y191450D01*
X4886000Y191450D01*
X4886000Y195450D01*
X4888000Y195450D01*
X4888000Y199450D01*
X4890000Y199450D01*
X4890000Y203450D01*
X4892000Y203450D01*
X4892000Y207450D01*
X4894000Y207450D01*
X4894000Y209450D01*
X4896000Y209450D01*
X4896000Y213450D01*
X4898000Y213450D01*
X4898000Y215450D01*
X4900000Y215450D01*
X4900000Y219450D01*
X4902000Y219450D01*
X4902000Y221450D01*
X4904000Y221450D01*
X4904000Y223450D01*
X4906000Y223450D01*
X4906000Y225450D01*
X4908000Y225450D01*
X4908000Y227450D01*
X4910000Y227450D01*
X4910000Y231450D01*
X4912000Y231450D01*
X4912000Y233450D01*
X4916000Y233450D01*
X4916000Y235450D01*
X4918000Y235450D01*
X4918000Y237450D01*
X4920000Y237450D01*
X4920000Y239450D01*
X4922000Y239450D01*
X4922000Y241450D01*
X4924000Y241450D01*
X4924000Y243450D01*
X4928000Y243450D01*
X4928000Y245450D01*
X4930000Y245450D01*
X4930000Y247450D01*
X4934000Y247450D01*
X4934000Y249450D01*
X4936000Y249450D01*
X4936000Y251450D01*
X4940000Y251450D01*
X4940000Y253450D01*
X4944000Y253450D01*
X4944000Y255450D01*
X4948000Y255450D01*
X4948000Y257450D01*
X4954000Y257450D01*
X4954000Y259450D01*
X4958000Y259450D01*
X4958000Y261450D01*
X4966000Y261450D01*
X4966000Y263450D01*
X4974000Y263450D01*
X4974000Y265450D01*
X4988000Y265450D01*
X4988000Y267450D01*
X4384000Y267450D01*
G37*
D02*
G36*
X1458000Y143450D02*
X1458000Y141450D01*
X4876000Y141450D01*
X4876000Y143450D01*
X1458000Y143450D01*
G37*
D02*
G36*
X1458000Y143450D02*
X1458000Y141450D01*
X4876000Y141450D01*
X4876000Y143450D01*
X1458000Y143450D01*
G37*
D02*
G36*
X1458000Y141450D02*
X1458000Y123450D01*
X1456000Y123450D01*
X1456000Y113450D01*
X1454000Y113450D01*
X1454000Y107450D01*
X1452000Y107450D01*
X1452000Y101450D01*
X1450000Y101450D01*
X1450000Y95450D01*
X1448000Y95450D01*
X1448000Y91450D01*
X1446000Y91450D01*
X1446000Y87450D01*
X1444000Y87450D01*
X1444000Y85450D01*
X1442000Y85450D01*
X1442000Y81450D01*
X1440000Y81450D01*
X1440000Y77450D01*
X1438000Y77450D01*
X1438000Y75450D01*
X1436000Y75450D01*
X1436000Y71450D01*
X1434000Y71450D01*
X1434000Y69450D01*
X1432000Y69450D01*
X1432000Y67450D01*
X1430000Y67450D01*
X1430000Y65450D01*
X1428000Y65450D01*
X1428000Y63450D01*
X1426000Y63450D01*
X1426000Y41450D01*
X4910000Y41450D01*
X4910000Y61450D01*
X4908000Y61450D01*
X4908000Y63450D01*
X4906000Y63450D01*
X4906000Y65450D01*
X4904000Y65450D01*
X4904000Y67450D01*
X4902000Y67450D01*
X4902000Y71450D01*
X4900000Y71450D01*
X4900000Y73450D01*
X4898000Y73450D01*
X4898000Y75450D01*
X4896000Y75450D01*
X4896000Y79450D01*
X4894000Y79450D01*
X4894000Y81450D01*
X4892000Y81450D01*
X4892000Y85450D01*
X4890000Y85450D01*
X4890000Y89450D01*
X4888000Y89450D01*
X4888000Y93450D01*
X4886000Y93450D01*
X4886000Y97450D01*
X4884000Y97450D01*
X4884000Y103450D01*
X4882000Y103450D01*
X4882000Y109450D01*
X4880000Y109450D01*
X4880000Y117450D01*
X4878000Y117450D01*
X4878000Y127450D01*
X4876000Y127450D01*
X4876000Y141450D01*
X1458000Y141450D01*
G37*
D02*
G36*
X4008000Y1127450D02*
X4008000Y1125450D01*
X3990000Y1125450D01*
X3990000Y1123450D01*
X3976000Y1123450D01*
X3976000Y1121450D01*
X3966000Y1121450D01*
X3966000Y1119450D01*
X3956000Y1119450D01*
X3956000Y1117450D01*
X3946000Y1117450D01*
X3946000Y1115450D01*
X3938000Y1115450D01*
X3938000Y1113450D01*
X3930000Y1113450D01*
X3930000Y1111450D01*
X3924000Y1111450D01*
X3924000Y1109450D01*
X3916000Y1109450D01*
X3916000Y1107450D01*
X3910000Y1107450D01*
X3910000Y1105450D01*
X3904000Y1105450D01*
X3904000Y1103450D01*
X3898000Y1103450D01*
X3898000Y1101450D01*
X3892000Y1101450D01*
X3892000Y1099450D01*
X3886000Y1099450D01*
X3886000Y1097450D01*
X3882000Y1097450D01*
X3882000Y1095450D01*
X3876000Y1095450D01*
X3876000Y1093450D01*
X3872000Y1093450D01*
X3872000Y1091450D01*
X3868000Y1091450D01*
X3868000Y1089450D01*
X3862000Y1089450D01*
X3862000Y1087450D01*
X3858000Y1087450D01*
X3858000Y1085450D01*
X3854000Y1085450D01*
X3854000Y1083450D01*
X3850000Y1083450D01*
X3850000Y1081450D01*
X3846000Y1081450D01*
X3846000Y1079450D01*
X3842000Y1079450D01*
X3842000Y1077450D01*
X3838000Y1077450D01*
X3838000Y1075450D01*
X3834000Y1075450D01*
X3834000Y1073450D01*
X3830000Y1073450D01*
X3830000Y1071450D01*
X3826000Y1071450D01*
X3826000Y1069450D01*
X3822000Y1069450D01*
X3822000Y1067450D01*
X3818000Y1067450D01*
X3818000Y1065450D01*
X3816000Y1065450D01*
X3816000Y1063450D01*
X3812000Y1063450D01*
X3812000Y1061450D01*
X3808000Y1061450D01*
X3808000Y1059450D01*
X3806000Y1059450D01*
X3806000Y1057450D01*
X3802000Y1057450D01*
X3802000Y1055450D01*
X3800000Y1055450D01*
X3800000Y1053450D01*
X3796000Y1053450D01*
X3796000Y1051450D01*
X3792000Y1051450D01*
X3792000Y1049450D01*
X3790000Y1049450D01*
X3790000Y1047450D01*
X3786000Y1047450D01*
X3786000Y1045450D01*
X3784000Y1045450D01*
X3784000Y1043450D01*
X3782000Y1043450D01*
X3782000Y1041450D01*
X3778000Y1041450D01*
X3778000Y1039450D01*
X3776000Y1039450D01*
X3776000Y1037450D01*
X3772000Y1037450D01*
X3772000Y1035450D01*
X3770000Y1035450D01*
X3770000Y1033450D01*
X3768000Y1033450D01*
X3768000Y1031450D01*
X3764000Y1031450D01*
X3764000Y1029450D01*
X3762000Y1029450D01*
X3762000Y1027450D01*
X3760000Y1027450D01*
X3760000Y1025450D01*
X3758000Y1025450D01*
X3758000Y1023450D01*
X3754000Y1023450D01*
X3754000Y1021450D01*
X3752000Y1021450D01*
X3752000Y1019450D01*
X3750000Y1019450D01*
X3750000Y1017450D01*
X3748000Y1017450D01*
X3748000Y1015450D01*
X3746000Y1015450D01*
X3746000Y1013450D01*
X3744000Y1013450D01*
X3744000Y1011450D01*
X3740000Y1011450D01*
X3740000Y1009450D01*
X3738000Y1009450D01*
X3738000Y1007450D01*
X3736000Y1007450D01*
X3736000Y1005450D01*
X3734000Y1005450D01*
X3734000Y1003450D01*
X3732000Y1003450D01*
X3732000Y1001450D01*
X3730000Y1001450D01*
X3730000Y999450D01*
X3728000Y999450D01*
X3728000Y997450D01*
X3726000Y997450D01*
X3726000Y995450D01*
X3724000Y995450D01*
X3724000Y993450D01*
X3722000Y993450D01*
X3722000Y991450D01*
X3720000Y991450D01*
X3720000Y989450D01*
X3718000Y989450D01*
X3718000Y987450D01*
X3716000Y987450D01*
X3716000Y985450D01*
X3714000Y985450D01*
X3714000Y983450D01*
X3712000Y983450D01*
X3712000Y981450D01*
X3710000Y981450D01*
X3710000Y979450D01*
X3708000Y979450D01*
X3708000Y977450D01*
X3706000Y977450D01*
X3706000Y975450D01*
X3704000Y975450D01*
X3704000Y973450D01*
X3702000Y973450D01*
X3702000Y971450D01*
X3700000Y971450D01*
X3700000Y969450D01*
X3698000Y969450D01*
X3698000Y965450D01*
X3696000Y965450D01*
X3696000Y963450D01*
X3694000Y963450D01*
X3694000Y961450D01*
X3692000Y961450D01*
X3692000Y959450D01*
X3690000Y959450D01*
X3690000Y957450D01*
X3688000Y957450D01*
X3688000Y955450D01*
X3686000Y955450D01*
X3686000Y951450D01*
X3684000Y951450D01*
X3684000Y949450D01*
X3682000Y949450D01*
X3682000Y947450D01*
X3680000Y947450D01*
X3680000Y943450D01*
X3678000Y943450D01*
X3678000Y941450D01*
X3676000Y941450D01*
X3676000Y939450D01*
X3674000Y939450D01*
X3674000Y937450D01*
X3672000Y937450D01*
X3672000Y933450D01*
X3670000Y933450D01*
X3670000Y931450D01*
X3668000Y931450D01*
X3668000Y927450D01*
X3666000Y927450D01*
X3666000Y925450D01*
X3664000Y925450D01*
X3664000Y923450D01*
X3662000Y923450D01*
X3662000Y919450D01*
X3660000Y919450D01*
X3660000Y917450D01*
X3658000Y917450D01*
X3658000Y913450D01*
X3656000Y913450D01*
X3656000Y909450D01*
X3654000Y909450D01*
X3654000Y907450D01*
X3652000Y907450D01*
X3652000Y903450D01*
X3650000Y903450D01*
X3650000Y901450D01*
X3648000Y901450D01*
X3648000Y897450D01*
X3646000Y897450D01*
X3646000Y893450D01*
X3644000Y893450D01*
X3644000Y889450D01*
X3642000Y889450D01*
X3642000Y887450D01*
X3640000Y887450D01*
X3640000Y883450D01*
X3638000Y883450D01*
X3638000Y879450D01*
X3636000Y879450D01*
X3636000Y875450D01*
X3634000Y875450D01*
X3634000Y871450D01*
X3632000Y871450D01*
X3632000Y867450D01*
X3630000Y867450D01*
X3630000Y863450D01*
X3628000Y863450D01*
X3628000Y859450D01*
X3626000Y859450D01*
X3626000Y855450D01*
X3624000Y855450D01*
X3624000Y851450D01*
X3622000Y851450D01*
X3622000Y847450D01*
X3620000Y847450D01*
X3620000Y841450D01*
X3618000Y841450D01*
X3618000Y837450D01*
X3616000Y837450D01*
X3616000Y831450D01*
X3614000Y831450D01*
X3614000Y827450D01*
X3612000Y827450D01*
X3612000Y821450D01*
X3610000Y821450D01*
X3610000Y817450D01*
X3608000Y817450D01*
X3608000Y811450D01*
X3606000Y811450D01*
X3606000Y805450D01*
X3604000Y805450D01*
X3604000Y799450D01*
X3602000Y799450D01*
X3602000Y793450D01*
X3600000Y793450D01*
X3600000Y785450D01*
X3598000Y785450D01*
X3598000Y779450D01*
X3596000Y779450D01*
X3596000Y771450D01*
X3594000Y771450D01*
X3594000Y763450D01*
X3592000Y763450D01*
X3592000Y753450D01*
X3590000Y753450D01*
X3590000Y743450D01*
X3588000Y743450D01*
X3588000Y731450D01*
X3586000Y731450D01*
X3586000Y717450D01*
X3584000Y717450D01*
X3584000Y699450D01*
X3582000Y699450D01*
X3582000Y613450D01*
X3584000Y613450D01*
X3584000Y595450D01*
X3586000Y595450D01*
X3586000Y581450D01*
X3588000Y581450D01*
X3588000Y569450D01*
X3590000Y569450D01*
X3590000Y559450D01*
X3592000Y559450D01*
X3592000Y551450D01*
X3594000Y551450D01*
X3594000Y541450D01*
X3596000Y541450D01*
X3596000Y533450D01*
X3598000Y533450D01*
X3598000Y527450D01*
X3600000Y527450D01*
X3600000Y519450D01*
X3602000Y519450D01*
X3602000Y513450D01*
X3604000Y513450D01*
X3604000Y507450D01*
X3606000Y507450D01*
X3606000Y501450D01*
X3608000Y501450D01*
X3608000Y495450D01*
X3610000Y495450D01*
X3610000Y491450D01*
X3612000Y491450D01*
X3612000Y485450D01*
X3614000Y485450D01*
X3614000Y481450D01*
X3616000Y481450D01*
X3616000Y475450D01*
X3618000Y475450D01*
X3618000Y471450D01*
X3620000Y471450D01*
X3620000Y465450D01*
X3622000Y465450D01*
X3622000Y461450D01*
X3624000Y461450D01*
X3624000Y457450D01*
X3626000Y457450D01*
X3626000Y453450D01*
X3628000Y453450D01*
X3628000Y449450D01*
X3630000Y449450D01*
X3630000Y445450D01*
X3632000Y445450D01*
X3632000Y441450D01*
X3634000Y441450D01*
X3634000Y437450D01*
X3636000Y437450D01*
X3636000Y433450D01*
X3638000Y433450D01*
X3638000Y429450D01*
X3640000Y429450D01*
X3640000Y425450D01*
X3642000Y425450D01*
X3642000Y423450D01*
X3644000Y423450D01*
X3644000Y419450D01*
X3646000Y419450D01*
X3646000Y415450D01*
X3648000Y415450D01*
X3648000Y411450D01*
X3650000Y411450D01*
X3650000Y409450D01*
X3652000Y409450D01*
X3652000Y405450D01*
X3654000Y405450D01*
X3654000Y403450D01*
X3656000Y403450D01*
X3656000Y399450D01*
X3658000Y399450D01*
X3658000Y395450D01*
X3660000Y395450D01*
X3660000Y393450D01*
X3662000Y393450D01*
X3662000Y389450D01*
X3664000Y389450D01*
X3664000Y387450D01*
X3666000Y387450D01*
X3666000Y385450D01*
X3668000Y385450D01*
X3668000Y381450D01*
X3670000Y381450D01*
X3670000Y379450D01*
X3672000Y379450D01*
X3672000Y375450D01*
X3674000Y375450D01*
X3674000Y373450D01*
X3676000Y373450D01*
X3676000Y371450D01*
X3678000Y371450D01*
X3678000Y369450D01*
X3680000Y369450D01*
X3680000Y365450D01*
X3682000Y365450D01*
X3682000Y363450D01*
X3684000Y363450D01*
X3684000Y361450D01*
X3686000Y361450D01*
X3686000Y357450D01*
X3688000Y357450D01*
X3688000Y355450D01*
X3690000Y355450D01*
X3690000Y353450D01*
X3692000Y353450D01*
X3692000Y351450D01*
X3694000Y351450D01*
X3694000Y349450D01*
X3696000Y349450D01*
X3696000Y347450D01*
X3698000Y347450D01*
X3698000Y343450D01*
X3700000Y343450D01*
X3700000Y341450D01*
X3702000Y341450D01*
X3702000Y339450D01*
X3704000Y339450D01*
X3704000Y337450D01*
X3706000Y337450D01*
X3706000Y335450D01*
X3708000Y335450D01*
X3708000Y333450D01*
X3710000Y333450D01*
X3710000Y331450D01*
X3712000Y331450D01*
X3712000Y329450D01*
X3714000Y329450D01*
X3714000Y327450D01*
X3716000Y327450D01*
X3716000Y325450D01*
X3718000Y325450D01*
X3718000Y323450D01*
X3720000Y323450D01*
X3720000Y321450D01*
X3722000Y321450D01*
X3722000Y319450D01*
X3724000Y319450D01*
X3724000Y317450D01*
X3726000Y317450D01*
X3726000Y315450D01*
X3728000Y315450D01*
X3728000Y313450D01*
X3730000Y313450D01*
X3730000Y311450D01*
X3732000Y311450D01*
X3732000Y309450D01*
X3734000Y309450D01*
X3734000Y307450D01*
X3736000Y307450D01*
X3736000Y305450D01*
X3738000Y305450D01*
X3738000Y303450D01*
X3740000Y303450D01*
X3740000Y301450D01*
X3744000Y301450D01*
X3744000Y299450D01*
X3746000Y299450D01*
X3746000Y297450D01*
X3748000Y297450D01*
X3748000Y295450D01*
X3750000Y295450D01*
X3750000Y293450D01*
X3752000Y293450D01*
X3752000Y291450D01*
X3754000Y291450D01*
X3754000Y289450D01*
X3758000Y289450D01*
X3758000Y287450D01*
X3760000Y287450D01*
X3760000Y285450D01*
X3762000Y285450D01*
X3762000Y283450D01*
X3766000Y283450D01*
X3766000Y281450D01*
X3768000Y281450D01*
X3768000Y279450D01*
X3770000Y279450D01*
X3770000Y277450D01*
X3772000Y277450D01*
X3772000Y275450D01*
X3776000Y275450D01*
X3776000Y273450D01*
X3778000Y273450D01*
X3778000Y271450D01*
X3782000Y271450D01*
X3782000Y269450D01*
X3784000Y269450D01*
X3784000Y267450D01*
X3786000Y267450D01*
X3786000Y265450D01*
X3790000Y265450D01*
X3790000Y263450D01*
X3792000Y263450D01*
X3792000Y261450D01*
X3796000Y261450D01*
X3796000Y259450D01*
X3800000Y259450D01*
X3800000Y257450D01*
X3802000Y257450D01*
X3802000Y255450D01*
X3806000Y255450D01*
X3806000Y253450D01*
X3808000Y253450D01*
X3808000Y251450D01*
X3812000Y251450D01*
X3812000Y249450D01*
X3816000Y249450D01*
X3816000Y247450D01*
X3820000Y247450D01*
X3820000Y245450D01*
X3822000Y245450D01*
X3822000Y243450D01*
X3826000Y243450D01*
X3826000Y241450D01*
X3830000Y241450D01*
X3830000Y239450D01*
X3834000Y239450D01*
X3834000Y237450D01*
X3838000Y237450D01*
X3838000Y235450D01*
X3842000Y235450D01*
X3842000Y233450D01*
X3846000Y233450D01*
X3846000Y231450D01*
X3850000Y231450D01*
X3850000Y229450D01*
X3854000Y229450D01*
X3854000Y227450D01*
X3858000Y227450D01*
X3858000Y225450D01*
X3862000Y225450D01*
X3862000Y223450D01*
X3868000Y223450D01*
X3868000Y221450D01*
X3872000Y221450D01*
X3872000Y219450D01*
X3876000Y219450D01*
X3876000Y217450D01*
X3882000Y217450D01*
X3882000Y215450D01*
X3888000Y215450D01*
X3888000Y213450D01*
X3892000Y213450D01*
X3892000Y211450D01*
X3898000Y211450D01*
X3898000Y209450D01*
X3904000Y209450D01*
X3904000Y207450D01*
X3910000Y207450D01*
X3910000Y205450D01*
X3916000Y205450D01*
X3916000Y203450D01*
X3924000Y203450D01*
X3924000Y201450D01*
X3930000Y201450D01*
X3930000Y199450D01*
X3938000Y199450D01*
X3938000Y197450D01*
X3946000Y197450D01*
X3946000Y195450D01*
X3956000Y195450D01*
X3956000Y193450D01*
X3966000Y193450D01*
X3966000Y191450D01*
X3978000Y191450D01*
X3978000Y189450D01*
X3992000Y189450D01*
X3992000Y187450D01*
X4010000Y187450D01*
X4010000Y185450D01*
X4098000Y185450D01*
X4098000Y187450D01*
X4114000Y187450D01*
X4114000Y189450D01*
X4130000Y189450D01*
X4130000Y191450D01*
X4140000Y191450D01*
X4140000Y193450D01*
X4150000Y193450D01*
X4150000Y195450D01*
X4160000Y195450D01*
X4160000Y197450D01*
X4168000Y197450D01*
X4168000Y199450D01*
X4176000Y199450D01*
X4176000Y201450D01*
X4182000Y201450D01*
X4182000Y203450D01*
X4190000Y203450D01*
X4190000Y205450D01*
X4196000Y205450D01*
X4196000Y207450D01*
X4202000Y207450D01*
X4202000Y209450D01*
X4208000Y209450D01*
X4208000Y211450D01*
X4214000Y211450D01*
X4214000Y213450D01*
X4220000Y213450D01*
X4220000Y215450D01*
X4224000Y215450D01*
X4224000Y217450D01*
X4230000Y217450D01*
X4230000Y219450D01*
X4234000Y219450D01*
X4234000Y221450D01*
X4240000Y221450D01*
X4240000Y223450D01*
X4244000Y223450D01*
X4244000Y225450D01*
X4248000Y225450D01*
X4248000Y227450D01*
X4252000Y227450D01*
X4252000Y229450D01*
X4256000Y229450D01*
X4256000Y231450D01*
X4260000Y231450D01*
X4260000Y233450D01*
X4264000Y233450D01*
X4264000Y235450D01*
X4268000Y235450D01*
X4268000Y237450D01*
X4272000Y237450D01*
X4272000Y239450D01*
X4276000Y239450D01*
X4276000Y241450D01*
X4280000Y241450D01*
X4280000Y243450D01*
X4284000Y243450D01*
X4284000Y245450D01*
X4288000Y245450D01*
X4288000Y247450D01*
X4290000Y247450D01*
X4290000Y249450D01*
X4294000Y249450D01*
X4294000Y251450D01*
X4298000Y251450D01*
X4298000Y253450D01*
X4300000Y253450D01*
X4300000Y255450D01*
X4304000Y255450D01*
X4304000Y257450D01*
X4308000Y257450D01*
X4308000Y259450D01*
X4310000Y259450D01*
X4310000Y261450D01*
X4314000Y261450D01*
X4314000Y263450D01*
X4316000Y263450D01*
X4316000Y265450D01*
X4320000Y265450D01*
X4320000Y267450D01*
X4322000Y267450D01*
X4322000Y269450D01*
X4324000Y269450D01*
X4324000Y271450D01*
X4328000Y271450D01*
X4328000Y273450D01*
X4330000Y273450D01*
X4330000Y275450D01*
X4334000Y275450D01*
X4334000Y277450D01*
X4336000Y277450D01*
X4336000Y279450D01*
X4338000Y279450D01*
X4338000Y281450D01*
X4342000Y281450D01*
X4342000Y283450D01*
X4344000Y283450D01*
X4344000Y285450D01*
X4346000Y285450D01*
X4346000Y287450D01*
X4348000Y287450D01*
X4348000Y289450D01*
X4352000Y289450D01*
X4352000Y291450D01*
X4354000Y291450D01*
X4354000Y293450D01*
X4356000Y293450D01*
X4356000Y295450D01*
X4358000Y295450D01*
X4358000Y297450D01*
X4360000Y297450D01*
X4360000Y299450D01*
X4364000Y299450D01*
X4364000Y301450D01*
X4366000Y301450D01*
X4366000Y303450D01*
X4368000Y303450D01*
X4368000Y305450D01*
X4370000Y305450D01*
X4370000Y307450D01*
X4372000Y307450D01*
X4372000Y309450D01*
X4374000Y309450D01*
X4374000Y311450D01*
X4376000Y311450D01*
X4376000Y313450D01*
X4378000Y313450D01*
X4378000Y315450D01*
X4380000Y315450D01*
X4380000Y317450D01*
X4382000Y317450D01*
X4382000Y319450D01*
X4384000Y319450D01*
X4384000Y321450D01*
X4386000Y321450D01*
X4386000Y323450D01*
X4388000Y323450D01*
X4388000Y325450D01*
X4390000Y325450D01*
X4390000Y327450D01*
X4392000Y327450D01*
X4392000Y329450D01*
X4394000Y329450D01*
X4394000Y331450D01*
X4396000Y331450D01*
X4396000Y333450D01*
X4398000Y333450D01*
X4398000Y335450D01*
X4400000Y335450D01*
X4400000Y337450D01*
X4402000Y337450D01*
X4402000Y339450D01*
X4404000Y339450D01*
X4404000Y341450D01*
X4406000Y341450D01*
X4406000Y343450D01*
X4408000Y343450D01*
X4408000Y345450D01*
X4410000Y345450D01*
X4410000Y349450D01*
X4412000Y349450D01*
X4412000Y351450D01*
X4414000Y351450D01*
X4414000Y353450D01*
X4416000Y353450D01*
X4416000Y355450D01*
X4418000Y355450D01*
X4418000Y357450D01*
X4420000Y357450D01*
X4420000Y361450D01*
X4422000Y361450D01*
X4422000Y363450D01*
X4424000Y363450D01*
X4424000Y365450D01*
X4426000Y365450D01*
X4426000Y367450D01*
X4428000Y367450D01*
X4428000Y371450D01*
X4430000Y371450D01*
X4430000Y373450D01*
X4432000Y373450D01*
X4432000Y375450D01*
X4434000Y375450D01*
X4434000Y379450D01*
X4436000Y379450D01*
X4436000Y381450D01*
X4438000Y381450D01*
X4438000Y385450D01*
X4440000Y385450D01*
X4440000Y387450D01*
X4442000Y387450D01*
X4442000Y389450D01*
X4444000Y389450D01*
X4444000Y393450D01*
X4446000Y393450D01*
X4446000Y395450D01*
X4448000Y395450D01*
X4448000Y399450D01*
X4450000Y399450D01*
X4450000Y401450D01*
X4452000Y401450D01*
X4452000Y405450D01*
X4454000Y405450D01*
X4454000Y409450D01*
X4456000Y409450D01*
X4456000Y411450D01*
X4458000Y411450D01*
X4458000Y415450D01*
X4460000Y415450D01*
X4460000Y419450D01*
X4462000Y419450D01*
X4462000Y421450D01*
X4464000Y421450D01*
X4464000Y425450D01*
X4466000Y425450D01*
X4466000Y429450D01*
X4468000Y429450D01*
X4468000Y433450D01*
X4470000Y433450D01*
X4470000Y437450D01*
X4472000Y437450D01*
X4472000Y441450D01*
X4474000Y441450D01*
X4474000Y445450D01*
X4476000Y445450D01*
X4476000Y447450D01*
X4478000Y447450D01*
X4478000Y453450D01*
X4480000Y453450D01*
X4480000Y457450D01*
X4482000Y457450D01*
X4482000Y461450D01*
X4484000Y461450D01*
X4484000Y465450D01*
X4486000Y465450D01*
X4486000Y469450D01*
X4488000Y469450D01*
X4488000Y475450D01*
X4490000Y475450D01*
X4490000Y479450D01*
X4492000Y479450D01*
X4492000Y485450D01*
X4494000Y485450D01*
X4494000Y489450D01*
X4496000Y489450D01*
X4496000Y495450D01*
X4498000Y495450D01*
X4498000Y501450D01*
X4500000Y501450D01*
X4500000Y507450D01*
X4502000Y507450D01*
X4502000Y513450D01*
X4504000Y513450D01*
X4504000Y519450D01*
X4506000Y519450D01*
X4506000Y525450D01*
X4508000Y525450D01*
X4508000Y533450D01*
X4510000Y533450D01*
X4510000Y541450D01*
X4512000Y541450D01*
X4512000Y549450D01*
X4514000Y549450D01*
X4514000Y557450D01*
X4516000Y557450D01*
X4516000Y567450D01*
X4518000Y567450D01*
X4518000Y579450D01*
X4520000Y579450D01*
X4520000Y593450D01*
X4522000Y593450D01*
X4522000Y609450D01*
X4524000Y609450D01*
X4524000Y703450D01*
X4522000Y703450D01*
X4522000Y719450D01*
X4520000Y719450D01*
X4520000Y733450D01*
X4518000Y733450D01*
X4518000Y745450D01*
X4516000Y745450D01*
X4516000Y755450D01*
X4514000Y755450D01*
X4514000Y763450D01*
X4512000Y763450D01*
X4512000Y771450D01*
X4510000Y771450D01*
X4510000Y779450D01*
X4508000Y779450D01*
X4508000Y787450D01*
X4506000Y787450D01*
X4506000Y793450D01*
X4504000Y793450D01*
X4504000Y799450D01*
X4502000Y799450D01*
X4502000Y805450D01*
X4500000Y805450D01*
X4500000Y811450D01*
X4498000Y811450D01*
X4498000Y817450D01*
X4496000Y817450D01*
X4496000Y823450D01*
X4494000Y823450D01*
X4494000Y827450D01*
X4492000Y827450D01*
X4492000Y833450D01*
X4490000Y833450D01*
X4490000Y837450D01*
X4488000Y837450D01*
X4488000Y843450D01*
X4486000Y843450D01*
X4486000Y847450D01*
X4484000Y847450D01*
X4484000Y851450D01*
X4482000Y851450D01*
X4482000Y855450D01*
X4480000Y855450D01*
X4480000Y861450D01*
X4478000Y861450D01*
X4478000Y865450D01*
X4476000Y865450D01*
X4476000Y869450D01*
X4474000Y869450D01*
X4474000Y871450D01*
X4472000Y871450D01*
X4472000Y875450D01*
X4470000Y875450D01*
X4470000Y879450D01*
X4468000Y879450D01*
X4468000Y883450D01*
X4466000Y883450D01*
X4466000Y887450D01*
X4464000Y887450D01*
X4464000Y891450D01*
X4462000Y891450D01*
X4462000Y893450D01*
X4460000Y893450D01*
X4460000Y897450D01*
X4458000Y897450D01*
X4458000Y901450D01*
X4456000Y901450D01*
X4456000Y903450D01*
X4454000Y903450D01*
X4454000Y907450D01*
X4452000Y907450D01*
X4452000Y911450D01*
X4450000Y911450D01*
X4450000Y913450D01*
X4448000Y913450D01*
X4448000Y917450D01*
X4446000Y917450D01*
X4446000Y919450D01*
X4444000Y919450D01*
X4444000Y923450D01*
X4442000Y923450D01*
X4442000Y925450D01*
X4440000Y925450D01*
X4440000Y929450D01*
X4438000Y929450D01*
X4438000Y931450D01*
X4436000Y931450D01*
X4436000Y933450D01*
X4434000Y933450D01*
X4434000Y937450D01*
X4432000Y937450D01*
X4432000Y939450D01*
X4430000Y939450D01*
X4430000Y941450D01*
X4428000Y941450D01*
X4428000Y945450D01*
X4426000Y945450D01*
X4426000Y947450D01*
X4424000Y947450D01*
X4424000Y949450D01*
X4422000Y949450D01*
X4422000Y951450D01*
X4420000Y951450D01*
X4420000Y955450D01*
X4418000Y955450D01*
X4418000Y957450D01*
X4416000Y957450D01*
X4416000Y959450D01*
X4414000Y959450D01*
X4414000Y961450D01*
X4412000Y961450D01*
X4412000Y963450D01*
X4410000Y963450D01*
X4410000Y967450D01*
X4408000Y967450D01*
X4408000Y969450D01*
X4406000Y969450D01*
X4406000Y971450D01*
X4404000Y971450D01*
X4404000Y973450D01*
X4402000Y973450D01*
X4402000Y975450D01*
X4400000Y975450D01*
X4400000Y977450D01*
X4398000Y977450D01*
X4398000Y979450D01*
X4396000Y979450D01*
X4396000Y981450D01*
X4394000Y981450D01*
X4394000Y983450D01*
X4392000Y983450D01*
X4392000Y985450D01*
X4390000Y985450D01*
X4390000Y987450D01*
X4388000Y987450D01*
X4388000Y989450D01*
X4386000Y989450D01*
X4386000Y991450D01*
X4384000Y991450D01*
X4384000Y993450D01*
X4382000Y993450D01*
X4382000Y995450D01*
X4380000Y995450D01*
X4380000Y997450D01*
X4378000Y997450D01*
X4378000Y999450D01*
X4376000Y999450D01*
X4376000Y1001450D01*
X4374000Y1001450D01*
X4374000Y1003450D01*
X4372000Y1003450D01*
X4372000Y1005450D01*
X4370000Y1005450D01*
X4370000Y1007450D01*
X4368000Y1007450D01*
X4368000Y1009450D01*
X4366000Y1009450D01*
X4366000Y1011450D01*
X4364000Y1011450D01*
X4364000Y1013450D01*
X4360000Y1013450D01*
X4360000Y1015450D01*
X4358000Y1015450D01*
X4358000Y1017450D01*
X4356000Y1017450D01*
X4356000Y1019450D01*
X4354000Y1019450D01*
X4354000Y1021450D01*
X4352000Y1021450D01*
X4352000Y1023450D01*
X4348000Y1023450D01*
X4348000Y1025450D01*
X4346000Y1025450D01*
X4346000Y1027450D01*
X4344000Y1027450D01*
X4344000Y1029450D01*
X4342000Y1029450D01*
X4342000Y1031450D01*
X4338000Y1031450D01*
X4338000Y1033450D01*
X4336000Y1033450D01*
X4336000Y1035450D01*
X4334000Y1035450D01*
X4334000Y1037450D01*
X4330000Y1037450D01*
X4330000Y1039450D01*
X4328000Y1039450D01*
X4328000Y1041450D01*
X4326000Y1041450D01*
X4326000Y1043450D01*
X4322000Y1043450D01*
X4322000Y1045450D01*
X4320000Y1045450D01*
X4320000Y1047450D01*
X4316000Y1047450D01*
X4316000Y1049450D01*
X4314000Y1049450D01*
X4314000Y1051450D01*
X4310000Y1051450D01*
X4310000Y1053450D01*
X4308000Y1053450D01*
X4308000Y1055450D01*
X4304000Y1055450D01*
X4304000Y1057450D01*
X4300000Y1057450D01*
X4300000Y1059450D01*
X4298000Y1059450D01*
X4298000Y1061450D01*
X4294000Y1061450D01*
X4294000Y1063450D01*
X4290000Y1063450D01*
X4290000Y1065450D01*
X4288000Y1065450D01*
X4288000Y1067450D01*
X4284000Y1067450D01*
X4284000Y1069450D01*
X4280000Y1069450D01*
X4280000Y1071450D01*
X4276000Y1071450D01*
X4276000Y1073450D01*
X4272000Y1073450D01*
X4272000Y1075450D01*
X4268000Y1075450D01*
X4268000Y1077450D01*
X4264000Y1077450D01*
X4264000Y1079450D01*
X4262000Y1079450D01*
X4262000Y1081450D01*
X4256000Y1081450D01*
X4256000Y1083450D01*
X4252000Y1083450D01*
X4252000Y1085450D01*
X4248000Y1085450D01*
X4248000Y1087450D01*
X4244000Y1087450D01*
X4244000Y1089450D01*
X4240000Y1089450D01*
X4240000Y1091450D01*
X4234000Y1091450D01*
X4234000Y1093450D01*
X4230000Y1093450D01*
X4230000Y1095450D01*
X4224000Y1095450D01*
X4224000Y1097450D01*
X4220000Y1097450D01*
X4220000Y1099450D01*
X4214000Y1099450D01*
X4214000Y1101450D01*
X4208000Y1101450D01*
X4208000Y1103450D01*
X4202000Y1103450D01*
X4202000Y1105450D01*
X4196000Y1105450D01*
X4196000Y1107450D01*
X4190000Y1107450D01*
X4190000Y1109450D01*
X4184000Y1109450D01*
X4184000Y1111450D01*
X4176000Y1111450D01*
X4176000Y1113450D01*
X4168000Y1113450D01*
X4168000Y1115450D01*
X4160000Y1115450D01*
X4160000Y1117450D01*
X4152000Y1117450D01*
X4152000Y1119450D01*
X4140000Y1119450D01*
X4140000Y1121450D01*
X4130000Y1121450D01*
X4130000Y1123450D01*
X4116000Y1123450D01*
X4116000Y1125450D01*
X4098000Y1125450D01*
X4098000Y1127450D01*
X4008000Y1127450D01*
G37*
D02*
G36*
X210000Y251450D02*
X210000Y249450D01*
X204000Y249450D01*
X204000Y247450D01*
X200000Y247450D01*
X200000Y245450D01*
X196000Y245450D01*
X196000Y243450D01*
X194000Y243450D01*
X194000Y241450D01*
X190000Y241450D01*
X190000Y239450D01*
X188000Y239450D01*
X188000Y235450D01*
X186000Y235450D01*
X186000Y233450D01*
X184000Y233450D01*
X184000Y231450D01*
X182000Y231450D01*
X182000Y227450D01*
X180000Y227450D01*
X180000Y223450D01*
X178000Y223450D01*
X178000Y193450D01*
X180000Y193450D01*
X180000Y189450D01*
X182000Y189450D01*
X182000Y185450D01*
X184000Y185450D01*
X184000Y183450D01*
X186000Y183450D01*
X186000Y181450D01*
X188000Y181450D01*
X188000Y177450D01*
X192000Y177450D01*
X192000Y175450D01*
X194000Y175450D01*
X194000Y173450D01*
X196000Y173450D01*
X196000Y171450D01*
X200000Y171450D01*
X200000Y169450D01*
X204000Y169450D01*
X204000Y167450D01*
X236000Y167450D01*
X236000Y169450D01*
X240000Y169450D01*
X240000Y171450D01*
X244000Y171450D01*
X244000Y173450D01*
X246000Y173450D01*
X246000Y175450D01*
X248000Y175450D01*
X248000Y177450D01*
X250000Y177450D01*
X250000Y179450D01*
X252000Y179450D01*
X252000Y181450D01*
X254000Y181450D01*
X254000Y183450D01*
X256000Y183450D01*
X256000Y187450D01*
X258000Y187450D01*
X258000Y191450D01*
X260000Y191450D01*
X260000Y197450D01*
X262000Y197450D01*
X262000Y219450D01*
X260000Y219450D01*
X260000Y225450D01*
X258000Y225450D01*
X258000Y229450D01*
X256000Y229450D01*
X256000Y233450D01*
X254000Y233450D01*
X254000Y235450D01*
X252000Y235450D01*
X252000Y237450D01*
X250000Y237450D01*
X250000Y239450D01*
X248000Y239450D01*
X248000Y241450D01*
X246000Y241450D01*
X246000Y243450D01*
X244000Y243450D01*
X244000Y245450D01*
X240000Y245450D01*
X240000Y247450D01*
X236000Y247450D01*
X236000Y249450D01*
X230000Y249450D01*
X230000Y251450D01*
X210000Y251450D01*
G37*
D02*
G36*
X6110000Y249450D02*
X6110000Y247450D01*
X6106000Y247450D01*
X6106000Y245450D01*
X6102000Y245450D01*
X6102000Y243450D01*
X6098000Y243450D01*
X6098000Y241450D01*
X6096000Y241450D01*
X6096000Y239450D01*
X6094000Y239450D01*
X6094000Y237450D01*
X6092000Y237450D01*
X6092000Y235450D01*
X6090000Y235450D01*
X6090000Y231450D01*
X6088000Y231450D01*
X6088000Y227450D01*
X6086000Y227450D01*
X6086000Y223450D01*
X6084000Y223450D01*
X6084000Y193450D01*
X6086000Y193450D01*
X6086000Y189450D01*
X6088000Y189450D01*
X6088000Y185450D01*
X6090000Y185450D01*
X6090000Y183450D01*
X6092000Y183450D01*
X6092000Y179450D01*
X6094000Y179450D01*
X6094000Y177450D01*
X6096000Y177450D01*
X6096000Y175450D01*
X6100000Y175450D01*
X6100000Y173450D01*
X6102000Y173450D01*
X6102000Y171450D01*
X6106000Y171450D01*
X6106000Y169450D01*
X6110000Y169450D01*
X6110000Y167450D01*
X6140000Y167450D01*
X6140000Y169450D01*
X6144000Y169450D01*
X6144000Y171450D01*
X6148000Y171450D01*
X6148000Y173450D01*
X6152000Y173450D01*
X6152000Y175450D01*
X6154000Y175450D01*
X6154000Y177450D01*
X6156000Y177450D01*
X6156000Y179450D01*
X6158000Y179450D01*
X6158000Y181450D01*
X6160000Y181450D01*
X6160000Y185450D01*
X6162000Y185450D01*
X6162000Y187450D01*
X6164000Y187450D01*
X6164000Y193450D01*
X6166000Y193450D01*
X6166000Y225450D01*
X6164000Y225450D01*
X6164000Y229450D01*
X6162000Y229450D01*
X6162000Y233450D01*
X6160000Y233450D01*
X6160000Y235450D01*
X6158000Y235450D01*
X6158000Y237450D01*
X6156000Y237450D01*
X6156000Y239450D01*
X6154000Y239450D01*
X6154000Y241450D01*
X6152000Y241450D01*
X6152000Y243450D01*
X6148000Y243450D01*
X6148000Y245450D01*
X6146000Y245450D01*
X6146000Y247450D01*
X6142000Y247450D01*
X6142000Y249450D01*
X6110000Y249450D01*
G37*
D02*
G36*
X1326000Y187450D02*
X1326000Y185450D01*
X1320000Y185450D01*
X1320000Y183450D01*
X1316000Y183450D01*
X1316000Y181450D01*
X1312000Y181450D01*
X1312000Y179450D01*
X1310000Y179450D01*
X1310000Y177450D01*
X1308000Y177450D01*
X1308000Y175450D01*
X1306000Y175450D01*
X1306000Y173450D01*
X1304000Y173450D01*
X1304000Y171450D01*
X1302000Y171450D01*
X1302000Y169450D01*
X1300000Y169450D01*
X1300000Y165450D01*
X1298000Y165450D01*
X1298000Y161450D01*
X1296000Y161450D01*
X1296000Y155450D01*
X1294000Y155450D01*
X1294000Y133450D01*
X1296000Y133450D01*
X1296000Y127450D01*
X1298000Y127450D01*
X1298000Y123450D01*
X1300000Y123450D01*
X1300000Y119450D01*
X1302000Y119450D01*
X1302000Y117450D01*
X1304000Y117450D01*
X1304000Y115450D01*
X1306000Y115450D01*
X1306000Y113450D01*
X1308000Y113450D01*
X1308000Y111450D01*
X1310000Y111450D01*
X1310000Y109450D01*
X1314000Y109450D01*
X1314000Y107450D01*
X1318000Y107450D01*
X1318000Y105450D01*
X1322000Y105450D01*
X1322000Y103450D01*
X1352000Y103450D01*
X1352000Y105450D01*
X1356000Y105450D01*
X1356000Y107450D01*
X1360000Y107450D01*
X1360000Y109450D01*
X1362000Y109450D01*
X1362000Y111450D01*
X1364000Y111450D01*
X1364000Y113450D01*
X1368000Y113450D01*
X1368000Y117450D01*
X1370000Y117450D01*
X1370000Y119450D01*
X1372000Y119450D01*
X1372000Y121450D01*
X1374000Y121450D01*
X1374000Y125450D01*
X1376000Y125450D01*
X1376000Y129450D01*
X1378000Y129450D01*
X1378000Y159450D01*
X1376000Y159450D01*
X1376000Y163450D01*
X1374000Y163450D01*
X1374000Y167450D01*
X1372000Y167450D01*
X1372000Y169450D01*
X1370000Y169450D01*
X1370000Y173450D01*
X1368000Y173450D01*
X1368000Y175450D01*
X1366000Y175450D01*
X1366000Y177450D01*
X1364000Y177450D01*
X1364000Y179450D01*
X1360000Y179450D01*
X1360000Y181450D01*
X1356000Y181450D01*
X1356000Y183450D01*
X1352000Y183450D01*
X1352000Y185450D01*
X1346000Y185450D01*
X1346000Y187450D01*
X1326000Y187450D01*
G37*
D02*
G36*
X4988000Y187450D02*
X4988000Y185450D01*
X4982000Y185450D01*
X4982000Y183450D01*
X4978000Y183450D01*
X4978000Y181450D01*
X4974000Y181450D01*
X4974000Y179450D01*
X4972000Y179450D01*
X4972000Y177450D01*
X4970000Y177450D01*
X4970000Y175450D01*
X4968000Y175450D01*
X4968000Y173450D01*
X4966000Y173450D01*
X4966000Y171450D01*
X4964000Y171450D01*
X4964000Y169450D01*
X4962000Y169450D01*
X4962000Y167450D01*
X4960000Y167450D01*
X4960000Y163450D01*
X4958000Y163450D01*
X4958000Y157450D01*
X4956000Y157450D01*
X4956000Y131450D01*
X4958000Y131450D01*
X4958000Y127450D01*
X4960000Y127450D01*
X4960000Y123450D01*
X4962000Y123450D01*
X4962000Y119450D01*
X4964000Y119450D01*
X4964000Y117450D01*
X4966000Y117450D01*
X4966000Y115450D01*
X4968000Y115450D01*
X4968000Y113450D01*
X4970000Y113450D01*
X4970000Y111450D01*
X4972000Y111450D01*
X4972000Y109450D01*
X4974000Y109450D01*
X4974000Y107450D01*
X4978000Y107450D01*
X4978000Y105450D01*
X4982000Y105450D01*
X4982000Y103450D01*
X5014000Y103450D01*
X5014000Y105450D01*
X5018000Y105450D01*
X5018000Y107450D01*
X5022000Y107450D01*
X5022000Y109450D01*
X5024000Y109450D01*
X5024000Y111450D01*
X5026000Y111450D01*
X5026000Y113450D01*
X5028000Y113450D01*
X5028000Y115450D01*
X5030000Y115450D01*
X5030000Y117450D01*
X5032000Y117450D01*
X5032000Y119450D01*
X5034000Y119450D01*
X5034000Y123450D01*
X5036000Y123450D01*
X5036000Y127450D01*
X5038000Y127450D01*
X5038000Y131450D01*
X5040000Y131450D01*
X5040000Y157450D01*
X5038000Y157450D01*
X5038000Y163450D01*
X5036000Y163450D01*
X5036000Y167450D01*
X5034000Y167450D01*
X5034000Y169450D01*
X5032000Y169450D01*
X5032000Y171450D01*
X5030000Y171450D01*
X5030000Y173450D01*
X5028000Y173450D01*
X5028000Y175450D01*
X5026000Y175450D01*
X5026000Y177450D01*
X5024000Y177450D01*
X5024000Y179450D01*
X5022000Y179450D01*
X5022000Y181450D01*
X5018000Y181450D01*
X5018000Y183450D01*
X5014000Y183450D01*
X5014000Y185450D01*
X5008000Y185450D01*
X5008000Y187450D01*
X4988000Y187450D01*
G37*
D02*
G04 End of Copper0*
M02*