G04 MADE WITH FRITZING*
G04 WWW.FRITZING.ORG*
G04 DOUBLE SIDED*
G04 HOLES PLATED*
G04 CONTOUR ON CENTER OF CONTOUR VECTOR*
%FSLAX26Y26*%
%MOIN*%
%ADD10C,0.075000*%
%ADD11C,0.080000*%
%ADD12C,0.283464*%
%ADD13C,0.078000*%
%ADD14R,0.080000X0.080000*%
%ADD15C,0.000100*%
%G04COPPER0*%
%FSLAX26Y26*%
%MOIN*%
D10*
X356816Y2150441D03*
D11*
X2117570Y296110D03*
X1917570Y296110D03*
X1408910Y296110D03*
X1208910Y296110D03*
X975830Y296110D03*
X775830Y296110D03*
X542767Y296110D03*
X342767Y296110D03*
D12*
X145911Y2107132D03*
X2114430Y2107132D03*
D13*
X539611Y178000D03*
X439611Y178000D03*
X933310Y178000D03*
X833310Y178000D03*
X1327020Y178000D03*
X1227020Y178000D03*
X2112900Y178020D03*
X2012900Y178020D03*
X1912900Y178020D03*
X1812900Y178020D03*
X1712900Y178020D03*
X1612900Y178020D03*
X2114420Y1319731D03*
X2014420Y1319731D03*
X1914420Y1319731D03*
X1814420Y1319731D03*
X1714420Y1319731D03*
X1614420Y1319731D03*
X1514420Y1319731D03*
X1414420Y1319731D03*
X1314420Y1319731D03*
X1214420Y1319731D03*
D14*
X2117570Y296110D03*
X1408910Y296110D03*
X975830Y296110D03*
X542767Y296110D03*
D15*
G36*
X136000Y2149780D02*
X136000Y2147780D01*
X130000Y2147780D01*
X130000Y2145780D01*
X126000Y2145780D01*
X126000Y2143780D01*
X122000Y2143780D01*
X122000Y2141780D01*
X120000Y2141780D01*
X120000Y2139780D01*
X116000Y2139780D01*
X116000Y2137780D01*
X114000Y2137780D01*
X114000Y2135780D01*
X112000Y2135780D01*
X112000Y2131780D01*
X110000Y2131780D01*
X110000Y2129780D01*
X108000Y2129780D01*
X108000Y2125780D01*
X106000Y2125780D01*
X106000Y2119780D01*
X104000Y2119780D01*
X104000Y2093780D01*
X106000Y2093780D01*
X106000Y2089780D01*
X108000Y2089780D01*
X108000Y2085780D01*
X110000Y2085780D01*
X110000Y2081780D01*
X112000Y2081780D01*
X112000Y2079780D01*
X114000Y2079780D01*
X114000Y2077780D01*
X116000Y2077780D01*
X116000Y2075780D01*
X118000Y2075780D01*
X118000Y2073780D01*
X120000Y2073780D01*
X120000Y2071780D01*
X122000Y2071780D01*
X122000Y2069780D01*
X126000Y2069780D01*
X126000Y2067780D01*
X132000Y2067780D01*
X132000Y2065780D01*
X160000Y2065780D01*
X160000Y2067780D01*
X166000Y2067780D01*
X166000Y2069780D01*
X168000Y2069780D01*
X168000Y2071780D01*
X172000Y2071780D01*
X172000Y2073780D01*
X174000Y2073780D01*
X174000Y2075780D01*
X176000Y2075780D01*
X176000Y2077780D01*
X178000Y2077780D01*
X178000Y2079780D01*
X180000Y2079780D01*
X180000Y2081780D01*
X182000Y2081780D01*
X182000Y2085780D01*
X184000Y2085780D01*
X184000Y2089780D01*
X186000Y2089780D01*
X186000Y2093780D01*
X188000Y2093780D01*
X188000Y2119780D01*
X186000Y2119780D01*
X186000Y2125780D01*
X184000Y2125780D01*
X184000Y2129780D01*
X182000Y2129780D01*
X182000Y2131780D01*
X180000Y2131780D01*
X180000Y2133780D01*
X178000Y2133780D01*
X178000Y2137780D01*
X174000Y2137780D01*
X174000Y2139780D01*
X172000Y2139780D01*
X172000Y2141780D01*
X170000Y2141780D01*
X170000Y2143780D01*
X166000Y2143780D01*
X166000Y2145780D01*
X162000Y2145780D01*
X162000Y2147780D01*
X156000Y2147780D01*
X156000Y2149780D01*
X136000Y2149780D01*
G37*
D02*
G36*
X2104000Y2149780D02*
X2104000Y2147780D01*
X2098000Y2147780D01*
X2098000Y2145780D01*
X2094000Y2145780D01*
X2094000Y2143780D01*
X2090000Y2143780D01*
X2090000Y2141780D01*
X2088000Y2141780D01*
X2088000Y2139780D01*
X2086000Y2139780D01*
X2086000Y2137780D01*
X2084000Y2137780D01*
X2084000Y2135780D01*
X2082000Y2135780D01*
X2082000Y2133780D01*
X2080000Y2133780D01*
X2080000Y2131780D01*
X2078000Y2131780D01*
X2078000Y2127780D01*
X2076000Y2127780D01*
X2076000Y2123780D01*
X2074000Y2123780D01*
X2074000Y2117780D01*
X2072000Y2117780D01*
X2072000Y2095780D01*
X2074000Y2095780D01*
X2074000Y2089780D01*
X2076000Y2089780D01*
X2076000Y2085780D01*
X2078000Y2085780D01*
X2078000Y2083780D01*
X2080000Y2083780D01*
X2080000Y2079780D01*
X2082000Y2079780D01*
X2082000Y2077780D01*
X2084000Y2077780D01*
X2084000Y2075780D01*
X2086000Y2075780D01*
X2086000Y2073780D01*
X2088000Y2073780D01*
X2088000Y2071780D01*
X2092000Y2071780D01*
X2092000Y2069780D01*
X2094000Y2069780D01*
X2094000Y2067780D01*
X2100000Y2067780D01*
X2100000Y2065780D01*
X2130000Y2065780D01*
X2130000Y2067780D01*
X2134000Y2067780D01*
X2134000Y2069780D01*
X2138000Y2069780D01*
X2138000Y2071780D01*
X2140000Y2071780D01*
X2140000Y2073780D01*
X2142000Y2073780D01*
X2142000Y2075780D01*
X2144000Y2075780D01*
X2144000Y2077780D01*
X2146000Y2077780D01*
X2146000Y2079780D01*
X2148000Y2079780D01*
X2148000Y2081780D01*
X2150000Y2081780D01*
X2150000Y2083780D01*
X2152000Y2083780D01*
X2152000Y2087780D01*
X2154000Y2087780D01*
X2154000Y2093780D01*
X2156000Y2093780D01*
X2156000Y2121780D01*
X2154000Y2121780D01*
X2154000Y2125780D01*
X2152000Y2125780D01*
X2152000Y2129780D01*
X2150000Y2129780D01*
X2150000Y2131780D01*
X2148000Y2131780D01*
X2148000Y2135780D01*
X2146000Y2135780D01*
X2146000Y2137780D01*
X2144000Y2137780D01*
X2144000Y2139780D01*
X2142000Y2139780D01*
X2142000Y2141780D01*
X2138000Y2141780D01*
X2138000Y2143780D01*
X2136000Y2143780D01*
X2136000Y2145780D01*
X2132000Y2145780D01*
X2132000Y2147780D01*
X2126000Y2147780D01*
X2126000Y2149780D01*
X2104000Y2149780D01*
G37*
D02*
G36*
X274000Y2223780D02*
X274000Y2203780D01*
X276000Y2203780D01*
X276000Y2201780D01*
X278000Y2201780D01*
X278000Y2199780D01*
X280000Y2199780D01*
X280000Y2195780D01*
X282000Y2195780D01*
X282000Y2191780D01*
X284000Y2191780D01*
X284000Y2189780D01*
X286000Y2189780D01*
X286000Y2185780D01*
X288000Y2185780D01*
X288000Y2181780D01*
X290000Y2181780D01*
X290000Y2177780D01*
X292000Y2177780D01*
X292000Y2173780D01*
X294000Y2173780D01*
X294000Y2169780D01*
X296000Y2169780D01*
X296000Y2163780D01*
X298000Y2163780D01*
X298000Y2157780D01*
X300000Y2157780D01*
X300000Y2151780D01*
X302000Y2151780D01*
X302000Y2145780D01*
X304000Y2145780D01*
X304000Y2135780D01*
X306000Y2135780D01*
X306000Y2119780D01*
X308000Y2119780D01*
X308000Y2093780D01*
X306000Y2093780D01*
X306000Y2079780D01*
X304000Y2079780D01*
X304000Y2069780D01*
X302000Y2069780D01*
X302000Y2061780D01*
X300000Y2061780D01*
X300000Y2055780D01*
X298000Y2055780D01*
X298000Y2049780D01*
X296000Y2049780D01*
X296000Y2043780D01*
X294000Y2043780D01*
X294000Y2039780D01*
X292000Y2039780D01*
X292000Y2035780D01*
X290000Y2035780D01*
X290000Y2031780D01*
X288000Y2031780D01*
X288000Y2027780D01*
X286000Y2027780D01*
X286000Y2025780D01*
X284000Y2025780D01*
X284000Y2021780D01*
X282000Y2021780D01*
X282000Y2017780D01*
X280000Y2017780D01*
X280000Y2015780D01*
X278000Y2015780D01*
X278000Y2011780D01*
X276000Y2011780D01*
X276000Y2009780D01*
X274000Y2009780D01*
X274000Y2007780D01*
X272000Y2007780D01*
X272000Y2003780D01*
X270000Y2003780D01*
X270000Y2001780D01*
X268000Y2001780D01*
X268000Y1999780D01*
X266000Y1999780D01*
X266000Y1997780D01*
X264000Y1997780D01*
X264000Y1995780D01*
X262000Y1995780D01*
X262000Y1993780D01*
X260000Y1993780D01*
X260000Y1991780D01*
X258000Y1991780D01*
X258000Y1989780D01*
X256000Y1989780D01*
X256000Y1987780D01*
X254000Y1987780D01*
X254000Y1985780D01*
X252000Y1985780D01*
X252000Y1983780D01*
X250000Y1983780D01*
X250000Y1981780D01*
X246000Y1981780D01*
X246000Y1979780D01*
X244000Y1979780D01*
X244000Y1977780D01*
X242000Y1977780D01*
X242000Y1975780D01*
X238000Y1975780D01*
X238000Y1973780D01*
X236000Y1973780D01*
X236000Y1971780D01*
X232000Y1971780D01*
X232000Y1969780D01*
X230000Y1969780D01*
X230000Y1967780D01*
X226000Y1967780D01*
X226000Y1965780D01*
X222000Y1965780D01*
X222000Y1963780D01*
X218000Y1963780D01*
X218000Y1961780D01*
X214000Y1961780D01*
X214000Y1959780D01*
X210000Y1959780D01*
X210000Y1957780D01*
X206000Y1957780D01*
X206000Y1955780D01*
X200000Y1955780D01*
X200000Y1953780D01*
X194000Y1953780D01*
X194000Y1951780D01*
X186000Y1951780D01*
X186000Y1949780D01*
X178000Y1949780D01*
X178000Y1947780D01*
X166000Y1947780D01*
X166000Y1945780D01*
X2094000Y1945780D01*
X2094000Y1947780D01*
X2082000Y1947780D01*
X2082000Y1949780D01*
X2074000Y1949780D01*
X2074000Y1951780D01*
X2066000Y1951780D01*
X2066000Y1953780D01*
X2060000Y1953780D01*
X2060000Y1955780D01*
X2056000Y1955780D01*
X2056000Y1957780D01*
X2050000Y1957780D01*
X2050000Y1959780D01*
X2046000Y1959780D01*
X2046000Y1961780D01*
X2042000Y1961780D01*
X2042000Y1963780D01*
X2038000Y1963780D01*
X2038000Y1965780D01*
X2034000Y1965780D01*
X2034000Y1967780D01*
X2032000Y1967780D01*
X2032000Y1969780D01*
X2028000Y1969780D01*
X2028000Y1971780D01*
X2024000Y1971780D01*
X2024000Y1973780D01*
X2022000Y1973780D01*
X2022000Y1975780D01*
X2020000Y1975780D01*
X2020000Y1977780D01*
X2016000Y1977780D01*
X2016000Y1979780D01*
X2014000Y1979780D01*
X2014000Y1981780D01*
X2012000Y1981780D01*
X2012000Y1983780D01*
X2008000Y1983780D01*
X2008000Y1985780D01*
X2006000Y1985780D01*
X2006000Y1987780D01*
X2004000Y1987780D01*
X2004000Y1989780D01*
X2002000Y1989780D01*
X2002000Y1991780D01*
X2000000Y1991780D01*
X2000000Y1993780D01*
X1998000Y1993780D01*
X1998000Y1995780D01*
X1996000Y1995780D01*
X1996000Y1997780D01*
X1994000Y1997780D01*
X1994000Y1999780D01*
X1992000Y1999780D01*
X1992000Y2003780D01*
X1990000Y2003780D01*
X1990000Y2005780D01*
X1988000Y2005780D01*
X1988000Y2007780D01*
X1986000Y2007780D01*
X1986000Y2009780D01*
X1984000Y2009780D01*
X1984000Y2013780D01*
X1982000Y2013780D01*
X1982000Y2015780D01*
X1980000Y2015780D01*
X1980000Y2019780D01*
X1978000Y2019780D01*
X1978000Y2021780D01*
X1976000Y2021780D01*
X1976000Y2025780D01*
X1974000Y2025780D01*
X1974000Y2029780D01*
X1972000Y2029780D01*
X1972000Y2031780D01*
X1970000Y2031780D01*
X1970000Y2037780D01*
X1968000Y2037780D01*
X1968000Y2041780D01*
X1966000Y2041780D01*
X1966000Y2045780D01*
X1964000Y2045780D01*
X1964000Y2051780D01*
X1962000Y2051780D01*
X1962000Y2055780D01*
X1960000Y2055780D01*
X1960000Y2063780D01*
X1958000Y2063780D01*
X1958000Y2069780D01*
X1956000Y2069780D01*
X1956000Y2081780D01*
X1954000Y2081780D01*
X1954000Y2097780D01*
X1952000Y2097780D01*
X1952000Y2115780D01*
X1954000Y2115780D01*
X1954000Y2133780D01*
X1956000Y2133780D01*
X1956000Y2143780D01*
X1958000Y2143780D01*
X1958000Y2151780D01*
X1960000Y2151780D01*
X1960000Y2157780D01*
X1962000Y2157780D01*
X1962000Y2163780D01*
X1964000Y2163780D01*
X1964000Y2169780D01*
X1966000Y2169780D01*
X1966000Y2173780D01*
X1968000Y2173780D01*
X1968000Y2177780D01*
X1970000Y2177780D01*
X1970000Y2181780D01*
X1972000Y2181780D01*
X1972000Y2185780D01*
X1974000Y2185780D01*
X1974000Y2187780D01*
X1976000Y2187780D01*
X1976000Y2191780D01*
X1978000Y2191780D01*
X1978000Y2195780D01*
X1980000Y2195780D01*
X1980000Y2197780D01*
X1982000Y2197780D01*
X1982000Y2201780D01*
X1984000Y2201780D01*
X1984000Y2203780D01*
X1986000Y2203780D01*
X1986000Y2223780D01*
X274000Y2223780D01*
G37*
D02*
G36*
X40000Y1971780D02*
X40000Y1945780D01*
X126000Y1945780D01*
X126000Y1947780D01*
X114000Y1947780D01*
X114000Y1949780D01*
X106000Y1949780D01*
X106000Y1951780D01*
X98000Y1951780D01*
X98000Y1953780D01*
X92000Y1953780D01*
X92000Y1955780D01*
X86000Y1955780D01*
X86000Y1957780D01*
X82000Y1957780D01*
X82000Y1959780D01*
X78000Y1959780D01*
X78000Y1961780D01*
X74000Y1961780D01*
X74000Y1963780D01*
X70000Y1963780D01*
X70000Y1965780D01*
X66000Y1965780D01*
X66000Y1967780D01*
X62000Y1967780D01*
X62000Y1969780D01*
X60000Y1969780D01*
X60000Y1971780D01*
X40000Y1971780D01*
G37*
D02*
G36*
X2202000Y1971780D02*
X2202000Y1969780D01*
X2198000Y1969780D01*
X2198000Y1967780D01*
X2194000Y1967780D01*
X2194000Y1965780D01*
X2192000Y1965780D01*
X2192000Y1963780D01*
X2186000Y1963780D01*
X2186000Y1961780D01*
X2182000Y1961780D01*
X2182000Y1959780D01*
X2178000Y1959780D01*
X2178000Y1957780D01*
X2174000Y1957780D01*
X2174000Y1955780D01*
X2168000Y1955780D01*
X2168000Y1953780D01*
X2162000Y1953780D01*
X2162000Y1951780D01*
X2154000Y1951780D01*
X2154000Y1949780D01*
X2148000Y1949780D01*
X2148000Y1947780D01*
X2134000Y1947780D01*
X2134000Y1945780D01*
X2222000Y1945780D01*
X2222000Y1971780D01*
X2202000Y1971780D01*
G37*
D02*
G36*
X40000Y1945780D02*
X40000Y1943780D01*
X2222000Y1943780D01*
X2222000Y1945780D01*
X40000Y1945780D01*
G37*
D02*
G36*
X40000Y1945780D02*
X40000Y1943780D01*
X2222000Y1943780D01*
X2222000Y1945780D01*
X40000Y1945780D01*
G37*
D02*
G36*
X40000Y1945780D02*
X40000Y1943780D01*
X2222000Y1943780D01*
X2222000Y1945780D01*
X40000Y1945780D01*
G37*
D02*
G36*
X40000Y1943780D02*
X40000Y1377780D01*
X2128000Y1377780D01*
X2128000Y1375780D01*
X2136000Y1375780D01*
X2136000Y1373780D01*
X2140000Y1373780D01*
X2140000Y1371780D01*
X2144000Y1371780D01*
X2144000Y1369780D01*
X2146000Y1369780D01*
X2146000Y1367780D01*
X2150000Y1367780D01*
X2150000Y1365780D01*
X2152000Y1365780D01*
X2152000Y1363780D01*
X2154000Y1363780D01*
X2154000Y1361780D01*
X2156000Y1361780D01*
X2156000Y1359780D01*
X2158000Y1359780D01*
X2158000Y1357780D01*
X2160000Y1357780D01*
X2160000Y1355780D01*
X2162000Y1355780D01*
X2162000Y1353780D01*
X2164000Y1353780D01*
X2164000Y1349780D01*
X2166000Y1349780D01*
X2166000Y1345780D01*
X2168000Y1345780D01*
X2168000Y1341780D01*
X2170000Y1341780D01*
X2170000Y1335780D01*
X2172000Y1335780D01*
X2172000Y1325780D01*
X2174000Y1325780D01*
X2174000Y1313780D01*
X2172000Y1313780D01*
X2172000Y1303780D01*
X2170000Y1303780D01*
X2170000Y1297780D01*
X2168000Y1297780D01*
X2168000Y1293780D01*
X2166000Y1293780D01*
X2166000Y1289780D01*
X2164000Y1289780D01*
X2164000Y1285780D01*
X2162000Y1285780D01*
X2162000Y1283780D01*
X2160000Y1283780D01*
X2160000Y1281780D01*
X2158000Y1281780D01*
X2158000Y1279780D01*
X2156000Y1279780D01*
X2156000Y1277780D01*
X2154000Y1277780D01*
X2154000Y1275780D01*
X2152000Y1275780D01*
X2152000Y1273780D01*
X2150000Y1273780D01*
X2150000Y1271780D01*
X2148000Y1271780D01*
X2148000Y1269780D01*
X2144000Y1269780D01*
X2144000Y1267780D01*
X2140000Y1267780D01*
X2140000Y1265780D01*
X2136000Y1265780D01*
X2136000Y1263780D01*
X2130000Y1263780D01*
X2130000Y1261780D01*
X2116000Y1261780D01*
X2116000Y1259780D01*
X2222000Y1259780D01*
X2222000Y1943780D01*
X40000Y1943780D01*
G37*
D02*
G36*
X40000Y1377780D02*
X40000Y1259780D01*
X1214000Y1259780D01*
X1214000Y1261780D01*
X1200000Y1261780D01*
X1200000Y1263780D01*
X1194000Y1263780D01*
X1194000Y1265780D01*
X1188000Y1265780D01*
X1188000Y1267780D01*
X1184000Y1267780D01*
X1184000Y1269780D01*
X1182000Y1269780D01*
X1182000Y1271780D01*
X1180000Y1271780D01*
X1180000Y1273780D01*
X1176000Y1273780D01*
X1176000Y1275780D01*
X1174000Y1275780D01*
X1174000Y1277780D01*
X1172000Y1277780D01*
X1172000Y1279780D01*
X1170000Y1279780D01*
X1170000Y1281780D01*
X1168000Y1281780D01*
X1168000Y1285780D01*
X1166000Y1285780D01*
X1166000Y1287780D01*
X1164000Y1287780D01*
X1164000Y1291780D01*
X1162000Y1291780D01*
X1162000Y1295780D01*
X1160000Y1295780D01*
X1160000Y1299780D01*
X1158000Y1299780D01*
X1158000Y1307780D01*
X1156000Y1307780D01*
X1156000Y1331780D01*
X1158000Y1331780D01*
X1158000Y1339780D01*
X1160000Y1339780D01*
X1160000Y1343780D01*
X1162000Y1343780D01*
X1162000Y1347780D01*
X1164000Y1347780D01*
X1164000Y1351780D01*
X1166000Y1351780D01*
X1166000Y1353780D01*
X1168000Y1353780D01*
X1168000Y1357780D01*
X1170000Y1357780D01*
X1170000Y1359780D01*
X1172000Y1359780D01*
X1172000Y1361780D01*
X1174000Y1361780D01*
X1174000Y1363780D01*
X1176000Y1363780D01*
X1176000Y1365780D01*
X1180000Y1365780D01*
X1180000Y1367780D01*
X1182000Y1367780D01*
X1182000Y1369780D01*
X1186000Y1369780D01*
X1186000Y1371780D01*
X1188000Y1371780D01*
X1188000Y1373780D01*
X1194000Y1373780D01*
X1194000Y1375780D01*
X1200000Y1375780D01*
X1200000Y1377780D01*
X40000Y1377780D01*
G37*
D02*
G36*
X1228000Y1377780D02*
X1228000Y1375780D01*
X1236000Y1375780D01*
X1236000Y1373780D01*
X1240000Y1373780D01*
X1240000Y1371780D01*
X1244000Y1371780D01*
X1244000Y1369780D01*
X1246000Y1369780D01*
X1246000Y1367780D01*
X1250000Y1367780D01*
X1250000Y1365780D01*
X1252000Y1365780D01*
X1252000Y1363780D01*
X1254000Y1363780D01*
X1254000Y1361780D01*
X1274000Y1361780D01*
X1274000Y1363780D01*
X1276000Y1363780D01*
X1276000Y1365780D01*
X1280000Y1365780D01*
X1280000Y1367780D01*
X1282000Y1367780D01*
X1282000Y1369780D01*
X1286000Y1369780D01*
X1286000Y1371780D01*
X1288000Y1371780D01*
X1288000Y1373780D01*
X1294000Y1373780D01*
X1294000Y1375780D01*
X1300000Y1375780D01*
X1300000Y1377780D01*
X1228000Y1377780D01*
G37*
D02*
G36*
X1328000Y1377780D02*
X1328000Y1375780D01*
X1336000Y1375780D01*
X1336000Y1373780D01*
X1340000Y1373780D01*
X1340000Y1371780D01*
X1344000Y1371780D01*
X1344000Y1369780D01*
X1346000Y1369780D01*
X1346000Y1367780D01*
X1350000Y1367780D01*
X1350000Y1365780D01*
X1352000Y1365780D01*
X1352000Y1363780D01*
X1354000Y1363780D01*
X1354000Y1361780D01*
X1374000Y1361780D01*
X1374000Y1363780D01*
X1376000Y1363780D01*
X1376000Y1365780D01*
X1380000Y1365780D01*
X1380000Y1367780D01*
X1382000Y1367780D01*
X1382000Y1369780D01*
X1386000Y1369780D01*
X1386000Y1371780D01*
X1388000Y1371780D01*
X1388000Y1373780D01*
X1394000Y1373780D01*
X1394000Y1375780D01*
X1400000Y1375780D01*
X1400000Y1377780D01*
X1328000Y1377780D01*
G37*
D02*
G36*
X1428000Y1377780D02*
X1428000Y1375780D01*
X1436000Y1375780D01*
X1436000Y1373780D01*
X1440000Y1373780D01*
X1440000Y1371780D01*
X1444000Y1371780D01*
X1444000Y1369780D01*
X1446000Y1369780D01*
X1446000Y1367780D01*
X1450000Y1367780D01*
X1450000Y1365780D01*
X1452000Y1365780D01*
X1452000Y1363780D01*
X1454000Y1363780D01*
X1454000Y1361780D01*
X1474000Y1361780D01*
X1474000Y1363780D01*
X1476000Y1363780D01*
X1476000Y1365780D01*
X1480000Y1365780D01*
X1480000Y1367780D01*
X1482000Y1367780D01*
X1482000Y1369780D01*
X1486000Y1369780D01*
X1486000Y1371780D01*
X1488000Y1371780D01*
X1488000Y1373780D01*
X1494000Y1373780D01*
X1494000Y1375780D01*
X1500000Y1375780D01*
X1500000Y1377780D01*
X1428000Y1377780D01*
G37*
D02*
G36*
X1528000Y1377780D02*
X1528000Y1375780D01*
X1536000Y1375780D01*
X1536000Y1373780D01*
X1540000Y1373780D01*
X1540000Y1371780D01*
X1544000Y1371780D01*
X1544000Y1369780D01*
X1546000Y1369780D01*
X1546000Y1367780D01*
X1550000Y1367780D01*
X1550000Y1365780D01*
X1552000Y1365780D01*
X1552000Y1363780D01*
X1554000Y1363780D01*
X1554000Y1361780D01*
X1574000Y1361780D01*
X1574000Y1363780D01*
X1576000Y1363780D01*
X1576000Y1365780D01*
X1580000Y1365780D01*
X1580000Y1367780D01*
X1582000Y1367780D01*
X1582000Y1369780D01*
X1586000Y1369780D01*
X1586000Y1371780D01*
X1588000Y1371780D01*
X1588000Y1373780D01*
X1594000Y1373780D01*
X1594000Y1375780D01*
X1600000Y1375780D01*
X1600000Y1377780D01*
X1528000Y1377780D01*
G37*
D02*
G36*
X1628000Y1377780D02*
X1628000Y1375780D01*
X1636000Y1375780D01*
X1636000Y1373780D01*
X1640000Y1373780D01*
X1640000Y1371780D01*
X1644000Y1371780D01*
X1644000Y1369780D01*
X1646000Y1369780D01*
X1646000Y1367780D01*
X1650000Y1367780D01*
X1650000Y1365780D01*
X1652000Y1365780D01*
X1652000Y1363780D01*
X1654000Y1363780D01*
X1654000Y1361780D01*
X1674000Y1361780D01*
X1674000Y1363780D01*
X1676000Y1363780D01*
X1676000Y1365780D01*
X1680000Y1365780D01*
X1680000Y1367780D01*
X1682000Y1367780D01*
X1682000Y1369780D01*
X1686000Y1369780D01*
X1686000Y1371780D01*
X1688000Y1371780D01*
X1688000Y1373780D01*
X1694000Y1373780D01*
X1694000Y1375780D01*
X1700000Y1375780D01*
X1700000Y1377780D01*
X1628000Y1377780D01*
G37*
D02*
G36*
X1728000Y1377780D02*
X1728000Y1375780D01*
X1736000Y1375780D01*
X1736000Y1373780D01*
X1740000Y1373780D01*
X1740000Y1371780D01*
X1744000Y1371780D01*
X1744000Y1369780D01*
X1746000Y1369780D01*
X1746000Y1367780D01*
X1750000Y1367780D01*
X1750000Y1365780D01*
X1752000Y1365780D01*
X1752000Y1363780D01*
X1754000Y1363780D01*
X1754000Y1361780D01*
X1774000Y1361780D01*
X1774000Y1363780D01*
X1776000Y1363780D01*
X1776000Y1365780D01*
X1780000Y1365780D01*
X1780000Y1367780D01*
X1782000Y1367780D01*
X1782000Y1369780D01*
X1786000Y1369780D01*
X1786000Y1371780D01*
X1788000Y1371780D01*
X1788000Y1373780D01*
X1794000Y1373780D01*
X1794000Y1375780D01*
X1800000Y1375780D01*
X1800000Y1377780D01*
X1728000Y1377780D01*
G37*
D02*
G36*
X1828000Y1377780D02*
X1828000Y1375780D01*
X1836000Y1375780D01*
X1836000Y1373780D01*
X1840000Y1373780D01*
X1840000Y1371780D01*
X1844000Y1371780D01*
X1844000Y1369780D01*
X1846000Y1369780D01*
X1846000Y1367780D01*
X1850000Y1367780D01*
X1850000Y1365780D01*
X1852000Y1365780D01*
X1852000Y1363780D01*
X1854000Y1363780D01*
X1854000Y1361780D01*
X1874000Y1361780D01*
X1874000Y1363780D01*
X1876000Y1363780D01*
X1876000Y1365780D01*
X1880000Y1365780D01*
X1880000Y1367780D01*
X1882000Y1367780D01*
X1882000Y1369780D01*
X1886000Y1369780D01*
X1886000Y1371780D01*
X1888000Y1371780D01*
X1888000Y1373780D01*
X1894000Y1373780D01*
X1894000Y1375780D01*
X1900000Y1375780D01*
X1900000Y1377780D01*
X1828000Y1377780D01*
G37*
D02*
G36*
X1928000Y1377780D02*
X1928000Y1375780D01*
X1936000Y1375780D01*
X1936000Y1373780D01*
X1940000Y1373780D01*
X1940000Y1371780D01*
X1944000Y1371780D01*
X1944000Y1369780D01*
X1946000Y1369780D01*
X1946000Y1367780D01*
X1950000Y1367780D01*
X1950000Y1365780D01*
X1952000Y1365780D01*
X1952000Y1363780D01*
X1954000Y1363780D01*
X1954000Y1361780D01*
X1974000Y1361780D01*
X1974000Y1363780D01*
X1976000Y1363780D01*
X1976000Y1365780D01*
X1980000Y1365780D01*
X1980000Y1367780D01*
X1982000Y1367780D01*
X1982000Y1369780D01*
X1986000Y1369780D01*
X1986000Y1371780D01*
X1988000Y1371780D01*
X1988000Y1373780D01*
X1994000Y1373780D01*
X1994000Y1375780D01*
X2000000Y1375780D01*
X2000000Y1377780D01*
X1928000Y1377780D01*
G37*
D02*
G36*
X2028000Y1377780D02*
X2028000Y1375780D01*
X2036000Y1375780D01*
X2036000Y1373780D01*
X2040000Y1373780D01*
X2040000Y1371780D01*
X2044000Y1371780D01*
X2044000Y1369780D01*
X2046000Y1369780D01*
X2046000Y1367780D01*
X2050000Y1367780D01*
X2050000Y1365780D01*
X2052000Y1365780D01*
X2052000Y1363780D01*
X2054000Y1363780D01*
X2054000Y1361780D01*
X2074000Y1361780D01*
X2074000Y1363780D01*
X2076000Y1363780D01*
X2076000Y1365780D01*
X2080000Y1365780D01*
X2080000Y1367780D01*
X2082000Y1367780D01*
X2082000Y1369780D01*
X2086000Y1369780D01*
X2086000Y1371780D01*
X2088000Y1371780D01*
X2088000Y1373780D01*
X2094000Y1373780D01*
X2094000Y1375780D01*
X2100000Y1375780D01*
X2100000Y1377780D01*
X2028000Y1377780D01*
G37*
D02*
G36*
X1254000Y1277780D02*
X1254000Y1275780D01*
X1252000Y1275780D01*
X1252000Y1273780D01*
X1250000Y1273780D01*
X1250000Y1271780D01*
X1248000Y1271780D01*
X1248000Y1269780D01*
X1244000Y1269780D01*
X1244000Y1267780D01*
X1240000Y1267780D01*
X1240000Y1265780D01*
X1236000Y1265780D01*
X1236000Y1263780D01*
X1230000Y1263780D01*
X1230000Y1261780D01*
X1216000Y1261780D01*
X1216000Y1259780D01*
X1314000Y1259780D01*
X1314000Y1261780D01*
X1300000Y1261780D01*
X1300000Y1263780D01*
X1294000Y1263780D01*
X1294000Y1265780D01*
X1288000Y1265780D01*
X1288000Y1267780D01*
X1284000Y1267780D01*
X1284000Y1269780D01*
X1282000Y1269780D01*
X1282000Y1271780D01*
X1280000Y1271780D01*
X1280000Y1273780D01*
X1276000Y1273780D01*
X1276000Y1275780D01*
X1274000Y1275780D01*
X1274000Y1277780D01*
X1254000Y1277780D01*
G37*
D02*
G36*
X1354000Y1277780D02*
X1354000Y1275780D01*
X1352000Y1275780D01*
X1352000Y1273780D01*
X1350000Y1273780D01*
X1350000Y1271780D01*
X1348000Y1271780D01*
X1348000Y1269780D01*
X1344000Y1269780D01*
X1344000Y1267780D01*
X1340000Y1267780D01*
X1340000Y1265780D01*
X1336000Y1265780D01*
X1336000Y1263780D01*
X1330000Y1263780D01*
X1330000Y1261780D01*
X1316000Y1261780D01*
X1316000Y1259780D01*
X1414000Y1259780D01*
X1414000Y1261780D01*
X1400000Y1261780D01*
X1400000Y1263780D01*
X1394000Y1263780D01*
X1394000Y1265780D01*
X1388000Y1265780D01*
X1388000Y1267780D01*
X1384000Y1267780D01*
X1384000Y1269780D01*
X1382000Y1269780D01*
X1382000Y1271780D01*
X1380000Y1271780D01*
X1380000Y1273780D01*
X1376000Y1273780D01*
X1376000Y1275780D01*
X1374000Y1275780D01*
X1374000Y1277780D01*
X1354000Y1277780D01*
G37*
D02*
G36*
X1454000Y1277780D02*
X1454000Y1275780D01*
X1452000Y1275780D01*
X1452000Y1273780D01*
X1450000Y1273780D01*
X1450000Y1271780D01*
X1448000Y1271780D01*
X1448000Y1269780D01*
X1444000Y1269780D01*
X1444000Y1267780D01*
X1440000Y1267780D01*
X1440000Y1265780D01*
X1436000Y1265780D01*
X1436000Y1263780D01*
X1430000Y1263780D01*
X1430000Y1261780D01*
X1416000Y1261780D01*
X1416000Y1259780D01*
X1514000Y1259780D01*
X1514000Y1261780D01*
X1500000Y1261780D01*
X1500000Y1263780D01*
X1494000Y1263780D01*
X1494000Y1265780D01*
X1488000Y1265780D01*
X1488000Y1267780D01*
X1484000Y1267780D01*
X1484000Y1269780D01*
X1482000Y1269780D01*
X1482000Y1271780D01*
X1480000Y1271780D01*
X1480000Y1273780D01*
X1476000Y1273780D01*
X1476000Y1275780D01*
X1474000Y1275780D01*
X1474000Y1277780D01*
X1454000Y1277780D01*
G37*
D02*
G36*
X1554000Y1277780D02*
X1554000Y1275780D01*
X1552000Y1275780D01*
X1552000Y1273780D01*
X1550000Y1273780D01*
X1550000Y1271780D01*
X1548000Y1271780D01*
X1548000Y1269780D01*
X1544000Y1269780D01*
X1544000Y1267780D01*
X1540000Y1267780D01*
X1540000Y1265780D01*
X1536000Y1265780D01*
X1536000Y1263780D01*
X1530000Y1263780D01*
X1530000Y1261780D01*
X1516000Y1261780D01*
X1516000Y1259780D01*
X1614000Y1259780D01*
X1614000Y1261780D01*
X1600000Y1261780D01*
X1600000Y1263780D01*
X1594000Y1263780D01*
X1594000Y1265780D01*
X1588000Y1265780D01*
X1588000Y1267780D01*
X1584000Y1267780D01*
X1584000Y1269780D01*
X1582000Y1269780D01*
X1582000Y1271780D01*
X1580000Y1271780D01*
X1580000Y1273780D01*
X1576000Y1273780D01*
X1576000Y1275780D01*
X1574000Y1275780D01*
X1574000Y1277780D01*
X1554000Y1277780D01*
G37*
D02*
G36*
X1654000Y1277780D02*
X1654000Y1275780D01*
X1652000Y1275780D01*
X1652000Y1273780D01*
X1650000Y1273780D01*
X1650000Y1271780D01*
X1648000Y1271780D01*
X1648000Y1269780D01*
X1644000Y1269780D01*
X1644000Y1267780D01*
X1640000Y1267780D01*
X1640000Y1265780D01*
X1636000Y1265780D01*
X1636000Y1263780D01*
X1630000Y1263780D01*
X1630000Y1261780D01*
X1616000Y1261780D01*
X1616000Y1259780D01*
X1714000Y1259780D01*
X1714000Y1261780D01*
X1700000Y1261780D01*
X1700000Y1263780D01*
X1694000Y1263780D01*
X1694000Y1265780D01*
X1688000Y1265780D01*
X1688000Y1267780D01*
X1684000Y1267780D01*
X1684000Y1269780D01*
X1682000Y1269780D01*
X1682000Y1271780D01*
X1680000Y1271780D01*
X1680000Y1273780D01*
X1676000Y1273780D01*
X1676000Y1275780D01*
X1674000Y1275780D01*
X1674000Y1277780D01*
X1654000Y1277780D01*
G37*
D02*
G36*
X1754000Y1277780D02*
X1754000Y1275780D01*
X1752000Y1275780D01*
X1752000Y1273780D01*
X1750000Y1273780D01*
X1750000Y1271780D01*
X1748000Y1271780D01*
X1748000Y1269780D01*
X1744000Y1269780D01*
X1744000Y1267780D01*
X1740000Y1267780D01*
X1740000Y1265780D01*
X1736000Y1265780D01*
X1736000Y1263780D01*
X1730000Y1263780D01*
X1730000Y1261780D01*
X1716000Y1261780D01*
X1716000Y1259780D01*
X1814000Y1259780D01*
X1814000Y1261780D01*
X1800000Y1261780D01*
X1800000Y1263780D01*
X1794000Y1263780D01*
X1794000Y1265780D01*
X1788000Y1265780D01*
X1788000Y1267780D01*
X1784000Y1267780D01*
X1784000Y1269780D01*
X1782000Y1269780D01*
X1782000Y1271780D01*
X1780000Y1271780D01*
X1780000Y1273780D01*
X1776000Y1273780D01*
X1776000Y1275780D01*
X1774000Y1275780D01*
X1774000Y1277780D01*
X1754000Y1277780D01*
G37*
D02*
G36*
X1854000Y1277780D02*
X1854000Y1275780D01*
X1852000Y1275780D01*
X1852000Y1273780D01*
X1850000Y1273780D01*
X1850000Y1271780D01*
X1848000Y1271780D01*
X1848000Y1269780D01*
X1844000Y1269780D01*
X1844000Y1267780D01*
X1840000Y1267780D01*
X1840000Y1265780D01*
X1836000Y1265780D01*
X1836000Y1263780D01*
X1830000Y1263780D01*
X1830000Y1261780D01*
X1816000Y1261780D01*
X1816000Y1259780D01*
X1914000Y1259780D01*
X1914000Y1261780D01*
X1900000Y1261780D01*
X1900000Y1263780D01*
X1894000Y1263780D01*
X1894000Y1265780D01*
X1888000Y1265780D01*
X1888000Y1267780D01*
X1884000Y1267780D01*
X1884000Y1269780D01*
X1882000Y1269780D01*
X1882000Y1271780D01*
X1880000Y1271780D01*
X1880000Y1273780D01*
X1876000Y1273780D01*
X1876000Y1275780D01*
X1874000Y1275780D01*
X1874000Y1277780D01*
X1854000Y1277780D01*
G37*
D02*
G36*
X1954000Y1277780D02*
X1954000Y1275780D01*
X1952000Y1275780D01*
X1952000Y1273780D01*
X1950000Y1273780D01*
X1950000Y1271780D01*
X1948000Y1271780D01*
X1948000Y1269780D01*
X1944000Y1269780D01*
X1944000Y1267780D01*
X1940000Y1267780D01*
X1940000Y1265780D01*
X1936000Y1265780D01*
X1936000Y1263780D01*
X1930000Y1263780D01*
X1930000Y1261780D01*
X1916000Y1261780D01*
X1916000Y1259780D01*
X2014000Y1259780D01*
X2014000Y1261780D01*
X2000000Y1261780D01*
X2000000Y1263780D01*
X1994000Y1263780D01*
X1994000Y1265780D01*
X1988000Y1265780D01*
X1988000Y1267780D01*
X1984000Y1267780D01*
X1984000Y1269780D01*
X1982000Y1269780D01*
X1982000Y1271780D01*
X1980000Y1271780D01*
X1980000Y1273780D01*
X1976000Y1273780D01*
X1976000Y1275780D01*
X1974000Y1275780D01*
X1974000Y1277780D01*
X1954000Y1277780D01*
G37*
D02*
G36*
X2054000Y1277780D02*
X2054000Y1275780D01*
X2052000Y1275780D01*
X2052000Y1273780D01*
X2050000Y1273780D01*
X2050000Y1271780D01*
X2048000Y1271780D01*
X2048000Y1269780D01*
X2044000Y1269780D01*
X2044000Y1267780D01*
X2040000Y1267780D01*
X2040000Y1265780D01*
X2036000Y1265780D01*
X2036000Y1263780D01*
X2030000Y1263780D01*
X2030000Y1261780D01*
X2016000Y1261780D01*
X2016000Y1259780D01*
X2114000Y1259780D01*
X2114000Y1261780D01*
X2100000Y1261780D01*
X2100000Y1263780D01*
X2094000Y1263780D01*
X2094000Y1265780D01*
X2088000Y1265780D01*
X2088000Y1267780D01*
X2084000Y1267780D01*
X2084000Y1269780D01*
X2082000Y1269780D01*
X2082000Y1271780D01*
X2080000Y1271780D01*
X2080000Y1273780D01*
X2076000Y1273780D01*
X2076000Y1275780D01*
X2074000Y1275780D01*
X2074000Y1277780D01*
X2054000Y1277780D01*
G37*
D02*
G36*
X40000Y1259780D02*
X40000Y1257780D01*
X2222000Y1257780D01*
X2222000Y1259780D01*
X40000Y1259780D01*
G37*
D02*
G36*
X40000Y1259780D02*
X40000Y1257780D01*
X2222000Y1257780D01*
X2222000Y1259780D01*
X40000Y1259780D01*
G37*
D02*
G36*
X40000Y1259780D02*
X40000Y1257780D01*
X2222000Y1257780D01*
X2222000Y1259780D01*
X40000Y1259780D01*
G37*
D02*
G36*
X40000Y1259780D02*
X40000Y1257780D01*
X2222000Y1257780D01*
X2222000Y1259780D01*
X40000Y1259780D01*
G37*
D02*
G36*
X40000Y1259780D02*
X40000Y1257780D01*
X2222000Y1257780D01*
X2222000Y1259780D01*
X40000Y1259780D01*
G37*
D02*
G36*
X40000Y1259780D02*
X40000Y1257780D01*
X2222000Y1257780D01*
X2222000Y1259780D01*
X40000Y1259780D01*
G37*
D02*
G36*
X40000Y1259780D02*
X40000Y1257780D01*
X2222000Y1257780D01*
X2222000Y1259780D01*
X40000Y1259780D01*
G37*
D02*
G36*
X40000Y1259780D02*
X40000Y1257780D01*
X2222000Y1257780D01*
X2222000Y1259780D01*
X40000Y1259780D01*
G37*
D02*
G36*
X40000Y1259780D02*
X40000Y1257780D01*
X2222000Y1257780D01*
X2222000Y1259780D01*
X40000Y1259780D01*
G37*
D02*
G36*
X40000Y1259780D02*
X40000Y1257780D01*
X2222000Y1257780D01*
X2222000Y1259780D01*
X40000Y1259780D01*
G37*
D02*
G36*
X40000Y1259780D02*
X40000Y1257780D01*
X2222000Y1257780D01*
X2222000Y1259780D01*
X40000Y1259780D01*
G37*
D02*
G36*
X40000Y1257780D02*
X40000Y355780D01*
X2178000Y355780D01*
X2178000Y235780D01*
X2158000Y235780D01*
X2158000Y213780D01*
X2160000Y213780D01*
X2160000Y211780D01*
X2162000Y211780D01*
X2162000Y209780D01*
X2164000Y209780D01*
X2164000Y205780D01*
X2166000Y205780D01*
X2166000Y201780D01*
X2168000Y201780D01*
X2168000Y195780D01*
X2170000Y195780D01*
X2170000Y187780D01*
X2172000Y187780D01*
X2172000Y169780D01*
X2170000Y169780D01*
X2170000Y159780D01*
X2168000Y159780D01*
X2168000Y153780D01*
X2166000Y153780D01*
X2166000Y149780D01*
X2164000Y149780D01*
X2164000Y147780D01*
X2162000Y147780D01*
X2162000Y143780D01*
X2160000Y143780D01*
X2160000Y141780D01*
X2158000Y141780D01*
X2158000Y139780D01*
X2156000Y139780D01*
X2156000Y137780D01*
X2154000Y137780D01*
X2154000Y135780D01*
X2152000Y135780D01*
X2152000Y133780D01*
X2150000Y133780D01*
X2150000Y131780D01*
X2148000Y131780D01*
X2148000Y129780D01*
X2146000Y129780D01*
X2146000Y127780D01*
X2142000Y127780D01*
X2142000Y125780D01*
X2138000Y125780D01*
X2138000Y123780D01*
X2134000Y123780D01*
X2134000Y121780D01*
X2126000Y121780D01*
X2126000Y119780D01*
X2222000Y119780D01*
X2222000Y1257780D01*
X40000Y1257780D01*
G37*
D02*
G36*
X40000Y355780D02*
X40000Y235780D01*
X336000Y235780D01*
X336000Y237780D01*
X326000Y237780D01*
X326000Y239780D01*
X320000Y239780D01*
X320000Y241780D01*
X316000Y241780D01*
X316000Y243780D01*
X312000Y243780D01*
X312000Y245780D01*
X308000Y245780D01*
X308000Y247780D01*
X306000Y247780D01*
X306000Y249780D01*
X304000Y249780D01*
X304000Y251780D01*
X302000Y251780D01*
X302000Y253780D01*
X300000Y253780D01*
X300000Y255780D01*
X298000Y255780D01*
X298000Y257780D01*
X296000Y257780D01*
X296000Y259780D01*
X294000Y259780D01*
X294000Y263780D01*
X292000Y263780D01*
X292000Y265780D01*
X290000Y265780D01*
X290000Y269780D01*
X288000Y269780D01*
X288000Y273780D01*
X286000Y273780D01*
X286000Y279780D01*
X284000Y279780D01*
X284000Y291780D01*
X282000Y291780D01*
X282000Y299780D01*
X284000Y299780D01*
X284000Y311780D01*
X286000Y311780D01*
X286000Y317780D01*
X288000Y317780D01*
X288000Y321780D01*
X290000Y321780D01*
X290000Y325780D01*
X292000Y325780D01*
X292000Y329780D01*
X294000Y329780D01*
X294000Y331780D01*
X296000Y331780D01*
X296000Y333780D01*
X298000Y333780D01*
X298000Y337780D01*
X300000Y337780D01*
X300000Y339780D01*
X304000Y339780D01*
X304000Y341780D01*
X306000Y341780D01*
X306000Y343780D01*
X308000Y343780D01*
X308000Y345780D01*
X310000Y345780D01*
X310000Y347780D01*
X314000Y347780D01*
X314000Y349780D01*
X318000Y349780D01*
X318000Y351780D01*
X324000Y351780D01*
X324000Y353780D01*
X330000Y353780D01*
X330000Y355780D01*
X40000Y355780D01*
G37*
D02*
G36*
X354000Y355780D02*
X354000Y353780D01*
X362000Y353780D01*
X362000Y351780D01*
X368000Y351780D01*
X368000Y349780D01*
X372000Y349780D01*
X372000Y347780D01*
X374000Y347780D01*
X374000Y345780D01*
X378000Y345780D01*
X378000Y343780D01*
X380000Y343780D01*
X380000Y341780D01*
X382000Y341780D01*
X382000Y339780D01*
X384000Y339780D01*
X384000Y337780D01*
X386000Y337780D01*
X386000Y335780D01*
X388000Y335780D01*
X388000Y333780D01*
X390000Y333780D01*
X390000Y331780D01*
X392000Y331780D01*
X392000Y327780D01*
X394000Y327780D01*
X394000Y325780D01*
X396000Y325780D01*
X396000Y321780D01*
X398000Y321780D01*
X398000Y315780D01*
X400000Y315780D01*
X400000Y309780D01*
X402000Y309780D01*
X402000Y281780D01*
X400000Y281780D01*
X400000Y275780D01*
X398000Y275780D01*
X398000Y269780D01*
X396000Y269780D01*
X396000Y267780D01*
X394000Y267780D01*
X394000Y263780D01*
X392000Y263780D01*
X392000Y261780D01*
X390000Y261780D01*
X390000Y257780D01*
X388000Y257780D01*
X388000Y255780D01*
X386000Y255780D01*
X386000Y253780D01*
X384000Y253780D01*
X384000Y251780D01*
X382000Y251780D01*
X382000Y249780D01*
X380000Y249780D01*
X380000Y247780D01*
X376000Y247780D01*
X376000Y245780D01*
X374000Y245780D01*
X374000Y243780D01*
X370000Y243780D01*
X370000Y241780D01*
X366000Y241780D01*
X366000Y239780D01*
X360000Y239780D01*
X360000Y237780D01*
X444000Y237780D01*
X444000Y235780D01*
X456000Y235780D01*
X456000Y233780D01*
X462000Y233780D01*
X462000Y231780D01*
X482000Y231780D01*
X482000Y355780D01*
X354000Y355780D01*
G37*
D02*
G36*
X602000Y355780D02*
X602000Y235780D01*
X584000Y235780D01*
X584000Y215780D01*
X586000Y215780D01*
X586000Y211780D01*
X588000Y211780D01*
X588000Y209780D01*
X590000Y209780D01*
X590000Y205780D01*
X592000Y205780D01*
X592000Y203780D01*
X594000Y203780D01*
X594000Y197780D01*
X596000Y197780D01*
X596000Y191780D01*
X598000Y191780D01*
X598000Y165780D01*
X596000Y165780D01*
X596000Y157780D01*
X594000Y157780D01*
X594000Y153780D01*
X592000Y153780D01*
X592000Y149780D01*
X590000Y149780D01*
X590000Y145780D01*
X588000Y145780D01*
X588000Y143780D01*
X586000Y143780D01*
X586000Y141780D01*
X584000Y141780D01*
X584000Y137780D01*
X582000Y137780D01*
X582000Y135780D01*
X580000Y135780D01*
X580000Y133780D01*
X576000Y133780D01*
X576000Y131780D01*
X574000Y131780D01*
X574000Y129780D01*
X572000Y129780D01*
X572000Y127780D01*
X568000Y127780D01*
X568000Y125780D01*
X564000Y125780D01*
X564000Y123780D01*
X560000Y123780D01*
X560000Y121780D01*
X554000Y121780D01*
X554000Y119780D01*
X820000Y119780D01*
X820000Y121780D01*
X812000Y121780D01*
X812000Y123780D01*
X808000Y123780D01*
X808000Y125780D01*
X804000Y125780D01*
X804000Y127780D01*
X802000Y127780D01*
X802000Y129780D01*
X798000Y129780D01*
X798000Y131780D01*
X796000Y131780D01*
X796000Y133780D01*
X794000Y133780D01*
X794000Y135780D01*
X792000Y135780D01*
X792000Y137780D01*
X790000Y137780D01*
X790000Y139780D01*
X788000Y139780D01*
X788000Y141780D01*
X786000Y141780D01*
X786000Y143780D01*
X784000Y143780D01*
X784000Y147780D01*
X782000Y147780D01*
X782000Y151780D01*
X780000Y151780D01*
X780000Y155780D01*
X778000Y155780D01*
X778000Y161780D01*
X776000Y161780D01*
X776000Y169780D01*
X774000Y169780D01*
X774000Y185780D01*
X776000Y185780D01*
X776000Y195780D01*
X778000Y195780D01*
X778000Y201780D01*
X780000Y201780D01*
X780000Y205780D01*
X782000Y205780D01*
X782000Y207780D01*
X784000Y207780D01*
X784000Y211780D01*
X786000Y211780D01*
X786000Y213780D01*
X788000Y213780D01*
X788000Y215780D01*
X790000Y215780D01*
X790000Y235780D01*
X768000Y235780D01*
X768000Y237780D01*
X758000Y237780D01*
X758000Y239780D01*
X752000Y239780D01*
X752000Y241780D01*
X748000Y241780D01*
X748000Y243780D01*
X746000Y243780D01*
X746000Y245780D01*
X742000Y245780D01*
X742000Y247780D01*
X740000Y247780D01*
X740000Y249780D01*
X738000Y249780D01*
X738000Y251780D01*
X734000Y251780D01*
X734000Y253780D01*
X732000Y253780D01*
X732000Y255780D01*
X730000Y255780D01*
X730000Y259780D01*
X728000Y259780D01*
X728000Y261780D01*
X726000Y261780D01*
X726000Y263780D01*
X724000Y263780D01*
X724000Y267780D01*
X722000Y267780D01*
X722000Y271780D01*
X720000Y271780D01*
X720000Y277780D01*
X718000Y277780D01*
X718000Y285780D01*
X716000Y285780D01*
X716000Y307780D01*
X718000Y307780D01*
X718000Y315780D01*
X720000Y315780D01*
X720000Y319780D01*
X722000Y319780D01*
X722000Y323780D01*
X724000Y323780D01*
X724000Y327780D01*
X726000Y327780D01*
X726000Y329780D01*
X728000Y329780D01*
X728000Y333780D01*
X730000Y333780D01*
X730000Y335780D01*
X732000Y335780D01*
X732000Y337780D01*
X734000Y337780D01*
X734000Y339780D01*
X736000Y339780D01*
X736000Y341780D01*
X738000Y341780D01*
X738000Y343780D01*
X742000Y343780D01*
X742000Y345780D01*
X744000Y345780D01*
X744000Y347780D01*
X748000Y347780D01*
X748000Y349780D01*
X752000Y349780D01*
X752000Y351780D01*
X756000Y351780D01*
X756000Y353780D01*
X764000Y353780D01*
X764000Y355780D01*
X602000Y355780D01*
G37*
D02*
G36*
X788000Y355780D02*
X788000Y353780D01*
X796000Y353780D01*
X796000Y351780D01*
X800000Y351780D01*
X800000Y349780D01*
X804000Y349780D01*
X804000Y347780D01*
X808000Y347780D01*
X808000Y345780D01*
X810000Y345780D01*
X810000Y343780D01*
X814000Y343780D01*
X814000Y341780D01*
X816000Y341780D01*
X816000Y339780D01*
X818000Y339780D01*
X818000Y337780D01*
X820000Y337780D01*
X820000Y335780D01*
X822000Y335780D01*
X822000Y331780D01*
X824000Y331780D01*
X824000Y329780D01*
X826000Y329780D01*
X826000Y327780D01*
X828000Y327780D01*
X828000Y323780D01*
X830000Y323780D01*
X830000Y319780D01*
X832000Y319780D01*
X832000Y313780D01*
X834000Y313780D01*
X834000Y305780D01*
X836000Y305780D01*
X836000Y287780D01*
X834000Y287780D01*
X834000Y277780D01*
X832000Y277780D01*
X832000Y271780D01*
X830000Y271780D01*
X830000Y267780D01*
X828000Y267780D01*
X828000Y265780D01*
X826000Y265780D01*
X826000Y261780D01*
X824000Y261780D01*
X824000Y259780D01*
X822000Y259780D01*
X822000Y257780D01*
X820000Y257780D01*
X820000Y237780D01*
X836000Y237780D01*
X836000Y235780D01*
X848000Y235780D01*
X848000Y233780D01*
X856000Y233780D01*
X856000Y231780D01*
X860000Y231780D01*
X860000Y229780D01*
X864000Y229780D01*
X864000Y227780D01*
X866000Y227780D01*
X866000Y225780D01*
X868000Y225780D01*
X868000Y223780D01*
X872000Y223780D01*
X872000Y221780D01*
X896000Y221780D01*
X896000Y223780D01*
X898000Y223780D01*
X898000Y225780D01*
X900000Y225780D01*
X900000Y227780D01*
X904000Y227780D01*
X904000Y229780D01*
X908000Y229780D01*
X908000Y231780D01*
X912000Y231780D01*
X912000Y233780D01*
X916000Y233780D01*
X916000Y355780D01*
X788000Y355780D01*
G37*
D02*
G36*
X1036000Y355780D02*
X1036000Y235780D01*
X978000Y235780D01*
X978000Y215780D01*
X980000Y215780D01*
X980000Y211780D01*
X982000Y211780D01*
X982000Y209780D01*
X984000Y209780D01*
X984000Y205780D01*
X986000Y205780D01*
X986000Y201780D01*
X988000Y201780D01*
X988000Y197780D01*
X990000Y197780D01*
X990000Y189780D01*
X992000Y189780D01*
X992000Y165780D01*
X990000Y165780D01*
X990000Y159780D01*
X988000Y159780D01*
X988000Y153780D01*
X986000Y153780D01*
X986000Y149780D01*
X984000Y149780D01*
X984000Y145780D01*
X982000Y145780D01*
X982000Y143780D01*
X980000Y143780D01*
X980000Y141780D01*
X978000Y141780D01*
X978000Y137780D01*
X976000Y137780D01*
X976000Y135780D01*
X974000Y135780D01*
X974000Y133780D01*
X970000Y133780D01*
X970000Y131780D01*
X968000Y131780D01*
X968000Y129780D01*
X966000Y129780D01*
X966000Y127780D01*
X962000Y127780D01*
X962000Y125780D01*
X958000Y125780D01*
X958000Y123780D01*
X954000Y123780D01*
X954000Y121780D01*
X946000Y121780D01*
X946000Y119780D01*
X1214000Y119780D01*
X1214000Y121780D01*
X1206000Y121780D01*
X1206000Y123780D01*
X1202000Y123780D01*
X1202000Y125780D01*
X1198000Y125780D01*
X1198000Y127780D01*
X1194000Y127780D01*
X1194000Y129780D01*
X1192000Y129780D01*
X1192000Y131780D01*
X1190000Y131780D01*
X1190000Y133780D01*
X1188000Y133780D01*
X1188000Y135780D01*
X1184000Y135780D01*
X1184000Y139780D01*
X1182000Y139780D01*
X1182000Y141780D01*
X1180000Y141780D01*
X1180000Y143780D01*
X1178000Y143780D01*
X1178000Y147780D01*
X1176000Y147780D01*
X1176000Y149780D01*
X1174000Y149780D01*
X1174000Y153780D01*
X1172000Y153780D01*
X1172000Y159780D01*
X1170000Y159780D01*
X1170000Y167780D01*
X1168000Y167780D01*
X1168000Y187780D01*
X1170000Y187780D01*
X1170000Y195780D01*
X1172000Y195780D01*
X1172000Y201780D01*
X1174000Y201780D01*
X1174000Y205780D01*
X1176000Y205780D01*
X1176000Y209780D01*
X1178000Y209780D01*
X1178000Y211780D01*
X1180000Y211780D01*
X1180000Y213780D01*
X1182000Y213780D01*
X1182000Y217780D01*
X1184000Y217780D01*
X1184000Y219780D01*
X1186000Y219780D01*
X1186000Y241780D01*
X1182000Y241780D01*
X1182000Y243780D01*
X1178000Y243780D01*
X1178000Y245780D01*
X1176000Y245780D01*
X1176000Y247780D01*
X1172000Y247780D01*
X1172000Y249780D01*
X1170000Y249780D01*
X1170000Y251780D01*
X1168000Y251780D01*
X1168000Y253780D01*
X1166000Y253780D01*
X1166000Y255780D01*
X1164000Y255780D01*
X1164000Y257780D01*
X1162000Y257780D01*
X1162000Y259780D01*
X1160000Y259780D01*
X1160000Y263780D01*
X1158000Y263780D01*
X1158000Y265780D01*
X1156000Y265780D01*
X1156000Y269780D01*
X1154000Y269780D01*
X1154000Y273780D01*
X1152000Y273780D01*
X1152000Y281780D01*
X1150000Y281780D01*
X1150000Y293780D01*
X1148000Y293780D01*
X1148000Y297780D01*
X1150000Y297780D01*
X1150000Y311780D01*
X1152000Y311780D01*
X1152000Y317780D01*
X1154000Y317780D01*
X1154000Y321780D01*
X1156000Y321780D01*
X1156000Y325780D01*
X1158000Y325780D01*
X1158000Y329780D01*
X1160000Y329780D01*
X1160000Y331780D01*
X1162000Y331780D01*
X1162000Y333780D01*
X1164000Y333780D01*
X1164000Y335780D01*
X1166000Y335780D01*
X1166000Y339780D01*
X1170000Y339780D01*
X1170000Y341780D01*
X1172000Y341780D01*
X1172000Y343780D01*
X1174000Y343780D01*
X1174000Y345780D01*
X1178000Y345780D01*
X1178000Y347780D01*
X1180000Y347780D01*
X1180000Y349780D01*
X1184000Y349780D01*
X1184000Y351780D01*
X1190000Y351780D01*
X1190000Y353780D01*
X1198000Y353780D01*
X1198000Y355780D01*
X1036000Y355780D01*
G37*
D02*
G36*
X1220000Y355780D02*
X1220000Y353780D01*
X1228000Y353780D01*
X1228000Y351780D01*
X1234000Y351780D01*
X1234000Y349780D01*
X1238000Y349780D01*
X1238000Y347780D01*
X1240000Y347780D01*
X1240000Y345780D01*
X1244000Y345780D01*
X1244000Y343780D01*
X1246000Y343780D01*
X1246000Y341780D01*
X1248000Y341780D01*
X1248000Y339780D01*
X1250000Y339780D01*
X1250000Y337780D01*
X1252000Y337780D01*
X1252000Y335780D01*
X1254000Y335780D01*
X1254000Y333780D01*
X1256000Y333780D01*
X1256000Y331780D01*
X1258000Y331780D01*
X1258000Y329780D01*
X1260000Y329780D01*
X1260000Y325780D01*
X1262000Y325780D01*
X1262000Y321780D01*
X1264000Y321780D01*
X1264000Y317780D01*
X1266000Y317780D01*
X1266000Y309780D01*
X1268000Y309780D01*
X1268000Y281780D01*
X1266000Y281780D01*
X1266000Y275780D01*
X1264000Y275780D01*
X1264000Y269780D01*
X1262000Y269780D01*
X1262000Y265780D01*
X1260000Y265780D01*
X1260000Y263780D01*
X1258000Y263780D01*
X1258000Y259780D01*
X1256000Y259780D01*
X1256000Y257780D01*
X1254000Y257780D01*
X1254000Y255780D01*
X1252000Y255780D01*
X1252000Y253780D01*
X1250000Y253780D01*
X1250000Y251780D01*
X1248000Y251780D01*
X1248000Y231780D01*
X1254000Y231780D01*
X1254000Y229780D01*
X1256000Y229780D01*
X1256000Y227780D01*
X1260000Y227780D01*
X1260000Y225780D01*
X1262000Y225780D01*
X1262000Y223780D01*
X1264000Y223780D01*
X1264000Y221780D01*
X1290000Y221780D01*
X1290000Y223780D01*
X1292000Y223780D01*
X1292000Y225780D01*
X1294000Y225780D01*
X1294000Y227780D01*
X1298000Y227780D01*
X1298000Y229780D01*
X1300000Y229780D01*
X1300000Y231780D01*
X1306000Y231780D01*
X1306000Y233780D01*
X1312000Y233780D01*
X1312000Y235780D01*
X1324000Y235780D01*
X1324000Y237780D01*
X1348000Y237780D01*
X1348000Y355780D01*
X1220000Y355780D01*
G37*
D02*
G36*
X1468000Y355780D02*
X1468000Y237780D01*
X1816000Y237780D01*
X1816000Y235780D01*
X1828000Y235780D01*
X1828000Y233780D01*
X1834000Y233780D01*
X1834000Y231780D01*
X1840000Y231780D01*
X1840000Y229780D01*
X1842000Y229780D01*
X1842000Y227780D01*
X1846000Y227780D01*
X1846000Y225780D01*
X1848000Y225780D01*
X1848000Y223780D01*
X1850000Y223780D01*
X1850000Y221780D01*
X1874000Y221780D01*
X1874000Y223780D01*
X1878000Y223780D01*
X1878000Y225780D01*
X1880000Y225780D01*
X1880000Y227780D01*
X1884000Y227780D01*
X1884000Y247780D01*
X1882000Y247780D01*
X1882000Y249780D01*
X1878000Y249780D01*
X1878000Y251780D01*
X1876000Y251780D01*
X1876000Y253780D01*
X1874000Y253780D01*
X1874000Y255780D01*
X1872000Y255780D01*
X1872000Y259780D01*
X1870000Y259780D01*
X1870000Y261780D01*
X1868000Y261780D01*
X1868000Y263780D01*
X1866000Y263780D01*
X1866000Y267780D01*
X1864000Y267780D01*
X1864000Y271780D01*
X1862000Y271780D01*
X1862000Y275780D01*
X1860000Y275780D01*
X1860000Y283780D01*
X1858000Y283780D01*
X1858000Y307780D01*
X1860000Y307780D01*
X1860000Y315780D01*
X1862000Y315780D01*
X1862000Y321780D01*
X1864000Y321780D01*
X1864000Y325780D01*
X1866000Y325780D01*
X1866000Y327780D01*
X1868000Y327780D01*
X1868000Y331780D01*
X1870000Y331780D01*
X1870000Y333780D01*
X1872000Y333780D01*
X1872000Y335780D01*
X1874000Y335780D01*
X1874000Y337780D01*
X1876000Y337780D01*
X1876000Y339780D01*
X1878000Y339780D01*
X1878000Y341780D01*
X1880000Y341780D01*
X1880000Y343780D01*
X1882000Y343780D01*
X1882000Y345780D01*
X1886000Y345780D01*
X1886000Y347780D01*
X1890000Y347780D01*
X1890000Y349780D01*
X1892000Y349780D01*
X1892000Y351780D01*
X1898000Y351780D01*
X1898000Y353780D01*
X1906000Y353780D01*
X1906000Y355780D01*
X1468000Y355780D01*
G37*
D02*
G36*
X1930000Y355780D02*
X1930000Y353780D01*
X1938000Y353780D01*
X1938000Y351780D01*
X1942000Y351780D01*
X1942000Y349780D01*
X1946000Y349780D01*
X1946000Y347780D01*
X1950000Y347780D01*
X1950000Y345780D01*
X1952000Y345780D01*
X1952000Y343780D01*
X1954000Y343780D01*
X1954000Y341780D01*
X1958000Y341780D01*
X1958000Y339780D01*
X1960000Y339780D01*
X1960000Y337780D01*
X1962000Y337780D01*
X1962000Y335780D01*
X1964000Y335780D01*
X1964000Y331780D01*
X1966000Y331780D01*
X1966000Y329780D01*
X1968000Y329780D01*
X1968000Y325780D01*
X1970000Y325780D01*
X1970000Y323780D01*
X1972000Y323780D01*
X1972000Y319780D01*
X1974000Y319780D01*
X1974000Y313780D01*
X1976000Y313780D01*
X1976000Y303780D01*
X1978000Y303780D01*
X1978000Y289780D01*
X1976000Y289780D01*
X1976000Y279780D01*
X1974000Y279780D01*
X1974000Y273780D01*
X1972000Y273780D01*
X1972000Y269780D01*
X1970000Y269780D01*
X1970000Y265780D01*
X1968000Y265780D01*
X1968000Y261780D01*
X1966000Y261780D01*
X1966000Y259780D01*
X1964000Y259780D01*
X1964000Y257780D01*
X1962000Y257780D01*
X1962000Y255780D01*
X1960000Y255780D01*
X1960000Y253780D01*
X1958000Y253780D01*
X1958000Y251780D01*
X1956000Y251780D01*
X1956000Y249780D01*
X1954000Y249780D01*
X1954000Y247780D01*
X1952000Y247780D01*
X1952000Y245780D01*
X1948000Y245780D01*
X1948000Y237780D01*
X2016000Y237780D01*
X2016000Y235780D01*
X2028000Y235780D01*
X2028000Y233780D01*
X2034000Y233780D01*
X2034000Y231780D01*
X2040000Y231780D01*
X2040000Y229780D01*
X2042000Y229780D01*
X2042000Y227780D01*
X2046000Y227780D01*
X2046000Y225780D01*
X2048000Y225780D01*
X2048000Y223780D01*
X2068000Y223780D01*
X2068000Y235780D01*
X2058000Y235780D01*
X2058000Y355780D01*
X1930000Y355780D01*
G37*
D02*
G36*
X350000Y237780D02*
X350000Y235780D01*
X436000Y235780D01*
X436000Y237780D01*
X350000Y237780D01*
G37*
D02*
G36*
X1468000Y237780D02*
X1468000Y235780D01*
X1372000Y235780D01*
X1372000Y213780D01*
X1374000Y213780D01*
X1374000Y211780D01*
X1376000Y211780D01*
X1376000Y209780D01*
X1378000Y209780D01*
X1378000Y205780D01*
X1380000Y205780D01*
X1380000Y201780D01*
X1382000Y201780D01*
X1382000Y195780D01*
X1384000Y195780D01*
X1384000Y187780D01*
X1386000Y187780D01*
X1386000Y167780D01*
X1384000Y167780D01*
X1384000Y159780D01*
X1382000Y159780D01*
X1382000Y153780D01*
X1380000Y153780D01*
X1380000Y149780D01*
X1378000Y149780D01*
X1378000Y147780D01*
X1376000Y147780D01*
X1376000Y143780D01*
X1374000Y143780D01*
X1374000Y141780D01*
X1372000Y141780D01*
X1372000Y139780D01*
X1370000Y139780D01*
X1370000Y135780D01*
X1366000Y135780D01*
X1366000Y133780D01*
X1364000Y133780D01*
X1364000Y131780D01*
X1362000Y131780D01*
X1362000Y129780D01*
X1360000Y129780D01*
X1360000Y127780D01*
X1356000Y127780D01*
X1356000Y125780D01*
X1352000Y125780D01*
X1352000Y123780D01*
X1348000Y123780D01*
X1348000Y121780D01*
X1340000Y121780D01*
X1340000Y119780D01*
X1600000Y119780D01*
X1600000Y121780D01*
X1592000Y121780D01*
X1592000Y123780D01*
X1588000Y123780D01*
X1588000Y125780D01*
X1584000Y125780D01*
X1584000Y127780D01*
X1580000Y127780D01*
X1580000Y129780D01*
X1578000Y129780D01*
X1578000Y131780D01*
X1576000Y131780D01*
X1576000Y133780D01*
X1574000Y133780D01*
X1574000Y135780D01*
X1570000Y135780D01*
X1570000Y139780D01*
X1568000Y139780D01*
X1568000Y141780D01*
X1566000Y141780D01*
X1566000Y143780D01*
X1564000Y143780D01*
X1564000Y147780D01*
X1562000Y147780D01*
X1562000Y149780D01*
X1560000Y149780D01*
X1560000Y153780D01*
X1558000Y153780D01*
X1558000Y159780D01*
X1556000Y159780D01*
X1556000Y167780D01*
X1554000Y167780D01*
X1554000Y187780D01*
X1556000Y187780D01*
X1556000Y195780D01*
X1558000Y195780D01*
X1558000Y201780D01*
X1560000Y201780D01*
X1560000Y205780D01*
X1562000Y205780D01*
X1562000Y209780D01*
X1564000Y209780D01*
X1564000Y211780D01*
X1566000Y211780D01*
X1566000Y213780D01*
X1568000Y213780D01*
X1568000Y217780D01*
X1570000Y217780D01*
X1570000Y219780D01*
X1572000Y219780D01*
X1572000Y221780D01*
X1574000Y221780D01*
X1574000Y223780D01*
X1578000Y223780D01*
X1578000Y225780D01*
X1580000Y225780D01*
X1580000Y227780D01*
X1584000Y227780D01*
X1584000Y229780D01*
X1586000Y229780D01*
X1586000Y231780D01*
X1592000Y231780D01*
X1592000Y233780D01*
X1598000Y233780D01*
X1598000Y235780D01*
X1608000Y235780D01*
X1608000Y237780D01*
X1468000Y237780D01*
G37*
D02*
G36*
X1616000Y237780D02*
X1616000Y235780D01*
X1628000Y235780D01*
X1628000Y233780D01*
X1634000Y233780D01*
X1634000Y231780D01*
X1640000Y231780D01*
X1640000Y229780D01*
X1642000Y229780D01*
X1642000Y227780D01*
X1646000Y227780D01*
X1646000Y225780D01*
X1648000Y225780D01*
X1648000Y223780D01*
X1650000Y223780D01*
X1650000Y221780D01*
X1674000Y221780D01*
X1674000Y223780D01*
X1678000Y223780D01*
X1678000Y225780D01*
X1680000Y225780D01*
X1680000Y227780D01*
X1684000Y227780D01*
X1684000Y229780D01*
X1686000Y229780D01*
X1686000Y231780D01*
X1692000Y231780D01*
X1692000Y233780D01*
X1698000Y233780D01*
X1698000Y235780D01*
X1708000Y235780D01*
X1708000Y237780D01*
X1616000Y237780D01*
G37*
D02*
G36*
X1716000Y237780D02*
X1716000Y235780D01*
X1728000Y235780D01*
X1728000Y233780D01*
X1734000Y233780D01*
X1734000Y231780D01*
X1740000Y231780D01*
X1740000Y229780D01*
X1742000Y229780D01*
X1742000Y227780D01*
X1746000Y227780D01*
X1746000Y225780D01*
X1748000Y225780D01*
X1748000Y223780D01*
X1750000Y223780D01*
X1750000Y221780D01*
X1774000Y221780D01*
X1774000Y223780D01*
X1778000Y223780D01*
X1778000Y225780D01*
X1780000Y225780D01*
X1780000Y227780D01*
X1784000Y227780D01*
X1784000Y229780D01*
X1786000Y229780D01*
X1786000Y231780D01*
X1792000Y231780D01*
X1792000Y233780D01*
X1798000Y233780D01*
X1798000Y235780D01*
X1808000Y235780D01*
X1808000Y237780D01*
X1716000Y237780D01*
G37*
D02*
G36*
X1948000Y237780D02*
X1948000Y223780D01*
X1950000Y223780D01*
X1950000Y221780D01*
X1974000Y221780D01*
X1974000Y223780D01*
X1978000Y223780D01*
X1978000Y225780D01*
X1980000Y225780D01*
X1980000Y227780D01*
X1984000Y227780D01*
X1984000Y229780D01*
X1986000Y229780D01*
X1986000Y231780D01*
X1992000Y231780D01*
X1992000Y233780D01*
X1998000Y233780D01*
X1998000Y235780D01*
X2008000Y235780D01*
X2008000Y237780D01*
X1948000Y237780D01*
G37*
D02*
G36*
X40000Y235780D02*
X40000Y233780D01*
X424000Y233780D01*
X424000Y235780D01*
X40000Y235780D01*
G37*
D02*
G36*
X40000Y235780D02*
X40000Y233780D01*
X424000Y233780D01*
X424000Y235780D01*
X40000Y235780D01*
G37*
D02*
G36*
X40000Y233780D02*
X40000Y119780D01*
X426000Y119780D01*
X426000Y121780D01*
X420000Y121780D01*
X420000Y123780D01*
X414000Y123780D01*
X414000Y125780D01*
X410000Y125780D01*
X410000Y127780D01*
X408000Y127780D01*
X408000Y129780D01*
X404000Y129780D01*
X404000Y131780D01*
X402000Y131780D01*
X402000Y133780D01*
X400000Y133780D01*
X400000Y135780D01*
X398000Y135780D01*
X398000Y137780D01*
X396000Y137780D01*
X396000Y139780D01*
X394000Y139780D01*
X394000Y141780D01*
X392000Y141780D01*
X392000Y145780D01*
X390000Y145780D01*
X390000Y147780D01*
X388000Y147780D01*
X388000Y151780D01*
X386000Y151780D01*
X386000Y155780D01*
X384000Y155780D01*
X384000Y161780D01*
X382000Y161780D01*
X382000Y171780D01*
X380000Y171780D01*
X380000Y183780D01*
X382000Y183780D01*
X382000Y193780D01*
X384000Y193780D01*
X384000Y199780D01*
X386000Y199780D01*
X386000Y203780D01*
X388000Y203780D01*
X388000Y207780D01*
X390000Y207780D01*
X390000Y211780D01*
X392000Y211780D01*
X392000Y213780D01*
X394000Y213780D01*
X394000Y215780D01*
X396000Y215780D01*
X396000Y217780D01*
X398000Y217780D01*
X398000Y219780D01*
X400000Y219780D01*
X400000Y221780D01*
X402000Y221780D01*
X402000Y223780D01*
X404000Y223780D01*
X404000Y225780D01*
X406000Y225780D01*
X406000Y227780D01*
X410000Y227780D01*
X410000Y229780D01*
X414000Y229780D01*
X414000Y231780D01*
X418000Y231780D01*
X418000Y233780D01*
X40000Y233780D01*
G37*
D02*
G36*
X480000Y135780D02*
X480000Y133780D01*
X476000Y133780D01*
X476000Y131780D01*
X474000Y131780D01*
X474000Y129780D01*
X472000Y129780D01*
X472000Y127780D01*
X468000Y127780D01*
X468000Y125780D01*
X464000Y125780D01*
X464000Y123780D01*
X460000Y123780D01*
X460000Y121780D01*
X454000Y121780D01*
X454000Y119780D01*
X526000Y119780D01*
X526000Y121780D01*
X520000Y121780D01*
X520000Y123780D01*
X514000Y123780D01*
X514000Y125780D01*
X510000Y125780D01*
X510000Y127780D01*
X508000Y127780D01*
X508000Y129780D01*
X504000Y129780D01*
X504000Y131780D01*
X502000Y131780D01*
X502000Y133780D01*
X500000Y133780D01*
X500000Y135780D01*
X480000Y135780D01*
G37*
D02*
G36*
X874000Y135780D02*
X874000Y133780D01*
X870000Y133780D01*
X870000Y131780D01*
X868000Y131780D01*
X868000Y129780D01*
X866000Y129780D01*
X866000Y127780D01*
X862000Y127780D01*
X862000Y125780D01*
X858000Y125780D01*
X858000Y123780D01*
X854000Y123780D01*
X854000Y121780D01*
X846000Y121780D01*
X846000Y119780D01*
X920000Y119780D01*
X920000Y121780D01*
X912000Y121780D01*
X912000Y123780D01*
X908000Y123780D01*
X908000Y125780D01*
X904000Y125780D01*
X904000Y127780D01*
X902000Y127780D01*
X902000Y129780D01*
X898000Y129780D01*
X898000Y131780D01*
X896000Y131780D01*
X896000Y133780D01*
X894000Y133780D01*
X894000Y135780D01*
X874000Y135780D01*
G37*
D02*
G36*
X1266000Y135780D02*
X1266000Y133780D01*
X1264000Y133780D01*
X1264000Y131780D01*
X1262000Y131780D01*
X1262000Y129780D01*
X1260000Y129780D01*
X1260000Y127780D01*
X1256000Y127780D01*
X1256000Y125780D01*
X1252000Y125780D01*
X1252000Y123780D01*
X1248000Y123780D01*
X1248000Y121780D01*
X1240000Y121780D01*
X1240000Y119780D01*
X1314000Y119780D01*
X1314000Y121780D01*
X1306000Y121780D01*
X1306000Y123780D01*
X1302000Y123780D01*
X1302000Y125780D01*
X1298000Y125780D01*
X1298000Y127780D01*
X1294000Y127780D01*
X1294000Y129780D01*
X1292000Y129780D01*
X1292000Y131780D01*
X1290000Y131780D01*
X1290000Y133780D01*
X1288000Y133780D01*
X1288000Y135780D01*
X1266000Y135780D01*
G37*
D02*
G36*
X1652000Y135780D02*
X1652000Y133780D01*
X1650000Y133780D01*
X1650000Y131780D01*
X1648000Y131780D01*
X1648000Y129780D01*
X1646000Y129780D01*
X1646000Y127780D01*
X1642000Y127780D01*
X1642000Y125780D01*
X1638000Y125780D01*
X1638000Y123780D01*
X1634000Y123780D01*
X1634000Y121780D01*
X1626000Y121780D01*
X1626000Y119780D01*
X1700000Y119780D01*
X1700000Y121780D01*
X1692000Y121780D01*
X1692000Y123780D01*
X1688000Y123780D01*
X1688000Y125780D01*
X1684000Y125780D01*
X1684000Y127780D01*
X1680000Y127780D01*
X1680000Y129780D01*
X1678000Y129780D01*
X1678000Y131780D01*
X1676000Y131780D01*
X1676000Y133780D01*
X1674000Y133780D01*
X1674000Y135780D01*
X1652000Y135780D01*
G37*
D02*
G36*
X1752000Y135780D02*
X1752000Y133780D01*
X1750000Y133780D01*
X1750000Y131780D01*
X1748000Y131780D01*
X1748000Y129780D01*
X1746000Y129780D01*
X1746000Y127780D01*
X1742000Y127780D01*
X1742000Y125780D01*
X1738000Y125780D01*
X1738000Y123780D01*
X1734000Y123780D01*
X1734000Y121780D01*
X1726000Y121780D01*
X1726000Y119780D01*
X1800000Y119780D01*
X1800000Y121780D01*
X1792000Y121780D01*
X1792000Y123780D01*
X1788000Y123780D01*
X1788000Y125780D01*
X1784000Y125780D01*
X1784000Y127780D01*
X1780000Y127780D01*
X1780000Y129780D01*
X1778000Y129780D01*
X1778000Y131780D01*
X1776000Y131780D01*
X1776000Y133780D01*
X1774000Y133780D01*
X1774000Y135780D01*
X1752000Y135780D01*
G37*
D02*
G36*
X1852000Y135780D02*
X1852000Y133780D01*
X1850000Y133780D01*
X1850000Y131780D01*
X1848000Y131780D01*
X1848000Y129780D01*
X1846000Y129780D01*
X1846000Y127780D01*
X1842000Y127780D01*
X1842000Y125780D01*
X1838000Y125780D01*
X1838000Y123780D01*
X1834000Y123780D01*
X1834000Y121780D01*
X1826000Y121780D01*
X1826000Y119780D01*
X1900000Y119780D01*
X1900000Y121780D01*
X1892000Y121780D01*
X1892000Y123780D01*
X1888000Y123780D01*
X1888000Y125780D01*
X1884000Y125780D01*
X1884000Y127780D01*
X1880000Y127780D01*
X1880000Y129780D01*
X1878000Y129780D01*
X1878000Y131780D01*
X1876000Y131780D01*
X1876000Y133780D01*
X1874000Y133780D01*
X1874000Y135780D01*
X1852000Y135780D01*
G37*
D02*
G36*
X1952000Y135780D02*
X1952000Y133780D01*
X1950000Y133780D01*
X1950000Y131780D01*
X1948000Y131780D01*
X1948000Y129780D01*
X1946000Y129780D01*
X1946000Y127780D01*
X1942000Y127780D01*
X1942000Y125780D01*
X1938000Y125780D01*
X1938000Y123780D01*
X1934000Y123780D01*
X1934000Y121780D01*
X1926000Y121780D01*
X1926000Y119780D01*
X2000000Y119780D01*
X2000000Y121780D01*
X1992000Y121780D01*
X1992000Y123780D01*
X1988000Y123780D01*
X1988000Y125780D01*
X1984000Y125780D01*
X1984000Y127780D01*
X1980000Y127780D01*
X1980000Y129780D01*
X1978000Y129780D01*
X1978000Y131780D01*
X1976000Y131780D01*
X1976000Y133780D01*
X1974000Y133780D01*
X1974000Y135780D01*
X1952000Y135780D01*
G37*
D02*
G36*
X2052000Y135780D02*
X2052000Y133780D01*
X2050000Y133780D01*
X2050000Y131780D01*
X2048000Y131780D01*
X2048000Y129780D01*
X2046000Y129780D01*
X2046000Y127780D01*
X2042000Y127780D01*
X2042000Y125780D01*
X2038000Y125780D01*
X2038000Y123780D01*
X2034000Y123780D01*
X2034000Y121780D01*
X2026000Y121780D01*
X2026000Y119780D01*
X2100000Y119780D01*
X2100000Y121780D01*
X2092000Y121780D01*
X2092000Y123780D01*
X2088000Y123780D01*
X2088000Y125780D01*
X2084000Y125780D01*
X2084000Y127780D01*
X2080000Y127780D01*
X2080000Y129780D01*
X2078000Y129780D01*
X2078000Y131780D01*
X2076000Y131780D01*
X2076000Y133780D01*
X2074000Y133780D01*
X2074000Y135780D01*
X2052000Y135780D01*
G37*
D02*
G36*
X40000Y119780D02*
X40000Y117780D01*
X2222000Y117780D01*
X2222000Y119780D01*
X40000Y119780D01*
G37*
D02*
G36*
X40000Y119780D02*
X40000Y117780D01*
X2222000Y117780D01*
X2222000Y119780D01*
X40000Y119780D01*
G37*
D02*
G36*
X40000Y119780D02*
X40000Y117780D01*
X2222000Y117780D01*
X2222000Y119780D01*
X40000Y119780D01*
G37*
D02*
G36*
X40000Y119780D02*
X40000Y117780D01*
X2222000Y117780D01*
X2222000Y119780D01*
X40000Y119780D01*
G37*
D02*
G36*
X40000Y119780D02*
X40000Y117780D01*
X2222000Y117780D01*
X2222000Y119780D01*
X40000Y119780D01*
G37*
D02*
G36*
X40000Y119780D02*
X40000Y117780D01*
X2222000Y117780D01*
X2222000Y119780D01*
X40000Y119780D01*
G37*
D02*
G36*
X40000Y119780D02*
X40000Y117780D01*
X2222000Y117780D01*
X2222000Y119780D01*
X40000Y119780D01*
G37*
D02*
G36*
X40000Y119780D02*
X40000Y117780D01*
X2222000Y117780D01*
X2222000Y119780D01*
X40000Y119780D01*
G37*
D02*
G36*
X40000Y119780D02*
X40000Y117780D01*
X2222000Y117780D01*
X2222000Y119780D01*
X40000Y119780D01*
G37*
D02*
G36*
X40000Y119780D02*
X40000Y117780D01*
X2222000Y117780D01*
X2222000Y119780D01*
X40000Y119780D01*
G37*
D02*
G36*
X40000Y119780D02*
X40000Y117780D01*
X2222000Y117780D01*
X2222000Y119780D01*
X40000Y119780D01*
G37*
D02*
G36*
X40000Y119780D02*
X40000Y117780D01*
X2222000Y117780D01*
X2222000Y119780D01*
X40000Y119780D01*
G37*
D02*
G36*
X40000Y119780D02*
X40000Y117780D01*
X2222000Y117780D01*
X2222000Y119780D01*
X40000Y119780D01*
G37*
D02*
G36*
X40000Y117780D02*
X40000Y41780D01*
X2222000Y41780D01*
X2222000Y117780D01*
X40000Y117780D01*
G37*
D02*
G04 End of Copper0*
M02*