G04 MADE WITH FRITZING*
G04 WWW.FRITZING.ORG*
G04 DOUBLE SIDED*
G04 HOLES PLATED*
G04 CONTOUR ON CENTER OF CONTOUR VECTOR*
%FSLAX26Y26*%
%MOIN*%
%ADD10C,0.090000*%
%ADD11C,0.125984*%
%ADD12C,0.293464*%
%ADD13C,0.088000*%
%ADD14R,0.090000X0.090000*%
%ADD15R,0.001000X0.001000*%
%G04MASK1*%
%FSLAX26Y26*%
%MOIN*%
D10*
X2117570Y296110D03*
X1917570Y296110D03*
X1408910Y296110D03*
X1208910Y296110D03*
X975830Y296110D03*
X775830Y296110D03*
X542767Y296110D03*
X342767Y296110D03*
D11*
X145911Y2107132D03*
D12*
X2114430Y2107132D03*
D13*
X539611Y178000D03*
X439611Y178000D03*
X933310Y178000D03*
X833310Y178000D03*
X1327020Y178000D03*
X1227020Y178000D03*
X2112900Y178020D03*
X2012900Y178020D03*
X1912900Y178020D03*
X1812900Y178020D03*
X1712900Y178020D03*
X1612900Y178020D03*
X2114420Y1319731D03*
X2014420Y1319731D03*
X1914420Y1319731D03*
X1814420Y1319731D03*
X1714420Y1319731D03*
X1614420Y1319731D03*
X1514420Y1319731D03*
X1414420Y1319731D03*
X1314420Y1319731D03*
X1214420Y1319731D03*
D14*
X2117570Y296110D03*
X1408910Y296110D03*
X975830Y296110D03*
X542767Y296110D03*
D15*
X134500Y2253280D02*
X157500Y2253280D01*
X125500Y2252280D02*
X166500Y2252280D01*
X119500Y2251280D02*
X172500Y2251280D01*
X114500Y2250280D02*
X177500Y2250280D01*
X110500Y2249280D02*
X181500Y2249280D01*
X106500Y2248280D02*
X185500Y2248280D01*
X102500Y2247280D02*
X188500Y2247280D01*
X99500Y2246280D02*
X191500Y2246280D01*
X96500Y2245280D02*
X194500Y2245280D01*
X94500Y2244280D02*
X197500Y2244280D01*
X91500Y2243280D02*
X200500Y2243280D01*
X89500Y2242280D02*
X202500Y2242280D01*
X86500Y2241280D02*
X204500Y2241280D01*
X84500Y2240280D02*
X206500Y2240280D01*
X82500Y2239280D02*
X209500Y2239280D01*
X80500Y2238280D02*
X210500Y2238280D01*
X78500Y2237280D02*
X212500Y2237280D01*
X76500Y2236280D02*
X214500Y2236280D01*
X75500Y2235280D02*
X216500Y2235280D01*
X73500Y2234280D02*
X218500Y2234280D01*
X71500Y2233280D02*
X219500Y2233280D01*
X70500Y2232280D02*
X221500Y2232280D01*
X68500Y2231280D02*
X223500Y2231280D01*
X66500Y2230280D02*
X224500Y2230280D01*
X65500Y2229280D02*
X226500Y2229280D01*
X63500Y2228280D02*
X227500Y2228280D01*
X62500Y2227280D02*
X229500Y2227280D01*
X61500Y2226280D02*
X230500Y2226280D01*
X59500Y2225280D02*
X232500Y2225280D01*
X58500Y2224280D02*
X233500Y2224280D01*
X57500Y2223280D02*
X234500Y2223280D01*
X55500Y2222280D02*
X235500Y2222280D01*
X54500Y2221280D02*
X237500Y2221280D01*
X53500Y2220280D02*
X238500Y2220280D01*
X51500Y2219280D02*
X239500Y2219280D01*
X50500Y2218280D02*
X240500Y2218280D01*
X49500Y2217280D02*
X242500Y2217280D01*
X48500Y2216280D02*
X243500Y2216280D01*
X47500Y2215280D02*
X244500Y2215280D01*
X46500Y2214280D02*
X245500Y2214280D01*
X45500Y2213280D02*
X246500Y2213280D01*
X44500Y2212280D02*
X247500Y2212280D01*
X43500Y2211280D02*
X248500Y2211280D01*
X42500Y2210280D02*
X249500Y2210280D01*
X41500Y2209280D02*
X250500Y2209280D01*
X40500Y2208280D02*
X251500Y2208280D01*
X39500Y2207280D02*
X252500Y2207280D01*
X38500Y2206280D02*
X253500Y2206280D01*
X37500Y2205280D02*
X254500Y2205280D01*
X36500Y2204280D02*
X255500Y2204280D01*
X35500Y2203280D02*
X256500Y2203280D01*
X34500Y2202280D02*
X256500Y2202280D01*
X33500Y2201280D02*
X257500Y2201280D01*
X33500Y2200280D02*
X258500Y2200280D01*
X32500Y2199280D02*
X259500Y2199280D01*
X31500Y2198280D02*
X260500Y2198280D01*
X30500Y2197280D02*
X260500Y2197280D01*
X30500Y2196280D02*
X261500Y2196280D01*
X29500Y2195280D02*
X262500Y2195280D01*
X28500Y2194280D02*
X263500Y2194280D01*
X27500Y2193280D02*
X263500Y2193280D01*
X27500Y2192280D02*
X264500Y2192280D01*
X26500Y2191280D02*
X265500Y2191280D01*
X25500Y2190280D02*
X265500Y2190280D01*
X25500Y2189280D02*
X266500Y2189280D01*
X24500Y2188280D02*
X267500Y2188280D01*
X23500Y2187280D02*
X267500Y2187280D01*
X23500Y2186280D02*
X268500Y2186280D01*
X22500Y2185280D02*
X269500Y2185280D01*
X21500Y2184280D02*
X269500Y2184280D01*
X21500Y2183280D02*
X270500Y2183280D01*
X20500Y2182280D02*
X271500Y2182280D01*
X19500Y2181280D02*
X271500Y2181280D01*
X19500Y2180280D02*
X272500Y2180280D01*
X18500Y2179280D02*
X272500Y2179280D01*
X18500Y2178280D02*
X273500Y2178280D01*
X17500Y2177280D02*
X274500Y2177280D01*
X17500Y2176280D02*
X274500Y2176280D01*
X16500Y2175280D02*
X275500Y2175280D01*
X16500Y2174280D02*
X275500Y2174280D01*
X15500Y2173280D02*
X276500Y2173280D01*
X14500Y2172280D02*
X276500Y2172280D01*
X14500Y2171280D02*
X277500Y2171280D01*
X13500Y2170280D02*
X277500Y2170280D01*
X13500Y2169280D02*
X278500Y2169280D01*
X13500Y2168280D02*
X278500Y2168280D01*
X12500Y2167280D02*
X279500Y2167280D01*
X12500Y2166280D02*
X279500Y2166280D01*
X11500Y2165280D02*
X280500Y2165280D01*
X11500Y2164280D02*
X280500Y2164280D01*
X10500Y2163280D02*
X280500Y2163280D01*
X10500Y2162280D02*
X281500Y2162280D01*
X10500Y2161280D02*
X281500Y2161280D01*
X9500Y2160280D02*
X282500Y2160280D01*
X9500Y2159280D02*
X282500Y2159280D01*
X8500Y2158280D02*
X282500Y2158280D01*
X8500Y2157280D02*
X283500Y2157280D01*
X8500Y2156280D02*
X283500Y2156280D01*
X7500Y2155280D02*
X283500Y2155280D01*
X7500Y2154280D02*
X284500Y2154280D01*
X7500Y2153280D02*
X284500Y2153280D01*
X6500Y2152280D02*
X284500Y2152280D01*
X6500Y2151280D02*
X285500Y2151280D01*
X6500Y2150280D02*
X285500Y2150280D01*
X5500Y2149280D02*
X285500Y2149280D01*
X5500Y2148280D02*
X286500Y2148280D01*
X5500Y2147280D02*
X286500Y2147280D01*
X5500Y2146280D02*
X286500Y2146280D01*
X4500Y2145280D02*
X286500Y2145280D01*
X4500Y2144280D02*
X287500Y2144280D01*
X4500Y2143280D02*
X287500Y2143280D01*
X3500Y2142280D02*
X287500Y2142280D01*
X3500Y2141280D02*
X287500Y2141280D01*
X3500Y2140280D02*
X288500Y2140280D01*
X3500Y2139280D02*
X288500Y2139280D01*
X3500Y2138280D02*
X288500Y2138280D01*
X2500Y2137280D02*
X288500Y2137280D01*
X2500Y2136280D02*
X289500Y2136280D01*
X2500Y2135280D02*
X289500Y2135280D01*
X2500Y2134280D02*
X289500Y2134280D01*
X2500Y2133280D02*
X289500Y2133280D01*
X1500Y2132280D02*
X289500Y2132280D01*
X1500Y2131280D02*
X290500Y2131280D01*
X1500Y2130280D02*
X290500Y2130280D01*
X1500Y2129280D02*
X290500Y2129280D01*
X1500Y2128280D02*
X290500Y2128280D01*
X1500Y2127280D02*
X290500Y2127280D01*
X1500Y2126280D02*
X290500Y2126280D01*
X500Y2125280D02*
X290500Y2125280D01*
X500Y2124280D02*
X290500Y2124280D01*
X500Y2123280D02*
X291500Y2123280D01*
X500Y2122280D02*
X291500Y2122280D01*
X500Y2121280D02*
X291500Y2121280D01*
X500Y2120280D02*
X291500Y2120280D01*
X500Y2119280D02*
X291500Y2119280D01*
X500Y2118280D02*
X291500Y2118280D01*
X500Y2117280D02*
X291500Y2117280D01*
X500Y2116280D02*
X291500Y2116280D01*
X500Y2115280D02*
X291500Y2115280D01*
X500Y2114280D02*
X291500Y2114280D01*
X500Y2113280D02*
X291500Y2113280D01*
X500Y2112280D02*
X291500Y2112280D01*
X500Y2111280D02*
X291500Y2111280D01*
X500Y2110280D02*
X291500Y2110280D01*
X500Y2109280D02*
X291500Y2109280D01*
X500Y2108280D02*
X292500Y2108280D01*
X500Y2107280D02*
X292500Y2107280D01*
X500Y2106280D02*
X292500Y2106280D01*
X500Y2105280D02*
X291500Y2105280D01*
X500Y2104280D02*
X291500Y2104280D01*
X500Y2103280D02*
X291500Y2103280D01*
X500Y2102280D02*
X291500Y2102280D01*
X500Y2101280D02*
X291500Y2101280D01*
X500Y2100280D02*
X291500Y2100280D01*
X500Y2099280D02*
X291500Y2099280D01*
X500Y2098280D02*
X291500Y2098280D01*
X500Y2097280D02*
X291500Y2097280D01*
X500Y2096280D02*
X291500Y2096280D01*
X500Y2095280D02*
X291500Y2095280D01*
X500Y2094280D02*
X291500Y2094280D01*
X500Y2093280D02*
X291500Y2093280D01*
X500Y2092280D02*
X291500Y2092280D01*
X500Y2091280D02*
X291500Y2091280D01*
X500Y2090280D02*
X290500Y2090280D01*
X500Y2089280D02*
X290500Y2089280D01*
X500Y2088280D02*
X290500Y2088280D01*
X1500Y2087280D02*
X290500Y2087280D01*
X1500Y2086280D02*
X290500Y2086280D01*
X1500Y2085280D02*
X290500Y2085280D01*
X1500Y2084280D02*
X290500Y2084280D01*
X1500Y2083280D02*
X290500Y2083280D01*
X1500Y2082280D02*
X289500Y2082280D01*
X2500Y2081280D02*
X289500Y2081280D01*
X2500Y2080280D02*
X289500Y2080280D01*
X2500Y2079280D02*
X289500Y2079280D01*
X2500Y2078280D02*
X289500Y2078280D01*
X2500Y2077280D02*
X288500Y2077280D01*
X2500Y2076280D02*
X288500Y2076280D01*
X3500Y2075280D02*
X288500Y2075280D01*
X3500Y2074280D02*
X288500Y2074280D01*
X3500Y2073280D02*
X288500Y2073280D01*
X3500Y2072280D02*
X287500Y2072280D01*
X4500Y2071280D02*
X287500Y2071280D01*
X4500Y2070280D02*
X287500Y2070280D01*
X4500Y2069280D02*
X287500Y2069280D01*
X4500Y2068280D02*
X286500Y2068280D01*
X5500Y2067280D02*
X286500Y2067280D01*
X5500Y2066280D02*
X286500Y2066280D01*
X5500Y2065280D02*
X285500Y2065280D01*
X6500Y2064280D02*
X285500Y2064280D01*
X6500Y2063280D02*
X285500Y2063280D01*
X6500Y2062280D02*
X284500Y2062280D01*
X7500Y2061280D02*
X284500Y2061280D01*
X7500Y2060280D02*
X284500Y2060280D01*
X7500Y2059280D02*
X283500Y2059280D01*
X8500Y2058280D02*
X283500Y2058280D01*
X8500Y2057280D02*
X283500Y2057280D01*
X8500Y2056280D02*
X282500Y2056280D01*
X9500Y2055280D02*
X282500Y2055280D01*
X9500Y2054280D02*
X282500Y2054280D01*
X9500Y2053280D02*
X281500Y2053280D01*
X10500Y2052280D02*
X281500Y2052280D01*
X10500Y2051280D02*
X280500Y2051280D01*
X11500Y2050280D02*
X280500Y2050280D01*
X11500Y2049280D02*
X280500Y2049280D01*
X12500Y2048280D02*
X279500Y2048280D01*
X12500Y2047280D02*
X279500Y2047280D01*
X12500Y2046280D02*
X278500Y2046280D01*
X13500Y2045280D02*
X278500Y2045280D01*
X13500Y2044280D02*
X277500Y2044280D01*
X14500Y2043280D02*
X277500Y2043280D01*
X14500Y2042280D02*
X276500Y2042280D01*
X15500Y2041280D02*
X276500Y2041280D01*
X15500Y2040280D02*
X275500Y2040280D01*
X16500Y2039280D02*
X275500Y2039280D01*
X16500Y2038280D02*
X274500Y2038280D01*
X17500Y2037280D02*
X274500Y2037280D01*
X18500Y2036280D02*
X273500Y2036280D01*
X18500Y2035280D02*
X273500Y2035280D01*
X19500Y2034280D02*
X272500Y2034280D01*
X19500Y2033280D02*
X271500Y2033280D01*
X20500Y2032280D02*
X271500Y2032280D01*
X21500Y2031280D02*
X270500Y2031280D01*
X21500Y2030280D02*
X270500Y2030280D01*
X22500Y2029280D02*
X269500Y2029280D01*
X22500Y2028280D02*
X268500Y2028280D01*
X23500Y2027280D02*
X268500Y2027280D01*
X24500Y2026280D02*
X267500Y2026280D01*
X24500Y2025280D02*
X266500Y2025280D01*
X25500Y2024280D02*
X266500Y2024280D01*
X26500Y2023280D02*
X265500Y2023280D01*
X27500Y2022280D02*
X264500Y2022280D01*
X27500Y2021280D02*
X263500Y2021280D01*
X28500Y2020280D02*
X263500Y2020280D01*
X29500Y2019280D02*
X262500Y2019280D01*
X29500Y2018280D02*
X261500Y2018280D01*
X30500Y2017280D02*
X261500Y2017280D01*
X31500Y2016280D02*
X260500Y2016280D01*
X32500Y2015280D02*
X259500Y2015280D01*
X33500Y2014280D02*
X258500Y2014280D01*
X33500Y2013280D02*
X257500Y2013280D01*
X34500Y2012280D02*
X257500Y2012280D01*
X35500Y2011280D02*
X256500Y2011280D01*
X36500Y2010280D02*
X255500Y2010280D01*
X37500Y2009280D02*
X254500Y2009280D01*
X38500Y2008280D02*
X253500Y2008280D01*
X39500Y2007280D02*
X252500Y2007280D01*
X39500Y2006280D02*
X251500Y2006280D01*
X40500Y2005280D02*
X250500Y2005280D01*
X41500Y2004280D02*
X249500Y2004280D01*
X42500Y2003280D02*
X248500Y2003280D01*
X43500Y2002280D02*
X247500Y2002280D01*
X44500Y2001280D02*
X246500Y2001280D01*
X46500Y2000280D02*
X245500Y2000280D01*
X47500Y1999280D02*
X244500Y1999280D01*
X48500Y1998280D02*
X243500Y1998280D01*
X49500Y1997280D02*
X242500Y1997280D01*
X50500Y1996280D02*
X241500Y1996280D01*
X51500Y1995280D02*
X239500Y1995280D01*
X52500Y1994280D02*
X238500Y1994280D01*
X54500Y1993280D02*
X237500Y1993280D01*
X55500Y1992280D02*
X236500Y1992280D01*
X56500Y1991280D02*
X234500Y1991280D01*
X58500Y1990280D02*
X233500Y1990280D01*
X59500Y1989280D02*
X232500Y1989280D01*
X60500Y1988280D02*
X230500Y1988280D01*
X62500Y1987280D02*
X229500Y1987280D01*
X63500Y1986280D02*
X228500Y1986280D01*
X65500Y1985280D02*
X226500Y1985280D01*
X66500Y1984280D02*
X225500Y1984280D01*
X68500Y1983280D02*
X223500Y1983280D01*
X69500Y1982280D02*
X221500Y1982280D01*
X71500Y1981280D02*
X220500Y1981280D01*
X73500Y1980280D02*
X218500Y1980280D01*
X74500Y1979280D02*
X216500Y1979280D01*
X76500Y1978280D02*
X215500Y1978280D01*
X78500Y1977280D02*
X213500Y1977280D01*
X80500Y1976280D02*
X211500Y1976280D01*
X82500Y1975280D02*
X209500Y1975280D01*
X84500Y1974280D02*
X207500Y1974280D01*
X86500Y1973280D02*
X205500Y1973280D01*
X88500Y1972280D02*
X202500Y1972280D01*
X91500Y1971280D02*
X200500Y1971280D01*
X93500Y1970280D02*
X197500Y1970280D01*
X96500Y1969280D02*
X195500Y1969280D01*
X99500Y1968280D02*
X192500Y1968280D01*
X102500Y1967280D02*
X189500Y1967280D01*
X105500Y1966280D02*
X185500Y1966280D01*
X109500Y1965280D02*
X182500Y1965280D01*
X113500Y1964280D02*
X178500Y1964280D01*
X118500Y1963280D02*
X173500Y1963280D01*
X123500Y1962280D02*
X167500Y1962280D01*
X131500Y1961280D02*
X159500Y1961280D01*
D02*
G04 End of Mask1*
M02*