; NON-PLATED HOLES START AT T1
; THROUGH (PLATED) HOLES START AT T100
M48
INCH
T100C0.040000
T101C0.125984
T102C0.038000
%
T100
X005427Y002961
X019175Y002961
X012089Y002961
X003427Y002961
X009758Y002961
X021175Y002961
X014089Y002961
X007758Y002961
T101
X001459Y021071
X021144Y021071
T102
X020129Y001780
X012270Y001780
X019144Y013197
X020144Y013197
X004396Y001780
X017144Y013197
X018129Y001780
X014144Y013197
X005396Y001780
X016144Y013197
X017129Y001780
X013270Y001780
X015144Y013197
X016129Y001780
X013144Y013197
X009333Y001780
X008333Y001780
X021144Y013197
X021129Y001780
X012144Y013197
X019129Y001780
X018144Y013197
T00
M30
